<svg width="1782" height="433" viewBox="0 0 1782 433" fill="none" xmlns="http://www.w3.org/2000/svg">
<path d="M234.963 95.8182H291.852L351.938 242.409H354.494L414.58 95.8182H471.469V314H426.724V171.99H424.913L368.45 312.935H337.982L281.518 171.457H279.707V314H234.963V95.8182ZM496.691 95.8182H548.36L598.111 189.781H600.242L649.993 95.8182H701.662L622.081 236.869V314H576.272V236.869L496.691 95.8182ZM701.769 275.648V239.32L792.855 95.8182H824.176V146.102H805.64L748.218 236.976V238.68H877.657V275.648H701.769ZM806.492 314V264.568L807.344 248.482V95.8182H850.597V314H806.492ZM901.36 133.851V95.8182H1080.55V133.851H1013.75V314H968.157V133.851H901.36ZM1156.19 95.8182V314H1110.06V95.8182H1156.19ZM1194.14 314V95.8182H1280.22C1296.77 95.8182 1310.87 98.9787 1322.52 105.3C1334.16 111.55 1343.04 120.25 1349.15 131.401C1355.33 142.48 1358.42 155.264 1358.42 169.753C1358.42 184.241 1355.29 197.026 1349.04 208.105C1342.79 219.185 1333.74 227.814 1321.88 233.993C1310.09 240.172 1295.81 243.261 1279.05 243.261H1224.19V206.294H1271.59C1280.47 206.294 1287.79 204.767 1293.54 201.713C1299.36 198.588 1303.7 194.291 1306.54 188.822C1309.45 183.283 1310.9 176.926 1310.9 169.753C1310.9 162.509 1309.45 156.187 1306.54 150.79C1303.7 145.321 1299.36 141.095 1293.54 138.112C1287.72 135.058 1280.33 133.531 1271.38 133.531H1240.27V314H1194.14ZM1506.74 158.567C1505.89 149.973 1502.23 143.297 1495.77 138.538C1489.3 133.78 1480.53 131.401 1469.45 131.401C1461.93 131.401 1455.57 132.466 1450.38 134.597C1445.2 136.656 1441.22 139.533 1438.45 143.226C1435.75 146.919 1434.4 151.109 1434.4 155.797C1434.26 159.703 1435.08 163.112 1436.85 166.024C1438.7 168.936 1441.22 171.457 1444.42 173.588C1447.61 175.648 1451.31 177.459 1455.5 179.021C1459.69 180.513 1464.16 181.791 1468.92 182.857L1488.52 187.544C1498.04 189.675 1506.78 192.516 1514.73 196.067C1522.69 199.618 1529.57 203.986 1535.4 209.17C1541.22 214.355 1545.73 220.463 1548.93 227.494C1552.19 234.526 1553.86 242.587 1553.94 251.678C1553.86 265.03 1550.45 276.607 1543.71 286.408C1537.03 296.138 1527.37 303.702 1514.73 309.099C1502.16 314.426 1487 317.089 1469.24 317.089C1451.63 317.089 1436.29 314.391 1423.22 308.993C1410.22 303.595 1400.06 295.605 1392.75 285.023C1385.5 274.369 1381.7 261.195 1381.35 245.499H1425.99C1426.48 252.814 1428.58 258.922 1432.27 263.822C1436.04 268.652 1441.04 272.31 1447.29 274.795C1453.62 277.21 1460.75 278.418 1468.71 278.418C1476.52 278.418 1483.3 277.281 1489.06 275.009C1494.88 272.736 1499.39 269.575 1502.59 265.527C1505.78 261.479 1507.38 256.827 1507.38 251.571C1507.38 246.67 1505.92 242.551 1503.01 239.213C1500.17 235.875 1495.98 233.034 1490.44 230.69C1484.97 228.347 1478.26 226.216 1470.31 224.298L1446.55 218.332C1428.15 213.858 1413.63 206.862 1402.98 197.345C1392.32 187.828 1387.03 175.009 1387.1 158.886C1387.03 145.676 1390.55 134.135 1397.65 124.263C1404.82 114.391 1414.66 106.685 1427.16 101.145C1439.66 95.6051 1453.86 92.8352 1469.77 92.8352C1485.97 92.8352 1500.1 95.6051 1512.17 101.145C1524.32 106.685 1533.76 114.391 1540.51 124.263C1547.26 134.135 1550.74 145.57 1550.95 158.567H1506.74Z" fill="white"/>
<path d="M1781.64 210.35V222.11C1781.64 226.63 1779.38 228.893 1774.85 228.9C1738.66 228.9 1732.33 246.09 1732.33 276.4V374.56C1732.33 411.2 1723.28 432.46 1675.78 432.46C1671.26 432.46 1669 430.2 1669 425.68V413.91C1669 409.39 1671.26 407.13 1675.78 407.13C1699.31 407.13 1704.28 394.46 1704.28 372.75V286.35C1704.28 250.16 1711.07 225.73 1743.19 217.14V215.33C1711.07 206.28 1704.28 181.85 1704.28 146.11V59.71C1704.28 38 1699.28 25.33 1675.78 25.33C1671.26 25.33 1669 23.07 1669 18.55V6.79C1669 2.26333 1671.26 0 1675.78 0C1723.28 0 1732.33 21.26 1732.33 57.9V156.07C1732.33 185.92 1738.66 203.56 1774.85 203.56C1779.38 203.56 1781.64 205.823 1781.64 210.35Z" fill="#2E5668"/>
<path d="M0 210.35V222.11C0 226.63 2.26337 228.893 6.79004 228.9C42.98 228.9 49.3101 246.09 49.3101 276.4V374.56C49.3101 411.2 58.3601 432.46 105.86 432.46C110.38 432.46 112.64 430.2 112.64 425.68V413.91C112.64 409.39 110.38 407.13 105.86 407.13C82.3301 407.13 77.3601 394.46 77.3601 372.75V286.35C77.3601 250.16 70.57 225.73 38.45 217.14V215.33C70.57 206.28 77.3601 181.85 77.3601 146.11V59.71C77.3601 38 82.3601 25.33 105.86 25.33C110.38 25.33 112.64 23.07 112.64 18.55V6.79C112.64 2.26333 110.38 0 105.86 0C58.3601 0 49.3101 21.26 49.3101 57.9V156.07C49.3101 185.92 42.98 203.56 6.79004 203.56C2.26337 203.56 0 205.823 0 210.35Z" fill="#2E5668"/>
</svg>
