<svg width="1760" height="354" viewBox="0 0 1760 354" fill="none" xmlns="http://www.w3.org/2000/svg">
<path d="M16.1262 159.262C14.044 159.914 11.8268 160.006 9.69779 159.528C7.56879 159.051 5.60326 158.021 3.99919 156.541C2.39513 155.062 1.20919 153.187 0.560825 151.103C-0.0875411 149.02 -0.17543 146.803 0.306018 144.674C7.52972 114.622 34.9976 41.128 135.064 10.2165C178.409 -3.17319 219.978 -3.40177 258.564 9.53211C290.308 20.1284 311.381 36.7103 321.461 44.7249C324.022 46.7511 325.673 49.7117 326.052 52.9555C326.43 56.1992 325.504 59.4603 323.478 62.0215C323.453 62.0532 323.427 62.0848 323.402 62.1163C321.321 64.6853 318.314 66.3338 315.03 66.7067C311.745 67.0796 308.445 66.1469 305.841 64.1096C287.578 49.72 232.157 6.00455 142.334 33.7516C54.628 60.8449 30.8034 124.218 24.624 150.145C24.1547 152.287 23.1184 154.263 21.6234 155.867C20.1284 157.471 18.2298 158.644 16.1263 159.262L16.1262 159.262Z" fill="url(#paint0_linear_429_2)"/>
<path d="M288.866 329.481C287.872 329.803 286.842 329.996 285.799 330.058C207.624 334.268 157.885 269.323 155.843 266.615L155.465 265.99C154.218 264.057 124.123 218.268 137.372 181.902C143.458 165.277 156.916 153.608 177.489 147.253C196.621 141.343 212.278 143.091 225.604 152.607C236.53 160.36 243.533 171.921 250.321 183.086C264.437 206.268 273.088 218.063 299.92 211.258C311.702 208.268 317.203 199.057 319.716 191.882C326.482 172.357 320.485 145.739 304.62 125.601C284.122 99.4749 226.76 56.0808 155.986 77.9438C125.762 87.2799 101.028 105.678 84.4639 131.012C70.7418 152.036 62.7646 178.148 62.5897 202.499C62.3143 247.84 99.4738 307.491 99.8262 308.031C100.682 309.399 101.259 310.923 101.526 312.515C101.793 314.107 101.744 315.735 101.381 317.308C101.018 318.881 100.349 320.367 99.4125 321.681C98.4756 322.995 97.289 324.112 95.9204 324.967C95.8825 324.991 95.8444 325.015 95.8061 325.038C93.0023 326.787 89.6231 327.362 86.3984 326.641C83.1736 325.919 80.3622 323.958 78.5711 321.181C76.8939 318.453 37.2155 254.851 37.5351 202.449C37.9801 145.649 72.4965 77.8605 148.689 54.3239C183.907 43.4447 220.918 45.2733 255.747 59.5533C282.742 70.689 307.726 89.1232 324.244 110.173C345.341 137.041 352.774 172.21 343.17 199.66C336.767 217.959 323.511 230.586 305.894 235.101C259.981 246.78 241.994 217.374 228.876 195.924C215.406 173.933 207.955 163.622 184.674 170.814C171.891 174.763 164.015 181.091 160.703 190.182C156.196 202.61 160.467 218.54 164.844 229.707C164.89 229.824 164.935 229.94 164.981 230.057C170.592 244.251 179.35 256.988 190.594 267.309C208.606 283.943 242.045 307.656 284.664 305.369C287.922 305.167 291.127 306.267 293.574 308.428C296.021 310.589 297.51 313.633 297.712 316.891C297.714 316.931 297.717 316.97 297.719 317.009C297.819 319.772 297.006 322.491 295.406 324.745C293.806 327 291.507 328.664 288.866 329.481L288.866 329.481Z" fill="url(#paint1_linear_429_2)"/>
<path d="M194.068 352.83C192.439 353.334 190.724 353.503 189.027 353.326C187.331 353.148 185.688 352.629 184.198 351.799C145.641 329.953 118.573 300.57 99.0818 259.388L99.0034 259.134C86.7192 231.676 79.3244 189.725 95.6362 154.268C107.678 128.106 130.283 109.717 162.707 99.7007C201.057 87.8539 236.766 96.5762 266.073 124.803C279.402 137.831 290.241 153.182 298.057 170.102C299.303 173.146 299.301 176.558 298.051 179.601C296.8 182.643 294.402 185.071 291.376 186.359C288.349 187.648 284.937 187.693 281.878 186.485C278.818 185.277 276.357 182.914 275.027 179.905C268.408 165.784 259.27 152.988 248.06 142.145C225.471 120.653 199.21 114.298 169.918 123.347C144.606 131.166 127.175 144.99 118.253 164.438C105.385 192.432 112.01 227.388 121.623 248.901C138.81 285.324 162.649 311.159 196.584 330.352C197.986 331.143 199.218 332.202 200.211 333.469C201.203 334.736 201.937 336.186 202.369 337.736C202.801 339.286 202.924 340.906 202.73 342.504C202.536 344.102 202.029 345.645 201.239 347.047C201.207 347.103 201.175 347.158 201.143 347.213C199.563 349.897 197.041 351.899 194.068 352.83V352.83Z" fill="url(#paint2_linear_429_2)"/>
<path d="M198.128 229.717C206.937 229.717 214.077 222.577 214.077 213.768C214.077 204.96 206.937 197.819 198.128 197.819C189.32 197.819 182.179 204.96 182.179 213.768C182.179 222.577 189.32 229.717 198.128 229.717Z" fill="#F5F5F5"/>
<path d="M470.48 220.82C470.36 223.46 469.34 225.68 467.42 227.48C465.62 229.16 463.46 230 460.94 230C458.18 230 455.9 229.16 454.1 227.48C452.42 225.68 451.58 223.46 451.58 220.82V113.18C451.58 110.54 452.48 108.38 454.28 106.7C456.08 104.9 458.42 104 461.3 104C463.7 104 465.8 104.9 467.6 106.7C469.52 108.38 470.48 110.54 470.48 113.18V220.82ZM591.368 103.64C593.888 103.64 596.048 104.48 597.848 106.16C599.648 107.84 600.548 109.88 600.548 112.28C600.548 113.6 600.248 114.98 599.648 116.42L554.108 224.06C553.148 226.1 551.828 227.6 550.148 228.56C548.588 229.52 546.968 230 545.288 230C543.608 229.88 541.988 229.34 540.428 228.38C538.988 227.42 537.848 226.04 537.008 224.24L491.468 116.42C491.228 115.82 491.048 115.22 490.928 114.62C490.808 113.9 490.748 113.18 490.748 112.46C490.748 109.7 491.768 107.54 493.808 105.98C495.848 104.42 497.828 103.64 499.748 103.64C503.588 103.64 506.408 105.62 508.208 109.58L549.428 207.32H544.208L583.088 109.4C584.768 105.56 587.528 103.64 591.368 103.64ZM659.705 127.4L619.205 224.6C618.485 226.52 617.405 228.02 615.965 229.1C614.525 230.18 612.905 230.72 611.105 230.72C608.465 230.72 606.485 230 605.165 228.56C603.845 227 603.125 225.08 603.005 222.8C603.005 221.96 603.185 221 603.545 219.92L649.265 109.4C650.105 107.36 651.305 105.8 652.865 104.72C654.545 103.64 656.345 103.16 658.265 103.28C660.065 103.28 661.745 103.82 663.305 104.9C664.865 105.98 666.005 107.48 666.725 109.4L711.905 218.3C712.385 219.5 712.625 220.7 712.625 221.9C712.625 224.54 711.725 226.7 709.925 228.38C708.245 229.94 706.325 230.72 704.165 230.72C702.365 230.72 700.685 230.18 699.125 229.1C697.685 227.9 696.605 226.4 695.885 224.6L655.025 127.94L659.705 127.4ZM626.405 199.04L634.505 181.76H685.445L688.505 199.04H626.405ZM824.693 104C827.093 104 829.013 104.84 830.453 106.52C832.013 108.08 832.793 110.06 832.793 112.46V220.82C832.793 223.46 831.893 225.68 830.093 227.48C828.413 229.16 826.253 230 823.613 230C822.413 230 821.093 229.76 819.653 229.28C818.333 228.8 817.313 228.14 816.593 227.3L742.613 131.36L746.753 129.02V221.72C746.753 224 745.973 225.98 744.413 227.66C742.853 229.22 740.873 230 738.473 230C735.953 230 733.913 229.22 732.353 227.66C730.913 225.98 730.193 224 730.193 221.72V113.18C730.193 110.42 731.093 108.2 732.893 106.52C734.693 104.84 736.853 104 739.373 104C740.693 104 742.073 104.3 743.513 104.9C745.073 105.38 746.213 106.16 746.933 107.24L819.113 201.2L816.413 203.72V112.46C816.413 110.06 817.193 108.08 818.753 106.52C820.313 104.84 822.293 104 824.693 104ZM963.063 104C969.423 104 975.303 105.74 980.703 109.22C986.103 112.58 990.423 117.2 993.663 123.08C996.903 128.96 998.523 135.56 998.523 142.88C998.523 150.2 996.903 156.86 993.663 162.86C990.423 168.74 986.103 173.48 980.703 177.08C975.303 180.56 969.423 182.3 963.063 182.3H928.323L929.763 179.42V220.82C929.763 223.46 928.923 225.68 927.243 227.48C925.683 229.16 923.583 230 920.943 230C918.423 230 916.323 229.16 914.643 227.48C913.083 225.68 912.303 223.46 912.303 220.82V113.18C912.303 110.54 913.203 108.38 915.003 106.7C916.803 104.9 918.963 104 921.483 104H963.063ZM963.063 165.02C966.183 165.02 969.003 164 971.523 161.96C974.163 159.92 976.263 157.22 977.823 153.86C979.503 150.5 980.343 146.84 980.343 142.88C980.343 138.92 979.503 135.32 977.823 132.08C976.263 128.84 974.163 126.26 971.523 124.34C969.003 122.3 966.183 121.28 963.063 121.28H927.963L929.763 118.58V167.36L928.143 165.02H963.063ZM1029.59 104H1091.87C1094.39 104 1096.49 104.84 1098.17 106.52C1099.97 108.2 1100.87 110.3 1100.87 112.82C1100.87 115.34 1099.97 117.38 1098.17 118.94C1096.49 120.5 1094.39 121.28 1091.87 121.28H1037.51L1039.31 118.22V158.54L1037.69 156.74H1083.77C1086.29 156.74 1088.39 157.58 1090.07 159.26C1091.87 160.94 1092.77 163.1 1092.77 165.74C1092.77 168.26 1091.87 170.3 1090.07 171.86C1088.39 173.42 1086.29 174.2 1083.77 174.2H1038.05L1039.31 172.58V214.16L1038.05 212.72H1091.87C1094.39 212.72 1096.49 213.62 1098.17 215.42C1099.97 217.1 1100.87 219.08 1100.87 221.36C1100.87 223.88 1099.97 225.98 1098.17 227.66C1096.49 229.22 1094.39 230 1091.87 230H1029.59C1027.07 230 1024.91 229.16 1023.11 227.48C1021.31 225.68 1020.41 223.46 1020.41 220.82V113.18C1020.41 110.54 1021.31 108.38 1023.11 106.7C1024.91 104.9 1027.07 104 1029.59 104ZM1164.28 230C1161.4 230 1159.06 229.16 1157.26 227.48C1155.58 225.68 1154.74 223.46 1154.74 220.82V113H1174V220.82C1174 223.46 1173.04 225.68 1171.12 227.48C1169.32 229.16 1167.04 230 1164.28 230ZM1123.42 121.28C1120.9 121.28 1118.74 120.5 1116.94 118.94C1115.14 117.26 1114.24 115.1 1114.24 112.46C1114.24 109.94 1115.14 107.9 1116.94 106.34C1118.74 104.78 1120.9 104 1123.42 104H1205.32C1207.84 104 1209.94 104.84 1211.62 106.52C1213.42 108.08 1214.32 110.12 1214.32 112.64C1214.32 115.28 1213.42 117.38 1211.62 118.94C1209.94 120.5 1207.84 121.28 1205.32 121.28H1123.42ZM1245.49 230C1242.61 230 1240.09 229.16 1237.93 227.48C1235.77 225.68 1234.69 223.46 1234.69 220.82V113.18C1234.69 110.54 1235.59 108.38 1237.39 106.7C1239.19 104.9 1241.35 104 1243.87 104H1294.63C1301.11 104 1307.05 105.62 1312.45 108.86C1317.85 111.98 1322.17 116.36 1325.41 122C1328.77 127.52 1330.45 133.88 1330.45 141.08C1330.45 145.88 1329.49 150.5 1327.57 154.94C1325.65 159.26 1323.07 163.1 1319.83 166.46C1316.59 169.82 1312.93 172.34 1308.85 174.02L1306.87 170.6C1310.59 171.92 1313.83 173.84 1316.59 176.36C1319.35 178.76 1321.51 181.64 1323.07 185C1324.75 188.24 1325.65 191.96 1325.77 196.16C1326.13 199.88 1326.43 203 1326.67 205.52C1327.03 207.92 1327.51 209.9 1328.11 211.46C1328.71 213.02 1329.79 214.22 1331.35 215.06C1333.51 216.26 1334.83 218.06 1335.31 220.46C1335.91 222.86 1335.43 225.02 1333.87 226.94C1332.79 228.38 1331.41 229.34 1329.73 229.82C1328.17 230.18 1326.55 230.24 1324.87 230C1323.19 229.64 1321.75 229.16 1320.55 228.56C1318.63 227.36 1316.65 225.68 1314.61 223.52C1312.69 221.24 1311.13 218.12 1309.93 214.16C1308.73 210.2 1308.13 204.98 1308.13 198.5C1308.13 195.5 1307.65 192.92 1306.69 190.76C1305.73 188.6 1304.41 186.86 1302.73 185.54C1301.05 184.1 1299.07 183.08 1296.79 182.48C1294.51 181.76 1291.99 181.4 1289.23 181.4H1251.07L1253.59 177.8V220.82C1253.59 223.46 1252.87 225.68 1251.43 227.48C1249.99 229.16 1248.01 230 1245.49 230ZM1251.25 165.74H1294.27C1297.03 165.62 1299.67 164.54 1302.19 162.5C1304.83 160.34 1306.93 157.46 1308.49 153.86C1310.17 150.26 1311.01 146.18 1311.01 141.62C1311.01 135.86 1309.27 131.06 1305.79 127.22C1302.43 123.26 1298.41 121.28 1293.73 121.28H1251.61L1253.59 116.6V169.52L1251.25 165.74ZM1470.29 167C1470.29 176.12 1468.79 184.64 1465.79 192.56C1462.79 200.36 1458.53 207.2 1453.01 213.08C1447.61 218.96 1441.19 223.58 1433.75 226.94C1426.31 230.18 1418.15 231.8 1409.27 231.8C1400.51 231.8 1392.41 230.18 1384.97 226.94C1377.53 223.58 1371.05 218.96 1365.53 213.08C1360.13 207.2 1355.93 200.36 1352.93 192.56C1350.05 184.64 1348.61 176.12 1348.61 167C1348.61 157.88 1350.05 149.42 1352.93 141.62C1355.93 133.7 1360.13 126.8 1365.53 120.92C1371.05 115.04 1377.53 110.48 1384.97 107.24C1392.41 103.88 1400.51 102.2 1409.27 102.2C1418.15 102.2 1426.31 103.88 1433.75 107.24C1441.19 110.48 1447.61 115.04 1453.01 120.92C1458.53 126.8 1462.79 133.7 1465.79 141.62C1468.79 149.42 1470.29 157.88 1470.29 167ZM1450.85 167C1450.85 158.12 1449.05 150.14 1445.45 143.06C1441.97 135.98 1437.11 130.4 1430.87 126.32C1424.63 122.24 1417.43 120.2 1409.27 120.2C1401.23 120.2 1394.09 122.24 1387.85 126.32C1381.61 130.4 1376.75 135.98 1373.27 143.06C1369.79 150.02 1368.05 158 1368.05 167C1368.05 175.88 1369.79 183.86 1373.27 190.94C1376.75 198.02 1381.61 203.6 1387.85 207.68C1394.09 211.76 1401.23 213.8 1409.27 213.8C1417.43 213.8 1424.63 211.76 1430.87 207.68C1437.11 203.6 1441.97 198.02 1445.45 190.94C1449.05 183.86 1450.85 175.88 1450.85 167ZM1582.25 103.64C1584.77 103.64 1586.93 104.48 1588.73 106.16C1590.53 107.84 1591.43 109.88 1591.43 112.28C1591.43 113.6 1591.13 114.98 1590.53 116.42L1544.99 224.06C1544.03 226.1 1542.71 227.6 1541.03 228.56C1539.47 229.52 1537.85 230 1536.17 230C1534.49 229.88 1532.87 229.34 1531.31 228.38C1529.87 227.42 1528.73 226.04 1527.89 224.24L1482.35 116.42C1482.11 115.82 1481.93 115.22 1481.81 114.62C1481.69 113.9 1481.63 113.18 1481.63 112.46C1481.63 109.7 1482.65 107.54 1484.69 105.98C1486.73 104.42 1488.71 103.64 1490.63 103.64C1494.47 103.64 1497.29 105.62 1499.09 109.58L1540.31 207.32H1535.09L1573.97 109.4C1575.65 105.56 1578.41 103.64 1582.25 103.64ZM1630.64 220.82C1630.52 223.46 1629.5 225.68 1627.58 227.48C1625.78 229.16 1623.62 230 1621.1 230C1618.34 230 1616.06 229.16 1614.26 227.48C1612.58 225.68 1611.74 223.46 1611.74 220.82V113.18C1611.74 110.54 1612.64 108.38 1614.44 106.7C1616.24 104.9 1618.58 104 1621.46 104C1623.86 104 1625.96 104.9 1627.76 106.7C1629.68 108.38 1630.64 110.54 1630.64 113.18V220.82ZM1749.18 111.2C1751.82 112.52 1753.32 114.56 1753.68 117.32C1754.16 120.08 1753.5 122.6 1751.7 124.88C1750.38 126.68 1748.64 127.7 1746.48 127.94C1744.44 128.18 1742.4 127.76 1740.36 126.68C1736.88 124.88 1733.22 123.44 1729.38 122.36C1725.54 121.28 1721.46 120.74 1717.14 120.74C1710.3 120.74 1704.12 121.88 1698.6 124.16C1693.2 126.32 1688.52 129.5 1684.56 133.7C1680.6 137.78 1677.54 142.64 1675.38 148.28C1673.34 153.92 1672.32 160.16 1672.32 167C1672.32 174.56 1673.46 181.28 1675.74 187.16C1678.02 192.92 1681.14 197.84 1685.1 201.92C1689.18 205.88 1693.92 208.88 1699.32 210.92C1704.84 212.84 1710.78 213.8 1717.14 213.8C1721.22 213.8 1725.18 213.32 1729.02 212.36C1732.98 211.4 1736.7 209.96 1740.18 208.04C1742.34 206.96 1744.44 206.6 1746.48 206.96C1748.64 207.2 1750.38 208.22 1751.7 210.02C1753.74 212.54 1754.46 215.12 1753.86 217.76C1753.38 220.28 1751.88 222.2 1749.36 223.52C1746.36 225.2 1743.06 226.64 1739.46 227.84C1735.86 229.04 1732.2 230 1728.48 230.72C1724.76 231.44 1720.98 231.8 1717.14 231.8C1708.5 231.8 1700.34 230.36 1692.66 227.48C1684.98 224.6 1678.14 220.4 1672.14 214.88C1666.14 209.36 1661.4 202.58 1657.92 194.54C1654.56 186.5 1652.88 177.32 1652.88 167C1652.88 157.76 1654.44 149.24 1657.56 141.44C1660.8 133.52 1665.3 126.74 1671.06 121.1C1676.94 115.34 1683.78 110.9 1691.58 107.78C1699.38 104.54 1707.9 102.92 1717.14 102.92C1722.9 102.92 1728.48 103.64 1733.88 105.08C1739.4 106.52 1744.5 108.56 1749.18 111.2Z" fill="white"/>
<defs>
<linearGradient id="paint0_linear_429_2" x1="163.067" y1="0" x2="163.067" y2="159.83" gradientUnits="userSpaceOnUse">
<stop stop-color="#0FC5B0"/>
<stop offset="1" stop-color="#C59940" stop-opacity="0.35"/>
</linearGradient>
<linearGradient id="paint1_linear_429_2" x1="192.421" y1="47.3184" x2="192.421" y2="330.254" gradientUnits="userSpaceOnUse">
<stop stop-color="#0FC5B0"/>
<stop offset="1" stop-color="#C59940" stop-opacity="0.35"/>
</linearGradient>
<linearGradient id="paint2_linear_429_2" x1="192.61" y1="94.5576" x2="192.61" y2="353.394" gradientUnits="userSpaceOnUse">
<stop stop-color="#0FC5B0"/>
<stop offset="1" stop-color="#C59940" stop-opacity="0.35"/>
</linearGradient>
</defs>
</svg>
