<svg width="756" height="175" viewBox="0 0 756 175" fill="none" xmlns="http://www.w3.org/2000/svg">
<path d="M16.256 130.896C13.696 130.896 11.7333 130.128 10.368 128.592C9.00267 127.056 8.32 124.923 8.32 122.192V75.216C8.32 72.4 9.00267 70.2667 10.368 68.816C11.7333 67.28 13.696 66.512 16.256 66.512C18.816 66.512 20.7787 67.28 22.144 68.816C23.5947 70.2667 24.32 72.4 24.32 75.216V122.192C24.32 124.923 23.6373 127.056 22.272 128.592C20.9067 130.128 18.9013 130.896 16.256 130.896ZM16.256 54.608C13.2693 54.608 10.9227 53.8827 9.216 52.432C7.59467 50.896 6.784 48.8053 6.784 46.16C6.784 43.4293 7.59467 41.3387 9.216 39.888C10.9227 38.4373 13.2693 37.712 16.256 37.712C19.328 37.712 21.6747 38.4373 23.296 39.888C24.9173 41.3387 25.728 43.4293 25.728 46.16C25.728 48.8053 24.9173 50.896 23.296 52.432C21.6747 53.8827 19.328 54.608 16.256 54.608ZM66.289 131.024C64.1557 131.024 62.2783 130.469 60.657 129.36C59.121 128.251 57.841 126.544 56.817 124.24L36.465 77.008C35.697 75.1307 35.3983 73.3813 35.569 71.76C35.825 70.1387 36.593 68.8587 37.873 67.92C39.2383 66.896 41.073 66.384 43.377 66.384C45.3397 66.384 46.9183 66.8533 48.113 67.792C49.3077 68.6453 50.3743 70.3093 51.313 72.784L68.593 115.92H64.753L82.545 72.656C83.4837 70.2667 84.5503 68.6453 85.745 67.792C87.025 66.8533 88.7317 66.384 90.865 66.384C92.7423 66.384 94.2357 66.896 95.345 67.92C96.4543 68.8587 97.137 70.1387 97.393 71.76C97.649 73.296 97.3503 75.0027 96.497 76.88L75.761 124.24C74.8223 126.544 73.5423 128.251 71.921 129.36C70.385 130.469 68.5077 131.024 66.289 131.024ZM127.803 131.28C123.28 131.28 119.227 130.427 115.643 128.72C112.144 126.928 109.371 124.539 107.323 121.552C105.36 118.565 104.379 115.195 104.379 111.44C104.379 106.832 105.574 103.205 107.963 100.56C110.352 97.8293 114.235 95.8667 119.611 94.672C124.987 93.4773 132.198 92.88 141.243 92.88H147.643V102.096H141.371C136.08 102.096 131.856 102.352 128.699 102.864C125.542 103.376 123.28 104.272 121.915 105.552C120.635 106.747 119.995 108.453 119.995 110.672C119.995 113.488 120.976 115.792 122.939 117.584C124.902 119.376 127.632 120.272 131.131 120.272C133.947 120.272 136.422 119.632 138.555 118.352C140.774 116.987 142.523 115.152 143.803 112.848C145.083 110.544 145.723 107.899 145.723 104.912V90.192C145.723 85.9253 144.784 82.8533 142.907 80.976C141.03 79.0987 137.872 78.16 133.435 78.16C130.96 78.16 128.272 78.4587 125.371 79.056C122.555 79.6533 119.568 80.6773 116.411 82.128C114.79 82.896 113.339 83.1093 112.059 82.768C110.864 82.4267 109.926 81.744 109.243 80.72C108.56 79.6107 108.219 78.416 108.219 77.136C108.219 75.856 108.56 74.6187 109.243 73.424C109.926 72.144 111.078 71.2053 112.699 70.608C116.624 68.9867 120.379 67.8347 123.963 67.152C127.632 66.4693 130.96 66.128 133.947 66.128C140.091 66.128 145.126 67.0667 149.051 68.944C153.062 70.8213 156.048 73.68 158.011 77.52C159.974 81.2747 160.955 86.1387 160.955 92.112V122.832C160.955 125.477 160.315 127.525 159.035 128.976C157.755 130.341 155.92 131.024 153.531 131.024C151.142 131.024 149.264 130.341 147.899 128.976C146.619 127.525 145.979 125.477 145.979 122.832V116.688H147.003C146.406 119.675 145.211 122.277 143.419 124.496C141.712 126.629 139.536 128.293 136.891 129.488C134.246 130.683 131.216 131.28 127.803 131.28ZM185.131 131.024C182.571 131.024 180.608 130.341 179.243 128.976C177.878 127.525 177.195 125.477 177.195 122.832V74.448C177.195 71.8027 177.878 69.7973 179.243 68.432C180.608 67.0667 182.528 66.384 185.003 66.384C187.478 66.384 189.398 67.0667 190.763 68.432C192.128 69.7973 192.811 71.8027 192.811 74.448V83.152L191.403 79.952C193.28 75.4293 196.182 72.016 200.107 69.712C204.118 67.3227 208.64 66.128 213.675 66.128C218.71 66.128 222.848 67.0667 226.091 68.944C229.334 70.8213 231.766 73.68 233.387 77.52C235.008 81.2747 235.819 86.0533 235.819 91.856V122.832C235.819 125.477 235.136 127.525 233.771 128.976C232.406 130.341 230.443 131.024 227.883 131.024C225.323 131.024 223.318 130.341 221.867 128.976C220.502 127.525 219.819 125.477 219.819 122.832V92.624C219.819 87.76 218.88 84.2187 217.003 82C215.211 79.7813 212.395 78.672 208.555 78.672C203.862 78.672 200.107 80.1653 197.291 83.152C194.56 86.0533 193.195 89.936 193.195 94.8V122.832C193.195 128.293 190.507 131.024 185.131 131.024ZM294.756 154.064C292.196 154.064 290.233 153.381 288.868 152.016C287.503 150.651 286.82 148.645 286.82 146V74.448C286.82 71.8027 287.503 69.7973 288.868 68.432C290.233 67.0667 292.153 66.384 294.628 66.384C297.188 66.384 299.151 67.0667 300.516 68.432C301.881 69.7973 302.564 71.8027 302.564 74.448V84.432L301.156 80.592C302.436 76.24 305.039 72.7413 308.964 70.096C312.975 67.4507 317.625 66.128 322.916 66.128C328.377 66.128 333.156 67.4507 337.252 70.096C341.433 72.7413 344.676 76.496 346.98 81.36C349.284 86.1387 350.436 91.8987 350.436 98.64C350.436 105.296 349.284 111.099 346.98 116.048C344.676 120.912 341.476 124.667 337.38 127.312C333.284 129.957 328.463 131.28 322.916 131.28C317.711 131.28 313.145 130 309.22 127.44C305.295 124.795 302.649 121.381 301.284 117.2H302.82V146C302.82 148.645 302.095 150.651 300.644 152.016C299.279 153.381 297.316 154.064 294.756 154.064ZM318.436 119.12C321.593 119.12 324.367 118.352 326.756 116.816C329.145 115.28 330.98 113.019 332.26 110.032C333.625 106.96 334.308 103.163 334.308 98.64C334.308 91.8133 332.857 86.736 329.956 83.408C327.055 79.9947 323.215 78.288 318.436 78.288C315.279 78.288 312.505 79.056 310.116 80.592C307.727 82.0427 305.849 84.304 304.484 87.376C303.204 90.3627 302.564 94.1173 302.564 98.64C302.564 105.381 304.015 110.501 306.916 114C309.817 117.413 313.657 119.12 318.436 119.12ZM394.418 131.28C387.335 131.28 381.234 129.957 376.114 127.312C370.994 124.667 367.026 120.912 364.21 116.048C361.479 111.184 360.114 105.424 360.114 98.768C360.114 92.2827 361.437 86.608 364.082 81.744C366.813 76.88 370.525 73.0827 375.218 70.352C379.997 67.536 385.415 66.128 391.474 66.128C395.911 66.128 399.879 66.8533 403.378 68.304C406.962 69.7547 409.991 71.8453 412.466 74.576C415.026 77.3067 416.946 80.6347 418.226 84.56C419.591 88.4 420.274 92.752 420.274 97.616C420.274 99.152 419.719 100.347 418.61 101.2C417.586 101.968 416.093 102.352 414.13 102.352H373.042V93.136H409.01L406.962 95.056C406.962 91.1307 406.365 87.8453 405.17 85.2C404.061 82.5547 402.397 80.5493 400.178 79.184C398.045 77.7333 395.357 77.008 392.114 77.008C388.53 77.008 385.458 77.8613 382.898 79.568C380.423 81.1893 378.503 83.536 377.138 86.608C375.858 89.5947 375.218 93.1787 375.218 97.36V98.256C375.218 105.253 376.839 110.501 380.082 114C383.41 117.413 388.274 119.12 394.674 119.12C396.893 119.12 399.367 118.864 402.098 118.352C404.914 117.755 407.559 116.773 410.034 115.408C411.826 114.384 413.405 113.957 414.77 114.128C416.135 114.213 417.202 114.683 417.97 115.536C418.823 116.389 419.335 117.456 419.506 118.736C419.677 119.931 419.421 121.168 418.738 122.448C418.141 123.728 417.074 124.837 415.538 125.776C412.551 127.653 409.095 129.061 405.17 130C401.33 130.853 397.746 131.28 394.418 131.28ZM461.367 131.28C455.82 131.28 451.17 130.341 447.415 128.464C443.746 126.587 441.015 123.856 439.223 120.272C437.431 116.603 436.535 112.08 436.535 106.704V79.44H429.879C427.831 79.44 426.252 78.928 425.143 77.904C424.034 76.7947 423.479 75.3013 423.479 73.424C423.479 71.4613 424.034 69.968 425.143 68.944C426.252 67.92 427.831 67.408 429.879 67.408H436.535V55.76C436.535 53.1147 437.218 51.1093 438.583 49.744C440.034 48.3787 442.039 47.696 444.599 47.696C447.159 47.696 449.122 48.3787 450.487 49.744C451.852 51.1093 452.535 53.1147 452.535 55.76V67.408H466.103C468.151 67.408 469.73 67.92 470.839 68.944C471.948 69.968 472.503 71.4613 472.503 73.424C472.503 75.3013 471.948 76.7947 470.839 77.904C469.73 78.928 468.151 79.44 466.103 79.44H452.535V105.808C452.535 109.904 453.431 112.976 455.223 115.024C457.015 117.072 459.916 118.096 463.927 118.096C465.378 118.096 466.658 117.968 467.767 117.712C468.876 117.456 469.858 117.285 470.711 117.2C471.735 117.115 472.588 117.456 473.271 118.224C473.954 118.907 474.295 120.357 474.295 122.576C474.295 124.283 473.996 125.819 473.399 127.184C472.887 128.464 471.906 129.36 470.455 129.872C469.346 130.213 467.895 130.512 466.103 130.768C464.311 131.109 462.732 131.28 461.367 131.28ZM490.012 131.024C487.367 131.024 485.319 130.341 483.868 128.976C482.503 127.525 481.82 125.477 481.82 122.832V74.448C481.82 71.8027 482.503 69.7973 483.868 68.432C485.233 67.0667 487.153 66.384 489.628 66.384C492.103 66.384 494.023 67.0667 495.388 68.432C496.753 69.7973 497.436 71.8027 497.436 74.448V82.512H496.156C497.351 77.392 499.697 73.5093 503.196 70.864C506.695 68.2187 511.345 66.64 517.148 66.128C518.94 65.9573 520.348 66.4267 521.372 67.536C522.481 68.56 523.121 70.1813 523.292 72.4C523.463 74.5333 522.951 76.2827 521.756 77.648C520.647 78.928 518.94 79.696 516.636 79.952L513.82 80.208C508.615 80.72 504.689 82.3413 502.044 85.072C499.399 87.7173 498.076 91.472 498.076 96.336V122.832C498.076 125.477 497.393 127.525 496.028 128.976C494.663 130.341 492.657 131.024 490.012 131.024ZM559.489 131.28C553.004 131.28 547.372 129.957 542.593 127.312C537.814 124.667 534.102 120.912 531.457 116.048C528.812 111.099 527.489 105.296 527.489 98.64C527.489 93.6053 528.214 89.1253 529.665 85.2C531.201 81.1893 533.377 77.776 536.193 74.96C539.009 72.0587 542.38 69.8827 546.305 68.432C550.23 66.896 554.625 66.128 559.489 66.128C565.974 66.128 571.606 67.4507 576.385 70.096C581.164 72.7413 584.876 76.496 587.521 81.36C590.166 86.224 591.489 91.984 591.489 98.64C591.489 103.675 590.721 108.197 589.185 112.208C587.734 116.219 585.601 119.675 582.785 122.576C579.969 125.392 576.598 127.568 572.673 129.104C568.748 130.555 564.353 131.28 559.489 131.28ZM559.489 119.12C562.646 119.12 565.42 118.352 567.809 116.816C570.198 115.28 572.033 113.019 573.313 110.032C574.678 106.96 575.361 103.163 575.361 98.64C575.361 91.8133 573.91 86.736 571.009 83.408C568.108 79.9947 564.268 78.288 559.489 78.288C556.332 78.288 553.558 79.056 551.169 80.592C548.78 82.0427 546.902 84.304 545.537 87.376C544.257 90.3627 543.617 94.1173 543.617 98.64C543.617 105.381 545.068 110.501 547.969 114C550.87 117.413 554.71 119.12 559.489 119.12ZM628.789 131.024C626.656 131.024 624.778 130.469 623.157 129.36C621.621 128.251 620.341 126.544 619.317 124.24L598.965 77.008C598.197 75.1307 597.898 73.3813 598.069 71.76C598.325 70.1387 599.093 68.8587 600.373 67.92C601.738 66.896 603.573 66.384 605.877 66.384C607.84 66.384 609.418 66.8533 610.613 67.792C611.808 68.6453 612.874 70.3093 613.813 72.784L631.093 115.92H627.253L645.045 72.656C645.984 70.2667 647.05 68.6453 648.245 67.792C649.525 66.8533 651.232 66.384 653.365 66.384C655.242 66.384 656.736 66.896 657.845 67.92C658.954 68.8587 659.637 70.1387 659.893 71.76C660.149 73.296 659.85 75.0027 658.997 76.88L638.261 124.24C637.322 126.544 636.042 128.251 634.421 129.36C632.885 130.469 631.008 131.024 628.789 131.024ZM678.881 130.896C676.321 130.896 674.358 130.128 672.993 128.592C671.628 127.056 670.945 124.923 670.945 122.192V75.216C670.945 72.4 671.628 70.2667 672.993 68.816C674.358 67.28 676.321 66.512 678.881 66.512C681.441 66.512 683.404 67.28 684.769 68.816C686.22 70.2667 686.945 72.4 686.945 75.216V122.192C686.945 124.923 686.262 127.056 684.897 128.592C683.532 130.128 681.526 130.896 678.881 130.896ZM678.881 54.608C675.894 54.608 673.548 53.8827 671.841 52.432C670.22 50.896 669.409 48.8053 669.409 46.16C669.409 43.4293 670.22 41.3387 671.841 39.888C673.548 38.4373 675.894 37.712 678.881 37.712C681.953 37.712 684.3 38.4373 685.921 39.888C687.542 41.3387 688.353 43.4293 688.353 46.16C688.353 48.8053 687.542 50.896 685.921 52.432C684.3 53.8827 681.953 54.608 678.881 54.608ZM732.498 131.28C725.927 131.28 720.21 129.957 715.346 127.312C710.482 124.581 706.727 120.741 704.082 115.792C701.437 110.843 700.114 105.04 700.114 98.384C700.114 93.3493 700.839 88.8693 702.29 84.944C703.826 80.9333 706.002 77.5627 708.818 74.832C711.634 72.016 715.047 69.8827 719.058 68.432C723.069 66.896 727.549 66.128 732.498 66.128C735.314 66.128 738.343 66.512 741.586 67.28C744.914 68.048 748.029 69.328 750.93 71.12C752.295 71.9733 753.191 72.9973 753.618 74.192C754.045 75.3867 754.13 76.624 753.874 77.904C753.618 79.0987 753.063 80.1653 752.21 81.104C751.442 81.9573 750.461 82.512 749.266 82.768C748.071 82.9387 746.749 82.64 745.298 81.872C743.421 80.7627 741.501 79.952 739.538 79.44C737.575 78.8427 735.698 78.544 733.906 78.544C731.09 78.544 728.615 79.0133 726.482 79.952C724.349 80.8053 722.514 82.0853 720.978 83.792C719.527 85.4133 718.418 87.4613 717.65 89.936C716.882 92.4107 716.498 95.2693 716.498 98.512C716.498 104.827 717.991 109.819 720.978 113.488C724.05 117.072 728.359 118.864 733.906 118.864C735.698 118.864 737.533 118.608 739.41 118.096C741.373 117.584 743.335 116.773 745.298 115.664C746.749 114.896 748.029 114.64 749.138 114.896C750.333 115.152 751.314 115.749 752.082 116.688C752.85 117.541 753.319 118.608 753.49 119.888C753.661 121.083 753.49 122.277 752.978 123.472C752.551 124.667 751.698 125.648 750.418 126.416C747.602 128.123 744.615 129.36 741.458 130.128C738.301 130.896 735.314 131.28 732.498 131.28Z" fill="white"/>
</svg>
