<svg width="353" height="353" viewBox="0 0 353 353" fill="none" xmlns="http://www.w3.org/2000/svg">
<path d="M177.76 349.526C177.4 349.166 176.923 348.953 176.434 348.933C175.944 348.913 175.483 349.089 175.15 349.421C174.818 349.754 174.642 350.215 174.662 350.705C174.681 351.194 174.895 351.671 175.254 352.031C175.614 352.391 176.091 352.604 176.581 352.624C177.07 352.643 177.532 352.468 177.864 352.135C178.197 351.803 178.372 351.341 178.353 350.852C178.333 350.363 178.12 349.885 177.76 349.526V349.526ZM193.604 333.682C193.244 333.322 192.766 333.108 192.277 333.089C191.787 333.069 191.325 333.245 190.992 333.578C190.66 333.91 190.484 334.372 190.504 334.862C190.523 335.352 190.736 335.829 191.096 336.189C191.456 336.549 191.934 336.762 192.423 336.782C192.913 336.801 193.375 336.626 193.707 336.293C194.04 335.961 194.215 335.499 194.196 335.01C194.176 334.52 193.963 334.043 193.603 333.683L193.604 333.682ZM209.446 317.84C209.086 317.48 208.609 317.267 208.119 317.247C207.629 317.227 207.168 317.403 206.835 317.736C206.503 318.068 206.327 318.53 206.347 319.019C206.366 319.509 206.579 319.986 206.939 320.346C207.299 320.706 207.776 320.919 208.266 320.939C208.755 320.958 209.217 320.783 209.549 320.45C209.881 320.118 210.057 319.656 210.038 319.167C210.018 318.678 209.805 318.2 209.445 317.841L209.446 317.84ZM225.289 301.997C224.929 301.637 224.452 301.424 223.962 301.404C223.472 301.385 223.011 301.56 222.678 301.893C222.346 302.225 222.17 302.687 222.19 303.177C222.209 303.666 222.422 304.143 222.782 304.503C223.142 304.863 223.619 305.076 224.109 305.096C224.598 305.115 225.06 304.94 225.392 304.608C225.724 304.275 225.9 303.814 225.881 303.324C225.861 302.835 225.648 302.358 225.288 301.998L225.289 301.997ZM241.131 286.155C240.771 285.795 240.294 285.582 239.804 285.562C239.315 285.543 238.853 285.718 238.521 286.051C238.189 286.383 238.013 286.845 238.033 287.334C238.052 287.824 238.265 288.301 238.625 288.661C238.985 289.02 239.462 289.234 239.952 289.253C240.441 289.273 240.903 289.097 241.235 288.765C241.567 288.432 241.743 287.971 241.723 287.481C241.704 286.992 241.491 286.515 241.131 286.155ZM256.974 270.312C256.614 269.952 256.137 269.739 255.647 269.719C255.158 269.7 254.696 269.876 254.364 270.208C254.032 270.54 253.856 271.002 253.876 271.491C253.895 271.981 254.108 272.458 254.468 272.818C254.828 273.178 255.305 273.391 255.795 273.41C256.284 273.43 256.746 273.254 257.078 272.922C257.41 272.589 257.586 272.128 257.566 271.638C257.547 271.149 257.334 270.672 256.974 270.312ZM272.817 254.469C272.457 254.109 271.98 253.896 271.49 253.877C271.001 253.857 270.539 254.033 270.207 254.365C269.875 254.697 269.699 255.159 269.718 255.648C269.738 256.138 269.951 256.615 270.311 256.975C270.671 257.335 271.148 257.548 271.637 257.567C272.127 257.587 272.588 257.411 272.921 257.079C273.253 256.747 273.429 256.285 273.409 255.796C273.39 255.306 273.177 254.829 272.817 254.469V254.469ZM288.66 238.625C288.3 238.265 287.823 238.052 287.334 238.033C286.844 238.013 286.382 238.189 286.05 238.521C285.717 238.854 285.542 239.315 285.561 239.805C285.581 240.295 285.794 240.772 286.154 241.132C286.514 241.492 286.991 241.705 287.48 241.724C287.97 241.744 288.431 241.568 288.764 241.236C289.096 240.904 289.272 240.442 289.252 239.953C289.233 239.463 289.019 238.986 288.66 238.626L288.66 238.625ZM304.502 222.783C304.143 222.423 303.665 222.21 303.176 222.191C302.687 222.171 302.225 222.347 301.893 222.679C301.56 223.011 301.385 223.473 301.404 223.963C301.424 224.452 301.637 224.929 301.997 225.289C302.357 225.649 302.834 225.862 303.323 225.882C303.813 225.901 304.274 225.725 304.607 225.393C304.939 225.061 305.115 224.599 305.095 224.11C305.075 223.62 304.862 223.143 304.502 222.783V222.783ZM320.345 206.94C319.985 206.58 319.508 206.367 319.019 206.348C318.529 206.328 318.068 206.504 317.736 206.836C317.403 207.169 317.228 207.63 317.247 208.12C317.267 208.609 317.48 209.086 317.84 209.446C318.2 209.806 318.677 210.019 319.166 210.039C319.656 210.058 320.117 209.882 320.449 209.55C320.782 209.218 320.957 208.756 320.938 208.267C320.918 207.777 320.705 207.3 320.345 206.94ZM336.188 191.097C335.828 190.737 335.351 190.524 334.861 190.505C334.372 190.485 333.91 190.661 333.578 190.993C333.245 191.326 333.069 191.788 333.089 192.277C333.108 192.767 333.322 193.244 333.682 193.604C334.042 193.964 334.519 194.177 335.009 194.197C335.498 194.216 335.96 194.041 336.292 193.708C336.625 193.376 336.8 192.914 336.781 192.424C336.761 191.935 336.548 191.457 336.188 191.097ZM352.031 175.255C351.671 174.895 351.194 174.681 350.704 174.662C350.215 174.642 349.753 174.818 349.42 175.15C349.088 175.483 348.912 175.945 348.932 176.434C348.951 176.924 349.165 177.401 349.525 177.761C349.884 178.121 350.362 178.334 350.851 178.354C351.34 178.373 351.802 178.197 352.134 177.865C352.467 177.533 352.642 177.071 352.623 176.582C352.603 176.092 352.39 175.615 352.03 175.255L352.031 175.255ZM160.371 332.136C160.011 331.776 159.533 331.563 159.044 331.544C158.555 331.524 158.093 331.7 157.761 332.033C157.429 332.365 157.253 332.827 157.273 333.316C157.292 333.806 157.506 334.283 157.866 334.643C158.044 334.821 158.253 334.965 158.481 335.066C158.708 335.168 158.95 335.225 159.192 335.235C159.435 335.244 159.673 335.206 159.893 335.122C160.113 335.038 160.311 334.91 160.475 334.746C160.64 334.581 160.768 334.383 160.851 334.163C160.935 333.943 160.973 333.705 160.964 333.462C160.954 333.22 160.896 332.978 160.795 332.75C160.693 332.523 160.549 332.314 160.371 332.136ZM176.214 316.292C175.854 315.932 175.377 315.719 174.887 315.7C174.397 315.68 173.935 315.856 173.603 316.189C173.27 316.522 173.095 316.984 173.114 317.473C173.134 317.963 173.348 318.441 173.708 318.801C174.068 319.16 174.545 319.373 175.035 319.393C175.524 319.412 175.986 319.236 176.318 318.904C176.651 318.571 176.826 318.109 176.807 317.62C176.787 317.13 176.574 316.653 176.213 316.293L176.214 316.292ZM192.056 300.45C191.878 300.272 191.669 300.128 191.441 300.026C191.214 299.925 190.972 299.867 190.729 299.858C190.487 299.848 190.249 299.887 190.028 299.97C189.808 300.054 189.61 300.182 189.446 300.347C189.281 300.512 189.153 300.71 189.07 300.93C188.986 301.15 188.948 301.388 188.958 301.631C188.967 301.873 189.025 302.115 189.126 302.343C189.228 302.571 189.372 302.779 189.551 302.958C189.911 303.317 190.388 303.53 190.877 303.55C191.367 303.569 191.828 303.393 192.16 303.061C192.493 302.728 192.668 302.267 192.648 301.777C192.629 301.288 192.415 300.811 192.056 300.451L192.056 300.45ZM207.899 284.607C207.721 284.429 207.512 284.285 207.284 284.183C207.057 284.082 206.815 284.025 206.572 284.015C206.33 284.005 206.092 284.044 205.871 284.128C205.651 284.211 205.453 284.339 205.289 284.504C205.124 284.669 204.996 284.867 204.913 285.087C204.829 285.307 204.791 285.546 204.8 285.788C204.81 286.03 204.868 286.272 204.969 286.5C205.071 286.728 205.215 286.937 205.394 287.115C205.572 287.293 205.781 287.437 206.008 287.538C206.236 287.64 206.478 287.697 206.72 287.707C206.963 287.716 207.201 287.678 207.421 287.594C207.641 287.51 207.839 287.383 208.003 287.218C208.168 287.053 208.296 286.855 208.379 286.635C208.463 286.415 208.501 286.177 208.491 285.934C208.482 285.692 208.424 285.45 208.322 285.223C208.221 284.995 208.077 284.786 207.898 284.608L207.899 284.607ZM223.741 268.765C223.381 268.405 222.904 268.192 222.415 268.173C221.925 268.153 221.464 268.329 221.131 268.661C220.799 268.993 220.623 269.455 220.643 269.944C220.663 270.434 220.876 270.911 221.236 271.271C221.595 271.631 222.073 271.844 222.562 271.864C223.051 271.883 223.513 271.707 223.845 271.375C224.178 271.043 224.353 270.581 224.334 270.092C224.314 269.602 224.101 269.125 223.741 268.765V268.765ZM239.584 252.922C239.224 252.562 238.747 252.349 238.258 252.33C237.768 252.31 237.307 252.486 236.974 252.818C236.642 253.151 236.466 253.612 236.486 254.102C236.505 254.591 236.719 255.068 237.078 255.428C237.438 255.788 237.915 256.001 238.405 256.021C238.894 256.04 239.356 255.864 239.688 255.532C240.021 255.2 240.196 254.738 240.177 254.249C240.157 253.759 239.944 253.282 239.584 252.922V252.922ZM255.427 237.079C255.067 236.72 254.59 236.506 254.101 236.487C253.611 236.467 253.15 236.643 252.817 236.975C252.485 237.308 252.309 237.769 252.329 238.259C252.348 238.748 252.561 239.225 252.921 239.585C253.281 239.945 253.758 240.158 254.248 240.178C254.737 240.197 255.199 240.022 255.531 239.689C255.863 239.357 256.039 238.895 256.02 238.406C256 237.916 255.787 237.439 255.427 237.079V237.079ZM271.271 221.236C271.092 221.058 270.884 220.913 270.656 220.812C270.428 220.71 270.186 220.653 269.944 220.643C269.701 220.634 269.463 220.672 269.243 220.756C269.023 220.84 268.825 220.968 268.66 221.132C268.496 221.297 268.368 221.495 268.284 221.716C268.2 221.936 268.162 222.174 268.172 222.416C268.182 222.659 268.239 222.901 268.341 223.128C268.443 223.356 268.587 223.565 268.765 223.743C268.943 223.921 269.152 224.065 269.38 224.167C269.608 224.268 269.849 224.326 270.092 224.335C270.334 224.345 270.572 224.307 270.792 224.223C271.012 224.139 271.21 224.011 271.375 223.846C271.539 223.682 271.667 223.484 271.751 223.263C271.835 223.043 271.873 222.805 271.863 222.563C271.853 222.321 271.796 222.079 271.694 221.851C271.592 221.623 271.448 221.415 271.27 221.237L271.271 221.236ZM287.113 205.394C286.935 205.216 286.726 205.072 286.498 204.97C286.27 204.868 286.029 204.811 285.786 204.802C285.544 204.792 285.306 204.83 285.086 204.914C284.866 204.998 284.668 205.126 284.503 205.29C284.339 205.455 284.211 205.653 284.127 205.873C284.043 206.094 284.005 206.332 284.015 206.574C284.025 206.816 284.082 207.058 284.184 207.286C284.286 207.513 284.43 207.722 284.608 207.9C284.968 208.26 285.445 208.473 285.935 208.492C286.424 208.512 286.886 208.336 287.218 208.003C287.55 207.671 287.726 207.209 287.706 206.72C287.686 206.231 287.473 205.753 287.113 205.394V205.394ZM302.956 189.551C302.596 189.191 302.119 188.978 301.629 188.959C301.14 188.939 300.678 189.115 300.346 189.448C300.014 189.78 299.838 190.242 299.858 190.731C299.878 191.221 300.091 191.698 300.451 192.057C300.629 192.236 300.838 192.38 301.066 192.481C301.293 192.583 301.535 192.64 301.778 192.65C302.02 192.659 302.258 192.621 302.478 192.537C302.698 192.453 302.896 192.325 303.061 192.161C303.225 191.996 303.353 191.798 303.437 191.578C303.52 191.357 303.558 191.119 303.549 190.877C303.539 190.635 303.482 190.393 303.38 190.165C303.278 189.938 303.134 189.729 302.956 189.551ZM318.799 173.708C318.62 173.53 318.411 173.386 318.184 173.284C317.956 173.182 317.714 173.125 317.472 173.116C317.229 173.106 316.991 173.144 316.771 173.228C316.551 173.312 316.353 173.44 316.188 173.605C316.023 173.769 315.896 173.967 315.812 174.188C315.728 174.408 315.69 174.646 315.7 174.889C315.71 175.131 315.767 175.373 315.869 175.601C315.971 175.828 316.115 176.037 316.293 176.215C316.653 176.575 317.13 176.788 317.62 176.808C318.11 176.827 318.571 176.651 318.904 176.319C319.236 175.986 319.411 175.524 319.392 175.035C319.372 174.545 319.159 174.068 318.799 173.708V173.708ZM334.642 157.865C334.463 157.687 334.254 157.543 334.027 157.441C333.799 157.339 333.557 157.282 333.314 157.273C333.072 157.263 332.834 157.301 332.614 157.385C332.393 157.469 332.195 157.597 332.031 157.762C331.866 157.926 331.739 158.124 331.655 158.345C331.571 158.565 331.533 158.803 331.543 159.046C331.552 159.288 331.61 159.53 331.712 159.758C331.813 159.985 331.958 160.194 332.136 160.372C332.496 160.732 332.973 160.945 333.462 160.965C333.952 160.984 334.413 160.808 334.746 160.476C335.078 160.143 335.253 159.682 335.234 159.192C335.214 158.703 335.001 158.226 334.641 157.866L334.642 157.865ZM142.981 314.746C142.621 314.386 142.144 314.173 141.655 314.154C141.165 314.134 140.703 314.31 140.371 314.642C140.039 314.975 139.863 315.436 139.883 315.926C139.902 316.415 140.115 316.892 140.475 317.252C140.835 317.612 141.312 317.825 141.802 317.845C142.291 317.864 142.753 317.688 143.085 317.356C143.417 317.024 143.593 316.562 143.574 316.073C143.554 315.583 143.341 315.106 142.981 314.746V314.746ZM158.825 298.903C158.465 298.543 157.988 298.33 157.498 298.31C157.009 298.291 156.547 298.466 156.215 298.799C155.883 299.131 155.707 299.592 155.726 300.082C155.746 300.571 155.959 301.048 156.319 301.408C156.679 301.768 157.156 301.981 157.645 302.001C158.135 302.02 158.596 301.845 158.929 301.512C159.261 301.18 159.437 300.719 159.417 300.229C159.398 299.74 159.185 299.263 158.825 298.903V298.903ZM174.667 283.061C174.307 282.701 173.83 282.488 173.34 282.468C172.851 282.448 172.389 282.624 172.057 282.956C171.725 283.289 171.549 283.75 171.568 284.24C171.588 284.729 171.801 285.206 172.161 285.566C172.521 285.926 172.998 286.139 173.487 286.159C173.977 286.178 174.439 286.003 174.771 285.67C175.103 285.338 175.279 284.876 175.259 284.387C175.24 283.898 175.027 283.42 174.667 283.061V283.061ZM190.51 267.218C190.15 266.858 189.673 266.645 189.183 266.625C188.694 266.606 188.232 266.781 187.9 267.114C187.568 267.446 187.392 267.908 187.411 268.397C187.431 268.886 187.644 269.364 188.004 269.723C188.364 270.083 188.841 270.296 189.33 270.316C189.82 270.335 190.281 270.16 190.614 269.827C190.946 269.495 191.122 269.034 191.102 268.544C191.083 268.055 190.87 267.578 190.51 267.218V267.218ZM206.352 251.376C206.176 251.187 205.966 251.033 205.736 250.923C205.505 250.813 205.259 250.748 205.01 250.734C204.762 250.719 204.518 250.755 204.291 250.839C204.065 250.922 203.862 251.052 203.693 251.22C203.525 251.389 203.395 251.592 203.311 251.818C203.227 252.044 203.192 252.289 203.206 252.537C203.22 252.785 203.284 253.032 203.394 253.262C203.505 253.493 203.658 253.703 203.847 253.879C204.21 254.218 204.679 254.414 205.156 254.424C205.634 254.435 206.082 254.259 206.406 253.935C206.731 253.611 206.906 253.163 206.896 252.686C206.886 252.208 206.691 251.739 206.352 251.376ZM222.195 235.533C222.019 235.344 221.809 235.19 221.579 235.08C221.348 234.97 221.101 234.906 220.853 234.891C220.605 234.877 220.361 234.912 220.134 234.996C219.908 235.079 219.704 235.209 219.536 235.377C219.368 235.546 219.238 235.749 219.154 235.975C219.07 236.202 219.034 236.446 219.049 236.694C219.063 236.942 219.127 237.189 219.237 237.42C219.347 237.65 219.501 237.86 219.69 238.036C220.052 238.375 220.522 238.571 220.999 238.581C221.477 238.592 221.925 238.416 222.249 238.092C222.574 237.768 222.749 237.32 222.739 236.843C222.729 236.365 222.534 235.896 222.195 235.533V235.533ZM238.037 219.69C237.861 219.504 237.651 219.353 237.422 219.246C237.192 219.138 236.947 219.076 236.7 219.063C236.454 219.049 236.211 219.086 235.987 219.169C235.762 219.253 235.56 219.382 235.393 219.549C235.226 219.717 235.096 219.918 235.013 220.143C234.929 220.367 234.892 220.61 234.905 220.856C234.918 221.103 234.98 221.348 235.088 221.578C235.195 221.808 235.346 222.017 235.532 222.194C235.894 222.539 236.365 222.74 236.846 222.753C237.327 222.766 237.779 222.591 238.106 222.264C238.433 221.938 238.609 221.486 238.596 221.005C238.583 220.524 238.383 220.052 238.037 219.69V219.69ZM253.881 203.846C253.521 203.486 253.044 203.273 252.555 203.254C252.065 203.234 251.604 203.41 251.271 203.742C250.939 204.074 250.763 204.536 250.783 205.025C250.802 205.515 251.016 205.992 251.375 206.352C251.735 206.712 252.212 206.925 252.702 206.944C253.191 206.964 253.653 206.788 253.985 206.456C254.318 206.124 254.493 205.662 254.474 205.173C254.454 204.683 254.241 204.206 253.881 203.846V203.846ZM269.723 188.004C269.363 187.644 268.886 187.431 268.397 187.412C267.907 187.392 267.446 187.568 267.113 187.9C266.781 188.232 266.605 188.694 266.625 189.183C266.645 189.673 266.858 190.15 267.218 190.51C267.577 190.87 268.055 191.083 268.544 191.102C269.033 191.122 269.495 190.946 269.827 190.614C270.16 190.282 270.335 189.82 270.316 189.331C270.296 188.841 270.083 188.364 269.723 188.004V188.004ZM285.566 172.161C285.206 171.801 284.729 171.588 284.24 171.569C283.75 171.549 283.289 171.725 282.956 172.057C282.624 172.389 282.448 172.851 282.468 173.34C282.487 173.83 282.701 174.307 283.06 174.667C283.42 175.027 283.897 175.24 284.387 175.259C284.876 175.279 285.338 175.103 285.67 174.771C286.003 174.439 286.178 173.977 286.159 173.488C286.139 172.998 285.926 172.521 285.566 172.161V172.161ZM301.409 156.318C301.049 155.958 300.572 155.745 300.083 155.726C299.593 155.706 299.132 155.882 298.799 156.214C298.467 156.546 298.291 157.008 298.311 157.498C298.33 157.987 298.543 158.464 298.903 158.824C299.263 159.184 299.74 159.397 300.23 159.417C300.719 159.436 301.181 159.26 301.513 158.928C301.845 158.596 302.021 158.134 302.002 157.645C301.982 157.155 301.769 156.678 301.409 156.318V156.318ZM317.252 140.475C316.892 140.116 316.415 139.902 315.925 139.883C315.436 139.863 314.974 140.039 314.642 140.371C314.31 140.704 314.134 141.165 314.154 141.655C314.173 142.144 314.386 142.621 314.746 142.981C315.106 143.341 315.583 143.554 316.073 143.574C316.562 143.593 317.024 143.417 317.356 143.085C317.688 142.753 317.864 142.291 317.844 141.802C317.825 141.312 317.612 140.835 317.252 140.475V140.475ZM125.591 297.357C125.231 296.997 124.754 296.784 124.265 296.764C123.775 296.745 123.314 296.92 122.982 297.253C122.649 297.585 122.474 298.047 122.493 298.536C122.513 299.025 122.726 299.503 123.086 299.862C123.446 300.222 123.923 300.436 124.412 300.455C124.902 300.475 125.363 300.299 125.695 299.967C126.028 299.634 126.203 299.173 126.184 298.683C126.164 298.194 125.951 297.717 125.591 297.357V297.357ZM141.435 281.513C141.075 281.153 140.597 280.94 140.108 280.92C139.618 280.901 139.156 281.076 138.824 281.409C138.491 281.741 138.315 282.203 138.335 282.693C138.354 283.183 138.568 283.66 138.928 284.02C139.288 284.38 139.765 284.594 140.255 284.613C140.744 284.633 141.206 284.457 141.538 284.125C141.871 283.792 142.047 283.33 142.027 282.841C142.007 282.351 141.794 281.874 141.434 281.514L141.435 281.513ZM157.277 265.671C156.917 265.311 156.44 265.098 155.95 265.078C155.461 265.059 154.999 265.234 154.666 265.567C154.334 265.899 154.158 266.361 154.178 266.851C154.197 267.34 154.411 267.818 154.771 268.178C155.13 268.537 155.608 268.751 156.097 268.77C156.586 268.79 157.048 268.614 157.38 268.282C157.713 267.949 157.888 267.488 157.869 266.998C157.849 266.509 157.636 266.032 157.276 265.672L157.277 265.671ZM173.12 249.828C172.76 249.468 172.283 249.255 171.793 249.235C171.304 249.216 170.842 249.392 170.509 249.724C170.177 250.056 170.001 250.518 170.021 251.008C170.04 251.497 170.253 251.975 170.613 252.335C170.973 252.695 171.45 252.908 171.94 252.927C172.429 252.947 172.891 252.771 173.223 252.439C173.556 252.106 173.731 251.645 173.712 251.155C173.692 250.666 173.479 250.189 173.119 249.829L173.12 249.828ZM188.962 233.986C188.602 233.626 188.125 233.413 187.636 233.393C187.146 233.374 186.685 233.55 186.352 233.882C186.02 234.214 185.844 234.676 185.864 235.165C185.883 235.655 186.096 236.132 186.456 236.492C186.816 236.852 187.293 237.065 187.783 237.084C188.272 237.104 188.734 236.928 189.066 236.596C189.398 236.264 189.574 235.802 189.555 235.312C189.535 234.823 189.322 234.346 188.962 233.986V233.986ZM204.805 218.143C204.445 217.783 203.968 217.57 203.479 217.551C202.989 217.531 202.527 217.707 202.195 218.039C201.863 218.371 201.687 218.833 201.707 219.322C201.726 219.812 201.939 220.289 202.299 220.649C202.659 221.009 203.136 221.222 203.626 221.241C204.115 221.261 204.577 221.085 204.909 220.753C205.241 220.421 205.417 219.959 205.398 219.47C205.378 218.98 205.165 218.503 204.805 218.143V218.143ZM220.648 202.3C220.288 201.94 219.811 201.727 219.321 201.708C218.832 201.688 218.37 201.864 218.038 202.196C217.706 202.528 217.53 202.99 217.55 203.48C217.569 203.969 217.782 204.446 218.142 204.806C218.502 205.166 218.979 205.379 219.469 205.399C219.958 205.418 220.42 205.242 220.752 204.91C221.084 204.578 221.26 204.116 221.24 203.627C221.221 203.137 221.008 202.66 220.648 202.3V202.3ZM236.492 186.457C236.132 186.097 235.654 185.883 235.165 185.864C234.675 185.844 234.213 186.02 233.881 186.352C233.549 186.685 233.373 187.147 233.392 187.636C233.412 188.126 233.625 188.603 233.985 188.963C234.345 189.323 234.822 189.536 235.311 189.556C235.801 189.575 236.263 189.399 236.595 189.067C236.927 188.735 237.103 188.273 237.083 187.784C237.064 187.294 236.851 186.817 236.491 186.457L236.492 186.457ZM252.334 170.614C251.974 170.255 251.497 170.041 251.007 170.022C250.518 170.002 250.056 170.178 249.724 170.51C249.392 170.843 249.216 171.304 249.235 171.794C249.255 172.283 249.468 172.76 249.828 173.12C250.188 173.48 250.665 173.693 251.154 173.713C251.644 173.732 252.105 173.557 252.438 173.224C252.77 172.892 252.946 172.43 252.926 171.941C252.907 171.451 252.694 170.974 252.334 170.614V170.614ZM268.177 154.772C267.817 154.412 267.34 154.199 266.85 154.179C266.361 154.159 265.899 154.335 265.567 154.667C265.234 155 265.059 155.461 265.078 155.951C265.098 156.44 265.311 156.917 265.671 157.277C266.031 157.637 266.508 157.85 266.997 157.87C267.487 157.889 267.948 157.714 268.281 157.381C268.613 157.049 268.789 156.587 268.769 156.098C268.75 155.609 268.536 155.131 268.177 154.772V154.772ZM284.019 138.929C283.659 138.569 283.182 138.355 282.693 138.336C282.203 138.316 281.741 138.492 281.409 138.825C281.076 139.157 280.901 139.619 280.92 140.108C280.94 140.598 281.153 141.075 281.513 141.435C281.873 141.795 282.35 142.008 282.84 142.028C283.329 142.047 283.791 141.872 284.124 141.539C284.456 141.207 284.632 140.745 284.612 140.256C284.593 139.766 284.379 139.289 284.019 138.929ZM299.862 123.086C299.502 122.726 299.025 122.513 298.535 122.493C298.046 122.474 297.584 122.649 297.252 122.982C296.919 123.314 296.744 123.776 296.763 124.265C296.783 124.755 296.996 125.232 297.356 125.592C297.716 125.952 298.193 126.165 298.682 126.185C299.172 126.204 299.633 126.029 299.966 125.696C300.298 125.364 300.474 124.902 300.454 124.413C300.435 123.924 300.221 123.446 299.861 123.087L299.862 123.086ZM108.202 279.967C107.842 279.607 107.365 279.394 106.875 279.375C106.386 279.355 105.924 279.531 105.592 279.863C105.26 280.195 105.084 280.657 105.103 281.146C105.123 281.636 105.336 282.113 105.696 282.473C106.056 282.833 106.533 283.046 107.022 283.065C107.512 283.085 107.974 282.909 108.306 282.577C108.638 282.245 108.814 281.783 108.794 281.294C108.775 280.804 108.562 280.327 108.202 279.967V279.967ZM124.045 264.123C123.686 263.764 123.208 263.55 122.719 263.531C122.23 263.511 121.768 263.687 121.436 264.019C121.103 264.352 120.928 264.813 120.947 265.303C120.967 265.792 121.18 266.269 121.54 266.629C121.9 266.989 122.377 267.202 122.866 267.222C123.356 267.241 123.817 267.066 124.15 266.733C124.482 266.401 124.658 265.939 124.638 265.45C124.619 264.96 124.405 264.483 124.045 264.123V264.123ZM139.888 248.281C139.528 247.921 139.051 247.708 138.561 247.689C138.072 247.669 137.61 247.845 137.278 248.177C136.945 248.51 136.77 248.971 136.789 249.461C136.809 249.95 137.022 250.427 137.382 250.787C137.742 251.147 138.219 251.36 138.708 251.38C139.198 251.399 139.659 251.223 139.992 250.891C140.324 250.559 140.5 250.097 140.48 249.608C140.461 249.118 140.247 248.641 139.888 248.281V248.281ZM155.73 232.438C155.371 232.079 154.893 231.865 154.404 231.846C153.915 231.826 153.453 232.002 153.121 232.334C152.788 232.667 152.613 233.128 152.632 233.618C152.652 234.107 152.865 234.584 153.225 234.944C153.585 235.304 154.062 235.517 154.551 235.537C155.041 235.556 155.502 235.381 155.834 235.048C156.167 234.716 156.342 234.254 156.323 233.765C156.303 233.276 156.09 232.798 155.73 232.438V232.438ZM171.572 216.596C171.396 216.408 171.187 216.254 170.957 216.144C170.726 216.034 170.479 215.969 170.231 215.955C169.983 215.94 169.739 215.976 169.512 216.059C169.286 216.143 169.082 216.273 168.914 216.441C168.746 216.609 168.616 216.813 168.532 217.039C168.448 217.265 168.412 217.51 168.427 217.758C168.441 218.006 168.505 218.253 168.615 218.483C168.725 218.714 168.879 218.923 169.068 219.1C169.43 219.439 169.9 219.634 170.377 219.645C170.854 219.655 171.303 219.48 171.627 219.156C171.951 218.832 172.127 218.384 172.117 217.906C172.107 217.429 171.912 216.959 171.572 216.596V216.596ZM187.415 200.754C187.239 200.565 187.03 200.411 186.799 200.301C186.569 200.191 186.322 200.126 186.074 200.112C185.826 200.097 185.581 200.133 185.355 200.217C185.129 200.3 184.925 200.43 184.757 200.598C184.588 200.767 184.458 200.97 184.375 201.196C184.291 201.422 184.255 201.667 184.27 201.915C184.284 202.163 184.348 202.41 184.458 202.64C184.568 202.871 184.722 203.081 184.91 203.257C185.273 203.596 185.743 203.792 186.22 203.802C186.697 203.812 187.145 203.637 187.47 203.313C187.794 202.989 187.97 202.541 187.96 202.063C187.95 201.586 187.754 201.117 187.415 200.754V200.754ZM203.258 184.911C203.082 184.725 202.872 184.574 202.643 184.466C202.413 184.359 202.168 184.296 201.921 184.283C201.675 184.27 201.432 184.307 201.208 184.39C200.983 184.474 200.781 184.603 200.614 184.77C200.447 184.937 200.317 185.139 200.233 185.364C200.15 185.588 200.113 185.831 200.126 186.077C200.139 186.324 200.201 186.569 200.309 186.799C200.416 187.028 200.567 187.238 200.752 187.415C201.115 187.76 201.586 187.961 202.067 187.974C202.548 187.987 203 187.812 203.327 187.485C203.654 187.158 203.829 186.706 203.817 186.226C203.804 185.745 203.603 185.273 203.258 184.911V184.911ZM219.102 169.067C218.742 168.707 218.265 168.494 217.776 168.474C217.286 168.455 216.824 168.631 216.492 168.963C216.16 169.295 215.984 169.757 216.004 170.246C216.023 170.736 216.236 171.213 216.596 171.573C216.956 171.933 217.433 172.146 217.923 172.165C218.412 172.185 218.874 172.009 219.206 171.677C219.538 171.344 219.714 170.883 219.695 170.393C219.675 169.904 219.462 169.427 219.102 169.067V169.067ZM234.944 153.225C234.584 152.865 234.107 152.652 233.618 152.632C233.128 152.613 232.667 152.788 232.334 153.121C232.002 153.453 231.826 153.915 231.846 154.404C231.865 154.894 232.078 155.371 232.438 155.731C232.798 156.09 233.275 156.304 233.765 156.323C234.254 156.343 234.716 156.167 235.048 155.835C235.38 155.502 235.556 155.041 235.537 154.551C235.517 154.062 235.304 153.585 234.944 153.225V153.225ZM250.787 137.382C250.427 137.022 249.95 136.809 249.461 136.789C248.971 136.77 248.509 136.946 248.177 137.278C247.845 137.61 247.669 138.072 247.689 138.561C247.708 139.051 247.921 139.528 248.281 139.888C248.641 140.248 249.118 140.461 249.608 140.48C250.097 140.5 250.559 140.324 250.891 139.992C251.223 139.659 251.399 139.198 251.38 138.708C251.36 138.219 251.147 137.742 250.787 137.382V137.382ZM266.63 121.539C266.27 121.179 265.793 120.966 265.303 120.947C264.814 120.927 264.352 121.103 264.02 121.435C263.688 121.767 263.512 122.229 263.532 122.718C263.551 123.208 263.764 123.685 264.124 124.045C264.484 124.405 264.961 124.618 265.451 124.637C265.94 124.657 266.402 124.481 266.734 124.149C267.066 123.817 267.242 123.355 267.222 122.866C267.203 122.376 266.99 121.899 266.63 121.539V121.539ZM282.473 105.696C282.113 105.336 281.636 105.123 281.146 105.104C280.657 105.084 280.195 105.26 279.863 105.592C279.531 105.924 279.355 106.386 279.374 106.875C279.394 107.365 279.607 107.842 279.967 108.202C280.327 108.562 280.804 108.775 281.293 108.794C281.783 108.814 282.244 108.638 282.577 108.306C282.909 107.974 283.085 107.512 283.065 107.023C283.046 106.533 282.833 106.056 282.473 105.696V105.696ZM90.8112 262.577C90.633 262.399 90.4241 262.255 90.1965 262.153C89.9688 262.051 89.727 261.994 89.4846 261.985C89.2423 261.975 89.0042 262.013 88.7841 262.097C88.5639 262.181 88.366 262.309 88.2015 262.473C88.037 262.638 87.9093 262.836 87.8255 263.056C87.7418 263.277 87.7037 263.515 87.7135 263.757C87.7232 263.999 87.7806 264.241 87.8823 264.469C87.9841 264.696 88.1282 264.905 88.3064 265.083C88.6663 265.443 89.1434 265.656 89.6329 265.676C90.1223 265.695 90.584 265.52 90.9162 265.187C91.2485 264.855 91.4242 264.393 91.4047 263.904C91.3852 263.415 91.172 262.937 90.8122 262.578L90.8112 262.577ZM106.655 246.733C106.477 246.555 106.268 246.411 106.04 246.309C105.812 246.207 105.57 246.15 105.327 246.14C105.085 246.131 104.847 246.169 104.626 246.253C104.406 246.337 104.208 246.465 104.043 246.63C103.879 246.794 103.751 246.993 103.667 247.213C103.583 247.433 103.545 247.672 103.555 247.914C103.565 248.157 103.622 248.399 103.724 248.626C103.826 248.854 103.97 249.063 104.148 249.241C104.508 249.601 104.986 249.814 105.475 249.834C105.965 249.853 106.427 249.678 106.759 249.345C107.092 249.013 107.267 248.551 107.248 248.062C107.228 247.572 107.015 247.095 106.655 246.735L106.655 246.733ZM122.497 230.891C122.319 230.713 122.11 230.569 121.882 230.467C121.654 230.365 121.412 230.308 121.17 230.299C120.928 230.289 120.689 230.327 120.469 230.411C120.249 230.495 120.051 230.623 119.886 230.788C119.722 230.952 119.594 231.15 119.51 231.371C119.427 231.591 119.388 231.829 119.398 232.072C119.408 232.314 119.465 232.556 119.567 232.784C119.669 233.011 119.813 233.22 119.991 233.398C120.351 233.758 120.828 233.971 121.318 233.991C121.807 234.01 122.269 233.835 122.601 233.502C122.933 233.17 123.109 232.708 123.09 232.219C123.07 231.73 122.857 231.252 122.497 230.893L122.497 230.891ZM138.34 215.048C138.162 214.87 137.953 214.726 137.725 214.624C137.497 214.522 137.255 214.465 137.013 214.456C136.77 214.446 136.532 214.484 136.312 214.568C136.092 214.652 135.894 214.78 135.729 214.945C135.565 215.109 135.437 215.308 135.353 215.528C135.269 215.748 135.231 215.986 135.241 216.229C135.251 216.471 135.308 216.713 135.41 216.941C135.512 217.168 135.656 217.377 135.834 217.555C136.194 217.915 136.671 218.128 137.161 218.148C137.65 218.167 138.112 217.992 138.444 217.66C138.776 217.327 138.952 216.866 138.933 216.376C138.913 215.887 138.7 215.41 138.34 215.05L138.34 215.048ZM154.182 199.206C153.822 198.846 153.345 198.633 152.856 198.613C152.366 198.594 151.904 198.77 151.572 199.102C151.24 199.434 151.064 199.896 151.084 200.385C151.103 200.875 151.316 201.352 151.676 201.712C152.036 202.072 152.513 202.285 153.003 202.304C153.492 202.324 153.954 202.148 154.286 201.816C154.618 201.483 154.794 201.022 154.775 200.532C154.755 200.043 154.542 199.566 154.182 199.206V199.206ZM170.025 183.363C169.665 183.003 169.188 182.79 168.698 182.77C168.209 182.751 167.747 182.927 167.415 183.259C167.083 183.591 166.907 184.053 166.927 184.542C166.946 185.032 167.159 185.509 167.519 185.869C167.879 186.229 168.356 186.442 168.846 186.461C169.335 186.481 169.797 186.305 170.129 185.973C170.461 185.641 170.637 185.179 170.617 184.689C170.598 184.2 170.385 183.723 170.025 183.363V183.363ZM185.868 167.52C185.508 167.16 185.031 166.947 184.541 166.928C184.052 166.908 183.59 167.084 183.258 167.416C182.926 167.748 182.75 168.21 182.769 168.699C182.789 169.189 183.002 169.666 183.362 170.026C183.722 170.386 184.199 170.599 184.688 170.618C185.178 170.638 185.64 170.462 185.972 170.13C186.304 169.798 186.48 169.336 186.46 168.847C186.441 168.357 186.228 167.88 185.868 167.52V167.52ZM201.711 151.676C201.533 151.498 201.324 151.354 201.097 151.253C200.869 151.151 200.627 151.094 200.384 151.084C200.142 151.075 199.904 151.113 199.684 151.197C199.463 151.281 199.265 151.409 199.101 151.573C198.936 151.738 198.809 151.936 198.725 152.156C198.641 152.377 198.603 152.615 198.613 152.857C198.622 153.1 198.68 153.341 198.782 153.569C198.883 153.797 199.028 154.006 199.206 154.184C199.566 154.544 200.043 154.757 200.532 154.776C201.022 154.796 201.483 154.62 201.816 154.288C202.148 153.956 202.324 153.494 202.304 153.005C202.285 152.515 202.071 152.038 201.712 151.678L201.711 151.676ZM217.554 135.834C217.375 135.656 217.166 135.512 216.939 135.411C216.711 135.309 216.469 135.252 216.227 135.242C215.985 135.233 215.747 135.271 215.526 135.355C215.306 135.439 215.108 135.567 214.944 135.731C214.779 135.896 214.652 136.094 214.568 136.314C214.484 136.534 214.446 136.772 214.456 137.015C214.465 137.257 214.523 137.499 214.625 137.726C214.726 137.954 214.87 138.163 215.049 138.341C215.409 138.701 215.886 138.914 216.375 138.934C216.865 138.953 217.326 138.777 217.659 138.445C217.991 138.113 218.167 137.651 218.147 137.162C218.127 136.672 217.914 136.195 217.554 135.835L217.554 135.834ZM233.396 119.991C233.218 119.813 233.009 119.669 232.782 119.568C232.554 119.466 232.312 119.409 232.07 119.399C231.827 119.39 231.589 119.428 231.369 119.512C231.149 119.596 230.951 119.724 230.787 119.888C230.622 120.053 230.494 120.251 230.411 120.471C230.327 120.691 230.289 120.929 230.299 121.172C230.308 121.414 230.366 121.656 230.468 121.884C230.569 122.111 230.713 122.32 230.892 122.498C231.252 122.858 231.729 123.071 232.218 123.091C232.707 123.11 233.169 122.934 233.501 122.602C233.834 122.27 234.009 121.808 233.99 121.319C233.97 120.829 233.757 120.352 233.397 119.992L233.396 119.991ZM249.239 104.149C249.061 103.97 248.852 103.826 248.624 103.725C248.397 103.623 248.155 103.566 247.912 103.556C247.67 103.547 247.432 103.585 247.211 103.669C246.991 103.753 246.793 103.881 246.629 104.045C246.464 104.21 246.336 104.408 246.253 104.628C246.169 104.849 246.131 105.087 246.14 105.329C246.15 105.572 246.208 105.814 246.309 106.041C246.411 106.269 246.555 106.478 246.734 106.656C247.094 107.016 247.571 107.229 248.061 107.249C248.55 107.268 249.012 107.093 249.344 106.76C249.677 106.428 249.852 105.966 249.833 105.476C249.813 104.987 249.6 104.509 249.24 104.149L249.239 104.149ZM265.082 88.3057C264.904 88.1275 264.695 87.9834 264.467 87.8818C264.24 87.7802 263.998 87.7229 263.755 87.7134C263.513 87.7038 263.275 87.742 263.054 87.8259C262.834 87.9098 262.636 88.0378 262.472 88.2024C262.307 88.3671 262.179 88.5652 262.096 88.7855C262.012 89.0058 261.974 89.244 261.983 89.4864C261.993 89.7288 262.051 89.9708 262.152 90.1984C262.254 90.4261 262.398 90.6349 262.577 90.8131C262.936 91.173 263.414 91.3862 263.903 91.4057C264.392 91.4252 264.854 91.2495 265.186 90.9172C265.519 90.5849 265.694 90.1233 265.675 89.6339C265.655 89.1444 265.442 88.6673 265.082 88.3074L265.082 88.3057ZM73.4226 245.188C73.0627 244.828 72.5855 244.615 72.0961 244.595C71.6067 244.576 71.145 244.752 70.8128 245.084C70.4805 245.416 70.3047 245.878 70.3243 246.367C70.3438 246.857 70.5569 247.334 70.9168 247.694C71.2767 248.054 71.7538 248.267 72.2433 248.286C72.7327 248.306 73.1943 248.13 73.5266 247.798C73.8589 247.465 74.0346 247.004 74.0151 246.514C73.9956 246.025 73.7824 245.548 73.4226 245.188V245.188ZM89.2663 229.344C88.9062 228.984 88.4287 228.771 87.9389 228.751C87.4492 228.732 86.9872 228.908 86.6547 229.24C86.3222 229.573 86.1464 230.035 86.1659 230.524C86.1855 231.014 86.3988 231.491 86.7589 231.852C87.1189 232.212 87.5962 232.425 88.0858 232.444C88.5754 232.464 89.0372 232.288 89.3696 231.956C89.7019 231.623 89.8777 231.162 89.8582 230.672C89.8386 230.182 89.6254 229.705 89.2654 229.345L89.2663 229.344ZM105.108 213.502C104.748 213.142 104.271 212.929 103.781 212.909C103.292 212.89 102.83 213.066 102.498 213.398C102.165 213.73 101.989 214.192 102.009 214.682C102.029 215.171 102.242 215.649 102.602 216.009C102.962 216.369 103.439 216.582 103.928 216.601C104.418 216.621 104.879 216.445 105.212 216.113C105.544 215.781 105.72 215.319 105.7 214.829C105.681 214.34 105.467 213.863 105.107 213.503L105.108 213.502ZM120.951 197.659C120.591 197.299 120.114 197.086 119.624 197.067C119.135 197.047 118.673 197.223 118.341 197.555C118.008 197.888 117.832 198.349 117.852 198.839C117.871 199.329 118.085 199.806 118.445 200.166C118.805 200.526 119.282 200.739 119.771 200.758C120.261 200.778 120.722 200.602 121.054 200.27C121.387 199.938 121.562 199.476 121.543 198.987C121.523 198.497 121.31 198.02 120.95 197.66L120.951 197.659ZM136.793 181.817C136.433 181.457 135.956 181.244 135.467 181.225C134.977 181.205 134.516 181.381 134.183 181.713C133.851 182.045 133.675 182.507 133.695 182.996C133.715 183.486 133.928 183.963 134.288 184.323C134.647 184.683 135.125 184.896 135.614 184.915C136.103 184.935 136.565 184.759 136.897 184.427C137.23 184.095 137.405 183.633 137.386 183.144C137.366 182.654 137.153 182.177 136.793 181.817ZM152.636 165.974C152.276 165.614 151.799 165.401 151.31 165.382C150.82 165.362 150.359 165.538 150.026 165.87C149.694 166.203 149.518 166.664 149.538 167.154C149.557 167.643 149.771 168.12 150.13 168.48C150.49 168.84 150.967 169.053 151.457 169.073C151.946 169.092 152.408 168.916 152.74 168.584C153.073 168.252 153.248 167.79 153.229 167.301C153.209 166.811 152.996 166.334 152.636 165.974ZM168.479 150.131C168.119 149.772 167.642 149.558 167.153 149.539C166.663 149.519 166.202 149.695 165.869 150.027C165.537 150.36 165.361 150.821 165.381 151.311C165.4 151.8 165.613 152.277 165.973 152.637C166.333 152.997 166.81 153.21 167.3 153.23C167.789 153.249 168.251 153.074 168.583 152.741C168.915 152.409 169.091 151.947 169.072 151.458C169.052 150.968 168.839 150.491 168.479 150.131V150.131ZM184.323 134.288C183.963 133.928 183.485 133.714 182.996 133.695C182.506 133.675 182.045 133.851 181.712 134.184C181.38 134.516 181.204 134.978 181.223 135.467C181.243 135.957 181.456 136.434 181.816 136.794C182.176 137.154 182.653 137.367 183.143 137.387C183.632 137.406 184.094 137.231 184.426 136.898C184.758 136.566 184.934 136.104 184.915 135.615C184.895 135.126 184.682 134.648 184.322 134.289L184.323 134.288ZM200.165 118.446C199.805 118.086 199.328 117.873 198.838 117.853C198.349 117.834 197.887 118.009 197.555 118.342C197.223 118.674 197.047 119.135 197.067 119.625C197.086 120.114 197.299 120.591 197.659 120.951C198.019 121.311 198.496 121.524 198.986 121.544C199.475 121.563 199.937 121.388 200.269 121.055C200.601 120.723 200.777 120.262 200.757 119.772C200.738 119.283 200.525 118.806 200.165 118.446V118.446ZM216.008 102.603C215.648 102.243 215.171 102.03 214.681 102.01C214.192 101.991 213.73 102.166 213.398 102.499C213.066 102.831 212.89 103.293 212.909 103.782C212.929 104.271 213.142 104.749 213.502 105.108C213.862 105.468 214.339 105.682 214.828 105.701C215.318 105.721 215.78 105.545 216.112 105.213C216.444 104.88 216.62 104.419 216.6 103.929C216.581 103.44 216.368 102.963 216.008 102.603ZM231.851 86.7599C231.491 86.3999 231.013 86.1867 230.524 86.1671C230.034 86.1476 229.572 86.3234 229.24 86.6558C228.908 86.9881 228.732 87.4499 228.751 87.9395C228.771 88.4291 228.984 88.9064 229.344 89.2664C229.704 89.6264 230.181 89.8396 230.671 89.8592C231.161 89.8787 231.622 89.7029 231.955 89.3705C232.287 89.0382 232.463 88.5764 232.443 88.0868C232.424 87.5972 232.211 87.1199 231.851 86.7599ZM247.694 70.917C247.334 70.557 246.856 70.3437 246.367 70.3242C245.877 70.3047 245.415 70.4805 245.083 70.8129C244.75 71.1453 244.575 71.607 244.594 72.0966C244.614 72.5862 244.827 73.0635 245.187 73.4235C245.547 73.7834 246.024 73.9966 246.513 74.0161C247.003 74.0356 247.464 73.8599 247.797 73.5276C248.129 73.1953 248.305 72.7337 248.285 72.2443C248.266 71.7548 248.053 71.2777 247.693 70.9178L247.694 70.917ZM56.032 227.797C55.6721 227.438 55.1949 227.225 54.7054 227.205C54.216 227.186 53.7545 227.362 53.4223 227.694C53.0901 228.027 52.9146 228.488 52.9343 228.978C52.9539 229.467 53.1672 229.944 53.5272 230.304C53.8871 230.664 54.3642 230.877 54.8537 230.897C55.3431 230.916 55.8047 230.74 56.137 230.408C56.4693 230.076 56.645 229.614 56.6255 229.125C56.606 228.635 56.3928 228.158 56.0329 227.798L56.032 227.797ZM71.8758 211.954C71.5155 211.594 71.038 211.381 70.5483 211.361C70.0585 211.342 69.5966 211.518 69.2643 211.85C68.9319 212.183 68.7562 212.645 68.7759 213.135C68.7956 213.625 69.009 214.102 69.3693 214.462C69.7293 214.822 70.2066 215.035 70.6962 215.055C71.1858 215.074 71.6476 214.899 71.9799 214.566C72.3123 214.234 72.4881 213.772 72.4686 213.282C72.4491 212.793 72.2358 212.315 71.8758 211.955L71.8758 211.954ZM87.7178 196.112C87.5395 195.933 87.3305 195.789 87.1029 195.688C86.8752 195.586 86.6332 195.529 86.3908 195.519C86.1483 195.51 85.9102 195.548 85.69 195.632C85.4697 195.716 85.2717 195.844 85.1072 196.008C84.9427 196.173 84.8149 196.371 84.7311 196.592C84.6473 196.812 84.6093 197.05 84.619 197.292C84.6288 197.535 84.6861 197.777 84.7879 198.004C84.8897 198.232 85.0339 198.441 85.2122 198.619C85.572 198.979 86.0492 199.192 86.5386 199.212C87.0281 199.231 87.4897 199.055 87.822 198.723C88.1542 198.391 88.33 197.929 88.3105 197.44C88.2909 196.95 88.0778 196.473 87.7179 196.113L87.7178 196.112ZM103.561 180.269C103.382 180.091 103.173 179.947 102.946 179.845C102.718 179.743 102.476 179.686 102.234 179.676C101.991 179.667 101.753 179.705 101.533 179.789C101.313 179.873 101.115 180.001 100.95 180.166C100.786 180.33 100.658 180.528 100.574 180.749C100.49 180.969 100.452 181.207 100.462 181.449C100.472 181.692 100.529 181.934 100.631 182.162C100.733 182.389 100.877 182.598 101.055 182.776C101.415 183.136 101.892 183.349 102.382 183.369C102.871 183.388 103.333 183.213 103.665 182.88C103.997 182.548 104.173 182.086 104.153 181.597C104.134 181.108 103.921 180.63 103.561 180.271L103.561 180.269ZM119.403 164.427C119.043 164.067 118.566 163.854 118.076 163.834C117.587 163.815 117.125 163.99 116.793 164.323C116.461 164.655 116.285 165.117 116.304 165.606C116.324 166.095 116.537 166.573 116.897 166.932C117.257 167.292 117.734 167.505 118.223 167.525C118.713 167.545 119.175 167.369 119.507 167.037C119.839 166.704 120.015 166.243 119.995 165.753C119.976 165.264 119.763 164.787 119.403 164.427ZM135.246 148.584C134.886 148.224 134.409 148.011 133.919 147.991C133.43 147.972 132.968 148.147 132.636 148.48C132.304 148.812 132.128 149.274 132.147 149.763C132.167 150.253 132.38 150.73 132.74 151.09C133.1 151.449 133.577 151.663 134.066 151.682C134.556 151.702 135.017 151.526 135.35 151.194C135.682 150.861 135.858 150.4 135.838 149.91C135.819 149.421 135.606 148.944 135.246 148.584ZM151.089 132.741C150.729 132.381 150.252 132.168 149.762 132.148C149.273 132.129 148.811 132.305 148.479 132.637C148.146 132.969 147.971 133.431 147.99 133.92C148.01 134.41 148.223 134.887 148.583 135.247C148.943 135.607 149.42 135.82 149.909 135.839C150.399 135.859 150.86 135.683 151.193 135.351C151.525 135.018 151.701 134.557 151.681 134.067C151.662 133.578 151.448 133.101 151.089 132.741V132.741ZM166.932 116.897C166.754 116.719 166.545 116.575 166.317 116.473C166.09 116.372 165.848 116.314 165.605 116.305C165.363 116.295 165.125 116.334 164.904 116.417C164.684 116.501 164.486 116.629 164.322 116.794C164.157 116.959 164.029 117.157 163.946 117.377C163.862 117.597 163.824 117.835 163.833 118.078C163.843 118.32 163.901 118.562 164.002 118.79C164.104 119.018 164.248 119.226 164.427 119.405C164.787 119.765 165.264 119.978 165.753 119.997C166.243 120.017 166.704 119.841 167.036 119.509C167.369 119.176 167.544 118.715 167.525 118.225C167.505 117.736 167.292 117.259 166.932 116.899L166.932 116.897ZM182.774 101.055C182.596 100.877 182.387 100.733 182.16 100.631C181.932 100.53 181.69 100.473 181.448 100.463C181.205 100.453 180.967 100.492 180.747 100.576C180.527 100.659 180.329 100.787 180.165 100.952C180 101.117 179.872 101.315 179.789 101.535C179.705 101.755 179.667 101.993 179.677 102.235C179.686 102.478 179.744 102.72 179.845 102.947C179.947 103.175 180.091 103.384 180.27 103.562C180.629 103.922 181.107 104.135 181.596 104.154C182.085 104.174 182.547 103.998 182.879 103.666C183.212 103.334 183.387 102.872 183.368 102.383C183.348 101.893 183.135 101.416 182.775 101.056L182.774 101.055ZM198.617 85.2123C198.257 84.8525 197.78 84.6395 197.291 84.6201C196.801 84.6008 196.34 84.7766 196.007 85.109C195.675 85.4414 195.5 85.9031 195.519 86.3926C195.539 86.882 195.752 87.3591 196.112 87.7189C196.472 88.0788 196.949 88.2919 197.439 88.3114C197.928 88.331 198.39 88.1552 198.722 87.823C199.054 87.4907 199.23 87.029 199.211 86.5396C199.191 86.0502 198.978 85.573 198.618 85.2132L198.617 85.2123ZM214.46 69.3694C214.282 69.1912 214.073 69.0471 213.845 68.9455C213.617 68.8439 213.375 68.7866 213.133 68.777C212.891 68.7675 212.653 68.8057 212.432 68.8896C212.212 68.9735 212.014 69.1015 211.85 69.2661C211.685 69.4308 211.557 69.6289 211.473 69.8492C211.39 70.0695 211.352 70.3077 211.361 70.5501C211.371 70.7925 211.428 71.0345 211.53 71.2621C211.632 71.4897 211.776 71.6986 211.954 71.8768C212.314 72.2368 212.792 72.45 213.281 72.4696C213.771 72.4891 214.233 72.3133 214.565 71.9809C214.898 71.6485 215.073 71.1868 215.054 70.6972C215.034 70.2076 214.821 69.7303 214.461 69.3703L214.46 69.3694ZM230.303 53.5265C230.125 53.3483 229.916 53.2042 229.688 53.1026C229.46 53.001 229.218 52.9437 228.976 52.9342C228.734 52.9246 228.495 52.9628 228.275 53.0467C228.055 53.1306 227.857 53.2586 227.692 53.4232C227.528 53.5879 227.4 53.786 227.316 54.0063C227.233 54.2266 227.194 54.4648 227.204 54.7072C227.214 54.9496 227.271 55.1916 227.373 55.4192C227.475 55.6469 227.619 55.8557 227.797 56.0339C228.157 56.3938 228.634 56.607 229.124 56.6265C229.613 56.646 230.075 56.4703 230.407 56.138C230.739 55.8057 230.915 55.3441 230.896 54.8547C230.876 54.3652 230.663 53.8881 230.303 53.5282L230.303 53.5265ZM38.6424 210.408C38.2823 210.048 37.8051 209.835 37.3157 209.816C36.8263 209.797 36.3648 209.973 36.0327 210.306C35.7007 210.638 35.5253 211.1 35.5451 211.589C35.565 212.079 35.7784 212.556 36.1385 212.915C36.4986 213.275 36.9759 213.488 37.4653 213.507C37.9547 213.526 38.4162 213.35 38.7483 213.018C39.0803 212.685 39.2557 212.223 39.2358 211.734C39.216 211.245 39.0025 210.767 38.6424 210.408ZM54.4862 194.564C54.3077 194.386 54.0987 194.242 53.8709 194.14C53.6431 194.039 53.401 193.982 53.1585 193.972C52.6688 193.953 52.207 194.129 51.8747 194.462C51.5424 194.794 51.3669 195.257 51.3868 195.746C51.4066 196.236 51.6202 196.713 51.9806 197.073C52.3408 197.433 52.8182 197.646 53.3078 197.665C53.7974 197.684 54.259 197.508 54.5912 197.176C54.9233 196.843 55.0988 196.381 55.0789 195.892C55.0591 195.402 54.8455 194.925 54.4853 194.565L54.4862 194.564ZM70.3282 178.722C70.1499 178.544 69.9409 178.4 69.7131 178.298C69.4854 178.197 69.2434 178.14 69.001 178.13C68.7586 178.121 68.5205 178.159 68.3003 178.243C68.0801 178.327 67.8821 178.455 67.7176 178.62C67.5532 178.784 67.4254 178.983 67.3418 179.203C67.2581 179.423 67.2201 179.661 67.2299 179.904C67.2397 180.146 67.2972 180.388 67.399 180.616C67.5009 180.843 67.6451 181.052 67.8235 181.23C68.1836 181.59 68.6609 181.803 69.1503 181.822C69.6397 181.841 70.1012 181.665 70.4332 181.333C70.7653 181 70.9406 180.538 70.9208 180.049C70.901 179.56 70.6875 179.083 70.3274 178.723L70.3282 178.722ZM86.1711 162.879C85.9927 162.701 85.7837 162.557 85.556 162.455C85.3283 162.354 85.0863 162.297 84.8439 162.287C84.6015 162.278 84.3634 162.316 84.1432 162.4C83.923 162.484 83.725 162.612 83.5605 162.777C83.3961 162.942 83.2683 163.14 83.1847 163.36C83.101 163.58 83.0629 163.819 83.0728 164.061C83.0826 164.303 83.1401 164.545 83.2419 164.773C83.3438 165.001 83.488 165.209 83.6663 165.388C84.0265 165.747 84.5037 165.96 84.9932 165.979C85.4826 165.998 85.9441 165.822 86.2761 165.49C86.6081 165.157 86.7835 164.696 86.7637 164.206C86.7438 163.717 86.5304 163.24 86.1703 162.88L86.1711 162.879ZM102.013 147.037C101.653 146.677 101.176 146.464 100.687 146.445C100.197 146.425 99.7357 146.601 99.4034 146.933C99.0711 147.265 98.8954 147.727 98.9149 148.216C98.9344 148.706 99.1476 149.183 99.5074 149.543C99.8673 149.903 100.344 150.116 100.834 150.135C101.323 150.155 101.785 149.979 102.117 149.647C102.45 149.315 102.625 148.853 102.606 148.364C102.586 147.874 102.373 147.397 102.013 147.037ZM117.856 131.194C117.496 130.834 117.019 130.621 116.53 130.602C116.04 130.582 115.579 130.758 115.246 131.09C114.914 131.422 114.738 131.884 114.758 132.373C114.777 132.863 114.99 133.34 115.35 133.7C115.71 134.06 116.187 134.273 116.677 134.292C117.166 134.312 117.628 134.136 117.96 133.804C118.292 133.472 118.468 133.01 118.449 132.521C118.429 132.031 118.216 131.554 117.856 131.194ZM133.699 115.351C133.339 114.991 132.862 114.778 132.372 114.759C131.883 114.739 131.421 114.915 131.089 115.247C130.757 115.58 130.581 116.041 130.601 116.531C130.62 117.02 130.833 117.497 131.193 117.857C131.553 118.217 132.03 118.43 132.52 118.45C133.009 118.469 133.471 118.293 133.803 117.961C134.135 117.629 134.311 117.167 134.291 116.678C134.272 116.188 134.059 115.711 133.699 115.351V115.351ZM149.543 99.5076C149.364 99.3294 149.155 99.1855 148.928 99.0839C148.7 98.9824 148.458 98.9252 148.215 98.9157C147.973 98.9062 147.735 98.9445 147.515 99.0285C147.295 99.1125 147.097 99.2405 146.932 99.4052C146.768 99.5699 146.64 99.7681 146.556 99.9885C146.473 100.209 146.435 100.447 146.444 100.689C146.454 100.932 146.512 101.174 146.613 101.401C146.715 101.629 146.86 101.838 147.038 102.016C147.398 102.376 147.875 102.588 148.365 102.608C148.854 102.627 149.316 102.451 149.648 102.118C149.98 101.786 150.155 101.324 150.135 100.835C150.115 100.345 149.902 99.8681 149.542 99.5084L149.543 99.5076ZM165.385 83.6655C165.206 83.4874 164.998 83.3435 164.77 83.242C164.542 83.1405 164.3 83.0834 164.058 83.0739C163.816 83.0644 163.578 83.1027 163.357 83.1866C163.137 83.2706 162.939 83.3986 162.775 83.5632C162.611 83.7279 162.483 83.926 162.399 84.1462C162.316 84.3665 162.278 84.6046 162.287 84.8469C162.297 85.0893 162.355 85.3311 162.457 85.5587C162.558 85.7862 162.703 85.995 162.881 86.1731C163.241 86.5327 163.718 86.7456 164.208 86.7648C164.697 86.784 165.159 86.6079 165.491 86.2754C165.823 85.9429 165.998 85.4811 165.978 84.9917C165.958 84.5022 165.745 84.0252 165.385 83.6655V83.6655ZM181.228 67.8226C181.049 67.6446 180.84 67.5007 180.613 67.3991C180.385 67.2976 180.143 67.2405 179.901 67.2309C179.659 67.2214 179.42 67.2598 179.2 67.3438C178.98 67.4277 178.782 67.5557 178.618 67.7203C178.453 67.885 178.326 68.0831 178.242 68.3033C178.158 68.5236 178.12 68.7617 178.13 69.0041C178.14 69.2464 178.198 69.4883 178.299 69.7158C178.401 69.9433 178.545 70.1521 178.724 70.3302C179.084 70.6898 179.561 70.9027 180.05 70.9219C180.54 70.9411 181.001 70.765 181.333 70.4325C181.665 70.1 181.841 69.6382 181.821 69.1488C181.801 68.6593 181.588 68.1823 181.228 67.8226V67.8226ZM197.071 51.9798C196.892 51.8016 196.683 51.6577 196.455 51.5561C196.228 51.4545 195.986 51.3974 195.743 51.3879C195.501 51.3784 195.263 51.4167 195.043 51.5007C194.822 51.5847 194.624 51.7127 194.46 51.8774C194.295 52.0421 194.168 52.2403 194.084 52.4606C194 52.6809 193.962 52.9191 193.972 53.1616C193.982 53.404 194.039 53.6459 194.141 53.8735C194.243 54.1011 194.387 54.31 194.566 54.4881C194.926 54.8479 195.403 55.0608 195.893 55.08C196.383 55.0992 196.844 54.9231 197.176 54.5905C197.509 54.2579 197.684 53.7959 197.664 53.3063C197.644 52.8167 197.431 52.3395 197.071 51.9798ZM212.913 36.1369C212.735 35.9587 212.526 35.8147 212.298 35.7132C212.071 35.6116 211.829 35.5545 211.586 35.545C211.344 35.5355 211.106 35.5738 210.885 35.6578C210.665 35.7418 210.467 35.8698 210.303 36.0345C210.138 36.1992 210.011 36.3974 209.927 36.6177C209.843 36.8381 209.805 37.0762 209.815 37.3187C209.825 37.5611 209.882 37.803 209.984 38.0307C210.086 38.2583 210.23 38.4671 210.409 38.6452C210.769 39.0049 211.246 39.2177 211.735 39.2369C212.225 39.2561 212.686 39.0801 213.018 38.7476C213.35 38.4151 213.526 37.9533 213.506 37.4639C213.486 36.9744 213.273 36.4974 212.913 36.1377L212.913 36.1369ZM21.2537 193.019C20.8939 192.659 20.4167 192.446 19.9273 192.427C19.4379 192.407 18.9762 192.583 18.6439 192.915C18.3117 193.247 18.136 193.709 18.1555 194.198C18.175 194.688 18.3881 195.165 18.748 195.525C19.1079 195.885 19.585 196.098 20.0745 196.117C20.5639 196.137 21.0255 195.961 21.3578 195.629C21.6901 195.297 21.8658 194.835 21.8463 194.346C21.8268 193.856 21.6136 193.379 21.2537 193.019V193.019ZM37.0975 177.175C36.7376 176.816 36.2605 176.602 35.771 176.583C35.2816 176.563 34.8199 176.739 34.4877 177.071C34.1554 177.404 33.9797 177.865 33.9992 178.355C34.0187 178.844 34.2319 179.321 34.5917 179.681C34.9516 180.041 35.4288 180.254 35.9182 180.274C36.4076 180.293 36.8693 180.118 37.2015 179.785C37.5338 179.453 37.7095 178.991 37.69 178.502C37.6705 178.012 37.4574 177.535 37.0975 177.175ZM52.9395 161.333C52.5797 160.973 52.1025 160.76 51.6131 160.741C51.1237 160.721 50.662 160.897 50.3297 161.229C49.9975 161.562 49.8217 162.023 49.8413 162.513C49.8608 163.002 50.0739 163.479 50.4338 163.839C50.7937 164.199 51.2708 164.412 51.7603 164.432C52.2497 164.451 52.7113 164.275 53.0436 163.943C53.3759 163.611 53.5516 163.149 53.5321 162.66C53.5126 162.17 53.2994 161.693 52.9395 161.333ZM68.7824 145.49C68.4225 145.131 67.9454 144.917 67.456 144.898C66.9665 144.878 66.5049 145.054 66.1726 145.386C65.8403 145.719 65.6646 146.18 65.6842 146.67C65.7037 147.159 65.9168 147.636 66.2767 147.996C66.6366 148.356 67.1137 148.569 67.6032 148.589C68.0926 148.608 68.5542 148.433 68.8865 148.1C69.2188 147.768 69.3945 147.306 69.375 146.817C69.3555 146.327 69.1423 145.85 68.7824 145.49ZM84.6245 129.648C84.4485 129.46 84.239 129.306 84.0086 129.196C83.7782 129.085 83.5315 129.021 83.2834 129.006C83.0352 128.992 82.7907 129.027 82.5643 129.111C82.3379 129.194 82.1344 129.324 81.9659 129.492C81.7974 129.66 81.6674 129.864 81.5836 130.09C81.4998 130.316 81.464 130.561 81.4782 130.809C81.4925 131.057 81.5565 131.304 81.6666 131.534C81.7766 131.765 81.9303 131.974 82.1186 132.151C82.4813 132.49 82.9507 132.686 83.4281 132.696C83.9055 132.707 84.3535 132.532 84.6781 132.208C85.0027 131.884 85.1785 131.436 85.1685 130.958C85.1585 130.481 84.9635 130.012 84.6245 129.648V129.648ZM100.467 113.806C100.291 113.617 100.082 113.463 99.8515 113.353C99.6211 113.242 99.3744 113.178 99.1263 113.163C98.8781 113.149 98.6336 113.184 98.4072 113.268C98.1808 113.351 97.9773 113.481 97.8088 113.649C97.6403 113.818 97.5103 114.021 97.4265 114.247C97.3427 114.473 97.3069 114.718 97.3211 114.966C97.3354 115.214 97.3994 115.461 97.5095 115.691C97.6195 115.922 97.7732 116.132 97.9615 116.308C98.3242 116.647 98.7936 116.843 99.271 116.854C99.7483 116.864 100.196 116.689 100.521 116.365C100.846 116.041 101.021 115.593 101.011 115.116C101.001 114.638 100.806 114.169 100.467 113.806V113.806ZM116.31 97.9626C116.134 97.7771 115.924 97.626 115.695 97.5182C115.465 97.4104 115.22 97.3481 114.973 97.3349C114.727 97.3217 114.484 97.358 114.26 97.4415C114.035 97.5251 113.833 97.6542 113.666 97.8214C113.498 97.9885 113.369 98.1902 113.285 98.4146C113.201 98.6391 113.165 98.8817 113.178 99.1281C113.19 99.3746 113.252 99.6199 113.36 99.8496C113.467 100.079 113.618 100.289 113.804 100.466C114.165 100.811 114.637 101.012 115.118 101.025C115.599 101.039 116.051 100.863 116.378 100.537C116.705 100.21 116.881 99.7586 116.868 99.2778C116.856 98.7969 116.655 98.325 116.31 97.9626V97.9626ZM132.154 82.1189C131.794 81.759 131.317 81.5459 130.828 81.5264C130.338 81.5068 129.876 81.6825 129.544 82.0148C129.212 82.3471 129.036 82.8088 129.056 83.2982C129.075 83.7876 129.288 84.2647 129.648 84.6246C130.008 84.9845 130.485 85.1977 130.975 85.2172C131.464 85.2367 131.926 85.061 132.258 84.7287C132.59 84.3964 132.766 83.9348 132.747 83.4454C132.727 82.9559 132.514 82.4788 132.154 82.1189ZM147.996 66.2768C147.636 65.9169 147.159 65.7038 146.67 65.6843C146.18 65.6648 145.719 65.8405 145.386 66.1728C145.054 66.505 144.878 66.9667 144.898 67.4561C144.917 67.9456 145.13 68.4227 145.49 68.7826C145.85 69.1424 146.327 69.3556 146.817 69.3751C147.306 69.3946 147.768 69.2189 148.1 68.8866C148.432 68.5544 148.608 68.0927 148.589 67.6033C148.569 67.1139 148.356 66.6367 147.996 66.2768V66.2768ZM163.839 50.434C163.479 50.0741 163.002 49.8609 162.512 49.8414C162.023 49.8219 161.561 49.9976 161.229 50.3299C160.897 50.6622 160.721 51.1238 160.741 51.6132C160.76 52.1027 160.973 52.5798 161.333 52.9397C161.693 53.2996 162.17 53.5127 162.66 53.5322C163.149 53.5518 163.611 53.376 163.943 53.0438C164.275 52.7115 164.451 52.2498 164.431 51.7604C164.412 51.271 164.199 50.7938 163.839 50.434ZM179.682 34.5911C179.322 34.2312 178.845 34.018 178.355 33.9985C177.866 33.979 177.404 34.1547 177.072 34.487C176.74 34.8193 176.564 35.2809 176.584 35.7703C176.603 36.2598 176.816 36.7369 177.176 37.0968C177.536 37.4567 178.013 37.6698 178.503 37.6893C178.992 37.7088 179.454 37.5332 179.786 37.2009C180.118 36.8686 180.294 36.407 180.274 35.9175C180.255 35.4281 180.042 34.951 179.682 34.5911V34.5911ZM195.525 18.7482C195.165 18.3883 194.688 18.1752 194.198 18.1556C193.709 18.1361 193.247 18.3118 192.915 18.6441C192.583 18.9764 192.407 19.438 192.426 19.9274C192.446 20.4169 192.659 20.894 193.019 21.2539C193.379 21.6138 193.856 21.8269 194.345 21.8464C194.835 21.8659 195.296 21.6903 195.629 21.358C195.961 21.0257 196.137 20.5641 196.117 20.0746C196.098 19.5852 195.885 19.1081 195.525 18.7482ZM3.86324 175.629C3.50325 175.269 3.02604 175.056 2.53662 175.037C2.04719 175.017 1.58565 175.193 1.25349 175.525C0.921327 175.858 0.745779 176.32 0.76546 176.809C0.78514 177.298 0.998431 177.776 1.35842 178.135C1.71831 178.495 2.19543 178.708 2.68487 178.728C3.1743 178.747 3.63594 178.572 3.96823 178.239C4.30051 177.907 4.47622 177.445 4.4567 176.956C4.43718 176.467 4.22403 175.989 3.86415 175.63L3.86324 175.629ZM19.707 159.785C19.3467 159.425 18.8692 159.212 18.3795 159.192C17.8897 159.173 17.4278 159.349 17.0955 159.682C16.7631 160.014 16.5874 160.476 16.6071 160.966C16.6268 161.456 16.8403 161.933 17.2005 162.293C17.5605 162.653 18.0378 162.866 18.5274 162.886C19.017 162.905 19.4788 162.73 19.8112 162.397C20.1435 162.065 20.3193 161.603 20.2998 161.114C20.2802 160.624 20.067 160.147 19.707 159.787L19.707 159.785ZM35.549 143.943C35.1889 143.583 34.7116 143.37 34.222 143.351C33.7324 143.331 33.2707 143.507 32.9384 143.84C32.6061 144.172 32.4305 144.634 32.4502 145.124C32.4699 145.613 32.6833 146.09 33.0434 146.45C33.4033 146.81 33.8804 147.023 34.3698 147.043C34.8592 147.062 35.3209 146.887 35.6532 146.554C35.9855 146.222 36.1612 145.76 36.1416 145.271C36.1221 144.782 35.909 144.304 35.5491 143.945L35.549 143.943ZM51.3919 128.1C51.0318 127.74 50.5545 127.527 50.0649 127.508C49.5753 127.488 49.1135 127.664 48.7813 127.997C48.449 128.329 48.2734 128.791 48.2931 129.281C48.3128 129.77 48.5261 130.248 48.8863 130.607C49.2461 130.967 49.7233 131.18 50.2127 131.2C50.7022 131.219 51.1638 131.044 51.4961 130.712C51.8283 130.379 52.004 129.918 51.9845 129.428C51.965 128.939 51.7519 128.462 51.392 128.102L51.3919 128.1ZM67.234 112.258C66.8741 111.898 66.397 111.685 65.9075 111.665C65.4181 111.646 64.9565 111.822 64.6242 112.154C64.2919 112.486 64.1162 112.948 64.1357 113.437C64.1552 113.927 64.3684 114.404 64.7282 114.764C65.0881 115.124 65.5653 115.337 66.0547 115.356C66.5441 115.376 67.0058 115.2 67.338 114.868C67.6703 114.535 67.8461 114.074 67.8265 113.584C67.807 113.095 67.5939 112.618 67.234 112.258V112.258ZM83.0769 96.415C82.717 96.0551 82.2398 95.842 81.7504 95.8225C81.261 95.803 80.7993 95.9787 80.4671 96.311C80.1348 96.6432 79.9591 97.1049 79.9786 97.5943C79.9981 98.0837 80.2112 98.5609 80.5711 98.9208C80.931 99.2806 81.4082 99.4938 81.8976 99.5133C82.387 99.5328 82.8486 99.3571 83.1809 99.0248C83.5132 98.6925 83.6889 98.2309 83.6694 97.7415C83.6499 97.252 83.4367 96.7749 83.0769 96.415V96.415ZM98.9198 80.5721C98.5599 80.2122 98.0827 79.9991 97.5933 79.9796C97.1039 79.9601 96.6422 80.1358 96.31 80.468C95.9777 80.8003 95.802 81.262 95.8215 81.7514C95.841 82.2408 96.0542 82.718 96.414 83.0778C96.7739 83.4377 97.2511 83.6509 97.7405 83.6704C98.2299 83.6899 98.6916 83.5142 99.0238 83.1819C99.3561 82.8496 99.5318 82.388 99.5123 81.8986C99.4928 81.4092 99.2796 80.932 98.9198 80.5721V80.5721ZM114.763 64.7284C114.585 64.5502 114.376 64.4062 114.149 64.3045C113.921 64.2029 113.679 64.1457 113.436 64.1361C113.194 64.1265 112.956 64.1648 112.736 64.2487C112.515 64.3326 112.317 64.4605 112.153 64.6252C111.988 64.7898 111.861 64.9879 111.777 65.2082C111.693 65.4286 111.655 65.6667 111.665 65.9091C111.674 66.1516 111.732 66.3935 111.834 66.6211C111.935 66.8488 112.08 67.0577 112.258 67.2359C112.618 67.5958 113.095 67.8089 113.584 67.8284C114.074 67.8479 114.535 67.6722 114.868 67.3399C115.2 67.0077 115.376 66.546 115.356 66.0566C115.337 65.5672 115.123 65.09 114.764 64.7301L114.763 64.7284ZM130.606 48.8863C130.427 48.7082 130.218 48.5642 129.991 48.4626C129.763 48.361 129.521 48.3038 129.279 48.2942C129.037 48.2846 128.799 48.3229 128.578 48.4068C128.358 48.4907 128.16 48.6186 127.996 48.7831C127.831 48.9477 127.704 49.1458 127.62 49.366C127.536 49.5862 127.498 49.8243 127.508 50.0667C127.517 50.309 127.575 50.5509 127.677 50.7785C127.778 51.006 127.922 51.2148 128.101 51.393C128.461 51.7529 128.938 51.966 129.427 51.9855C129.917 52.005 130.378 51.8293 130.711 51.497C131.043 51.1648 131.219 50.7031 131.199 50.2137C131.179 49.7243 130.966 49.2471 130.606 48.8872L130.606 48.8863ZM146.448 33.0434C146.088 32.6837 145.611 32.4707 145.122 32.4513C144.632 32.432 144.171 32.6078 143.839 32.9402C143.507 33.2726 143.331 33.7343 143.351 34.2238C143.37 34.7132 143.584 35.1903 143.944 35.5501C144.303 35.91 144.781 36.1231 145.27 36.1426C145.759 36.1621 146.221 35.9864 146.553 35.6542C146.886 35.3219 147.061 34.8602 147.042 34.3708C147.022 33.8814 146.809 33.4042 146.449 33.0444L146.448 33.0434ZM162.291 17.2006C161.931 16.8407 161.454 16.6276 160.964 16.6082C160.475 16.5889 160.013 16.7648 159.681 17.0973C159.348 17.4298 159.173 17.8917 159.193 18.3813C159.212 18.8709 159.426 19.3481 159.786 19.708C160.146 20.068 160.623 20.2812 161.113 20.3008C161.602 20.3203 162.064 20.1445 162.396 19.8121C162.729 19.4798 162.904 19.018 162.885 18.5284C162.865 18.0388 162.652 17.5615 162.292 17.2015L162.291 17.2006ZM178.134 1.35768C177.956 1.17948 177.747 1.03544 177.519 0.933808C177.292 0.832179 177.05 0.77494 176.807 0.765353C176.565 0.755767 176.327 0.794002 176.106 0.877918C175.886 0.961834 175.688 1.08978 175.524 1.25443C175.359 1.41907 175.231 1.61718 175.148 1.83749C175.064 2.05779 175.026 2.29597 175.035 2.5384C175.045 2.78082 175.103 3.02278 175.204 3.25042C175.306 3.47806 175.45 3.68694 175.629 3.86514C175.988 4.22502 176.466 4.43817 176.955 4.45769C177.444 4.4772 177.906 4.30149 178.238 3.96921C178.571 3.63693 178.746 3.17529 178.727 2.68585C178.707 2.19642 178.494 1.71929 178.134 1.35941L178.134 1.35768Z" fill="#0FC5B0" fill-opacity="0.15"/>
</svg>
