<svg width="1198" height="770" viewBox="0 0 1198 770" fill="none" xmlns="http://www.w3.org/2000/svg">
<path d="M213.509 459.625C213.077 459.193 212.504 458.937 211.916 458.913C211.328 458.89 210.774 459.1 210.376 459.499C209.977 459.898 209.766 460.452 209.79 461.039C209.814 461.627 210.07 462.2 210.502 462.632C210.934 463.065 211.507 463.321 212.095 463.344C212.682 463.368 213.236 463.157 213.635 462.759C214.034 462.36 214.245 461.806 214.221 461.218C214.197 460.631 213.941 460.058 213.509 459.625V459.625ZM232.521 440.613C232.089 440.18 231.515 439.924 230.927 439.9C230.339 439.877 229.785 440.087 229.386 440.486C228.987 440.885 228.776 441.44 228.8 442.028C228.824 442.616 229.08 443.189 229.512 443.622C229.945 444.054 230.518 444.31 231.106 444.334C231.694 444.358 232.248 444.147 232.647 443.748C233.046 443.349 233.256 442.795 233.233 442.207C233.209 441.62 232.953 441.046 232.52 440.614L232.521 440.613ZM251.532 421.602C251.099 421.17 250.526 420.914 249.938 420.89C249.351 420.866 248.796 421.077 248.397 421.476C247.999 421.875 247.788 422.429 247.812 423.017C247.835 423.605 248.091 424.178 248.524 424.61C248.956 425.043 249.529 425.299 250.117 425.323C250.704 425.346 251.258 425.136 251.657 424.737C252.056 424.338 252.267 423.784 252.243 423.196C252.219 422.609 251.963 422.036 251.531 421.603L251.532 421.602ZM270.543 402.591C270.111 402.159 269.538 401.902 268.95 401.879C268.362 401.855 267.808 402.066 267.409 402.465C267.01 402.863 266.799 403.418 266.823 404.006C266.847 404.593 267.103 405.167 267.535 405.599C267.968 406.031 268.541 406.287 269.128 406.311C269.716 406.335 270.27 406.124 270.669 405.725C271.067 405.327 271.278 404.772 271.254 404.185C271.231 403.597 270.974 403.024 270.542 402.592L270.543 402.591ZM289.554 383.581C289.121 383.148 288.548 382.892 287.961 382.868C287.373 382.845 286.819 383.055 286.42 383.454C286.022 383.853 285.811 384.407 285.835 384.995C285.858 385.582 286.115 386.155 286.547 386.587C286.979 387.02 287.552 387.276 288.14 387.3C288.727 387.323 289.281 387.113 289.68 386.714C290.079 386.315 290.29 385.761 290.266 385.173C290.242 384.586 289.986 384.013 289.554 383.581ZM308.565 364.569C308.133 364.137 307.56 363.881 306.972 363.857C306.385 363.833 305.831 364.044 305.432 364.443C305.033 364.841 304.822 365.396 304.846 365.983C304.87 366.571 305.126 367.144 305.558 367.576C305.991 368.008 306.564 368.264 307.151 368.288C307.739 368.312 308.293 368.101 308.692 367.702C309.09 367.304 309.301 366.75 309.277 366.162C309.254 365.574 308.997 365.001 308.565 364.569ZM327.577 345.558C327.144 345.125 326.571 344.869 325.984 344.845C325.396 344.822 324.842 345.032 324.443 345.431C324.045 345.83 323.834 346.384 323.858 346.972C323.881 347.559 324.138 348.132 324.57 348.564C325.002 348.997 325.575 349.253 326.163 349.277C326.75 349.3 327.304 349.09 327.703 348.691C328.102 348.292 328.312 347.738 328.289 347.15C328.265 346.563 328.009 345.99 327.577 345.558V345.558ZM346.589 326.545C346.157 326.113 345.584 325.856 344.996 325.833C344.408 325.809 343.854 326.02 343.455 326.419C343.056 326.818 342.845 327.372 342.869 327.96C342.893 328.547 343.149 329.121 343.581 329.553C344.013 329.985 344.586 330.241 345.174 330.265C345.762 330.289 346.316 330.078 346.715 329.679C347.113 329.281 347.324 328.727 347.3 328.139C347.277 327.551 347.02 326.978 346.588 326.546L346.589 326.545ZM365.6 307.535C365.167 307.102 364.594 306.846 364.007 306.823C363.419 306.799 362.865 307.01 362.466 307.408C362.068 307.807 361.857 308.361 361.881 308.949C361.904 309.536 362.16 310.109 362.593 310.542C363.025 310.974 363.598 311.23 364.186 311.254C364.773 311.277 365.327 311.067 365.726 310.668C366.125 310.269 366.335 309.715 366.312 309.127C366.288 308.54 366.032 307.967 365.6 307.535V307.535ZM384.611 288.523C384.179 288.091 383.606 287.835 383.018 287.811C382.431 287.787 381.877 287.998 381.478 288.397C381.079 288.796 380.868 289.35 380.892 289.937C380.916 290.525 381.172 291.098 381.604 291.53C382.036 291.962 382.609 292.219 383.197 292.242C383.785 292.266 384.339 292.055 384.737 291.656C385.136 291.258 385.347 290.704 385.323 290.116C385.299 289.528 385.043 288.955 384.611 288.523ZM403.623 269.512C403.19 269.079 402.617 268.823 402.029 268.799C401.441 268.776 400.887 268.986 400.488 269.385C400.089 269.784 399.879 270.338 399.902 270.926C399.926 271.514 400.182 272.087 400.615 272.52C401.047 272.952 401.62 273.208 402.208 273.232C402.796 273.256 403.35 273.045 403.749 272.646C404.148 272.247 404.359 271.693 404.335 271.105C404.311 270.517 404.055 269.944 403.623 269.512ZM422.634 250.5C422.202 250.068 421.628 249.812 421.041 249.788C420.453 249.764 419.899 249.975 419.5 250.374C419.101 250.773 418.89 251.327 418.914 251.915C418.937 252.503 419.194 253.076 419.626 253.508C420.058 253.94 420.631 254.197 421.219 254.22C421.807 254.244 422.361 254.033 422.759 253.635C423.158 253.236 423.369 252.682 423.345 252.094C423.321 251.506 423.065 250.934 422.633 250.501L422.634 250.5ZM192.622 438.738C192.189 438.306 191.616 438.05 191.029 438.027C190.441 438.003 189.887 438.214 189.489 438.613C189.09 439.012 188.879 439.566 188.903 440.154C188.927 440.741 189.184 441.314 189.616 441.746C189.83 441.96 190.081 442.133 190.354 442.255C190.628 442.378 190.918 442.446 191.209 442.458C191.5 442.47 191.786 442.424 192.05 442.323C192.314 442.223 192.552 442.069 192.749 441.872C192.947 441.674 193.1 441.437 193.2 441.172C193.301 440.908 193.346 440.622 193.334 440.331C193.323 440.04 193.254 439.75 193.131 439.476C193.009 439.203 192.836 438.952 192.622 438.738ZM211.634 419.726C211.202 419.294 210.628 419.037 210.04 419.014C209.452 418.99 208.898 419.201 208.499 419.6C208.1 420 207.889 420.554 207.913 421.142C207.937 421.73 208.194 422.303 208.626 422.736C209.059 423.168 209.632 423.424 210.22 423.448C210.808 423.471 211.362 423.26 211.761 422.861C212.159 422.462 212.37 421.908 212.346 421.32C212.322 420.732 212.066 420.159 211.633 419.727L211.634 419.726ZM230.645 400.715C230.431 400.501 230.18 400.328 229.906 400.206C229.633 400.084 229.342 400.015 229.051 400.004C228.76 399.992 228.474 400.038 228.21 400.138C227.946 400.239 227.708 400.392 227.51 400.59C227.313 400.788 227.16 401.025 227.059 401.29C226.959 401.554 226.913 401.84 226.925 402.131C226.937 402.422 227.006 402.713 227.128 402.986C227.251 403.26 227.424 403.51 227.638 403.724C228.07 404.157 228.643 404.413 229.231 404.436C229.819 404.46 230.373 404.249 230.771 403.85C231.17 403.451 231.38 402.897 231.356 402.309C231.332 401.722 231.076 401.149 230.644 400.716L230.645 400.715ZM249.656 381.704C249.442 381.49 249.191 381.317 248.918 381.195C248.644 381.073 248.354 381.004 248.063 380.992C247.772 380.98 247.486 381.026 247.221 381.127C246.957 381.228 246.719 381.381 246.522 381.579C246.324 381.776 246.171 382.014 246.071 382.278C245.97 382.543 245.925 382.829 245.937 383.12C245.948 383.411 246.017 383.701 246.14 383.975C246.262 384.248 246.435 384.499 246.649 384.713C246.864 384.927 247.114 385.1 247.388 385.222C247.661 385.344 247.951 385.413 248.242 385.425C248.533 385.436 248.819 385.39 249.083 385.29C249.348 385.189 249.585 385.036 249.783 384.838C249.98 384.641 250.133 384.403 250.234 384.139C250.334 383.874 250.38 383.589 250.368 383.298C250.356 383.007 250.287 382.716 250.165 382.443C250.042 382.17 249.869 381.919 249.655 381.705L249.656 381.704ZM268.667 362.694C268.234 362.261 267.661 362.005 267.074 361.981C266.486 361.958 265.932 362.168 265.533 362.567C265.135 362.966 264.924 363.52 264.948 364.108C264.971 364.695 265.228 365.268 265.66 365.7C266.092 366.133 266.665 366.389 267.253 366.413C267.84 366.436 268.394 366.226 268.793 365.827C269.192 365.428 269.403 364.874 269.379 364.286C269.355 363.699 269.099 363.126 268.667 362.694V362.694ZM287.678 343.682C287.246 343.25 286.673 342.994 286.085 342.97C285.498 342.946 284.944 343.157 284.545 343.556C284.146 343.954 283.935 344.508 283.959 345.096C283.983 345.684 284.239 346.257 284.671 346.689C285.104 347.121 285.677 347.377 286.264 347.401C286.852 347.425 287.406 347.214 287.805 346.815C288.203 346.417 288.414 345.862 288.39 345.275C288.367 344.687 288.11 344.114 287.678 343.682V343.682ZM306.69 324.671C306.257 324.238 305.684 323.982 305.097 323.958C304.509 323.935 303.955 324.145 303.556 324.544C303.158 324.943 302.947 325.497 302.971 326.085C302.994 326.672 303.25 327.245 303.683 327.677C304.115 328.11 304.688 328.366 305.276 328.39C305.863 328.413 306.417 328.203 306.816 327.804C307.215 327.405 307.425 326.851 307.402 326.263C307.378 325.676 307.122 325.103 306.69 324.671V324.671ZM325.702 305.658C325.488 305.444 325.237 305.271 324.964 305.149C324.69 305.027 324.4 304.958 324.109 304.946C323.817 304.935 323.532 304.98 323.267 305.081C323.003 305.182 322.765 305.335 322.568 305.533C322.37 305.73 322.217 305.968 322.117 306.233C322.016 306.497 321.971 306.783 321.982 307.074C321.994 307.365 322.063 307.655 322.186 307.929C322.308 308.202 322.481 308.453 322.695 308.667C322.909 308.881 323.16 309.054 323.434 309.176C323.707 309.298 323.997 309.367 324.288 309.379C324.579 309.39 324.865 309.345 325.129 309.244C325.394 309.143 325.631 308.99 325.829 308.792C326.026 308.595 326.179 308.357 326.28 308.093C326.38 307.829 326.426 307.543 326.414 307.252C326.402 306.961 326.333 306.67 326.211 306.397C326.088 306.124 325.915 305.873 325.701 305.659L325.702 305.658ZM344.713 286.648C344.498 286.434 344.248 286.261 343.974 286.139C343.701 286.017 343.411 285.948 343.12 285.936C342.829 285.924 342.543 285.97 342.279 286.071C342.014 286.171 341.777 286.325 341.579 286.522C341.382 286.72 341.229 286.958 341.128 287.222C341.028 287.486 340.982 287.772 340.994 288.063C341.006 288.354 341.075 288.644 341.197 288.918C341.32 289.191 341.493 289.442 341.707 289.656C342.139 290.088 342.712 290.344 343.3 290.367C343.887 290.391 344.441 290.18 344.84 289.781C345.239 289.382 345.449 288.828 345.425 288.24C345.401 287.653 345.145 287.08 344.713 286.648V286.648ZM363.724 267.636C363.292 267.204 362.719 266.948 362.131 266.925C361.543 266.901 360.989 267.112 360.591 267.511C360.192 267.91 359.982 268.464 360.006 269.052C360.03 269.639 360.286 270.212 360.718 270.644C360.932 270.858 361.183 271.031 361.457 271.153C361.73 271.275 362.02 271.344 362.311 271.356C362.602 271.367 362.888 271.322 363.152 271.221C363.417 271.12 363.654 270.967 363.851 270.77C364.049 270.572 364.202 270.334 364.303 270.07C364.403 269.806 364.449 269.52 364.437 269.229C364.425 268.938 364.356 268.647 364.234 268.374C364.111 268.101 363.938 267.85 363.724 267.636ZM382.735 248.625C382.521 248.411 382.27 248.238 381.997 248.116C381.724 247.993 381.433 247.924 381.142 247.913C380.851 247.901 380.565 247.947 380.301 248.048C380.036 248.148 379.799 248.302 379.601 248.499C379.404 248.697 379.25 248.935 379.15 249.199C379.05 249.464 379.004 249.749 379.016 250.041C379.028 250.332 379.097 250.622 379.219 250.895C379.341 251.169 379.515 251.42 379.729 251.634C380.161 252.066 380.734 252.322 381.322 252.346C381.91 252.369 382.464 252.158 382.863 251.759C383.262 251.36 383.472 250.806 383.448 250.218C383.424 249.63 383.168 249.057 382.735 248.625V248.625ZM401.747 229.613C401.533 229.399 401.282 229.226 401.008 229.104C400.735 228.982 400.444 228.913 400.153 228.901C399.862 228.89 399.577 228.936 399.312 229.036C399.048 229.137 398.81 229.29 398.613 229.488C398.415 229.685 398.262 229.923 398.162 230.188C398.061 230.452 398.015 230.738 398.027 231.029C398.039 231.32 398.108 231.611 398.23 231.884C398.353 232.157 398.526 232.408 398.74 232.622C399.173 233.054 399.746 233.31 400.333 233.334C400.921 233.357 401.475 233.146 401.873 232.748C402.272 232.349 402.483 231.794 402.459 231.207C402.435 230.619 402.178 230.046 401.746 229.614L401.747 229.613ZM171.735 417.851C171.303 417.419 170.73 417.163 170.142 417.139C169.554 417.116 169 417.326 168.601 417.725C168.203 418.124 167.992 418.678 168.016 419.265C168.039 419.853 168.296 420.426 168.728 420.858C169.16 421.291 169.733 421.547 170.321 421.57C170.908 421.594 171.462 421.383 171.861 420.985C172.26 420.586 172.471 420.032 172.447 419.444C172.423 418.857 172.167 418.284 171.735 417.851V417.851ZM190.747 398.839C190.315 398.407 189.742 398.151 189.154 398.127C188.567 398.103 188.013 398.314 187.614 398.713C187.215 399.111 187.005 399.665 187.028 400.253C187.052 400.841 187.308 401.414 187.74 401.846C188.173 402.278 188.746 402.534 189.333 402.558C189.921 402.582 190.475 402.371 190.874 401.972C191.272 401.573 191.483 401.019 191.459 400.432C191.436 399.844 191.18 399.271 190.747 398.839V398.839ZM209.758 379.828C209.325 379.396 208.753 379.14 208.165 379.116C207.577 379.093 207.023 379.303 206.624 379.702C206.226 380.101 206.015 380.655 206.039 381.243C206.062 381.83 206.319 382.403 206.751 382.835C207.183 383.268 207.756 383.524 208.344 383.547C208.931 383.571 209.485 383.36 209.884 382.962C210.283 382.563 210.494 382.009 210.47 381.421C210.446 380.834 210.19 380.261 209.758 379.828V379.828ZM228.769 360.817C228.337 360.385 227.764 360.129 227.176 360.105C226.589 360.081 226.035 360.292 225.636 360.691C225.237 361.089 225.026 361.643 225.05 362.231C225.074 362.819 225.33 363.392 225.762 363.824C226.195 364.256 226.768 364.512 227.355 364.536C227.943 364.56 228.497 364.349 228.896 363.95C229.294 363.552 229.505 362.997 229.481 362.41C229.458 361.822 229.201 361.249 228.769 360.817V360.817ZM247.78 341.807C247.568 341.58 247.317 341.395 247.04 341.263C246.763 341.13 246.467 341.053 246.169 341.035C245.871 341.018 245.578 341.06 245.306 341.161C245.034 341.261 244.79 341.417 244.588 341.619C244.386 341.821 244.23 342.065 244.129 342.336C244.029 342.608 243.986 342.901 244.004 343.199C244.021 343.497 244.098 343.793 244.23 344.07C244.363 344.347 244.547 344.599 244.774 344.81C245.209 345.218 245.773 345.453 246.346 345.466C246.919 345.479 247.457 345.268 247.847 344.879C248.236 344.49 248.447 343.953 248.434 343.379C248.422 342.806 248.187 342.243 247.78 341.807ZM266.791 322.795C266.58 322.569 266.328 322.384 266.051 322.251C265.775 322.119 265.478 322.041 265.181 322.024C264.883 322.006 264.589 322.049 264.317 322.149C264.046 322.249 263.801 322.405 263.599 322.607C263.397 322.809 263.241 323.053 263.141 323.325C263.041 323.596 262.998 323.89 263.015 324.188C263.032 324.486 263.11 324.782 263.242 325.059C263.374 325.336 263.559 325.587 263.785 325.799C264.221 326.206 264.785 326.441 265.358 326.454C265.931 326.467 266.469 326.257 266.858 325.868C267.247 325.479 267.458 324.941 267.446 324.368C267.433 323.795 267.198 323.231 266.791 322.795V322.795ZM285.803 303.784C285.59 303.561 285.339 303.379 285.063 303.25C284.787 303.12 284.493 303.046 284.197 303.03C283.901 303.014 283.61 303.057 283.34 303.158C283.071 303.258 282.828 303.413 282.628 303.614C282.427 303.814 282.272 304.056 282.171 304.326C282.071 304.595 282.027 304.886 282.043 305.182C282.058 305.478 282.133 305.773 282.262 306.049C282.392 306.324 282.573 306.576 282.796 306.788C283.23 307.203 283.797 307.444 284.374 307.46C284.952 307.476 285.494 307.266 285.886 306.874C286.279 306.482 286.489 305.94 286.474 305.363C286.458 304.785 286.217 304.219 285.803 303.784V303.784ZM304.815 284.771C304.383 284.339 303.81 284.083 303.222 284.059C302.635 284.035 302.081 284.246 301.682 284.645C301.283 285.043 301.072 285.598 301.096 286.185C301.12 286.773 301.376 287.346 301.808 287.778C302.24 288.21 302.813 288.466 303.401 288.49C303.989 288.514 304.543 288.303 304.941 287.904C305.34 287.506 305.551 286.952 305.527 286.364C305.504 285.776 305.247 285.203 304.815 284.771V284.771ZM323.826 265.761C323.393 265.328 322.82 265.072 322.233 265.049C321.645 265.025 321.091 265.235 320.692 265.634C320.294 266.033 320.083 266.587 320.107 267.175C320.13 267.762 320.386 268.335 320.819 268.767C321.251 269.2 321.824 269.456 322.411 269.48C322.999 269.503 323.553 269.293 323.952 268.894C324.351 268.495 324.561 267.941 324.538 267.353C324.514 266.766 324.258 266.193 323.826 265.761V265.761ZM342.837 246.749C342.405 246.317 341.832 246.061 341.244 246.037C340.657 246.013 340.102 246.224 339.704 246.623C339.305 247.021 339.094 247.576 339.118 248.163C339.142 248.751 339.398 249.324 339.83 249.756C340.262 250.188 340.835 250.444 341.423 250.468C342.011 250.492 342.565 250.281 342.963 249.882C343.362 249.484 343.573 248.93 343.549 248.342C343.525 247.754 343.269 247.181 342.837 246.749V246.749ZM361.848 227.738C361.416 227.305 360.843 227.049 360.256 227.026C359.668 227.002 359.114 227.213 358.715 227.611C358.316 228.01 358.106 228.564 358.129 229.152C358.153 229.739 358.409 230.312 358.842 230.745C359.274 231.177 359.847 231.433 360.434 231.457C361.022 231.48 361.576 231.27 361.975 230.871C362.374 230.472 362.584 229.918 362.561 229.331C362.537 228.743 362.281 228.17 361.848 227.738V227.738ZM380.86 208.726C380.428 208.294 379.855 208.038 379.267 208.014C378.68 207.99 378.125 208.201 377.727 208.6C377.328 208.999 377.117 209.553 377.141 210.14C377.165 210.728 377.421 211.301 377.853 211.733C378.285 212.165 378.858 212.421 379.446 212.445C380.034 212.469 380.588 212.258 380.986 211.86C381.385 211.461 381.596 210.907 381.572 210.319C381.548 209.731 381.292 209.159 380.86 208.726V208.726ZM150.848 396.964C150.416 396.532 149.843 396.276 149.255 396.252C148.667 396.229 148.113 396.439 147.714 396.838C147.316 397.237 147.105 397.791 147.129 398.378C147.152 398.966 147.409 399.539 147.841 399.971C148.273 400.404 148.846 400.66 149.434 400.683C150.021 400.707 150.575 400.496 150.974 400.098C151.373 399.699 151.584 399.145 151.56 398.557C151.536 397.97 151.28 397.397 150.848 396.964V396.964ZM169.86 377.952C169.428 377.519 168.854 377.263 168.266 377.239C167.678 377.216 167.124 377.426 166.725 377.825C166.326 378.224 166.115 378.779 166.139 379.367C166.162 379.955 166.419 380.528 166.851 380.961C167.284 381.393 167.857 381.649 168.445 381.673C169.033 381.697 169.587 381.486 169.986 381.087C170.385 380.688 170.595 380.134 170.572 379.546C170.548 378.958 170.292 378.385 169.859 377.953L169.86 377.952ZM188.871 358.941C188.438 358.509 187.865 358.253 187.277 358.229C186.69 358.205 186.135 358.416 185.736 358.815C185.337 359.214 185.127 359.768 185.15 360.356C185.174 360.944 185.43 361.517 185.863 361.949C186.295 362.382 186.868 362.638 187.456 362.661C188.043 362.685 188.597 362.474 188.996 362.076C189.395 361.677 189.606 361.123 189.582 360.535C189.558 359.948 189.302 359.375 188.87 358.942L188.871 358.941ZM207.882 339.93C207.45 339.498 206.877 339.241 206.289 339.218C205.701 339.194 205.147 339.405 204.748 339.804C204.349 340.202 204.138 340.757 204.162 341.344C204.186 341.932 204.442 342.505 204.874 342.938C205.307 343.37 205.88 343.626 206.467 343.65C207.055 343.674 207.609 343.463 208.008 343.064C208.406 342.666 208.617 342.111 208.593 341.524C208.57 340.936 208.313 340.363 207.881 339.931L207.882 339.93ZM226.893 320.92C226.46 320.487 225.887 320.231 225.3 320.207C224.712 320.184 224.158 320.394 223.759 320.793C223.361 321.192 223.15 321.746 223.174 322.334C223.197 322.921 223.454 323.494 223.886 323.926C224.318 324.359 224.891 324.615 225.479 324.639C226.066 324.662 226.62 324.452 227.019 324.053C227.418 323.654 227.628 323.1 227.605 322.512C227.581 321.925 227.325 321.352 226.893 320.92V320.92ZM245.904 301.908C245.472 301.476 244.899 301.22 244.311 301.196C243.724 301.172 243.17 301.383 242.771 301.782C242.372 302.18 242.161 302.734 242.185 303.322C242.209 303.91 242.465 304.483 242.897 304.915C243.329 305.347 243.902 305.603 244.49 305.627C245.078 305.651 245.632 305.44 246.031 305.041C246.429 304.643 246.64 304.088 246.616 303.501C246.593 302.913 246.336 302.34 245.904 301.908V301.908ZM264.916 282.897C264.483 282.464 263.91 282.208 263.323 282.184C262.735 282.161 262.181 282.371 261.782 282.77C261.384 283.169 261.173 283.723 261.197 284.311C261.22 284.898 261.476 285.471 261.909 285.903C262.341 286.336 262.914 286.592 263.502 286.616C264.089 286.639 264.643 286.429 265.042 286.03C265.441 285.631 265.651 285.077 265.628 284.489C265.604 283.902 265.348 283.329 264.916 282.897V282.897ZM283.928 263.884C283.496 263.452 282.923 263.195 282.335 263.172C281.747 263.148 281.193 263.359 280.794 263.758C280.395 264.156 280.184 264.711 280.208 265.299C280.232 265.886 280.488 266.46 280.92 266.892C281.352 267.324 281.925 267.58 282.513 267.604C283.101 267.628 283.655 267.417 284.053 267.018C284.452 266.62 284.663 266.066 284.639 265.478C284.615 264.89 284.359 264.317 283.927 263.885L283.928 263.884ZM302.939 244.874C302.506 244.441 301.933 244.185 301.346 244.161C300.758 244.138 300.204 244.348 299.805 244.747C299.407 245.146 299.196 245.7 299.22 246.288C299.243 246.875 299.499 247.448 299.932 247.88C300.364 248.313 300.937 248.569 301.524 248.593C302.112 248.616 302.666 248.406 303.065 248.007C303.464 247.608 303.674 247.054 303.651 246.466C303.627 245.879 303.371 245.306 302.939 244.874V244.874ZM321.95 225.862C321.518 225.43 320.945 225.174 320.357 225.15C319.77 225.126 319.215 225.337 318.817 225.736C318.418 226.134 318.207 226.689 318.231 227.276C318.255 227.864 318.511 228.437 318.943 228.869C319.375 229.301 319.948 229.557 320.536 229.581C321.124 229.605 321.678 229.394 322.076 228.995C322.475 228.597 322.686 228.043 322.662 227.455C322.638 226.867 322.382 226.294 321.95 225.862V225.862ZM340.961 206.851C340.529 206.418 339.956 206.162 339.368 206.138C338.78 206.115 338.226 206.325 337.827 206.724C337.428 207.123 337.218 207.677 337.241 208.265C337.265 208.853 337.521 209.426 337.954 209.859C338.386 210.291 338.959 210.547 339.547 210.571C340.135 210.595 340.689 210.384 341.088 209.985C341.487 209.586 341.698 209.032 341.674 208.444C341.65 207.856 341.394 207.283 340.961 206.851ZM359.973 187.839C359.541 187.407 358.967 187.151 358.38 187.127C357.792 187.103 357.237 187.314 356.839 187.713C356.44 188.112 356.229 188.666 356.253 189.254C356.276 189.842 356.533 190.415 356.965 190.847C357.397 191.279 357.97 191.536 358.558 191.559C359.145 191.583 359.7 191.372 360.098 190.973C360.497 190.575 360.708 190.021 360.684 189.433C360.66 188.845 360.404 188.272 359.972 187.84L359.973 187.839ZM129.961 376.077C129.528 375.645 128.956 375.389 128.368 375.365C127.78 375.342 127.226 375.552 126.827 375.951C126.429 376.35 126.218 376.904 126.242 377.491C126.265 378.079 126.522 378.652 126.954 379.084C127.386 379.517 127.959 379.773 128.547 379.796C129.134 379.82 129.688 379.609 130.087 379.211C130.486 378.812 130.697 378.258 130.673 377.67C130.649 377.083 130.393 376.51 129.961 376.077V376.077ZM148.973 357.065C148.541 356.633 147.968 356.376 147.38 356.353C146.793 356.329 146.239 356.54 145.84 356.938C145.441 357.337 145.231 357.891 145.254 358.479C145.278 359.067 145.534 359.64 145.966 360.072C146.399 360.504 146.972 360.76 147.559 360.784C148.147 360.808 148.701 360.597 149.1 360.198C149.498 359.799 149.709 359.245 149.685 358.658C149.662 358.07 149.405 357.497 148.973 357.065V357.065ZM167.984 338.054C167.551 337.622 166.978 337.366 166.391 337.342C165.803 337.319 165.249 337.529 164.85 337.928C164.452 338.327 164.241 338.881 164.265 339.468C164.288 340.056 164.545 340.629 164.977 341.061C165.409 341.494 165.982 341.75 166.57 341.773C167.157 341.797 167.711 341.586 168.11 341.188C168.509 340.789 168.72 340.235 168.696 339.647C168.672 339.06 168.416 338.487 167.984 338.054V338.054ZM186.995 319.043C186.563 318.611 185.99 318.355 185.402 318.331C184.815 318.307 184.261 318.518 183.862 318.917C183.463 319.315 183.252 319.869 183.276 320.457C183.3 321.045 183.556 321.618 183.988 322.05C184.421 322.482 184.994 322.738 185.581 322.762C186.169 322.786 186.723 322.575 187.122 322.176C187.52 321.778 187.731 321.223 187.707 320.636C187.684 320.048 187.427 319.475 186.995 319.043V319.043ZM206.006 300.032C205.794 299.806 205.543 299.621 205.266 299.489C204.989 299.356 204.693 299.279 204.395 299.261C204.097 299.244 203.804 299.286 203.532 299.387C203.26 299.487 203.016 299.643 202.814 299.845C202.612 300.046 202.456 300.291 202.355 300.562C202.255 300.834 202.212 301.127 202.23 301.425C202.247 301.723 202.324 302.019 202.456 302.296C202.589 302.573 202.773 302.825 203 303.036C203.435 303.444 203.999 303.679 204.572 303.692C205.145 303.705 205.683 303.494 206.073 303.105C206.462 302.716 206.672 302.178 206.66 301.605C206.648 301.032 206.413 300.468 206.006 300.032V300.032ZM225.017 281.021C224.806 280.795 224.554 280.61 224.277 280.477C224.001 280.345 223.704 280.267 223.406 280.25C223.109 280.232 222.815 280.275 222.543 280.375C222.272 280.475 222.027 280.631 221.825 280.833C221.623 281.035 221.467 281.279 221.367 281.551C221.266 281.822 221.224 282.116 221.241 282.414C221.258 282.712 221.336 283.008 221.468 283.285C221.6 283.561 221.785 283.813 222.011 284.025C222.447 284.432 223.011 284.667 223.584 284.68C224.157 284.693 224.695 284.483 225.084 284.094C225.473 283.705 225.684 283.167 225.671 282.594C225.659 282.021 225.424 281.457 225.017 281.021V281.021ZM244.029 262.01C243.816 261.787 243.565 261.605 243.289 261.476C243.013 261.346 242.719 261.272 242.423 261.256C242.127 261.24 241.836 261.283 241.566 261.384C241.297 261.484 241.054 261.639 240.854 261.84C240.653 262.04 240.498 262.282 240.397 262.552C240.297 262.821 240.253 263.112 240.269 263.408C240.284 263.704 240.359 263.999 240.488 264.275C240.618 264.55 240.799 264.802 241.022 265.014C241.456 265.429 242.023 265.67 242.6 265.686C243.178 265.702 243.72 265.492 244.112 265.1C244.505 264.708 244.715 264.166 244.7 263.589C244.684 263.011 244.443 262.445 244.029 262.01V262.01ZM263.041 242.997C262.609 242.565 262.036 242.309 261.448 242.285C260.861 242.261 260.307 242.472 259.908 242.871C259.509 243.269 259.298 243.824 259.322 244.411C259.346 244.999 259.602 245.572 260.034 246.004C260.466 246.436 261.039 246.692 261.627 246.716C262.215 246.74 262.769 246.529 263.167 246.13C263.566 245.732 263.777 245.177 263.753 244.59C263.729 244.002 263.473 243.429 263.041 242.997V242.997ZM282.052 223.987C281.619 223.554 281.046 223.298 280.459 223.274C279.871 223.251 279.317 223.461 278.918 223.86C278.52 224.259 278.309 224.813 278.333 225.401C278.356 225.988 278.612 226.561 279.045 226.993C279.477 227.426 280.05 227.682 280.637 227.706C281.225 227.729 281.779 227.519 282.178 227.12C282.577 226.721 282.787 226.167 282.764 225.579C282.74 224.992 282.484 224.419 282.052 223.987V223.987ZM301.063 204.975C300.631 204.543 300.058 204.287 299.47 204.263C298.883 204.239 298.328 204.45 297.93 204.849C297.531 205.247 297.32 205.802 297.344 206.389C297.368 206.977 297.624 207.55 298.056 207.982C298.488 208.414 299.061 208.67 299.649 208.694C300.237 208.718 300.791 208.507 301.189 208.108C301.588 207.71 301.799 207.156 301.775 206.568C301.751 205.98 301.495 205.407 301.063 204.975V204.975ZM320.074 185.964C319.642 185.531 319.069 185.275 318.482 185.252C317.894 185.228 317.34 185.439 316.941 185.837C316.542 186.236 316.332 186.79 316.355 187.378C316.379 187.965 316.635 188.538 317.068 188.971C317.5 189.403 318.073 189.659 318.66 189.683C319.248 189.706 319.802 189.496 320.201 189.097C320.6 188.698 320.81 188.144 320.787 187.556C320.763 186.969 320.507 186.396 320.074 185.964V185.964ZM339.086 166.952C338.654 166.52 338.081 166.264 337.493 166.24C336.905 166.216 336.351 166.427 335.953 166.826C335.554 167.225 335.343 167.779 335.367 168.366C335.391 168.954 335.647 169.527 336.079 169.959C336.511 170.391 337.084 170.647 337.672 170.671C338.26 170.695 338.814 170.484 339.212 170.085C339.611 169.687 339.822 169.133 339.798 168.545C339.774 167.957 339.518 167.384 339.086 166.952V166.952ZM109.073 355.189C108.859 354.975 108.608 354.802 108.334 354.68C108.061 354.558 107.771 354.489 107.48 354.478C107.189 354.466 106.903 354.512 106.639 354.612C106.374 354.713 106.137 354.866 105.939 355.064C105.742 355.261 105.589 355.499 105.488 355.763C105.388 356.028 105.342 356.314 105.354 356.605C105.366 356.896 105.435 357.186 105.557 357.459C105.68 357.732 105.853 357.983 106.067 358.197C106.499 358.629 107.072 358.886 107.66 358.909C108.247 358.933 108.801 358.722 109.2 358.324C109.599 357.925 109.81 357.371 109.786 356.783C109.762 356.196 109.506 355.623 109.074 355.19L109.073 355.189ZM128.085 336.177C127.871 335.963 127.62 335.79 127.346 335.667C127.073 335.545 126.782 335.476 126.491 335.465C126.2 335.453 125.914 335.499 125.649 335.6C125.385 335.7 125.147 335.854 124.95 336.051C124.752 336.249 124.599 336.487 124.498 336.751C124.398 337.016 124.352 337.302 124.364 337.593C124.376 337.884 124.445 338.175 124.567 338.448C124.69 338.722 124.863 338.973 125.077 339.187C125.51 339.619 126.083 339.875 126.671 339.899C127.258 339.923 127.813 339.712 128.212 339.313C128.611 338.914 128.821 338.36 128.798 337.772C128.774 337.184 128.518 336.611 128.085 336.179L128.085 336.177ZM147.096 317.166C146.881 316.952 146.63 316.779 146.357 316.657C146.084 316.535 145.793 316.466 145.502 316.454C145.211 316.443 144.925 316.489 144.661 316.589C144.396 316.69 144.159 316.843 143.961 317.041C143.764 317.238 143.611 317.476 143.51 317.741C143.41 318.005 143.364 318.291 143.376 318.582C143.388 318.873 143.457 319.164 143.579 319.437C143.701 319.71 143.875 319.961 144.089 320.175C144.521 320.608 145.094 320.864 145.682 320.887C146.269 320.911 146.823 320.7 147.222 320.302C147.621 319.903 147.832 319.349 147.808 318.761C147.784 318.174 147.528 317.601 147.096 317.168L147.096 317.166ZM166.107 298.155C165.893 297.941 165.642 297.768 165.369 297.646C165.095 297.524 164.805 297.455 164.514 297.443C164.222 297.431 163.937 297.477 163.672 297.578C163.408 297.678 163.17 297.832 162.973 298.029C162.775 298.227 162.622 298.465 162.522 298.729C162.421 298.994 162.376 299.28 162.387 299.571C162.399 299.862 162.468 300.152 162.591 300.426C162.713 300.699 162.886 300.95 163.1 301.164C163.533 301.596 164.105 301.852 164.693 301.876C165.281 301.9 165.835 301.689 166.234 301.29C166.632 300.892 166.843 300.337 166.819 299.75C166.796 299.162 166.539 298.589 166.107 298.157L166.107 298.155ZM185.118 279.144C184.685 278.712 184.112 278.456 183.525 278.432C182.937 278.409 182.383 278.619 181.984 279.018C181.586 279.417 181.375 279.971 181.399 280.558C181.422 281.146 181.678 281.719 182.111 282.151C182.543 282.584 183.116 282.84 183.703 282.863C184.291 282.887 184.845 282.676 185.244 282.278C185.643 281.879 185.853 281.325 185.83 280.737C185.806 280.15 185.55 279.577 185.118 279.144V279.144ZM204.129 260.133C203.697 259.701 203.124 259.444 202.536 259.421C201.949 259.397 201.394 259.608 200.996 260.007C200.597 260.405 200.386 260.959 200.41 261.547C200.434 262.135 200.69 262.708 201.122 263.14C201.554 263.572 202.127 263.828 202.715 263.852C203.303 263.876 203.857 263.665 204.255 263.266C204.654 262.867 204.865 262.313 204.841 261.726C204.817 261.138 204.561 260.565 204.129 260.133V260.133ZM223.14 241.121C222.708 240.689 222.135 240.433 221.548 240.409C220.96 240.386 220.406 240.596 220.007 240.995C219.608 241.394 219.398 241.948 219.421 242.536C219.445 243.123 219.701 243.696 220.134 244.128C220.566 244.561 221.139 244.817 221.726 244.84C222.314 244.864 222.868 244.653 223.267 244.255C223.666 243.856 223.876 243.302 223.853 242.714C223.829 242.127 223.573 241.554 223.14 241.121V241.121ZM242.153 222.109C241.939 221.895 241.688 221.722 241.414 221.6C241.141 221.478 240.85 221.409 240.559 221.397C240.268 221.385 239.982 221.431 239.718 221.532C239.454 221.633 239.216 221.786 239.019 221.984C238.821 222.181 238.668 222.419 238.567 222.683C238.467 222.948 238.421 223.234 238.433 223.525C238.445 223.816 238.514 224.106 238.636 224.38C238.759 224.653 238.932 224.904 239.146 225.118C239.578 225.55 240.151 225.806 240.739 225.83C241.327 225.854 241.881 225.643 242.279 225.244C242.678 224.846 242.889 224.291 242.865 223.704C242.841 223.116 242.585 222.543 242.153 222.111L242.153 222.109ZM261.163 203.098C260.949 202.885 260.698 202.712 260.425 202.589C260.152 202.467 259.861 202.399 259.57 202.387C259.279 202.375 258.994 202.421 258.729 202.522C258.465 202.622 258.228 202.776 258.03 202.973C257.833 203.171 257.68 203.408 257.579 203.673C257.479 203.937 257.433 204.223 257.445 204.514C257.457 204.805 257.526 205.095 257.648 205.368C257.77 205.642 257.944 205.892 258.158 206.106C258.59 206.539 259.163 206.795 259.75 206.819C260.338 206.842 260.892 206.632 261.291 206.233C261.69 205.834 261.9 205.28 261.877 204.692C261.853 204.105 261.597 203.532 261.165 203.1L261.163 203.098ZM280.175 184.087C279.961 183.873 279.71 183.7 279.437 183.578C279.163 183.456 278.873 183.387 278.582 183.375C278.291 183.364 278.005 183.41 277.741 183.51C277.477 183.611 277.239 183.764 277.042 183.962C276.844 184.159 276.691 184.397 276.591 184.661C276.49 184.926 276.445 185.211 276.456 185.502C276.468 185.793 276.537 186.084 276.66 186.357C276.782 186.63 276.955 186.881 277.169 187.095C277.601 187.527 278.174 187.783 278.762 187.807C279.35 187.831 279.904 187.62 280.302 187.221C280.701 186.823 280.912 186.269 280.888 185.681C280.864 185.093 280.608 184.52 280.176 184.088L280.175 184.087ZM299.186 165.076C298.972 164.862 298.721 164.689 298.448 164.566C298.174 164.444 297.884 164.375 297.593 164.364C297.302 164.352 297.016 164.398 296.752 164.498C296.487 164.599 296.25 164.753 296.052 164.95C295.855 165.148 295.701 165.386 295.601 165.65C295.5 165.914 295.455 166.2 295.467 166.491C295.479 166.782 295.548 167.073 295.67 167.346C295.792 167.62 295.965 167.87 296.18 168.085C296.612 168.517 297.185 168.773 297.773 168.797C298.361 168.821 298.915 168.61 299.314 168.211C299.713 167.812 299.924 167.258 299.9 166.67C299.876 166.082 299.62 165.509 299.187 165.077L299.186 165.076ZM318.198 146.064C317.984 145.85 317.733 145.677 317.459 145.555C317.186 145.433 316.895 145.364 316.604 145.352C316.313 145.341 316.027 145.386 315.763 145.487C315.499 145.588 315.261 145.741 315.064 145.939C314.866 146.136 314.713 146.374 314.612 146.638C314.512 146.903 314.466 147.189 314.478 147.48C314.49 147.771 314.559 148.061 314.681 148.335C314.804 148.608 314.977 148.859 315.191 149.073C315.623 149.505 316.196 149.761 316.784 149.785C317.371 149.809 317.926 149.598 318.324 149.199C318.723 148.801 318.934 148.247 318.91 147.659C318.886 147.071 318.63 146.498 318.198 146.066L318.198 146.064ZM88.1867 334.303C87.7545 333.871 87.1815 333.615 86.5939 333.591C86.0063 333.567 85.4522 333.778 85.0534 334.177C84.6547 334.576 84.444 335.13 84.4677 335.717C84.4914 336.305 84.7476 336.878 85.1798 337.31C85.6121 337.742 86.185 337.999 86.7726 338.022C87.3603 338.046 87.9144 337.835 88.3131 337.437C88.7119 337.038 88.9226 336.484 88.8988 335.896C88.8751 335.309 88.619 334.736 88.1867 334.303V334.303ZM107.199 315.291C106.767 314.858 106.193 314.602 105.605 314.578C105.017 314.555 104.463 314.765 104.064 315.164C103.665 315.563 103.454 316.118 103.478 316.706C103.501 317.294 103.758 317.867 104.19 318.3C104.623 318.732 105.196 318.988 105.784 319.012C106.371 319.036 106.926 318.825 107.325 318.426C107.724 318.027 107.934 317.473 107.911 316.885C107.887 316.297 107.631 315.724 107.198 315.292L107.199 315.291ZM126.21 296.28C125.777 295.848 125.204 295.592 124.616 295.568C124.029 295.544 123.474 295.755 123.075 296.154C122.676 296.553 122.466 297.107 122.489 297.695C122.513 298.283 122.769 298.856 123.202 299.288C123.634 299.721 124.207 299.977 124.795 300C125.382 300.024 125.936 299.813 126.335 299.415C126.734 299.016 126.944 298.462 126.921 297.874C126.897 297.287 126.641 296.714 126.209 296.281L126.21 296.28ZM145.221 277.269C144.789 276.837 144.216 276.58 143.628 276.557C143.04 276.533 142.486 276.744 142.087 277.142C141.688 277.541 141.477 278.096 141.501 278.683C141.525 279.271 141.781 279.844 142.213 280.277C142.645 280.709 143.218 280.965 143.806 280.989C144.394 281.013 144.948 280.802 145.347 280.403C145.745 280.004 145.956 279.45 145.932 278.863C145.909 278.275 145.652 277.702 145.22 277.27L145.221 277.269ZM164.232 258.258C163.799 257.826 163.226 257.57 162.639 257.546C162.051 257.523 161.497 257.733 161.098 258.132C160.7 258.531 160.489 259.085 160.513 259.673C160.536 260.26 160.792 260.833 161.225 261.265C161.657 261.698 162.23 261.954 162.818 261.977C163.405 262.001 163.959 261.79 164.358 261.392C164.757 260.993 164.967 260.439 164.944 259.851C164.92 259.264 164.664 258.691 164.232 258.258ZM183.243 239.247C182.811 238.815 182.238 238.559 181.65 238.535C181.063 238.511 180.509 238.722 180.11 239.121C179.711 239.519 179.5 240.073 179.524 240.661C179.548 241.249 179.804 241.822 180.236 242.254C180.668 242.686 181.241 242.942 181.829 242.966C182.417 242.99 182.971 242.779 183.369 242.38C183.768 241.982 183.979 241.427 183.955 240.84C183.931 240.252 183.675 239.679 183.243 239.247ZM202.255 220.236C201.822 219.803 201.249 219.547 200.662 219.523C200.074 219.5 199.52 219.71 199.121 220.109C198.723 220.508 198.512 221.062 198.536 221.65C198.559 222.237 198.815 222.81 199.248 223.242C199.68 223.675 200.253 223.931 200.84 223.955C201.428 223.978 201.982 223.768 202.381 223.369C202.78 222.97 202.99 222.416 202.967 221.828C202.943 221.241 202.687 220.668 202.255 220.236V220.236ZM221.267 201.223C220.835 200.791 220.261 200.534 219.674 200.511C219.086 200.487 218.532 200.698 218.133 201.097C217.734 201.495 217.523 202.05 217.547 202.638C217.57 203.225 217.827 203.799 218.259 204.231C218.691 204.663 219.264 204.919 219.852 204.943C220.44 204.967 220.994 204.756 221.392 204.357C221.791 203.959 222.002 203.404 221.978 202.817C221.954 202.229 221.698 201.656 221.266 201.224L221.267 201.223ZM240.277 182.213C239.845 181.78 239.272 181.524 238.685 181.5C238.097 181.477 237.543 181.687 237.144 182.086C236.745 182.485 236.535 183.039 236.558 183.627C236.582 184.214 236.838 184.787 237.271 185.219C237.703 185.652 238.276 185.908 238.863 185.932C239.451 185.955 240.005 185.745 240.404 185.346C240.803 184.947 241.013 184.393 240.99 183.805C240.966 183.218 240.71 182.645 240.277 182.213V182.213ZM259.289 163.201C258.857 162.769 258.284 162.513 257.696 162.489C257.109 162.465 256.554 162.676 256.156 163.075C255.757 163.473 255.546 164.028 255.57 164.615C255.594 165.203 255.85 165.776 256.282 166.208C256.714 166.64 257.287 166.896 257.875 166.92C258.462 166.944 259.017 166.733 259.415 166.334C259.814 165.936 260.025 165.382 260.001 164.794C259.977 164.206 259.721 163.633 259.289 163.201ZM278.3 144.19C277.868 143.757 277.295 143.501 276.707 143.477C276.119 143.454 275.565 143.664 275.166 144.063C274.767 144.462 274.556 145.016 274.58 145.604C274.604 146.192 274.86 146.765 275.293 147.197C275.725 147.63 276.298 147.886 276.886 147.91C277.474 147.934 278.028 147.723 278.427 147.324C278.826 146.925 279.036 146.371 279.013 145.783C278.989 145.195 278.733 144.622 278.3 144.19ZM297.312 125.178C296.879 124.746 296.306 124.489 295.719 124.466C295.131 124.442 294.576 124.653 294.178 125.052C293.779 125.451 293.568 126.005 293.592 126.593C293.615 127.18 293.872 127.754 294.304 128.186C294.736 128.618 295.309 128.874 295.897 128.898C296.484 128.922 297.039 128.711 297.437 128.312C297.836 127.914 298.047 127.36 298.023 126.772C297.999 126.184 297.743 125.611 297.311 125.179L297.312 125.178ZM67.2986 313.415C66.8662 312.983 66.2932 312.727 65.7056 312.704C65.118 312.68 64.564 312.891 64.1654 313.29C63.7668 313.689 63.5563 314.243 63.5802 314.831C63.6041 315.418 63.8604 315.991 64.2928 316.423C64.7251 316.855 65.298 317.112 65.8856 317.135C66.4732 317.159 67.0274 316.948 67.4261 316.55C67.8248 316.151 68.0355 315.597 68.0118 315.009C67.9881 314.422 67.732 313.849 67.2997 313.416L67.2986 313.415ZM86.3111 294.403C85.8784 293.97 85.305 293.714 84.717 293.691C84.129 293.667 83.5746 293.878 83.1758 294.277C82.7769 294.676 82.5663 295.231 82.5902 295.819C82.6141 296.407 82.8706 296.98 83.3033 297.413C83.7357 297.845 84.3089 298.101 84.8967 298.125C85.4845 298.149 86.0387 297.938 86.4376 297.539C86.8365 297.14 87.0472 296.586 87.0235 295.998C86.9998 295.41 86.7436 294.837 86.3112 294.405L86.3111 294.403ZM105.322 275.392C105.107 275.178 104.856 275.005 104.583 274.883C104.31 274.761 104.019 274.692 103.728 274.68C103.437 274.669 103.151 274.715 102.887 274.815C102.622 274.916 102.385 275.069 102.187 275.267C101.99 275.464 101.837 275.702 101.736 275.967C101.636 276.231 101.59 276.517 101.602 276.808C101.614 277.099 101.683 277.39 101.805 277.663C101.927 277.936 102.101 278.187 102.315 278.401C102.747 278.834 103.32 279.09 103.908 279.113C104.495 279.137 105.049 278.926 105.448 278.528C105.847 278.129 106.057 277.575 106.034 276.987C106.01 276.4 105.754 275.827 105.322 275.394L105.322 275.392ZM124.333 256.381C124.119 256.167 123.868 255.994 123.594 255.872C123.321 255.749 123.031 255.681 122.739 255.669C122.448 255.657 122.163 255.703 121.898 255.804C121.634 255.904 121.396 256.058 121.199 256.255C121.001 256.453 120.848 256.691 120.748 256.955C120.647 257.22 120.602 257.506 120.613 257.797C120.625 258.088 120.694 258.378 120.817 258.652C120.939 258.925 121.112 259.176 121.326 259.39C121.758 259.822 122.331 260.078 122.919 260.102C123.507 260.126 124.061 259.915 124.459 259.516C124.858 259.117 125.069 258.563 125.045 257.976C125.022 257.388 124.765 256.815 124.333 256.383L124.333 256.381ZM143.344 237.37C142.911 236.938 142.338 236.682 141.751 236.658C141.163 236.634 140.609 236.845 140.21 237.244C139.811 237.643 139.601 238.197 139.624 238.784C139.648 239.372 139.904 239.945 140.337 240.377C140.769 240.809 141.342 241.066 141.929 241.089C142.517 241.113 143.071 240.902 143.47 240.504C143.869 240.105 144.079 239.551 144.056 238.963C144.032 238.376 143.776 237.803 143.344 237.37ZM162.355 218.359C161.923 217.927 161.35 217.67 160.762 217.647C160.175 217.623 159.62 217.834 159.222 218.232C158.823 218.631 158.612 219.185 158.636 219.773C158.66 220.361 158.916 220.934 159.348 221.366C159.78 221.798 160.353 222.054 160.941 222.078C161.529 222.102 162.083 221.891 162.481 221.492C162.88 221.093 163.091 220.539 163.067 219.952C163.043 219.364 162.787 218.791 162.355 218.359ZM181.366 199.347C180.934 198.915 180.361 198.659 179.774 198.635C179.186 198.612 178.632 198.822 178.233 199.221C177.834 199.62 177.624 200.174 177.647 200.761C177.671 201.349 177.927 201.922 178.36 202.354C178.792 202.787 179.365 203.043 179.952 203.066C180.54 203.09 181.094 202.879 181.493 202.481C181.892 202.082 182.102 201.528 182.079 200.94C182.055 200.353 181.799 199.78 181.366 199.347V199.347ZM200.379 180.335C200.165 180.121 199.914 179.948 199.64 179.826C199.367 179.704 199.076 179.635 198.785 179.623C198.494 179.611 198.208 179.657 197.944 179.758C197.68 179.858 197.442 180.012 197.245 180.21C197.047 180.407 196.894 180.645 196.793 180.909C196.693 181.174 196.647 181.46 196.659 181.751C196.671 182.042 196.74 182.332 196.862 182.606C196.985 182.879 197.158 183.13 197.372 183.344C197.804 183.776 198.377 184.032 198.965 184.056C199.553 184.08 200.107 183.869 200.505 183.47C200.904 183.072 201.115 182.517 201.091 181.93C201.067 181.342 200.811 180.769 200.379 180.337L200.379 180.335ZM219.389 161.324C219.175 161.11 218.924 160.938 218.651 160.815C218.378 160.693 218.087 160.624 217.796 160.613C217.505 160.601 217.22 160.647 216.955 160.748C216.691 160.848 216.454 161.002 216.256 161.199C216.059 161.397 215.906 161.634 215.805 161.899C215.705 162.163 215.659 162.449 215.671 162.74C215.683 163.031 215.752 163.321 215.874 163.594C215.996 163.868 216.169 164.118 216.384 164.332C216.816 164.765 217.389 165.021 217.976 165.045C218.564 165.068 219.118 164.858 219.517 164.459C219.916 164.06 220.126 163.506 220.103 162.918C220.079 162.331 219.823 161.758 219.39 161.326L219.389 161.324ZM238.401 142.313C237.968 141.881 237.395 141.625 236.808 141.601C236.22 141.578 235.666 141.789 235.268 142.188C234.869 142.587 234.659 143.141 234.682 143.728C234.706 144.316 234.963 144.889 235.395 145.321C235.827 145.753 236.4 146.009 236.988 146.033C237.575 146.057 238.13 145.846 238.528 145.447C238.927 145.049 239.138 144.495 239.114 143.907C239.09 143.319 238.834 142.746 238.402 142.314L238.401 142.313ZM257.412 123.302C257.198 123.087 256.947 122.914 256.674 122.792C256.4 122.67 256.11 122.601 255.819 122.59C255.528 122.578 255.242 122.624 254.978 122.724C254.713 122.825 254.475 122.979 254.278 123.176C254.081 123.374 253.927 123.611 253.827 123.876C253.726 124.14 253.681 124.426 253.693 124.717C253.704 125.008 253.774 125.299 253.896 125.572C254.018 125.846 254.191 126.096 254.406 126.31C254.838 126.743 255.411 126.999 255.999 127.023C256.587 127.047 257.141 126.836 257.54 126.437C257.939 126.038 258.149 125.484 258.126 124.896C258.102 124.308 257.846 123.735 257.413 123.303L257.412 123.302ZM276.424 104.29C276.21 104.076 275.959 103.903 275.685 103.781C275.412 103.659 275.121 103.59 274.83 103.578C274.539 103.567 274.253 103.612 273.989 103.713C273.725 103.814 273.487 103.967 273.29 104.165C273.092 104.362 272.939 104.6 272.838 104.864C272.738 105.129 272.692 105.415 272.704 105.706C272.716 105.997 272.785 106.287 272.907 106.561C273.03 106.834 273.203 107.085 273.417 107.299C273.849 107.731 274.422 107.987 275.01 108.011C275.597 108.035 276.152 107.824 276.55 107.425C276.949 107.027 277.16 106.473 277.136 105.885C277.112 105.297 276.856 104.724 276.424 104.292L276.424 104.29ZM46.4116 292.528C45.9791 292.096 45.406 291.84 44.8184 291.817C44.2308 291.794 43.6768 292.005 43.2784 292.404C42.8799 292.803 42.6696 293.357 42.6937 293.945C42.7178 294.532 42.9744 295.105 43.4069 295.537C43.8394 295.969 44.4125 296.225 45.0001 296.248C45.5877 296.272 46.1417 296.061 46.5401 295.662C46.9386 295.263 47.1489 294.708 47.1248 294.121C47.1007 293.533 46.8441 292.96 46.4116 292.528ZM65.4241 273.516C65.2098 273.302 64.9587 273.129 64.6851 273.007C64.4116 272.884 64.1209 272.816 63.8298 272.804C63.2418 272.781 62.6875 272.992 62.2888 273.391C61.8901 273.791 61.6796 274.345 61.7037 274.933C61.7278 275.521 61.9846 276.094 62.4174 276.527C62.85 276.959 63.4233 277.215 64.0111 277.238C64.5989 277.261 65.153 277.05 65.5516 276.651C65.9502 276.252 66.1606 275.698 66.1364 275.11C66.1123 274.522 65.8557 273.949 65.4231 273.517L65.4241 273.516ZM84.4345 254.505C84.2203 254.291 83.9693 254.118 83.6958 253.996C83.4224 253.874 83.1319 253.805 82.8408 253.794C82.5498 253.782 82.2639 253.828 81.9996 253.929C81.7353 254.03 81.4977 254.183 81.3003 254.381C81.1029 254.579 80.9497 254.816 80.8494 255.081C80.749 255.345 80.7035 255.631 80.7155 255.922C80.7274 256.213 80.7965 256.504 80.9189 256.777C81.0413 257.051 81.2146 257.301 81.4288 257.515C81.8614 257.947 82.4345 258.203 83.0221 258.226C83.6097 258.25 84.1636 258.039 84.562 257.64C84.9605 257.241 85.1708 256.686 85.1467 256.099C85.1226 255.511 84.8661 254.938 84.4335 254.506L84.4345 254.505ZM103.446 235.494C103.232 235.28 102.981 235.107 102.707 234.985C102.434 234.863 102.143 234.794 101.852 234.782C101.561 234.771 101.275 234.817 101.011 234.918C100.747 235.018 100.509 235.172 100.312 235.369C100.114 235.567 99.9612 235.805 99.8609 236.069C99.7605 236.334 99.715 236.62 99.7269 236.911C99.7388 237.202 99.808 237.492 99.9304 237.766C100.053 238.039 100.226 238.29 100.44 238.504C100.873 238.936 101.446 239.192 102.034 239.215C102.621 239.238 103.175 239.027 103.574 238.628C103.972 238.229 104.182 237.675 104.158 237.087C104.134 236.5 103.878 235.927 103.445 235.495L103.446 235.494ZM122.456 216.483C122.024 216.051 121.451 215.795 120.864 215.771C120.276 215.747 119.722 215.958 119.323 216.357C118.924 216.756 118.714 217.31 118.737 217.897C118.761 218.485 119.017 219.058 119.45 219.49C119.882 219.922 120.455 220.179 121.042 220.202C121.63 220.226 122.184 220.015 122.583 219.617C122.982 219.218 123.192 218.664 123.169 218.076C123.145 217.489 122.889 216.916 122.456 216.483ZM141.468 197.472C141.036 197.04 140.463 196.783 139.875 196.76C139.288 196.736 138.733 196.947 138.335 197.345C137.936 197.744 137.725 198.298 137.749 198.886C137.773 199.474 138.029 200.046 138.461 200.479C138.893 200.911 139.466 201.167 140.054 201.191C140.642 201.215 141.196 201.004 141.594 200.605C141.993 200.206 142.204 199.652 142.18 199.065C142.156 198.477 141.9 197.904 141.468 197.472ZM160.479 178.46C160.047 178.028 159.474 177.772 158.887 177.748C158.299 177.725 157.745 177.935 157.346 178.334C156.947 178.733 156.737 179.287 156.76 179.874C156.784 180.462 157.04 181.035 157.473 181.467C157.905 181.9 158.478 182.156 159.065 182.179C159.653 182.203 160.207 181.992 160.606 181.594C161.005 181.195 161.215 180.641 161.192 180.053C161.168 179.466 160.912 178.893 160.479 178.46V178.46ZM179.492 159.448C179.278 159.234 179.027 159.061 178.753 158.939C178.48 158.817 178.189 158.748 177.898 158.737C177.607 158.725 177.321 158.771 177.057 158.872C176.793 158.972 176.555 159.126 176.358 159.324C176.16 159.521 176.007 159.759 175.907 160.024C175.806 160.288 175.761 160.574 175.773 160.865C175.785 161.156 175.854 161.447 175.976 161.72C176.099 161.993 176.272 162.244 176.486 162.458C176.919 162.89 177.492 163.146 178.079 163.169C178.667 163.192 179.221 162.981 179.619 162.582C180.018 162.183 180.228 161.629 180.204 161.041C180.18 160.454 179.923 159.881 179.491 159.449L179.492 159.448ZM198.502 140.437C198.288 140.224 198.037 140.051 197.764 139.929C197.491 139.807 197.2 139.738 196.909 139.726C196.618 139.715 196.332 139.761 196.068 139.861C195.804 139.962 195.566 140.116 195.369 140.313C195.172 140.511 195.019 140.748 194.918 141.013C194.818 141.277 194.773 141.563 194.785 141.854C194.796 142.145 194.866 142.435 194.988 142.709C195.11 142.982 195.284 143.233 195.498 143.446C195.93 143.878 196.503 144.134 197.091 144.158C197.678 144.181 198.232 143.97 198.631 143.571C199.029 143.172 199.24 142.618 199.216 142.03C199.191 141.442 198.935 140.869 198.502 140.437V140.437ZM217.514 121.426C217.3 121.212 217.049 121.039 216.775 120.917C216.502 120.795 216.212 120.726 215.921 120.715C215.63 120.703 215.344 120.749 215.08 120.85C214.815 120.951 214.578 121.104 214.381 121.302C214.183 121.499 214.03 121.737 213.93 122.001C213.83 122.266 213.784 122.552 213.796 122.843C213.808 123.134 213.877 123.424 213.999 123.697C214.122 123.97 214.295 124.221 214.509 124.435C214.942 124.867 215.515 125.123 216.102 125.146C216.69 125.169 217.244 124.958 217.642 124.559C218.041 124.16 218.251 123.606 218.227 123.018C218.203 122.431 217.946 121.858 217.514 121.426V121.426ZM236.525 102.415C236.311 102.201 236.06 102.028 235.787 101.906C235.513 101.783 235.223 101.715 234.932 101.703C234.641 101.692 234.355 101.737 234.09 101.838C233.826 101.939 233.588 102.093 233.391 102.29C233.194 102.488 233.04 102.726 232.94 102.99C232.84 103.255 232.794 103.541 232.806 103.832C232.818 104.123 232.887 104.413 233.01 104.686C233.132 104.96 233.305 105.211 233.52 105.425C233.952 105.857 234.526 106.113 235.113 106.136C235.701 106.159 236.255 105.948 236.654 105.549C237.052 105.15 237.263 104.595 237.239 104.007C237.215 103.42 236.958 102.847 236.525 102.415ZM255.537 83.4031C255.323 83.1891 255.072 83.0161 254.798 82.894C254.525 82.772 254.234 82.7033 253.943 82.6917C253.652 82.6802 253.366 82.726 253.102 82.8268C252.838 82.9275 252.6 83.081 252.403 83.2787C252.205 83.4763 252.052 83.7142 251.952 83.9787C251.851 84.2432 251.806 84.5291 251.818 84.8201C251.83 85.1112 251.899 85.4017 252.021 85.675C252.144 85.9483 252.317 86.1991 252.531 86.4131C252.964 86.8451 253.537 87.1009 254.124 87.1242C254.712 87.1475 255.266 86.9365 255.664 86.5374C256.063 86.1384 256.273 85.5841 256.249 84.9965C256.225 84.4089 255.968 83.836 255.536 83.404L255.537 83.4031ZM25.5257 271.642C25.0934 271.21 24.5205 270.954 23.9329 270.93C23.3453 270.906 22.7911 271.117 22.3924 271.516C21.9936 271.915 21.783 272.469 21.8067 273.056C21.8304 273.644 22.0865 274.217 22.5188 274.649C22.9511 275.081 23.524 275.338 24.1116 275.361C24.6992 275.385 25.2533 275.174 25.6521 274.776C26.0508 274.377 26.2615 273.823 26.2378 273.235C26.2141 272.648 25.9579 272.075 25.5257 271.642V271.642ZM44.5381 252.63C44.1059 252.198 43.5329 251.941 42.9453 251.918C42.3577 251.894 41.8036 252.105 41.4048 252.503C41.0061 252.902 40.7954 253.456 40.8191 254.044C40.8428 254.631 41.099 255.204 41.5313 255.637C41.9635 256.069 42.5365 256.325 43.1241 256.349C43.7117 256.373 44.2658 256.162 44.6645 255.763C45.0633 255.364 45.274 254.81 45.2503 254.223C45.2266 253.635 44.9704 253.062 44.5381 252.63ZM63.5486 233.619C63.1163 233.187 62.5434 232.931 61.9558 232.907C61.3682 232.884 60.8141 233.094 60.4153 233.493C60.0166 233.892 59.8059 234.446 59.8296 235.033C59.8533 235.621 60.1095 236.194 60.5417 236.626C60.974 237.058 61.547 237.315 62.1346 237.338C62.7222 237.362 63.2763 237.151 63.675 236.753C64.0738 236.354 64.2845 235.8 64.2608 235.212C64.2371 234.625 63.9809 234.052 63.5486 233.619ZM82.5601 214.608C82.1278 214.176 81.5549 213.919 80.9673 213.896C80.3797 213.872 79.8255 214.083 79.4268 214.481C79.028 214.88 78.8174 215.434 78.8411 216.022C78.8648 216.61 79.1209 217.182 79.5532 217.615C79.9855 218.047 80.5584 218.303 81.146 218.327C81.7337 218.351 82.2877 218.14 82.6865 217.741C83.0852 217.342 83.2959 216.788 83.2722 216.201C83.2485 215.613 82.9923 215.04 82.5601 214.608ZM101.571 195.597C101.359 195.371 101.108 195.186 100.831 195.053C100.554 194.921 100.258 194.843 99.9601 194.826C99.6622 194.808 99.3686 194.851 99.0969 194.951C98.8252 195.051 98.5809 195.206 98.3787 195.408C98.1765 195.61 98.0205 195.854 97.9201 196.126C97.8196 196.397 97.7767 196.691 97.7939 196.989C97.8112 197.287 97.8882 197.583 98.0204 197.86C98.1527 198.137 98.3373 198.388 98.5635 198.6C98.9991 199.008 99.5628 199.243 100.136 199.256C100.709 199.269 101.247 199.059 101.636 198.67C102.026 198.281 102.237 197.744 102.224 197.171C102.212 196.597 101.978 196.034 101.571 195.597V195.597ZM120.582 176.586C120.371 176.36 120.119 176.175 119.842 176.042C119.566 175.909 119.27 175.832 118.972 175.814C118.674 175.797 118.38 175.839 118.108 175.939C117.837 176.039 117.592 176.195 117.39 176.397C117.188 176.599 117.032 176.843 116.932 177.114C116.831 177.386 116.788 177.679 116.805 177.977C116.823 178.275 116.9 178.572 117.032 178.848C117.164 179.125 117.349 179.377 117.575 179.589C118.011 179.996 118.574 180.232 119.147 180.245C119.72 180.258 120.258 180.048 120.648 179.659C121.037 179.27 121.248 178.732 121.236 178.159C121.224 177.586 120.989 177.022 120.582 176.586V176.586ZM139.593 157.574C139.381 157.352 139.13 157.17 138.854 157.041C138.579 156.911 138.284 156.836 137.988 156.82C137.692 156.804 137.401 156.848 137.131 156.948C136.862 157.048 136.619 157.203 136.419 157.403C136.218 157.604 136.062 157.846 135.962 158.115C135.861 158.385 135.818 158.676 135.833 158.972C135.849 159.268 135.923 159.562 136.052 159.838C136.182 160.114 136.363 160.366 136.585 160.578C137.02 160.993 137.587 161.234 138.164 161.251C138.741 161.267 139.284 161.057 139.676 160.665C140.069 160.273 140.279 159.731 140.264 159.154C140.249 158.576 140.008 158.01 139.593 157.574V157.574ZM158.606 138.562C158.174 138.13 157.601 137.874 157.013 137.85C156.426 137.826 155.871 138.037 155.473 138.436C155.074 138.834 154.863 139.388 154.887 139.976C154.911 140.564 155.167 141.137 155.599 141.569C156.031 142.001 156.604 142.257 157.192 142.281C157.78 142.305 158.334 142.094 158.732 141.695C159.131 141.297 159.342 140.742 159.318 140.155C159.294 139.567 159.038 138.994 158.606 138.562ZM177.616 119.552C177.184 119.119 176.611 118.863 176.024 118.839C175.436 118.816 174.882 119.026 174.483 119.425C174.084 119.824 173.874 120.378 173.897 120.966C173.921 121.553 174.177 122.126 174.61 122.558C175.042 122.991 175.615 123.247 176.202 123.271C176.79 123.294 177.344 123.084 177.743 122.685C178.142 122.286 178.352 121.732 178.329 121.144C178.305 120.557 178.049 119.984 177.616 119.552V119.552ZM196.628 100.54C196.196 100.108 195.623 99.8516 195.035 99.8279C194.447 99.8042 193.893 100.015 193.495 100.414C193.096 100.812 192.885 101.367 192.909 101.954C192.933 102.542 193.189 103.115 193.621 103.547C194.053 103.979 194.626 104.235 195.214 104.259C195.801 104.283 196.356 104.072 196.754 103.673C197.153 103.275 197.364 102.72 197.34 102.133C197.316 101.545 197.06 100.972 196.628 100.54ZM215.639 81.5286C215.207 81.0963 214.634 80.8402 214.047 80.8165C213.459 80.7928 212.905 81.0034 212.506 81.4022C212.107 81.8009 211.897 82.355 211.92 82.9426C211.944 83.5302 212.2 84.1032 212.632 84.5355C213.065 84.9677 213.638 85.2239 214.225 85.2476C214.813 85.2713 215.367 85.0606 215.766 84.6619C216.165 84.2631 216.375 83.709 216.352 83.1214C216.328 82.5338 216.072 81.9608 215.639 81.5286V81.5286ZM234.651 62.5171C234.219 62.0849 233.646 61.8287 233.058 61.805C232.47 61.7813 231.916 61.992 231.518 62.3907C231.119 62.7895 230.908 63.3435 230.932 63.9311C230.956 64.5187 231.212 65.0917 231.644 65.524C232.076 65.9563 232.649 66.2124 233.237 66.2361C233.824 66.2598 234.378 66.0491 234.777 65.6504C235.176 65.2517 235.387 64.6976 235.363 64.11C235.339 63.5223 235.083 62.9494 234.651 62.5171ZM4.63756 250.754C4.20517 250.322 3.63214 250.066 3.04454 250.043C2.45694 250.019 1.90293 250.23 1.50434 250.629C1.10575 251.028 0.895248 251.582 0.91915 252.17C0.943052 252.757 1.19939 253.33 1.63178 253.762C2.06404 254.194 2.63698 254.451 3.22459 254.474C3.81219 254.498 4.36633 254.287 4.76507 253.889C5.1638 253.49 5.37449 252.936 5.35079 252.348C5.32708 251.76 5.07092 251.188 4.63866 250.755L4.63756 250.754ZM23.65 231.742C23.2173 231.309 22.644 231.053 22.056 231.03C21.468 231.006 20.9136 231.217 20.5147 231.616C20.1158 232.015 19.9052 232.57 19.9291 233.158C19.953 233.746 20.2096 234.319 20.6423 234.752C21.0747 235.184 21.6478 235.44 22.2356 235.464C22.8234 235.488 23.3777 235.277 23.7766 234.878C24.1755 234.479 24.3862 233.925 24.3625 233.337C24.3388 232.749 24.0825 232.176 23.6501 231.744L23.65 231.742ZM42.6605 212.731C42.228 212.299 41.6547 212.043 41.067 212.019C40.4792 211.996 39.9249 212.207 39.5262 212.606C39.1275 213.005 38.9169 213.559 38.9409 214.147C38.9648 214.735 39.2212 215.308 39.6537 215.74C40.086 216.172 40.6589 216.429 41.2465 216.452C41.8341 216.476 42.3883 216.265 42.787 215.867C43.1857 215.468 43.3964 214.914 43.3727 214.326C43.349 213.739 43.0929 213.166 42.6606 212.733L42.6605 212.731ZM61.672 193.72C61.2394 193.288 60.6662 193.031 60.0784 193.008C59.4906 192.984 58.9364 193.195 58.5377 193.594C58.139 193.993 57.9284 194.548 57.9523 195.136C57.9762 195.723 58.2326 196.296 58.6652 196.729C59.0974 197.161 59.6704 197.417 60.258 197.441C60.8456 197.465 61.3997 197.254 61.7985 196.855C62.1972 196.456 62.4079 195.902 62.3842 195.315C62.3605 194.727 62.1043 194.154 61.6721 193.722L61.672 193.72ZM80.6824 174.709C80.2502 174.277 79.6772 174.021 79.0896 173.997C78.502 173.973 77.9479 174.184 77.5492 174.583C77.1504 174.982 76.9397 175.536 76.9634 176.123C76.9871 176.711 77.2433 177.284 77.6756 177.716C78.1078 178.148 78.6808 178.405 79.2684 178.428C79.856 178.452 80.4101 178.241 80.8089 177.843C81.2076 177.444 81.4183 176.89 81.3946 176.302C81.3709 175.715 81.1147 175.142 80.6824 174.709V174.709ZM99.6939 155.698C99.2616 155.266 98.6887 155.009 98.1011 154.986C97.5135 154.962 96.9594 155.173 96.5606 155.571C96.1619 155.97 95.9512 156.524 95.9749 157.112C95.9986 157.699 96.2548 158.272 96.687 158.705C97.1193 159.137 97.6923 159.393 98.2799 159.417C98.8675 159.441 99.4216 159.23 99.8203 158.831C100.219 158.432 100.43 157.878 100.406 157.291C100.382 156.703 100.126 156.13 99.6939 155.698V155.698ZM118.705 136.686C118.273 136.254 117.7 135.998 117.113 135.974C116.525 135.951 115.971 136.161 115.572 136.56C115.173 136.959 114.963 137.513 114.986 138.1C115.01 138.688 115.266 139.261 115.699 139.693C116.131 140.125 116.704 140.382 117.291 140.405C117.879 140.429 118.433 140.218 118.832 139.82C119.231 139.421 119.441 138.867 119.418 138.279C119.394 137.692 119.138 137.119 118.705 136.686V136.686ZM137.718 117.674C137.504 117.46 137.253 117.287 136.979 117.165C136.706 117.043 136.415 116.974 136.124 116.962C135.833 116.95 135.547 116.996 135.283 117.097C135.019 117.197 134.781 117.351 134.584 117.548C134.386 117.746 134.233 117.984 134.132 118.248C134.032 118.513 133.986 118.799 133.998 119.09C134.01 119.381 134.079 119.671 134.201 119.945C134.324 120.218 134.497 120.469 134.711 120.683C135.143 121.115 135.716 121.371 136.304 121.395C136.891 121.419 137.446 121.208 137.844 120.809C138.243 120.411 138.454 119.856 138.43 119.269C138.406 118.681 138.15 118.108 137.718 117.676L137.718 117.674ZM156.728 98.6634C156.514 98.4494 156.263 98.2765 155.99 98.1544C155.717 98.0323 155.426 97.9634 155.135 97.9518C154.844 97.9401 154.559 97.9859 154.294 98.0865C154.03 98.1871 153.792 98.3406 153.595 98.5381C153.398 98.7356 153.244 98.9733 153.144 99.2376C153.044 99.502 152.998 99.7878 153.01 100.079C153.022 100.37 153.091 100.66 153.213 100.933C153.335 101.207 153.508 101.457 153.723 101.671C154.155 102.104 154.728 102.36 155.315 102.384C155.903 102.407 156.457 102.197 156.856 101.798C157.255 101.399 157.465 100.845 157.442 100.257C157.418 99.6697 157.162 99.0968 156.729 98.6645L156.728 98.6634ZM175.74 79.6519C175.307 79.2198 174.734 78.9638 174.147 78.9403C173.559 78.9168 173.005 79.1277 172.607 79.5266C172.208 79.9255 171.997 80.4797 172.021 81.0673C172.045 81.6549 172.302 82.2278 172.734 82.6599C173.166 83.0922 173.739 83.3483 174.327 83.372C174.914 83.3958 175.469 83.1851 175.867 82.7863C176.266 82.3876 176.477 81.8334 176.453 81.2458C176.429 80.6582 176.173 80.0853 175.741 79.653L175.74 79.6519ZM194.751 60.6405C194.319 60.2082 193.746 59.9521 193.158 59.9286C192.57 59.9051 192.016 60.116 191.617 60.5151C191.218 60.9141 191.008 61.4685 191.032 62.0563C191.056 62.6441 191.312 63.2172 191.744 63.6494C192.177 64.0818 192.75 64.3381 193.338 64.3618C193.926 64.3855 194.48 64.1748 194.879 63.7759C195.278 63.377 195.488 62.8227 195.465 62.2349C195.441 61.6471 195.185 61.074 194.752 60.6416L194.751 60.6405ZM213.763 41.629C213.549 41.415 213.298 41.2419 213.024 41.1198C212.751 40.9977 212.46 40.9288 212.169 40.9172C211.878 40.9055 211.592 40.9513 211.328 41.0519C211.064 41.1525 210.826 41.306 210.628 41.5036C210.431 41.7012 210.278 41.9389 210.177 42.2034C210.077 42.4678 210.031 42.7538 210.043 43.0448C210.055 43.3359 210.124 43.6264 210.246 43.8997C210.369 44.1731 210.542 44.4239 210.756 44.638C211.188 45.0702 211.761 45.3264 212.349 45.3501C212.936 45.3738 213.491 45.1631 213.889 44.7644C214.288 44.3656 214.499 43.8115 214.475 43.2239C214.451 42.6363 214.195 42.0634 213.763 41.6311L213.763 41.629Z" fill="#0FC5B0" fill-opacity="0.5"/>
<path d="M536.66 649.801L525.68 645.178L518.148 590.137H417.845L409.681 644.953L399.858 649.865C399.388 650.1 399.011 650.487 398.788 650.963C398.566 651.439 398.51 651.976 398.631 652.487C398.752 652.999 399.041 653.454 399.453 653.78C399.865 654.107 400.376 654.284 400.901 654.284H535.755C536.293 654.284 536.815 654.098 537.232 653.757C537.649 653.416 537.935 652.941 538.041 652.413C538.148 651.885 538.069 651.337 537.817 650.861C537.565 650.385 537.156 650.01 536.66 649.801V649.801Z" fill="#313438"/>
<path d="M714.905 597.462H222.19C219.605 597.456 217.127 596.425 215.301 594.595C213.475 592.765 212.45 590.285 212.45 587.7V518.221H724.645V587.7C724.645 590.285 723.62 592.765 721.794 594.595C719.968 596.425 717.491 597.456 714.905 597.462V597.462Z" fill="#313438"/>
<path d="M725.16 551.059H212V253.771C212.004 250.651 213.245 247.66 215.451 245.454C217.657 243.248 220.648 242.007 223.768 242.004H713.392C716.512 242.007 719.503 243.248 721.709 245.454C723.916 247.66 725.156 250.651 725.16 253.771V551.059Z" fill="#313438"/>
<path d="M694.511 529.481H242.649C240.244 529.479 237.938 528.522 236.237 526.821C234.536 525.121 233.58 522.815 233.577 520.409V272.652C233.58 270.247 234.536 267.941 236.237 266.24C237.938 264.54 240.244 263.583 242.649 263.58H694.511C696.916 263.583 699.222 264.54 700.923 266.24C702.624 267.941 703.58 270.247 703.583 272.652V520.409C703.58 522.815 702.624 525.121 700.923 526.821C699.222 528.522 696.916 529.479 694.511 529.481Z" fill="white"/>
<path d="M690.258 654.859H252.71C252.406 654.859 252.113 654.738 251.898 654.523C251.683 654.308 251.562 654.015 251.562 653.711C251.562 653.406 251.683 653.114 251.898 652.899C252.113 652.684 252.406 652.562 252.71 652.562H690.258C690.563 652.562 690.855 652.684 691.07 652.899C691.286 653.114 691.406 653.406 691.406 653.711C691.406 654.015 691.286 654.308 691.07 654.523C690.855 654.738 690.563 654.859 690.258 654.859Z" fill="#313438"/>
<path d="M652.06 498.698H285.099C284.795 498.698 284.502 498.577 284.287 498.361C284.072 498.146 283.951 497.854 283.951 497.549V321.665C283.951 321.36 284.072 321.068 284.287 320.853C284.502 320.638 284.795 320.517 285.099 320.517C285.404 320.517 285.696 320.638 285.911 320.853C286.127 321.068 286.248 321.36 286.248 321.665V496.401H652.06C652.364 496.401 652.657 496.522 652.872 496.737C653.087 496.953 653.208 497.245 653.208 497.549C653.208 497.854 653.087 498.146 652.872 498.361C652.657 498.577 652.364 498.698 652.06 498.698Z" fill="#313438"/>
<path d="M363.503 486.066H330.126C329.222 486.065 328.356 485.705 327.717 485.066C327.078 484.427 326.718 483.561 326.717 482.657V436.647C326.718 435.743 327.078 434.877 327.717 434.238C328.356 433.599 329.222 433.239 330.126 433.238H363.503C364.406 433.239 365.273 433.599 365.912 434.238C366.551 434.877 366.911 435.743 366.912 436.647V482.657C366.911 483.561 366.551 484.427 365.912 485.066C365.273 485.705 364.406 486.065 363.503 486.066V486.066Z" fill="#D15757"/>
<path d="M424.369 486.066H390.992C390.089 486.065 389.222 485.705 388.583 485.066C387.944 484.427 387.584 483.561 387.583 482.657V393.007C387.584 392.104 387.944 391.237 388.583 390.598C389.222 389.959 390.089 389.6 390.992 389.599H424.369C425.273 389.6 426.139 389.959 426.778 390.598C427.417 391.237 427.777 392.104 427.778 393.007V482.657C427.777 483.561 427.417 484.427 426.778 485.066C426.139 485.705 425.273 486.065 424.369 486.066V486.066Z" fill="#0FC5B0"/>
<path d="M485.235 486.066H451.859C450.955 486.065 450.088 485.705 449.449 485.066C448.81 484.427 448.451 483.561 448.449 482.657V436.647C448.451 435.743 448.81 434.877 449.449 434.238C450.088 433.599 450.955 433.239 451.859 433.238H485.235C486.139 433.239 487.005 433.599 487.644 434.238C488.284 434.877 488.643 435.743 488.644 436.647V482.657C488.643 483.561 488.284 484.427 487.644 485.066C487.005 485.705 486.139 486.065 485.235 486.066V486.066Z" fill="#3092C4"/>
<path d="M546.101 486.065H512.725C511.842 486.084 510.987 485.753 510.348 485.143C509.709 484.533 509.338 483.694 509.316 482.811V375.626C509.338 374.743 509.709 373.905 510.348 373.295C510.987 372.685 511.842 372.353 512.725 372.372H546.101C546.984 372.353 547.839 372.685 548.478 373.295C549.117 373.905 549.488 374.743 549.51 375.626V482.811C549.488 483.694 549.117 484.533 548.478 485.143C547.839 485.753 546.984 486.084 546.101 486.065V486.065Z" fill="#C59940"/>
<path d="M606.968 486.065H573.591C572.687 486.064 571.821 485.705 571.182 485.066C570.543 484.427 570.183 483.56 570.182 482.656V344.773C570.183 343.869 570.543 343.003 571.182 342.364C571.821 341.725 572.687 341.365 573.591 341.364H606.968C607.872 341.365 608.738 341.725 609.377 342.364C610.016 343.003 610.376 343.869 610.377 344.773V482.656C610.376 483.56 610.016 484.427 609.377 485.066C608.738 485.705 607.872 486.064 606.968 486.065V486.065Z" fill="#0FC5B0"/>
<path d="M346.814 419.457C350.62 419.457 353.705 416.372 353.705 412.566C353.705 408.761 350.62 405.676 346.814 405.676C343.009 405.676 339.924 408.761 339.924 412.566C339.924 416.372 343.009 419.457 346.814 419.457Z" fill="#313438"/>
<path d="M407.681 374.669C411.486 374.669 414.571 371.584 414.571 367.778C414.571 363.973 411.486 360.888 407.681 360.888C403.875 360.888 400.79 363.973 400.79 367.778C400.79 371.584 403.875 374.669 407.681 374.669Z" fill="#313438"/>
<path d="M468.547 419.457C472.352 419.457 475.437 416.372 475.437 412.566C475.437 408.761 472.352 405.676 468.547 405.676C464.741 405.676 461.656 408.761 461.656 412.566C461.656 416.372 464.741 419.457 468.547 419.457Z" fill="#313438"/>
<path d="M529.413 352.848C533.219 352.848 536.303 349.763 536.303 345.958C536.303 342.152 533.219 339.067 529.413 339.067C525.607 339.067 522.522 342.152 522.522 345.958C522.522 349.763 525.607 352.848 529.413 352.848Z" fill="#313438"/>
<path d="M590.279 327.584C594.085 327.584 597.17 324.499 597.17 320.693C597.17 316.888 594.085 313.803 590.279 313.803C586.474 313.803 583.389 316.888 583.389 320.693C583.389 324.499 586.474 327.584 590.279 327.584Z" fill="#313438"/>
<path d="M468.692 414.11L407.681 368.412L347.503 413.485L346.125 411.648L407.681 365.542L468.402 411.023L528.741 344.991L528.984 344.893L589.85 320.369L590.709 322.499L530.085 346.925L468.692 414.11Z" fill="#313438"/>
<g filter="url(#filter0_d_410_401)">
<path d="M1069.82 32.008H829.206C817.594 32.0074 806.328 35.9574 797.26 43.2087C788.191 50.46 781.86 60.581 779.306 71.908L657.73 611.176C656.404 617.058 656.38 623.159 657.661 629.051C658.942 634.943 661.497 640.483 665.145 645.284C668.794 650.084 673.449 654.028 678.783 656.84C684.117 659.651 690.001 661.261 696.024 661.558L943.379 673.745C956.624 674.397 969.654 670.208 980.037 661.96C990.421 653.711 997.448 641.966 999.809 628.917L1068.78 247.65L1073.91 249.116L1087.11 176.851L1081.83 175.531L1101.08 69.105C1101.9 64.5464 1101.71 59.862 1100.52 55.3856C1099.33 50.9093 1097.16 46.7513 1094.18 43.2081C1091.19 39.665 1087.46 36.8239 1083.25 34.8874C1079.05 32.9509 1074.46 31.9667 1069.83 32.005L1069.82 32.008Z" fill="#313438"/>
</g>
<path d="M863.824 39.0039H835.74C827.674 39.004 819.85 41.7626 813.568 46.8217C807.286 51.8809 802.923 58.9364 801.204 66.8169L684.504 601.685C683.831 604.764 683.832 607.953 684.505 611.032C685.178 614.112 686.508 617.009 688.404 619.528C690.3 622.046 692.717 624.125 695.49 625.623C698.263 627.122 701.327 628.003 704.473 628.209L951.024 644.369C957.979 644.825 964.859 642.704 970.351 638.41C975.842 634.117 979.561 627.952 980.797 621.092L1080.38 68.2539C1081.02 64.6757 1080.87 60.9998 1079.94 57.4853C1079.01 53.9709 1077.32 50.7037 1074.99 47.9143C1072.65 45.1249 1069.74 42.8812 1066.45 41.3416C1063.15 39.802 1059.56 39.004 1055.92 39.0039H1029.28C1026.7 39.0038 1024.2 39.8539 1022.15 41.4225C1020.1 42.9911 1018.63 45.1908 1017.96 47.6809V47.6809C1017.37 49.88 1016.07 51.8226 1014.26 53.2076C1012.45 54.5926 1010.24 55.3428 1007.96 55.3419H881.471C877.012 55.3418 872.718 53.6591 869.446 50.6301C866.175 47.6012 864.167 43.4492 863.824 39.0039V39.0039Z" fill="white"/>
<path d="M997.647 375.003C998.082 375.017 998.508 374.882 998.847 374.621C999.186 374.36 999.416 373.991 999.495 373.582L1048.97 112.593C1049.02 112.345 1049.01 112.09 1048.94 111.846C1048.88 111.601 1048.76 111.373 1048.59 111.177C1048.43 110.983 1048.22 110.825 1047.99 110.716C1047.75 110.607 1047.49 110.548 1047.23 110.545L822.136 108.004H822.115C821.707 108.007 821.311 108.143 820.994 108.389C820.677 108.635 820.456 108.977 820.369 109.359L762.043 361.877C761.986 362.123 761.985 362.379 762.041 362.625C762.097 362.872 762.208 363.104 762.366 363.306C762.523 363.507 762.724 363.672 762.955 363.789C763.186 363.907 763.441 363.974 763.703 363.987L997.647 375.003Z" fill="#0FC5B0" fill-opacity="0.05"/>
<path d="M781.908 437.007C781.682 437.007 781.463 437.084 781.287 437.224C781.11 437.364 780.986 437.56 780.935 437.78L778.612 447.736C778.579 447.877 778.577 448.023 778.606 448.164C778.635 448.306 778.694 448.439 778.78 448.556C778.865 448.672 778.975 448.769 779.101 448.839C779.228 448.908 779.368 448.95 779.512 448.961L910.742 458.288C910.985 458.303 911.226 458.23 911.42 458.082C911.613 457.933 911.746 457.72 911.795 457.481L914.029 445.962C914.056 445.822 914.053 445.678 914.02 445.54C913.986 445.401 913.924 445.271 913.837 445.159C913.75 445.046 913.639 444.954 913.513 444.888C913.387 444.821 913.249 444.782 913.107 444.774L781.969 437.009L781.908 437.007Z" fill="#3092C4"/>
<path d="M941.345 495.269C941.581 495.288 941.817 495.222 942.01 495.083C942.202 494.944 942.339 494.741 942.396 494.511L945.24 482.968C945.275 482.826 945.278 482.679 945.25 482.536C945.222 482.393 945.163 482.258 945.078 482.14C944.992 482.022 944.881 481.925 944.754 481.854C944.627 481.783 944.485 481.741 944.34 481.731L776.751 470.01C776.523 469.992 776.297 470.053 776.109 470.183C775.922 470.313 775.785 470.504 775.722 470.723L772.767 480.698C772.725 480.841 772.715 480.991 772.738 481.138C772.761 481.284 772.817 481.424 772.901 481.547C772.985 481.669 773.096 481.772 773.224 481.846C773.353 481.921 773.497 481.966 773.645 481.978L941.345 495.269Z" fill="#D15757"/>
<path d="M932.345 532.269C932.581 532.288 932.817 532.222 933.01 532.083C933.202 531.944 933.339 531.741 933.396 531.511L936.24 519.968C936.275 519.826 936.278 519.679 936.25 519.536C936.222 519.393 936.163 519.258 936.078 519.14C935.992 519.022 935.881 518.925 935.754 518.854C935.627 518.783 935.485 518.741 935.34 518.731L767.751 507.01C767.523 506.992 767.297 507.053 767.109 507.183C766.922 507.313 766.785 507.504 766.722 507.723L763.767 517.698C763.725 517.841 763.715 517.991 763.738 518.138C763.761 518.284 763.817 518.424 763.901 518.547C763.985 518.669 764.096 518.772 764.224 518.846C764.353 518.921 764.497 518.966 764.645 518.978L932.345 532.269Z" fill="#C59940"/>
<path d="M855.16 595.521C855.398 595.546 855.638 595.483 855.834 595.344C856.029 595.205 856.168 595 856.224 594.767L862.237 570.716C862.272 570.575 862.276 570.429 862.249 570.286C862.222 570.144 862.165 570.009 862.081 569.891C861.996 569.773 861.887 569.675 861.761 569.603C861.635 569.531 861.495 569.488 861.351 569.476L758.435 560.82C758.195 560.803 757.956 560.872 757.762 561.015C757.568 561.158 757.431 561.365 757.375 561.599L752.246 584.682C752.215 584.82 752.214 584.964 752.243 585.103C752.272 585.242 752.33 585.373 752.413 585.488C752.497 585.602 752.604 585.698 752.727 585.768C752.851 585.838 752.988 585.882 753.129 585.895L855.16 595.521Z" fill="#0FC5B0"/>
<g clip-path="url(#clip0_410_401)">
<path d="M863.827 193.088L831.425 186.491C830.548 186.311 829.771 185.838 829.265 185.176C828.758 184.514 828.564 183.716 828.724 182.958L853.341 67.3179C853.504 66.5601 854.007 65.9045 854.742 65.4949C855.477 65.0852 856.382 64.9551 857.259 65.1329L889.661 71.7308C890.538 71.9103 891.316 72.383 891.822 73.0453C892.328 73.7076 892.523 74.5054 892.362 75.2636L867.745 190.903C867.583 191.661 867.079 192.317 866.345 192.726C865.61 193.136 864.705 193.266 863.827 193.088V193.088Z" fill="#0FC5B0"/>
<path d="M945.503 160.034L913.101 153.437C912.224 153.257 911.421 152.903 910.87 152.451C910.319 151.999 910.064 151.486 910.161 151.026L925.118 80.7634C925.217 80.3031 925.66 79.9326 926.35 79.7333C927.04 79.534 927.92 79.5221 928.798 79.7003L961.199 86.2982C962.077 86.4773 962.879 86.8318 963.43 87.2838C963.981 87.7358 964.236 88.2484 964.139 88.7091L949.182 158.971C949.083 159.432 948.64 159.802 947.95 160.001C947.26 160.201 946.38 160.213 945.503 160.034V160.034Z" fill="#C59940"/>
<path d="M920.194 278.926L887.792 272.328C886.915 272.149 886.123 271.746 885.59 271.209C885.057 270.671 884.827 270.042 884.95 269.46L903.848 180.683C903.973 180.101 904.441 179.615 905.149 179.329C905.857 179.044 906.747 178.984 907.625 179.162L940.027 185.76C940.904 185.939 941.696 186.342 942.229 186.88C942.761 187.418 942.992 188.047 942.869 188.629L923.97 277.405C923.846 277.987 923.378 278.474 922.67 278.759C921.962 279.044 921.071 279.104 920.194 278.926Z" fill="#3092C4"/>
<path d="M896.816 388.745L864.414 382.148C863.537 381.968 862.737 381.602 862.19 381.13C861.644 380.658 861.395 380.118 861.498 379.628L877.39 304.975C877.495 304.485 877.944 304.087 878.638 303.868C879.332 303.648 880.214 303.625 881.092 303.803L913.494 310.401C914.371 310.58 915.171 310.946 915.718 311.418C916.264 311.89 916.514 312.431 916.41 312.92L900.519 387.574C900.413 388.063 899.964 388.461 899.27 388.681C898.576 388.9 897.694 388.924 896.816 388.745Z" fill="#C59940"/>
<path d="M825.339 373.891L792.937 367.293C792.06 367.113 791.295 366.583 790.811 365.817C790.326 365.051 790.162 364.113 790.354 363.208L819.723 225.245C819.916 224.341 820.45 223.545 821.206 223.032C821.963 222.519 822.881 222.33 823.758 222.508L856.16 229.106C857.037 229.285 857.802 229.816 858.286 230.582C858.771 231.348 858.935 232.286 858.744 233.19L829.374 371.154C829.181 372.058 828.647 372.854 827.891 373.367C827.134 373.88 826.216 374.069 825.339 373.891Z" fill="#D15757"/>
<path d="M1011.65 199.949L979.243 193.351C978.366 193.171 977.577 192.754 977.05 192.19C976.523 191.626 976.3 190.962 976.431 190.343L996.529 95.9279C996.662 95.3093 997.138 94.787 997.851 94.4758C998.565 94.1645 999.458 94.0897 1000.34 94.2677L1032.74 100.866C1033.61 101.045 1034.4 101.462 1034.93 102.026C1035.46 102.59 1035.68 103.255 1035.55 103.874L1015.45 198.288C1015.32 198.907 1014.84 199.429 1014.13 199.741C1013.42 200.052 1012.52 200.127 1011.65 199.949Z" fill="#D15757"/>
<path d="M968.448 402.869L936.046 396.271C935.169 396.092 934.355 395.793 933.783 395.44C933.211 395.086 932.928 394.707 932.995 394.385L943.434 345.348C943.503 345.027 943.918 344.79 944.587 344.689C945.256 344.588 946.124 344.631 947.001 344.81L979.403 351.408C980.281 351.587 981.095 351.886 981.667 352.239C982.239 352.593 982.522 352.972 982.455 353.294L972.016 402.331C971.946 402.652 971.532 402.889 970.863 402.99C970.194 403.091 969.326 403.048 968.448 402.869V402.869Z" fill="#3092C4"/>
<path d="M986.52 317.978L954.118 311.38C953.241 311.201 952.442 310.831 951.896 310.352C951.351 309.873 951.104 309.323 951.209 308.824L967.413 232.707C967.52 232.208 967.971 231.801 968.666 231.575C969.362 231.348 970.245 231.321 971.123 231.499L1003.52 238.097C1004.4 238.276 1005.2 238.646 1005.75 239.125C1006.29 239.604 1006.54 240.154 1006.43 240.653L990.23 316.77C990.123 317.269 989.672 317.676 988.976 317.902C988.281 318.129 987.397 318.156 986.52 317.978Z" fill="#0FC5B0"/>
</g>
<defs>
<filter id="filter0_d_410_401" x="624.718" y="0.00390625" width="572.865" height="769.808" filterUnits="userSpaceOnUse" color-interpolation-filters="sRGB">
<feFlood flood-opacity="0" result="BackgroundImageFix"/>
<feColorMatrix in="SourceAlpha" type="matrix" values="0 0 0 0 0 0 0 0 0 0 0 0 0 0 0 0 0 0 127 0" result="hardAlpha"/>
<feOffset dx="32" dy="32"/>
<feGaussianBlur stdDeviation="32"/>
<feComposite in2="hardAlpha" operator="out"/>
<feColorMatrix type="matrix" values="0 0 0 0 0 0 0 0 0 0 0 0 0 0 0 0 0 0 0.25 0"/>
<feBlend mode="normal" in2="BackgroundImageFix" result="effect1_dropShadow_410_401"/>
<feBlend mode="normal" in="SourceGraphic" in2="effect1_dropShadow_410_401" result="shape"/>
</filter>
<clipPath id="clip0_410_401">
<rect width="299" height="256" fill="white" transform="translate(752 111.004)"/>
</clipPath>
</defs>
</svg>
