<svg width="732" height="606" viewBox="0 0 732 606" fill="none" xmlns="http://www.w3.org/2000/svg">
<g filter="url(#filter0_d_363_2)">
<path d="M499 342H389C377.954 342 369 350.954 369 362V472C369 483.046 377.954 492 389 492H499C510.046 492 519 483.046 519 472V362C519 350.954 510.046 342 499 342Z" fill="#D15757"/>
</g>
<path d="M657 436C698.421 436 732 402.421 732 361C732 319.579 698.421 286 657 286C615.579 286 582 319.579 582 361C582 402.421 615.579 436 657 436Z" fill="#D15757"/>
<g filter="url(#filter1_d_363_2)">
<path d="M529.924 99.142L452.142 176.924C444.332 184.734 444.332 197.398 452.142 205.208L529.924 282.99C537.734 290.8 550.398 290.8 558.208 282.99L635.99 205.208C643.8 197.398 643.8 184.734 635.99 176.924L558.208 99.142C550.398 91.3316 537.734 91.3315 529.924 99.142Z" fill="#3092C4"/>
</g>
<g filter="url(#filter2_d_363_2)">
<path d="M307 436H197C185.954 436 177 444.954 177 456V566C177 577.046 185.954 586 197 586H307C318.046 586 327 577.046 327 566V456C327 444.954 318.046 436 307 436Z" fill="#C59940"/>
</g>
<path d="M177.924 506.689C177.564 506.329 177.086 506.116 176.597 506.096C176.107 506.076 175.645 506.252 175.313 506.584C174.981 506.916 174.805 507.378 174.825 507.868C174.845 508.357 175.058 508.835 175.418 509.195C175.778 509.555 176.256 509.769 176.746 509.789C177.235 509.808 177.697 509.633 178.029 509.3C178.362 508.968 178.537 508.506 178.517 508.017C178.498 507.527 178.284 507.05 177.924 506.689V506.689ZM193.768 490.846C193.407 490.485 192.929 490.272 192.439 490.252C191.949 490.232 191.487 490.408 191.155 490.74C190.822 491.073 190.647 491.535 190.666 492.025C190.686 492.515 190.9 492.993 191.26 493.353C191.621 493.713 192.098 493.927 192.588 493.947C193.078 493.966 193.54 493.791 193.872 493.458C194.205 493.126 194.38 492.664 194.36 492.174C194.341 491.684 194.127 491.207 193.767 490.846L193.768 490.846ZM209.61 475.004C209.249 474.643 208.772 474.43 208.282 474.41C207.792 474.39 207.33 474.566 206.998 474.898C206.665 475.231 206.49 475.692 206.51 476.182C206.529 476.672 206.743 477.15 207.103 477.51C207.463 477.87 207.941 478.084 208.43 478.104C208.92 478.123 209.382 477.948 209.714 477.615C210.046 477.283 210.222 476.821 210.202 476.332C210.183 475.842 209.969 475.365 209.609 475.004L209.61 475.004ZM225.453 459.161C225.092 458.8 224.615 458.587 224.125 458.567C223.635 458.547 223.173 458.723 222.841 459.055C222.508 459.388 222.333 459.85 222.352 460.339C222.372 460.829 222.586 461.307 222.946 461.667C223.306 462.027 223.784 462.241 224.273 462.261C224.763 462.28 225.225 462.105 225.557 461.773C225.889 461.44 226.065 460.979 226.045 460.489C226.025 459.999 225.812 459.522 225.452 459.161L225.453 459.161ZM241.295 443.319C240.934 442.958 240.457 442.745 239.967 442.725C239.478 442.705 239.016 442.881 238.684 443.213C238.351 443.546 238.176 444.007 238.195 444.497C238.215 444.987 238.429 445.464 238.789 445.824C239.149 446.185 239.627 446.398 240.116 446.418C240.606 446.438 241.068 446.262 241.4 445.93C241.732 445.597 241.908 445.136 241.888 444.646C241.868 444.156 241.655 443.679 241.295 443.319ZM257.138 427.476C256.777 427.115 256.3 426.902 255.81 426.882C255.321 426.862 254.859 427.038 254.526 427.37C254.194 427.703 254.019 428.164 254.038 428.654C254.058 429.144 254.272 429.621 254.632 429.981C254.992 430.342 255.47 430.555 255.959 430.575C256.449 430.595 256.911 430.419 257.243 430.087C257.575 429.754 257.751 429.293 257.731 428.803C257.711 428.313 257.498 427.836 257.138 427.476ZM272.98 411.633C272.62 411.273 272.143 411.059 271.653 411.039C271.163 411.02 270.702 411.195 270.369 411.527C270.037 411.86 269.862 412.322 269.881 412.811C269.901 413.301 270.115 413.778 270.475 414.139C270.835 414.499 271.312 414.712 271.802 414.732C272.292 414.752 272.754 414.576 273.086 414.244C273.418 413.912 273.594 413.45 273.574 412.96C273.554 412.47 273.341 411.993 272.98 411.633V411.633ZM288.824 395.789C288.464 395.429 287.986 395.215 287.496 395.195C287.007 395.176 286.545 395.351 286.212 395.684C285.88 396.016 285.704 396.478 285.724 396.968C285.744 397.458 285.957 397.935 286.318 398.296C286.678 398.656 287.155 398.869 287.645 398.889C288.135 398.909 288.596 398.733 288.929 398.401C289.261 398.069 289.437 397.607 289.417 397.117C289.397 396.628 289.184 396.15 288.823 395.79L288.824 395.789ZM304.666 379.947C304.306 379.587 303.829 379.373 303.339 379.354C302.849 379.334 302.387 379.509 302.055 379.842C301.723 380.174 301.547 380.636 301.567 381.125C301.587 381.615 301.8 382.093 302.161 382.453C302.521 382.813 302.998 383.026 303.488 383.046C303.978 383.066 304.439 382.89 304.772 382.558C305.104 382.226 305.279 381.764 305.26 381.274C305.24 380.785 305.026 380.307 304.666 379.947V379.947ZM320.509 364.104C320.149 363.744 319.671 363.53 319.182 363.511C318.692 363.491 318.23 363.667 317.898 363.999C317.566 364.331 317.39 364.793 317.41 365.283C317.43 365.772 317.643 366.25 318.003 366.61C318.364 366.97 318.841 367.184 319.331 367.203C319.82 367.223 320.282 367.047 320.614 366.715C320.947 366.383 321.122 365.921 321.103 365.431C321.083 364.942 320.869 364.464 320.509 364.104ZM336.352 348.261C335.992 347.901 335.514 347.687 335.024 347.668C334.534 347.648 334.072 347.823 333.74 348.156C333.408 348.488 333.232 348.95 333.252 349.44C333.272 349.93 333.485 350.407 333.845 350.768C334.206 351.128 334.683 351.342 335.173 351.361C335.663 351.381 336.125 351.206 336.457 350.873C336.79 350.541 336.965 350.079 336.946 349.589C336.926 349.099 336.712 348.622 336.352 348.261ZM352.195 332.418C351.835 332.058 351.357 331.844 350.867 331.825C350.377 331.805 349.915 331.981 349.583 332.313C349.251 332.645 349.075 333.107 349.095 333.597C349.114 334.087 349.328 334.565 349.688 334.925C350.049 335.285 350.526 335.499 351.016 335.518C351.505 335.538 351.967 335.363 352.299 335.03C352.632 334.698 352.807 334.236 352.788 333.747C352.768 333.257 352.554 332.779 352.194 332.419L352.195 332.418ZM160.518 489.283C160.158 488.923 159.68 488.71 159.191 488.69C158.701 488.671 158.239 488.847 157.907 489.179C157.575 489.511 157.399 489.973 157.419 490.463C157.439 490.953 157.653 491.43 158.013 491.79C158.192 491.968 158.401 492.113 158.629 492.214C158.856 492.316 159.098 492.373 159.341 492.383C159.583 492.393 159.821 492.355 160.042 492.271C160.262 492.187 160.46 492.059 160.624 491.895C160.789 491.73 160.916 491.532 161 491.312C161.084 491.091 161.122 490.853 161.112 490.611C161.102 490.368 161.045 490.126 160.943 489.898C160.841 489.671 160.696 489.462 160.518 489.283ZM176.362 473.44C176.001 473.079 175.523 472.866 175.033 472.846C174.543 472.827 174.081 473.003 173.749 473.335C173.417 473.668 173.241 474.13 173.261 474.62C173.281 475.11 173.495 475.588 173.855 475.948C174.216 476.308 174.693 476.522 175.183 476.541C175.673 476.561 176.135 476.385 176.467 476.053C176.799 475.72 176.975 475.258 176.955 474.768C176.935 474.278 176.721 473.801 176.361 473.441L176.362 473.44ZM192.204 457.598C192.025 457.419 191.816 457.275 191.588 457.173C191.361 457.072 191.118 457.014 190.876 457.004C190.633 456.995 190.395 457.033 190.175 457.117C189.955 457.201 189.756 457.329 189.592 457.493C189.427 457.658 189.3 457.856 189.216 458.076C189.132 458.297 189.094 458.535 189.104 458.778C189.114 459.02 189.172 459.262 189.273 459.49C189.375 459.718 189.52 459.927 189.698 460.105C190.059 460.465 190.536 460.679 191.026 460.698C191.515 460.718 191.977 460.542 192.309 460.21C192.641 459.877 192.817 459.415 192.797 458.926C192.777 458.436 192.563 457.959 192.203 457.599L192.204 457.598ZM208.047 441.755C207.868 441.576 207.659 441.432 207.431 441.33C207.203 441.229 206.961 441.171 206.719 441.162C206.476 441.152 206.238 441.19 206.018 441.274C205.797 441.358 205.599 441.486 205.435 441.65C205.27 441.815 205.143 442.013 205.059 442.233C204.975 442.454 204.937 442.692 204.947 442.935C204.957 443.177 205.014 443.419 205.116 443.647C205.218 443.875 205.363 444.084 205.541 444.262C205.72 444.441 205.929 444.585 206.156 444.686C206.384 444.788 206.626 444.846 206.869 444.855C207.111 444.865 207.349 444.827 207.569 444.743C207.79 444.659 207.988 444.531 208.152 444.367C208.317 444.202 208.444 444.004 208.528 443.784C208.612 443.563 208.65 443.325 208.64 443.083C208.63 442.84 208.572 442.598 208.471 442.371C208.369 442.143 208.224 441.934 208.046 441.756L208.047 441.755ZM223.889 425.913C223.529 425.553 223.051 425.339 222.561 425.319C222.072 425.3 221.61 425.475 221.278 425.807C220.945 426.14 220.77 426.601 220.79 427.091C220.809 427.581 221.023 428.058 221.383 428.418C221.743 428.779 222.221 428.992 222.71 429.012C223.2 429.032 223.662 428.856 223.994 428.524C224.326 428.192 224.502 427.73 224.482 427.24C224.463 426.75 224.249 426.273 223.889 425.913V425.913ZM239.732 410.07C239.371 409.71 238.894 409.496 238.404 409.476C237.915 409.457 237.453 409.632 237.121 409.965C236.788 410.297 236.613 410.759 236.633 411.248C236.652 411.738 236.866 412.215 237.226 412.576C237.586 412.936 238.064 413.149 238.553 413.169C239.043 413.189 239.505 413.013 239.837 412.681C240.169 412.349 240.345 411.887 240.325 411.397C240.305 410.908 240.092 410.43 239.732 410.07V410.07ZM255.575 394.227C255.214 393.867 254.737 393.653 254.247 393.634C253.758 393.614 253.296 393.789 252.964 394.122C252.631 394.454 252.456 394.916 252.475 395.405C252.495 395.895 252.709 396.372 253.069 396.733C253.429 397.093 253.907 397.306 254.396 397.326C254.886 397.346 255.348 397.17 255.68 396.838C256.012 396.506 256.188 396.044 256.168 395.554C256.148 395.065 255.935 394.587 255.575 394.227V394.227ZM271.418 378.383C271.24 378.205 271.031 378.061 270.803 377.959C270.575 377.857 270.333 377.8 270.09 377.79C269.848 377.78 269.61 377.818 269.389 377.902C269.169 377.986 268.971 378.114 268.806 378.279C268.642 378.443 268.514 378.642 268.43 378.862C268.347 379.082 268.309 379.321 268.319 379.563C268.328 379.806 268.386 380.048 268.488 380.275C268.59 380.503 268.734 380.712 268.913 380.891C269.091 381.069 269.3 381.213 269.528 381.315C269.756 381.417 269.998 381.474 270.24 381.484C270.483 381.493 270.721 381.455 270.941 381.371C271.161 381.288 271.359 381.16 271.524 380.995C271.688 380.831 271.816 380.632 271.9 380.412C271.983 380.192 272.021 379.954 272.011 379.711C272.001 379.469 271.944 379.227 271.842 378.999C271.74 378.771 271.596 378.562 271.417 378.384L271.418 378.383ZM287.26 362.541C287.082 362.363 286.873 362.219 286.645 362.117C286.417 362.015 286.175 361.958 285.933 361.948C285.69 361.938 285.452 361.977 285.232 362.06C285.012 362.144 284.814 362.272 284.649 362.437C284.485 362.601 284.357 362.799 284.274 363.02C284.19 363.24 284.152 363.478 284.162 363.721C284.172 363.963 284.229 364.205 284.331 364.433C284.433 364.661 284.577 364.869 284.756 365.048C285.116 365.408 285.593 365.621 286.083 365.641C286.573 365.66 287.034 365.485 287.367 365.152C287.699 364.82 287.874 364.358 287.854 363.868C287.834 363.379 287.621 362.901 287.26 362.541V362.541ZM303.103 346.698C302.743 346.338 302.265 346.125 301.776 346.105C301.286 346.086 300.824 346.261 300.492 346.594C300.16 346.926 299.985 347.388 300.005 347.878C300.025 348.367 300.238 348.845 300.598 349.205C300.777 349.383 300.986 349.527 301.214 349.629C301.441 349.731 301.684 349.788 301.926 349.798C302.168 349.808 302.407 349.769 302.627 349.686C302.847 349.602 303.045 349.474 303.209 349.309C303.374 349.145 303.502 348.947 303.585 348.726C303.669 348.506 303.707 348.268 303.697 348.025C303.687 347.783 303.63 347.541 303.528 347.313C303.426 347.086 303.282 346.877 303.103 346.698ZM318.946 330.855C318.768 330.677 318.559 330.533 318.331 330.431C318.103 330.329 317.861 330.272 317.618 330.262C317.376 330.252 317.137 330.291 316.917 330.374C316.697 330.458 316.499 330.586 316.334 330.751C316.17 330.916 316.042 331.114 315.958 331.334C315.875 331.554 315.837 331.793 315.846 332.035C315.856 332.278 315.914 332.52 316.016 332.748C316.118 332.975 316.262 333.184 316.441 333.363C316.801 333.723 317.279 333.936 317.768 333.956C318.258 333.976 318.72 333.8 319.052 333.467C319.385 333.135 319.56 332.673 319.54 332.183C319.52 331.693 319.307 331.216 318.946 330.855V330.855ZM334.789 315.013C334.611 314.834 334.401 314.69 334.174 314.588C333.946 314.486 333.704 314.429 333.461 314.419C333.219 314.41 332.98 314.448 332.76 314.532C332.54 314.615 332.342 314.743 332.177 314.908C332.013 315.073 331.885 315.271 331.801 315.491C331.717 315.712 331.679 315.95 331.689 316.192C331.699 316.435 331.757 316.677 331.859 316.905C331.961 317.133 332.105 317.342 332.283 317.52C332.644 317.88 333.121 318.093 333.611 318.113C334.101 318.133 334.562 317.957 334.894 317.624C335.227 317.292 335.402 316.83 335.382 316.34C335.362 315.851 335.149 315.373 334.788 315.013L334.789 315.013ZM143.112 471.878C142.752 471.517 142.275 471.304 141.785 471.284C141.295 471.264 140.833 471.44 140.501 471.772C140.169 472.105 139.993 472.566 140.013 473.056C140.033 473.546 140.246 474.023 140.607 474.383C140.967 474.744 141.444 474.957 141.934 474.977C142.424 474.997 142.885 474.821 143.218 474.489C143.55 474.156 143.725 473.695 143.706 473.205C143.686 472.715 143.472 472.238 143.112 471.878V471.878ZM158.956 456.034C158.596 455.674 158.118 455.46 157.629 455.44C157.139 455.421 156.677 455.596 156.345 455.929C156.013 456.261 155.837 456.723 155.857 457.212C155.877 457.702 156.09 458.179 156.45 458.54C156.81 458.9 157.288 459.113 157.778 459.133C158.267 459.153 158.729 458.977 159.061 458.645C159.394 458.313 159.569 457.851 159.549 457.361C159.53 456.872 159.316 456.394 158.956 456.034V456.034ZM174.798 440.192C174.438 439.832 173.96 439.618 173.471 439.598C172.981 439.579 172.519 439.754 172.187 440.087C171.855 440.419 171.679 440.881 171.699 441.37C171.719 441.86 171.932 442.337 172.292 442.698C172.653 443.058 173.13 443.271 173.62 443.291C174.109 443.311 174.571 443.135 174.903 442.803C175.236 442.471 175.411 442.009 175.391 441.519C175.372 441.03 175.158 440.552 174.798 440.192V440.192ZM190.641 424.349C190.281 423.989 189.803 423.775 189.314 423.756C188.824 423.736 188.362 423.911 188.03 424.244C187.698 424.576 187.522 425.038 187.542 425.527C187.562 426.017 187.775 426.494 188.135 426.855C188.495 427.215 188.973 427.428 189.463 427.448C189.952 427.468 190.414 427.292 190.746 426.96C191.079 426.628 191.254 426.166 191.234 425.676C191.215 425.187 191.001 424.709 190.641 424.349V424.349ZM206.483 408.507C206.307 408.318 206.097 408.164 205.866 408.054C205.636 407.943 205.389 407.879 205.141 407.864C204.892 407.85 204.648 407.885 204.421 407.969C204.195 408.052 203.992 408.182 203.823 408.35C203.655 408.519 203.525 408.722 203.441 408.948C203.357 409.175 203.322 409.419 203.336 409.667C203.351 409.916 203.415 410.163 203.525 410.393C203.636 410.624 203.789 410.834 203.978 411.01C204.341 411.35 204.811 411.546 205.288 411.556C205.766 411.567 206.214 411.392 206.539 411.067C206.863 410.743 207.039 410.295 207.028 409.818C207.018 409.34 206.822 408.87 206.483 408.507ZM222.326 392.664C222.15 392.475 221.94 392.321 221.709 392.211C221.479 392.1 221.232 392.036 220.984 392.021C220.735 392.007 220.491 392.042 220.264 392.126C220.038 392.209 219.834 392.339 219.666 392.507C219.498 392.676 219.368 392.879 219.284 393.105C219.2 393.332 219.165 393.576 219.179 393.825C219.194 394.073 219.258 394.32 219.368 394.55C219.478 394.781 219.632 394.991 219.821 395.167C220.184 395.507 220.654 395.703 221.131 395.713C221.609 395.724 222.057 395.549 222.382 395.225C222.706 394.9 222.882 394.452 222.871 393.975C222.861 393.497 222.665 393.027 222.326 392.664V392.664ZM238.169 376.821C237.992 376.635 237.782 376.484 237.553 376.376C237.323 376.268 237.077 376.206 236.831 376.193C236.584 376.18 236.341 376.216 236.117 376.299C235.892 376.383 235.69 376.512 235.523 376.679C235.356 376.847 235.226 377.048 235.143 377.273C235.059 377.497 235.023 377.74 235.036 377.987C235.049 378.233 235.111 378.479 235.219 378.709C235.326 378.939 235.477 379.148 235.663 379.325C236.025 379.671 236.497 379.872 236.979 379.885C237.46 379.898 237.912 379.723 238.239 379.397C238.565 379.07 238.741 378.618 238.728 378.137C238.715 377.656 238.514 377.184 238.169 376.821V376.821ZM254.012 360.977C253.652 360.617 253.175 360.404 252.685 360.384C252.195 360.364 251.734 360.54 251.401 360.872C251.069 361.204 250.894 361.666 250.913 362.156C250.933 362.645 251.147 363.123 251.507 363.483C251.867 363.843 252.344 364.057 252.834 364.077C253.324 364.096 253.786 363.921 254.118 363.588C254.45 363.256 254.626 362.794 254.606 362.305C254.586 361.815 254.373 361.338 254.012 360.977V360.977ZM269.855 345.135C269.494 344.775 269.017 344.562 268.527 344.542C268.038 344.522 267.576 344.698 267.243 345.03C266.911 345.362 266.736 345.824 266.755 346.314C266.775 346.803 266.989 347.281 267.349 347.641C267.709 348.001 268.187 348.215 268.676 348.234C269.166 348.254 269.628 348.079 269.96 347.746C270.292 347.414 270.468 346.952 270.448 346.463C270.428 345.973 270.215 345.496 269.855 345.135V345.135ZM285.697 329.292C285.337 328.932 284.86 328.719 284.37 328.699C283.88 328.679 283.419 328.855 283.086 329.187C282.754 329.519 282.579 329.981 282.598 330.471C282.618 330.96 282.831 331.438 283.192 331.798C283.552 332.158 284.029 332.372 284.519 332.392C285.009 332.411 285.47 332.236 285.803 331.903C286.135 331.571 286.311 331.109 286.291 330.62C286.271 330.13 286.058 329.653 285.697 329.292V329.292ZM301.54 313.45C301.18 313.089 300.703 312.876 300.213 312.856C299.723 312.836 299.262 313.012 298.929 313.344C298.597 313.676 298.421 314.138 298.441 314.628C298.461 315.118 298.674 315.595 299.035 315.955C299.395 316.315 299.872 316.529 300.362 316.549C300.852 316.568 301.313 316.393 301.646 316.061C301.978 315.728 302.154 315.267 302.134 314.777C302.114 314.287 301.901 313.81 301.54 313.45V313.45ZM317.383 297.607C317.023 297.246 316.546 297.033 316.056 297.013C315.566 296.993 315.104 297.169 314.772 297.501C314.44 297.834 314.264 298.295 314.284 298.785C314.304 299.275 314.517 299.752 314.877 300.112C315.238 300.473 315.715 300.686 316.205 300.706C316.695 300.726 317.156 300.55 317.489 300.218C317.821 299.885 317.996 299.424 317.977 298.934C317.957 298.444 317.743 297.967 317.383 297.607V297.607ZM125.706 454.472C125.346 454.112 124.869 453.898 124.379 453.878C123.889 453.859 123.428 454.034 123.095 454.366C122.763 454.699 122.587 455.161 122.607 455.65C122.627 456.14 122.84 456.617 123.201 456.978C123.561 457.338 124.038 457.551 124.528 457.571C125.018 457.591 125.479 457.415 125.812 457.083C126.144 456.751 126.32 456.289 126.3 455.799C126.28 455.309 126.067 454.832 125.706 454.472V454.472ZM141.55 438.628C141.19 438.268 140.712 438.054 140.222 438.034C139.732 438.014 139.27 438.19 138.937 438.523C138.605 438.855 138.429 439.317 138.449 439.807C138.469 440.297 138.682 440.775 139.043 441.135C139.403 441.496 139.881 441.709 140.371 441.729C140.86 441.749 141.322 441.573 141.655 441.241C141.987 440.908 142.163 440.447 142.143 439.957C142.123 439.467 141.91 438.989 141.549 438.629L141.55 438.628ZM157.392 422.786C157.032 422.426 156.554 422.212 156.064 422.192C155.575 422.173 155.113 422.348 154.78 422.681C154.448 423.013 154.272 423.475 154.292 423.965C154.312 424.455 154.525 424.932 154.886 425.293C155.246 425.653 155.723 425.866 156.213 425.886C156.703 425.906 157.164 425.73 157.497 425.398C157.829 425.066 158.005 424.604 157.985 424.114C157.965 423.625 157.752 423.147 157.391 422.787L157.392 422.786ZM173.235 406.943C172.875 406.583 172.397 406.369 171.907 406.349C171.417 406.33 170.956 406.505 170.623 406.838C170.291 407.17 170.115 407.632 170.135 408.122C170.155 408.612 170.368 409.089 170.728 409.45C171.089 409.81 171.566 410.023 172.056 410.043C172.546 410.063 173.007 409.887 173.34 409.555C173.672 409.223 173.847 408.761 173.828 408.271C173.808 407.782 173.594 407.304 173.234 406.944L173.235 406.943ZM189.077 391.101C188.717 390.741 188.239 390.527 187.75 390.508C187.26 390.488 186.798 390.663 186.466 390.996C186.134 391.328 185.958 391.79 185.978 392.279C185.998 392.769 186.211 393.247 186.571 393.607C186.932 393.967 187.409 394.18 187.899 394.2C188.388 394.22 188.85 394.044 189.182 393.712C189.515 393.38 189.69 392.918 189.671 392.428C189.651 391.939 189.437 391.461 189.077 391.101V391.101ZM204.92 375.258C204.56 374.898 204.082 374.684 203.593 374.665C203.103 374.645 202.641 374.821 202.309 375.153C201.977 375.485 201.801 375.947 201.821 376.437C201.841 376.926 202.054 377.404 202.414 377.764C202.775 378.124 203.252 378.338 203.742 378.357C204.231 378.377 204.693 378.202 205.025 377.869C205.358 377.537 205.533 377.075 205.513 376.586C205.494 376.096 205.28 375.618 204.92 375.258V375.258ZM220.763 359.415C220.403 359.055 219.925 358.842 219.436 358.822C218.946 358.802 218.484 358.978 218.152 359.31C217.82 359.642 217.644 360.104 217.664 360.594C217.683 361.083 217.897 361.561 218.257 361.921C218.617 362.281 219.095 362.495 219.585 362.514C220.074 362.534 220.536 362.359 220.868 362.026C221.201 361.694 221.376 361.232 221.356 360.743C221.337 360.253 221.123 359.775 220.763 359.415V359.415ZM236.607 343.572C236.246 343.211 235.769 342.998 235.279 342.978C234.789 342.958 234.327 343.134 233.995 343.466C233.662 343.799 233.487 344.26 233.506 344.75C233.526 345.24 233.74 345.718 234.1 346.078C234.46 346.438 234.938 346.652 235.427 346.672C235.917 346.691 236.379 346.516 236.711 346.183C237.043 345.851 237.219 345.389 237.199 344.9C237.179 344.41 236.966 343.933 236.606 343.572L236.607 343.572ZM252.449 327.729C252.088 327.369 251.611 327.156 251.121 327.136C250.632 327.116 250.17 327.292 249.838 327.624C249.505 327.956 249.33 328.418 249.35 328.908C249.369 329.398 249.583 329.875 249.943 330.235C250.303 330.595 250.781 330.809 251.27 330.829C251.76 330.848 252.222 330.673 252.554 330.341C252.886 330.008 253.062 329.547 253.042 329.057C253.022 328.567 252.809 328.09 252.449 327.729V327.729ZM268.292 311.887C267.931 311.526 267.454 311.313 266.964 311.293C266.475 311.273 266.013 311.449 265.681 311.781C265.348 312.114 265.173 312.575 265.192 313.065C265.212 313.555 265.426 314.032 265.786 314.392C266.146 314.753 266.624 314.966 267.113 314.986C267.603 315.006 268.065 314.83 268.397 314.498C268.729 314.165 268.905 313.704 268.885 313.214C268.865 312.724 268.652 312.247 268.292 311.887V311.887ZM284.134 296.044C283.774 295.683 283.297 295.47 282.807 295.45C282.317 295.43 281.855 295.606 281.523 295.938C281.19 296.271 281.015 296.733 281.034 297.222C281.054 297.712 281.268 298.19 281.628 298.55C281.988 298.911 282.466 299.124 282.956 299.144C283.446 299.164 283.907 298.988 284.24 298.656C284.572 298.323 284.748 297.861 284.728 297.371C284.708 296.882 284.495 296.404 284.134 296.044ZM299.977 280.201C299.617 279.84 299.139 279.627 298.65 279.607C298.16 279.587 297.698 279.763 297.365 280.095C297.033 280.428 296.857 280.89 296.877 281.38C296.897 281.869 297.11 282.347 297.471 282.707C297.831 283.068 298.308 283.281 298.798 283.301C299.288 283.321 299.75 283.145 300.082 282.813C300.414 282.48 300.59 282.019 300.57 281.529C300.55 281.039 300.337 280.562 299.977 280.202L299.977 280.201ZM108.301 437.066C107.94 436.706 107.463 436.492 106.973 436.472C106.484 436.453 106.022 436.628 105.689 436.961C105.357 437.293 105.182 437.755 105.201 438.244C105.221 438.734 105.435 439.211 105.795 439.572C106.155 439.932 106.632 440.145 107.122 440.165C107.612 440.185 108.074 440.009 108.406 439.677C108.738 439.345 108.914 438.883 108.894 438.393C108.874 437.904 108.661 437.426 108.301 437.066V437.066ZM124.144 421.222C123.784 420.862 123.307 420.649 122.817 420.629C122.327 420.609 121.865 420.785 121.533 421.117C121.201 421.449 121.025 421.911 121.045 422.401C121.065 422.89 121.278 423.368 121.639 423.728C121.999 424.088 122.476 424.302 122.966 424.321C123.456 424.341 123.917 424.166 124.25 423.833C124.582 423.501 124.757 423.039 124.738 422.55C124.718 422.06 124.504 421.582 124.144 421.222V421.222ZM139.986 405.38C139.626 405.02 139.149 404.806 138.659 404.787C138.169 404.767 137.708 404.943 137.375 405.275C137.043 405.607 136.867 406.069 136.887 406.559C136.907 407.048 137.12 407.526 137.481 407.886C137.841 408.246 138.318 408.46 138.808 408.479C139.298 408.499 139.759 408.323 140.092 407.991C140.424 407.659 140.6 407.197 140.58 406.707C140.56 406.218 140.347 405.74 139.986 405.38V405.38ZM155.829 389.537C155.469 389.177 154.992 388.964 154.502 388.944C154.012 388.924 153.55 389.1 153.218 389.432C152.886 389.764 152.71 390.226 152.73 390.716C152.75 391.205 152.963 391.683 153.323 392.043C153.684 392.403 154.161 392.617 154.651 392.636C155.141 392.656 155.602 392.481 155.935 392.148C156.267 391.816 156.442 391.354 156.423 390.865C156.403 390.375 156.189 389.897 155.829 389.537V389.537ZM171.671 373.695C171.495 373.507 171.285 373.352 171.055 373.242C170.824 373.132 170.577 373.067 170.329 373.053C170.081 373.038 169.836 373.073 169.61 373.157C169.383 373.24 169.18 373.37 169.011 373.539C168.843 373.707 168.713 373.91 168.629 374.137C168.546 374.363 168.51 374.608 168.525 374.856C168.539 375.104 168.603 375.351 168.714 375.582C168.824 375.812 168.978 376.022 169.166 376.198C169.529 376.538 169.999 376.734 170.477 376.745C170.954 376.755 171.403 376.58 171.727 376.256C172.052 375.932 172.227 375.484 172.217 375.006C172.206 374.528 172.011 374.059 171.671 373.695V373.695ZM187.514 357.852C187.338 357.664 187.128 357.51 186.898 357.399C186.667 357.289 186.42 357.224 186.172 357.21C185.924 357.195 185.679 357.231 185.453 357.314C185.226 357.398 185.023 357.527 184.854 357.696C184.686 357.864 184.556 358.067 184.472 358.294C184.389 358.52 184.353 358.765 184.367 359.013C184.382 359.261 184.446 359.508 184.556 359.739C184.667 359.969 184.821 360.179 185.009 360.355C185.372 360.695 185.842 360.891 186.32 360.902C186.797 360.912 187.245 360.737 187.57 360.413C187.894 360.089 188.07 359.641 188.059 359.163C188.049 358.686 187.854 358.216 187.514 357.852V357.852ZM203.357 342.009C203.18 341.824 202.971 341.673 202.741 341.565C202.511 341.457 202.266 341.394 202.019 341.381C201.772 341.368 201.53 341.404 201.305 341.488C201.081 341.571 200.879 341.701 200.711 341.868C200.544 342.035 200.415 342.237 200.331 342.461C200.247 342.686 200.211 342.928 200.224 343.175C200.237 343.422 200.299 343.667 200.407 343.897C200.515 344.127 200.666 344.336 200.851 344.513C201.214 344.859 201.686 345.06 202.167 345.073C202.648 345.087 203.1 344.912 203.427 344.585C203.754 344.258 203.929 343.806 203.916 343.325C203.903 342.844 203.703 342.372 203.357 342.009V342.009ZM219.201 326.166C218.841 325.805 218.363 325.592 217.873 325.572C217.384 325.552 216.922 325.728 216.59 326.06C216.257 326.393 216.082 326.854 216.102 327.344C216.121 327.834 216.335 328.311 216.695 328.671C217.055 329.032 217.533 329.245 218.022 329.265C218.512 329.285 218.974 329.109 219.306 328.777C219.638 328.444 219.814 327.983 219.794 327.493C219.774 327.003 219.561 326.526 219.201 326.166V326.166ZM235.043 310.324C234.683 309.963 234.205 309.75 233.715 309.73C233.226 309.71 232.764 309.886 232.432 310.218C232.1 310.551 231.924 311.012 231.944 311.502C231.963 311.992 232.177 312.469 232.537 312.829C232.897 313.19 233.375 313.403 233.864 313.423C234.354 313.443 234.816 313.267 235.148 312.935C235.48 312.602 235.656 312.141 235.636 311.651C235.617 311.161 235.403 310.684 235.043 310.324V310.324ZM250.886 294.481C250.526 294.121 250.048 293.907 249.558 293.887C249.069 293.868 248.607 294.043 248.275 294.375C247.942 294.708 247.767 295.169 247.787 295.659C247.806 296.149 248.02 296.626 248.38 296.986C248.74 297.347 249.218 297.56 249.707 297.58C250.197 297.6 250.659 297.424 250.991 297.092C251.323 296.76 251.499 296.298 251.479 295.808C251.459 295.318 251.246 294.841 250.886 294.481V294.481ZM266.729 278.638C266.368 278.278 265.891 278.064 265.401 278.044C264.912 278.025 264.45 278.2 264.118 278.533C263.785 278.865 263.61 279.327 263.629 279.816C263.649 280.306 263.863 280.783 264.223 281.144C264.583 281.504 265.061 281.717 265.55 281.737C266.04 281.757 266.502 281.581 266.834 281.249C267.166 280.917 267.342 280.455 267.322 279.965C267.302 279.476 267.089 278.998 266.729 278.638V278.638ZM282.572 262.795C282.211 262.435 281.734 262.221 281.244 262.202C280.755 262.182 280.293 262.357 279.96 262.69C279.628 263.022 279.453 263.484 279.472 263.973C279.492 264.463 279.706 264.94 280.066 265.301C280.426 265.661 280.904 265.874 281.393 265.894C281.883 265.914 282.345 265.738 282.677 265.406C283.009 265.074 283.185 264.612 283.165 264.122C283.145 263.633 282.932 263.155 282.572 262.795V262.795ZM90.8938 419.659C90.7154 419.481 90.5063 419.337 90.2785 419.235C90.0507 419.133 89.8087 419.076 89.5663 419.066C89.3238 419.056 89.0857 419.095 88.8654 419.178C88.6452 419.262 88.4472 419.39 88.2828 419.555C88.1183 419.719 87.9906 419.917 87.9069 420.138C87.8232 420.358 87.7853 420.596 87.7951 420.839C87.805 421.081 87.8625 421.323 87.9644 421.551C88.0663 421.779 88.2106 421.988 88.389 422.166C88.7492 422.526 89.2266 422.74 89.7163 422.759C90.206 422.779 90.6678 422.603 91 422.271C91.3323 421.939 91.5079 421.477 91.4881 420.987C91.4684 420.498 91.2549 420.02 90.8947 419.66L90.8938 419.659ZM106.738 403.815C106.559 403.637 106.35 403.493 106.122 403.391C105.894 403.289 105.652 403.232 105.409 403.222C105.167 403.212 104.928 403.251 104.708 403.334C104.487 403.418 104.289 403.546 104.125 403.711C103.96 403.876 103.832 404.074 103.749 404.294C103.665 404.515 103.627 404.753 103.637 404.996C103.647 405.238 103.704 405.48 103.806 405.708C103.908 405.936 104.053 406.145 104.231 406.324C104.591 406.684 105.069 406.898 105.559 406.917C106.049 406.937 106.511 406.762 106.843 406.429C107.175 406.097 107.351 405.635 107.331 405.145C107.311 404.655 107.098 404.178 106.738 403.817L106.738 403.815ZM122.58 387.973C122.401 387.795 122.192 387.651 121.964 387.549C121.736 387.447 121.494 387.39 121.252 387.38C121.009 387.37 120.771 387.409 120.551 387.493C120.33 387.576 120.132 387.704 119.968 387.869C119.803 388.034 119.675 388.232 119.592 388.452C119.508 388.672 119.47 388.911 119.48 389.153C119.49 389.396 119.547 389.638 119.649 389.866C119.751 390.093 119.895 390.303 120.074 390.481C120.434 390.841 120.912 391.055 121.401 391.074C121.891 391.094 122.353 390.918 122.685 390.586C123.017 390.254 123.193 389.792 123.173 389.302C123.153 388.813 122.94 388.335 122.58 387.975L122.58 387.973ZM138.422 372.131C138.244 371.952 138.035 371.808 137.807 371.706C137.579 371.604 137.337 371.547 137.095 371.537C136.852 371.528 136.614 371.566 136.393 371.65C136.173 371.733 135.975 371.861 135.811 372.026C135.646 372.191 135.518 372.389 135.435 372.609C135.351 372.83 135.313 373.068 135.323 373.31C135.333 373.553 135.39 373.795 135.492 374.023C135.594 374.251 135.738 374.46 135.917 374.638C136.277 374.998 136.754 375.212 137.244 375.231C137.734 375.251 138.196 375.076 138.528 374.743C138.86 374.411 139.036 373.949 139.016 373.46C138.996 372.97 138.783 372.492 138.423 372.132L138.422 372.131ZM154.265 356.288C153.904 355.928 153.427 355.715 152.937 355.695C152.448 355.675 151.986 355.851 151.653 356.183C151.321 356.515 151.146 356.977 151.165 357.467C151.185 357.957 151.399 358.434 151.759 358.794C152.119 359.154 152.596 359.368 153.086 359.388C153.576 359.407 154.038 359.232 154.37 358.9C154.702 358.567 154.878 358.105 154.858 357.616C154.838 357.126 154.625 356.649 154.265 356.288V356.288ZM170.107 340.446C169.747 340.085 169.27 339.872 168.78 339.852C168.29 339.832 167.829 340.008 167.496 340.34C167.164 340.673 166.989 341.134 167.008 341.624C167.028 342.114 167.241 342.591 167.602 342.951C167.962 343.312 168.439 343.525 168.929 343.545C169.419 343.564 169.88 343.389 170.213 343.057C170.545 342.724 170.721 342.263 170.701 341.773C170.681 341.283 170.468 340.806 170.107 340.446V340.446ZM185.95 324.603C185.59 324.242 185.113 324.029 184.623 324.009C184.133 323.989 183.672 324.165 183.339 324.497C183.007 324.83 182.831 325.291 182.851 325.781C182.871 326.271 183.084 326.748 183.445 327.108C183.805 327.469 184.282 327.682 184.772 327.702C185.262 327.722 185.723 327.546 186.056 327.214C186.388 326.881 186.564 326.42 186.544 325.93C186.524 325.44 186.311 324.963 185.95 324.603V324.603ZM201.794 308.759C201.616 308.581 201.406 308.436 201.179 308.335C200.951 308.233 200.709 308.175 200.466 308.166C200.224 308.156 199.985 308.194 199.765 308.278C199.545 308.362 199.347 308.49 199.182 308.654C199.018 308.819 198.89 309.017 198.806 309.238C198.722 309.458 198.684 309.696 198.694 309.939C198.704 310.181 198.762 310.423 198.864 310.651C198.966 310.879 199.11 311.088 199.288 311.266C199.649 311.627 200.126 311.84 200.616 311.86C201.105 311.88 201.567 311.704 201.899 311.372C202.232 311.039 202.407 310.578 202.388 310.088C202.368 309.598 202.154 309.121 201.794 308.761L201.794 308.759ZM217.636 292.917C217.458 292.739 217.249 292.594 217.021 292.493C216.793 292.391 216.551 292.334 216.309 292.324C216.066 292.314 215.828 292.352 215.608 292.436C215.388 292.52 215.19 292.648 215.025 292.812C214.861 292.977 214.733 293.175 214.649 293.395C214.566 293.616 214.528 293.854 214.537 294.096C214.547 294.339 214.605 294.581 214.707 294.809C214.809 295.036 214.953 295.245 215.131 295.424C215.492 295.784 215.969 295.997 216.459 296.017C216.948 296.037 217.41 295.861 217.742 295.529C218.075 295.197 218.25 294.735 218.23 294.245C218.211 293.755 217.997 293.278 217.637 292.918L217.636 292.917ZM233.479 277.074C233.301 276.896 233.092 276.752 232.864 276.65C232.636 276.548 232.394 276.491 232.151 276.481C231.909 276.471 231.671 276.509 231.451 276.593C231.23 276.677 231.032 276.805 230.868 276.97C230.704 277.134 230.576 277.332 230.492 277.552C230.408 277.773 230.37 278.011 230.38 278.253C230.39 278.496 230.448 278.738 230.55 278.966C230.651 279.193 230.796 279.402 230.974 279.581C231.334 279.941 231.812 280.154 232.302 280.174C232.791 280.194 233.253 280.018 233.585 279.686C233.918 279.354 234.093 278.892 234.073 278.402C234.054 277.913 233.84 277.435 233.48 277.075L233.479 277.074ZM249.322 261.231C249.143 261.053 248.934 260.909 248.706 260.807C248.479 260.705 248.236 260.648 247.994 260.638C247.751 260.628 247.513 260.666 247.293 260.75C247.073 260.834 246.875 260.962 246.71 261.127C246.545 261.291 246.418 261.489 246.334 261.71C246.25 261.93 246.212 262.168 246.222 262.411C246.232 262.653 246.29 262.896 246.391 263.123C246.493 263.351 246.638 263.56 246.816 263.739C247.177 264.099 247.654 264.312 248.144 264.332C248.634 264.352 249.096 264.176 249.428 263.844C249.761 263.512 249.936 263.05 249.916 262.56C249.897 262.07 249.683 261.592 249.323 261.232L249.322 261.231ZM265.165 245.388C264.986 245.21 264.777 245.066 264.549 244.964C264.321 244.862 264.079 244.805 263.837 244.795C263.594 244.785 263.356 244.823 263.136 244.907C262.915 244.991 262.717 245.119 262.553 245.284C262.388 245.448 262.261 245.646 262.177 245.867C262.093 246.087 262.055 246.325 262.065 246.568C262.075 246.811 262.132 247.053 262.234 247.28C262.336 247.508 262.481 247.717 262.659 247.896C263.019 248.256 263.497 248.469 263.986 248.489C264.476 248.509 264.938 248.333 265.27 248.001C265.602 247.669 265.778 247.207 265.758 246.717C265.739 246.228 265.525 245.75 265.165 245.39L265.165 245.388ZM73.4888 402.254C73.1286 401.894 72.6512 401.681 72.1615 401.661C71.6718 401.641 71.2101 401.817 70.8778 402.149C70.5455 402.481 70.3699 402.943 70.3897 403.433C70.4094 403.922 70.6229 404.4 70.9831 404.76C71.3433 405.12 71.8208 405.334 72.3105 405.353C72.8001 405.373 73.2619 405.198 73.5942 404.865C73.9265 404.533 74.102 404.071 74.0823 403.582C74.0625 403.092 73.8491 402.614 73.4888 402.254V402.254ZM89.3326 386.411C88.9721 386.05 88.4943 385.836 88.0043 385.817C87.5143 385.797 87.0523 385.973 86.7198 386.305C86.3872 386.638 86.2116 387.1 86.2314 387.59C86.2511 388.08 86.4647 388.557 86.8252 388.918C87.1855 389.278 87.6631 389.492 88.153 389.512C88.6428 389.531 89.1047 389.356 89.4371 389.023C89.7695 388.691 89.9451 388.229 89.9254 387.739C89.9056 387.249 89.6921 386.772 89.3317 386.411L89.3326 386.411ZM105.175 370.568C104.814 370.208 104.337 369.995 103.847 369.975C103.357 369.955 102.895 370.131 102.563 370.463C102.23 370.795 102.055 371.257 102.074 371.747C102.094 372.237 102.308 372.715 102.668 373.075C103.028 373.435 103.506 373.649 103.995 373.668C104.485 373.688 104.947 373.513 105.279 373.18C105.611 372.848 105.787 372.386 105.767 371.897C105.747 371.407 105.534 370.93 105.174 370.569L105.175 370.568ZM121.018 354.726C120.657 354.365 120.18 354.152 119.69 354.132C119.2 354.112 118.738 354.288 118.406 354.62C118.073 354.953 117.898 355.414 117.917 355.904C117.937 356.394 118.151 356.872 118.511 357.232C118.871 357.592 119.349 357.806 119.838 357.826C120.328 357.845 120.79 357.67 121.122 357.337C121.454 357.005 121.63 356.543 121.61 356.054C121.59 355.564 121.377 355.087 121.017 354.726L121.018 354.726ZM136.86 338.884C136.499 338.523 136.022 338.31 135.532 338.29C135.043 338.27 134.581 338.446 134.249 338.778C133.916 339.11 133.741 339.572 133.76 340.062C133.78 340.552 133.994 341.029 134.354 341.389C134.714 341.749 135.192 341.963 135.681 341.983C136.171 342.002 136.633 341.827 136.965 341.495C137.297 341.162 137.473 340.701 137.453 340.211C137.433 339.721 137.22 339.244 136.86 338.884ZM152.702 323.041C152.342 322.68 151.865 322.467 151.375 322.447C150.885 322.427 150.424 322.603 150.091 322.935C149.759 323.268 149.584 323.729 149.603 324.219C149.623 324.709 149.837 325.186 150.197 325.546C150.557 325.907 151.034 326.12 151.524 326.14C152.014 326.16 152.476 325.984 152.808 325.652C153.14 325.319 153.316 324.858 153.296 324.368C153.276 323.878 153.063 323.401 152.702 323.041ZM168.545 307.198C168.185 306.837 167.708 306.624 167.218 306.604C166.728 306.585 166.267 306.76 165.934 307.092C165.602 307.425 165.426 307.886 165.446 308.376C165.466 308.866 165.679 309.343 166.04 309.703C166.4 310.064 166.877 310.277 167.367 310.297C167.857 310.317 168.318 310.141 168.651 309.809C168.983 309.477 169.159 309.015 169.139 308.525C169.119 308.035 168.906 307.558 168.545 307.198V307.198ZM184.389 291.354C184.029 290.994 183.551 290.78 183.061 290.76C182.571 290.741 182.11 290.916 181.777 291.249C181.445 291.581 181.269 292.043 181.289 292.533C181.309 293.023 181.522 293.5 181.883 293.861C182.243 294.221 182.72 294.434 183.21 294.454C183.7 294.474 184.161 294.298 184.494 293.966C184.826 293.634 185.001 293.172 184.982 292.682C184.962 292.193 184.748 291.715 184.388 291.355L184.389 291.354ZM200.231 275.512C199.871 275.152 199.393 274.938 198.904 274.918C198.414 274.899 197.952 275.074 197.62 275.407C197.288 275.739 197.112 276.201 197.132 276.69C197.152 277.18 197.365 277.657 197.725 278.018C198.086 278.378 198.563 278.591 199.053 278.611C199.542 278.631 200.004 278.455 200.337 278.123C200.669 277.791 200.844 277.329 200.825 276.839C200.805 276.35 200.591 275.872 200.231 275.512V275.512ZM216.074 259.669C215.714 259.309 215.236 259.095 214.747 259.076C214.257 259.056 213.795 259.231 213.463 259.564C213.131 259.896 212.955 260.358 212.975 260.847C212.995 261.337 213.208 261.815 213.568 262.175C213.929 262.535 214.406 262.748 214.896 262.768C215.385 262.788 215.847 262.612 216.179 262.28C216.512 261.948 216.687 261.486 216.667 260.996C216.648 260.507 216.434 260.029 216.074 259.669ZM231.917 243.826C231.557 243.466 231.079 243.252 230.589 243.233C230.099 243.213 229.637 243.388 229.305 243.721C228.973 244.053 228.797 244.515 228.817 245.005C228.837 245.495 229.05 245.972 229.41 246.333C229.771 246.693 230.248 246.907 230.738 246.926C231.228 246.946 231.69 246.77 232.022 246.438C232.355 246.106 232.53 245.644 232.511 245.154C232.491 244.664 232.277 244.186 231.917 243.826ZM247.76 227.983C247.399 227.623 246.922 227.409 246.432 227.39C245.942 227.37 245.48 227.545 245.148 227.878C244.815 228.21 244.64 228.672 244.66 229.162C244.679 229.652 244.893 230.129 245.253 230.49C245.613 230.85 246.091 231.064 246.581 231.083C247.07 231.103 247.532 230.927 247.864 230.595C248.197 230.263 248.372 229.801 248.352 229.311C248.333 228.822 248.119 228.344 247.759 227.984L247.76 227.983ZM56.0821 384.847C55.7218 384.487 55.2442 384.274 54.7546 384.254C54.2649 384.235 53.8032 384.411 53.4711 384.743C53.1389 385.075 52.9635 385.537 52.9834 386.027C53.0033 386.517 53.2169 386.994 53.5773 387.354C53.9375 387.714 54.4149 387.928 54.9046 387.948C55.3943 387.967 55.8561 387.792 56.1883 387.459C56.5206 387.127 56.6962 386.665 56.6765 386.176C56.6567 385.686 56.4432 385.209 56.083 384.848L56.0821 384.847ZM71.9258 369.004C71.5653 368.643 71.0874 368.43 70.5974 368.41C70.1074 368.391 69.6454 368.567 69.313 368.899C68.9807 369.232 68.8051 369.694 68.8251 370.184C68.845 370.674 69.0588 371.152 69.4193 371.512C69.7797 371.872 70.2573 372.086 70.7471 372.106C71.237 372.125 71.6989 371.95 72.0313 371.617C72.3637 371.285 72.5393 370.823 72.5195 370.333C72.4998 369.843 72.2862 369.366 71.9259 369.006L71.9258 369.004ZM87.7679 353.162C87.5894 352.983 87.3803 352.839 87.1524 352.737C86.9246 352.636 86.6825 352.578 86.4399 352.569C86.1974 352.559 85.9592 352.597 85.7389 352.681C85.5186 352.765 85.3205 352.893 85.156 353.057C84.9915 353.222 84.8637 353.42 84.78 353.64C84.6963 353.861 84.6583 354.099 84.6682 354.342C84.678 354.584 84.7356 354.826 84.8375 355.054C84.9394 355.282 85.0837 355.491 85.2622 355.669C85.6224 356.029 86.0999 356.243 86.5896 356.263C87.0792 356.282 87.541 356.107 87.8733 355.775C88.2056 355.442 88.3812 354.98 88.3614 354.491C88.3416 354.001 88.1282 353.524 87.7679 353.163L87.7679 353.162ZM103.611 337.319C103.432 337.14 103.223 336.996 102.995 336.894C102.767 336.793 102.525 336.735 102.283 336.726C102.04 336.716 101.802 336.754 101.582 336.838C101.361 336.922 101.163 337.05 100.999 337.214C100.834 337.379 100.707 337.577 100.623 337.797C100.539 338.018 100.501 338.256 100.511 338.499C100.521 338.741 100.578 338.983 100.68 339.211C100.782 339.439 100.927 339.648 101.105 339.826C101.465 340.187 101.943 340.4 102.432 340.42C102.922 340.439 103.384 340.264 103.716 339.932C104.048 339.599 104.224 339.138 104.204 338.648C104.185 338.158 103.971 337.681 103.611 337.321L103.611 337.319ZM119.453 321.477C119.093 321.117 118.615 320.903 118.125 320.883C117.636 320.864 117.174 321.039 116.842 321.371C116.509 321.704 116.334 322.165 116.354 322.655C116.373 323.145 116.587 323.622 116.947 323.982C117.307 324.343 117.785 324.556 118.274 324.576C118.764 324.596 119.226 324.42 119.558 324.088C119.89 323.756 120.066 323.294 120.046 322.804C120.027 322.314 119.813 321.837 119.453 321.477ZM135.296 305.634C134.936 305.274 134.458 305.06 133.968 305.04C133.479 305.021 133.017 305.196 132.685 305.529C132.352 305.861 132.177 306.323 132.197 306.812C132.216 307.302 132.43 307.779 132.79 308.14C133.15 308.5 133.628 308.713 134.117 308.733C134.607 308.753 135.069 308.577 135.401 308.245C135.733 307.913 135.909 307.451 135.889 306.961C135.869 306.472 135.656 305.994 135.296 305.634ZM151.139 289.791C150.778 289.431 150.301 289.217 149.811 289.198C149.322 289.178 148.86 289.353 148.528 289.686C148.195 290.018 148.02 290.48 148.039 290.969C148.059 291.459 148.273 291.936 148.633 292.297C148.993 292.657 149.471 292.87 149.96 292.89C150.45 292.91 150.912 292.734 151.244 292.402C151.576 292.07 151.752 291.608 151.732 291.118C151.712 290.629 151.499 290.151 151.139 289.791V289.791ZM166.982 273.947C166.804 273.769 166.595 273.625 166.367 273.523C166.139 273.421 165.897 273.364 165.654 273.354C165.412 273.344 165.174 273.383 164.953 273.466C164.733 273.55 164.535 273.678 164.37 273.843C164.206 274.007 164.078 274.206 163.994 274.426C163.911 274.646 163.873 274.885 163.883 275.127C163.892 275.37 163.95 275.612 164.052 275.839C164.154 276.067 164.298 276.276 164.477 276.455C164.837 276.815 165.314 277.028 165.804 277.048C166.294 277.068 166.755 276.892 167.088 276.56C167.42 276.228 167.596 275.766 167.576 275.276C167.556 274.787 167.343 274.309 166.982 273.949L166.982 273.947ZM182.824 258.105C182.646 257.927 182.437 257.783 182.209 257.681C181.981 257.579 181.739 257.522 181.497 257.512C181.254 257.502 181.016 257.541 180.796 257.624C180.576 257.708 180.378 257.836 180.213 258.001C180.049 258.165 179.921 258.363 179.838 258.584C179.754 258.804 179.716 259.042 179.726 259.285C179.736 259.527 179.793 259.769 179.895 259.997C179.997 260.225 180.141 260.433 180.32 260.612C180.68 260.972 181.157 261.186 181.647 261.205C182.137 261.225 182.598 261.049 182.931 260.717C183.263 260.385 183.439 259.923 183.419 259.433C183.399 258.944 183.186 258.466 182.825 258.106L182.824 258.105ZM198.667 242.262C198.307 241.902 197.829 241.689 197.34 241.669C196.85 241.65 196.388 241.825 196.056 242.158C195.724 242.49 195.549 242.952 195.569 243.442C195.589 243.931 195.802 244.409 196.162 244.769C196.523 245.129 197 245.343 197.49 245.362C197.979 245.382 198.441 245.207 198.774 244.874C199.106 244.542 199.281 244.08 199.262 243.591C199.242 243.101 199.028 242.623 198.668 242.263L198.667 242.262ZM214.51 226.419C214.332 226.241 214.123 226.097 213.895 225.995C213.667 225.893 213.425 225.836 213.182 225.826C212.94 225.816 212.701 225.855 212.481 225.938C212.261 226.022 212.063 226.15 211.898 226.315C211.734 226.48 211.606 226.678 211.522 226.898C211.439 227.118 211.401 227.357 211.41 227.599C211.42 227.842 211.478 228.084 211.58 228.312C211.682 228.539 211.826 228.748 212.005 228.927C212.365 229.287 212.843 229.501 213.332 229.52C213.822 229.54 214.284 229.365 214.616 229.032C214.949 228.7 215.124 228.238 215.105 227.748C215.085 227.258 214.871 226.781 214.511 226.42L214.51 226.419ZM230.353 210.577C230.175 210.398 229.965 210.254 229.738 210.152C229.51 210.05 229.268 209.993 229.025 209.983C228.783 209.974 228.544 210.012 228.324 210.096C228.104 210.179 227.906 210.307 227.741 210.472C227.577 210.637 227.449 210.835 227.365 211.055C227.282 211.276 227.244 211.514 227.253 211.756C227.263 211.999 227.321 212.241 227.423 212.469C227.525 212.697 227.669 212.906 227.847 213.084C228.208 213.444 228.685 213.658 229.175 213.677C229.664 213.697 230.126 213.522 230.458 213.189C230.791 212.857 230.966 212.395 230.947 211.906C230.927 211.416 230.713 210.938 230.353 210.578L230.353 210.577ZM38.6762 367.442C38.3158 367.082 37.8382 366.868 37.3486 366.849C36.8589 366.83 36.3973 367.006 36.0652 367.338C35.7332 367.671 35.558 368.132 35.578 368.622C35.5981 369.112 35.8119 369.589 36.1723 369.949C36.5328 370.309 37.0103 370.522 37.5 370.542C37.9897 370.561 38.4513 370.385 38.7833 370.053C39.1154 369.72 39.2906 369.258 39.2706 368.769C39.2505 368.279 39.0367 367.802 38.6762 367.442ZM54.52 351.598C54.3414 351.42 54.1322 351.275 53.9042 351.174C53.6762 351.072 53.434 351.015 53.1914 351.005C52.7014 350.986 52.2395 351.161 51.9072 351.494C51.575 351.827 51.3996 352.289 51.4197 352.779C51.4398 353.269 51.6537 353.747 52.0144 354.107C52.375 354.467 52.8527 354.68 53.3425 354.7C53.8323 354.719 54.2941 354.543 54.6263 354.211C54.9584 353.878 55.1337 353.416 55.1136 352.926C55.0935 352.436 54.8797 351.959 54.5191 351.599L54.52 351.598ZM70.362 335.756C70.1835 335.578 69.9743 335.433 69.7465 335.332C69.5186 335.23 69.2765 335.173 69.0339 335.163C68.7914 335.153 68.5532 335.192 68.3329 335.276C68.1126 335.36 67.9146 335.488 67.7502 335.652C67.5857 335.817 67.458 336.015 67.3744 336.236C67.2908 336.456 67.2528 336.694 67.2628 336.937C67.2727 337.179 67.3304 337.421 67.4324 337.649C67.5344 337.877 67.6787 338.086 67.8573 338.264C68.2177 338.624 68.6953 338.837 69.185 338.857C69.6746 338.876 70.1362 338.7 70.4683 338.368C70.8003 338.035 70.9756 337.573 70.9555 337.084C70.9354 336.594 70.7216 336.117 70.3612 335.757L70.362 335.756ZM86.2049 319.913C86.0264 319.735 85.8172 319.591 85.5893 319.489C85.3615 319.387 85.1193 319.33 84.8768 319.32C84.6343 319.311 84.3961 319.349 84.1758 319.433C83.9555 319.517 83.7575 319.645 83.5931 319.809C83.4286 319.974 83.3009 320.172 83.2173 320.393C83.1337 320.613 83.0957 320.851 83.1057 321.094C83.1156 321.336 83.1733 321.578 83.2753 321.806C83.3773 322.034 83.5216 322.243 83.7002 322.421C84.0606 322.781 84.5382 322.995 85.0279 323.014C85.5175 323.033 85.9791 322.857 86.3112 322.525C86.6432 322.192 86.8185 321.731 86.7984 321.241C86.7783 320.751 86.5645 320.274 86.2041 319.914L86.2049 319.913ZM102.047 304.071C101.687 303.711 101.209 303.497 100.72 303.477C100.23 303.458 99.7682 303.633 99.4359 303.966C99.1036 304.298 98.9281 304.76 98.9478 305.249C98.9676 305.739 99.181 306.216 99.5413 306.577C99.9015 306.937 100.379 307.15 100.869 307.17C101.358 307.19 101.82 307.014 102.152 306.682C102.485 306.35 102.66 305.888 102.64 305.398C102.621 304.909 102.407 304.431 102.047 304.071ZM117.89 288.228C117.53 287.868 117.052 287.654 116.563 287.635C116.073 287.615 115.611 287.79 115.279 288.123C114.947 288.455 114.771 288.917 114.791 289.406C114.81 289.896 115.024 290.374 115.384 290.734C115.744 291.094 116.222 291.307 116.712 291.327C117.201 291.347 117.663 291.171 117.995 290.839C118.327 290.507 118.503 290.045 118.483 289.555C118.464 289.066 118.25 288.588 117.89 288.228ZM133.733 272.385C133.373 272.025 132.895 271.811 132.405 271.792C131.916 271.772 131.454 271.947 131.122 272.28C130.789 272.612 130.614 273.074 130.634 273.564C130.653 274.053 130.867 274.531 131.227 274.891C131.587 275.251 132.065 275.465 132.554 275.484C133.044 275.504 133.506 275.328 133.838 274.996C134.17 274.664 134.346 274.202 134.326 273.712C134.306 273.223 134.093 272.745 133.733 272.385V272.385ZM149.577 256.541C149.398 256.363 149.189 256.219 148.961 256.117C148.733 256.016 148.491 255.958 148.248 255.949C148.006 255.939 147.768 255.977 147.547 256.061C147.327 256.145 147.129 256.273 146.965 256.438C146.8 256.602 146.672 256.801 146.589 257.021C146.505 257.241 146.467 257.48 146.477 257.722C146.487 257.965 146.545 258.207 146.647 258.435C146.749 258.662 146.893 258.871 147.072 259.05C147.432 259.41 147.91 259.623 148.399 259.642C148.889 259.662 149.351 259.486 149.683 259.153C150.015 258.821 150.19 258.359 150.17 257.869C150.15 257.38 149.936 256.902 149.576 256.542L149.577 256.541ZM165.419 240.699C165.24 240.521 165.031 240.377 164.803 240.275C164.575 240.174 164.333 240.116 164.091 240.107C163.848 240.097 163.61 240.135 163.39 240.219C163.17 240.303 162.972 240.431 162.808 240.596C162.643 240.76 162.516 240.959 162.432 241.179C162.348 241.399 162.31 241.637 162.32 241.88C162.33 242.122 162.388 242.364 162.49 242.592C162.592 242.82 162.736 243.029 162.915 243.207C163.275 243.567 163.753 243.78 164.242 243.799C164.732 243.819 165.194 243.643 165.526 243.31C165.858 242.978 166.033 242.516 166.013 242.026C165.993 241.537 165.779 241.059 165.419 240.699V240.699ZM181.261 224.856C181.083 224.678 180.874 224.534 180.646 224.432C180.418 224.331 180.176 224.273 179.934 224.264C179.691 224.254 179.453 224.292 179.233 224.376C179.013 224.46 178.815 224.588 178.65 224.753C178.486 224.917 178.358 225.116 178.275 225.336C178.191 225.556 178.153 225.794 178.163 226.037C178.173 226.279 178.231 226.521 178.333 226.749C178.435 226.977 178.579 227.186 178.758 227.364C179.118 227.724 179.596 227.937 180.085 227.957C180.575 227.976 181.037 227.8 181.369 227.468C181.701 227.135 181.876 226.673 181.856 226.183C181.836 225.694 181.622 225.216 181.261 224.856V224.856ZM197.104 209.014C196.926 208.835 196.717 208.691 196.489 208.589C196.261 208.488 196.019 208.43 195.776 208.421C195.534 208.411 195.295 208.449 195.075 208.533C194.855 208.617 194.657 208.745 194.492 208.91C194.328 209.075 194.2 209.273 194.117 209.493C194.033 209.714 193.995 209.952 194.005 210.194C194.015 210.437 194.073 210.679 194.175 210.907C194.277 211.135 194.421 211.344 194.6 211.522C194.96 211.882 195.438 212.095 195.928 212.115C196.418 212.134 196.879 211.958 197.211 211.626C197.544 211.293 197.719 210.831 197.699 210.341C197.679 209.851 197.465 209.374 197.104 209.014ZM212.947 193.171C212.769 192.992 212.56 192.848 212.332 192.746C212.104 192.645 211.862 192.588 211.619 192.578C211.377 192.568 211.138 192.606 210.918 192.69C210.698 192.774 210.5 192.902 210.335 193.067C210.171 193.232 210.043 193.43 209.96 193.65C209.876 193.871 209.838 194.109 209.848 194.352C209.858 194.594 209.916 194.836 210.018 195.064C210.12 195.292 210.264 195.501 210.442 195.679C210.803 196.039 211.281 196.252 211.77 196.272C212.26 196.291 212.721 196.115 213.053 195.783C213.386 195.45 213.561 194.988 213.541 194.499C213.521 194.009 213.307 193.531 212.946 193.171L212.947 193.171ZM21.2713 350.037C20.9111 349.676 20.4336 349.463 19.944 349.443C19.4543 349.424 18.9925 349.599 18.6602 349.931C18.328 350.264 18.1524 350.725 18.1721 351.215C18.1919 351.705 18.4054 352.182 18.7656 352.542C19.1258 352.903 19.6033 353.116 20.0929 353.136C20.5826 353.156 21.0444 352.98 21.3766 352.648C21.7089 352.315 21.8845 351.854 21.8648 351.364C21.845 350.874 21.6315 350.397 21.2713 350.037V350.037ZM37.115 334.193C36.7548 333.833 36.2774 333.619 35.7877 333.6C35.298 333.58 34.8362 333.755 34.504 334.088C34.1717 334.42 33.9961 334.882 34.0159 335.371C34.0356 335.861 34.2491 336.338 34.6093 336.699C34.9695 337.059 35.447 337.272 35.9367 337.292C36.4263 337.312 36.8881 337.136 37.2204 336.804C37.5526 336.472 37.7282 336.01 37.7085 335.52C37.6887 335.031 37.4752 334.553 37.115 334.193ZM52.9571 318.351C52.5969 317.991 52.1194 317.777 51.6298 317.757C51.1401 317.738 50.6783 317.913 50.346 318.246C50.0137 318.578 49.8382 319.04 49.8579 319.529C49.8777 320.019 50.0911 320.496 50.4514 320.857C50.8116 321.217 51.289 321.43 51.7787 321.45C52.2684 321.47 52.7302 321.294 53.0624 320.962C53.3947 320.63 53.5703 320.168 53.5506 319.678C53.5308 319.189 53.3173 318.711 52.9571 318.351ZM68.8 302.508C68.4398 302.148 67.9623 301.934 67.4726 301.915C66.983 301.895 66.5212 302.07 66.1889 302.403C65.8566 302.735 65.6811 303.197 65.7008 303.686C65.7206 304.176 65.934 304.654 66.2942 305.014C66.6545 305.374 67.132 305.587 67.6216 305.607C68.1113 305.627 68.573 305.451 68.9053 305.119C69.2376 304.787 69.4132 304.325 69.3934 303.835C69.3737 303.346 69.1602 302.868 68.8 302.508ZM84.642 286.666C84.4659 286.477 84.2563 286.323 84.0257 286.213C83.7951 286.102 83.5483 286.038 83.3 286.023C83.0518 286.008 82.8071 286.044 82.5806 286.127C82.3542 286.21 82.1507 286.34 81.9822 286.508C81.8137 286.677 81.6837 286.88 81.6 287.106C81.5162 287.333 81.4805 287.577 81.4948 287.825C81.5092 288.074 81.5734 288.321 81.6836 288.551C81.7938 288.782 81.9477 288.992 82.1362 289.168C82.4992 289.508 82.9689 289.704 83.4465 289.715C83.9241 289.726 84.3723 289.551 84.6969 289.227C85.0215 288.902 85.1972 288.454 85.187 287.977C85.1767 287.499 84.9814 287.029 84.642 286.666V286.666ZM100.485 270.823C100.309 270.634 100.099 270.48 99.8686 270.37C99.638 270.259 99.3912 270.195 99.1429 270.18C98.8946 270.165 98.65 270.201 98.4236 270.284C98.1971 270.368 97.9936 270.497 97.8251 270.666C97.6566 270.834 97.5266 271.037 97.4429 271.263C97.3591 271.49 97.3234 271.734 97.3378 271.983C97.3521 272.231 97.4163 272.478 97.5265 272.708C97.6367 272.939 97.7906 273.149 97.9791 273.325C98.3421 273.665 98.8118 273.861 99.2894 273.872C99.767 273.883 100.215 273.708 100.54 273.384C100.864 273.06 101.04 272.612 101.03 272.134C101.02 271.656 100.824 271.187 100.485 270.823V270.823ZM116.328 254.98C116.151 254.794 115.942 254.643 115.712 254.535C115.482 254.427 115.237 254.365 114.99 254.352C114.743 254.338 114.501 254.374 114.276 254.458C114.051 254.541 113.849 254.67 113.682 254.838C113.515 255.005 113.385 255.206 113.302 255.431C113.218 255.655 113.181 255.898 113.194 256.145C113.207 256.391 113.269 256.637 113.377 256.867C113.485 257.097 113.636 257.306 113.821 257.483C114.183 257.829 114.655 258.03 115.137 258.044C115.618 258.057 116.07 257.882 116.397 257.556C116.724 257.229 116.899 256.777 116.887 256.296C116.874 255.815 116.673 255.343 116.328 254.98V254.98ZM132.172 239.136C131.811 238.776 131.334 238.563 130.844 238.543C130.355 238.523 129.893 238.699 129.56 239.031C129.228 239.363 129.053 239.825 129.072 240.315C129.092 240.805 129.306 241.282 129.666 241.642C130.026 242.002 130.504 242.216 130.993 242.236C131.483 242.255 131.945 242.08 132.277 241.748C132.609 241.415 132.785 240.953 132.765 240.464C132.745 239.974 132.532 239.497 132.172 239.136ZM148.014 223.294C147.653 222.934 147.176 222.721 146.686 222.701C146.197 222.681 145.735 222.857 145.403 223.189C145.07 223.521 144.895 223.983 144.914 224.473C144.934 224.962 145.148 225.44 145.508 225.8C145.868 226.16 146.346 226.374 146.835 226.394C147.325 226.413 147.787 226.238 148.119 225.905C148.451 225.573 148.627 225.111 148.607 224.622C148.587 224.132 148.374 223.655 148.014 223.294V223.294ZM163.857 207.451C163.496 207.091 163.019 206.878 162.529 206.858C162.04 206.838 161.578 207.014 161.245 207.346C160.913 207.678 160.738 208.14 160.757 208.63C160.777 209.12 160.991 209.597 161.351 209.957C161.711 210.317 162.188 210.531 162.678 210.551C163.168 210.57 163.63 210.395 163.962 210.063C164.294 209.73 164.47 209.269 164.45 208.779C164.43 208.289 164.217 207.812 163.857 207.451ZM179.699 191.609C179.339 191.248 178.862 191.035 178.372 191.015C177.882 190.995 177.421 191.171 177.088 191.503C176.756 191.836 176.58 192.297 176.6 192.787C176.62 193.277 176.833 193.754 177.194 194.114C177.554 194.475 178.031 194.688 178.521 194.708C179.011 194.728 179.472 194.552 179.805 194.22C180.137 193.887 180.313 193.426 180.293 192.936C180.273 192.446 180.06 191.969 179.699 191.609V191.609ZM195.542 175.766C195.182 175.406 194.705 175.192 194.215 175.172C193.725 175.153 193.263 175.328 192.931 175.66C192.599 175.993 192.423 176.454 192.443 176.944C192.463 177.434 192.676 177.911 193.037 178.271C193.397 178.632 193.874 178.845 194.364 178.865C194.854 178.885 195.315 178.709 195.648 178.377C195.98 178.045 196.155 177.583 196.136 177.093C196.116 176.603 195.902 176.126 195.542 175.766ZM3.86455 332.63C3.50423 332.27 3.0267 332.057 2.53703 332.037C2.04737 332.017 1.58569 332.193 1.25353 332.525C0.921373 332.858 0.745958 333.32 0.765877 333.809C0.785795 334.299 0.999408 334.776 1.35974 335.137C1.71996 335.497 2.1974 335.71 2.68708 335.73C3.17675 335.75 3.63853 335.574 3.97081 335.242C4.30309 334.91 4.47866 334.448 4.45891 333.958C4.43915 333.469 4.22568 332.991 3.86547 332.631L3.86455 332.63ZM19.7083 316.786C19.3477 316.426 18.8699 316.212 18.3799 316.193C17.8899 316.173 17.4279 316.349 17.0955 316.682C16.7631 317.014 16.5876 317.476 16.6075 317.966C16.6275 318.456 16.8412 318.934 17.2018 319.295C17.5621 319.655 18.0398 319.868 18.5296 319.888C19.0194 319.908 19.4813 319.732 19.8137 319.4C20.1461 319.068 20.3217 318.606 20.302 318.116C20.2822 317.626 20.0687 317.148 19.7083 316.788L19.7083 316.786ZM35.5503 300.944C35.1899 300.584 34.7122 300.371 34.2224 300.351C33.7326 300.331 33.2707 300.507 32.9384 300.84C32.6062 301.172 32.4307 301.634 32.4506 302.124C32.4706 302.614 32.6842 303.091 33.0447 303.452C33.4049 303.812 33.8824 304.025 34.372 304.045C34.8617 304.065 35.3235 303.889 35.6558 303.557C35.988 303.225 36.1636 302.763 36.1439 302.273C36.1241 301.784 35.9106 301.306 35.5504 300.946L35.5503 300.944ZM51.3932 285.101C51.0328 284.741 50.5551 284.528 50.0653 284.508C49.5755 284.488 49.1136 284.664 48.7813 284.997C48.449 285.329 48.2736 285.791 48.2935 286.281C48.3134 286.771 48.5271 287.249 48.8876 287.609C49.2478 287.969 49.7253 288.182 50.2149 288.202C50.7046 288.222 51.1664 288.046 51.4986 287.714C51.8309 287.382 52.0065 286.92 51.9867 286.43C51.967 285.941 51.7535 285.463 51.3933 285.103L51.3932 285.101ZM67.2353 269.259C66.8751 268.899 66.3976 268.686 65.908 268.666C65.4183 268.646 64.9565 268.822 64.6242 269.154C64.2919 269.486 64.1164 269.948 64.1361 270.438C64.1559 270.927 64.3693 271.405 64.7296 271.765C65.0898 272.125 65.5672 272.339 66.0569 272.358C66.5466 272.378 67.0084 272.203 67.3406 271.87C67.6729 271.538 67.8485 271.076 67.8287 270.587C67.809 270.097 67.5955 269.619 67.2353 269.259V269.259ZM83.0782 253.416C82.718 253.056 82.2405 252.843 81.7508 252.823C81.2612 252.803 80.7994 252.979 80.4671 253.311C80.1348 253.643 79.9593 254.105 79.979 254.595C79.9988 255.084 80.2122 255.562 80.5724 255.922C80.9327 256.282 81.4102 256.496 81.8998 256.515C82.3895 256.535 82.8512 256.36 83.1835 256.027C83.5158 255.695 83.6914 255.233 83.6716 254.744C83.6519 254.254 83.4384 253.777 83.0782 253.416V253.416ZM98.9211 237.573C98.5609 237.213 98.0834 237 97.5937 236.98C97.1041 236.96 96.6423 237.136 96.31 237.468C95.9777 237.8 95.8022 238.262 95.8219 238.752C95.8417 239.241 96.0551 239.719 96.4154 240.079C96.7756 240.439 97.253 240.653 97.7427 240.673C98.2324 240.692 98.6941 240.517 99.0264 240.184C99.3587 239.852 99.5343 239.39 99.5145 238.901C99.4948 238.411 99.2813 237.934 98.9211 237.573V237.573ZM114.765 221.73C114.586 221.551 114.377 221.407 114.149 221.305C113.922 221.204 113.679 221.146 113.437 221.136C113.194 221.127 112.956 221.165 112.736 221.249C112.515 221.333 112.317 221.461 112.153 221.625C111.988 221.79 111.861 221.988 111.777 222.208C111.693 222.429 111.655 222.667 111.665 222.91C111.675 223.152 111.732 223.394 111.834 223.622C111.936 223.85 112.081 224.059 112.259 224.237C112.619 224.597 113.097 224.811 113.586 224.831C114.076 224.85 114.538 224.675 114.87 224.343C115.202 224.01 115.378 223.548 115.358 223.059C115.339 222.569 115.125 222.092 114.765 221.731L114.765 221.73ZM130.607 205.888C130.428 205.709 130.219 205.565 129.992 205.463C129.764 205.362 129.522 205.304 129.279 205.295C129.037 205.285 128.799 205.323 128.579 205.407C128.358 205.491 128.16 205.619 127.996 205.783C127.831 205.948 127.704 206.146 127.62 206.366C127.536 206.586 127.498 206.825 127.508 207.067C127.518 207.31 127.576 207.552 127.677 207.779C127.779 208.007 127.924 208.216 128.102 208.394C128.462 208.754 128.94 208.968 129.429 208.988C129.919 209.007 130.381 208.832 130.713 208.5C131.045 208.167 131.221 207.706 131.201 207.216C131.181 206.726 130.968 206.249 130.608 205.889L130.607 205.888ZM146.45 190.045C146.089 189.685 145.612 189.471 145.122 189.452C144.633 189.432 144.171 189.608 143.839 189.94C143.507 190.273 143.331 190.735 143.351 191.224C143.371 191.714 143.585 192.191 143.945 192.551C144.305 192.912 144.783 193.125 145.272 193.145C145.762 193.165 146.224 192.989 146.556 192.657C146.888 192.324 147.064 191.863 147.044 191.373C147.024 190.883 146.811 190.406 146.451 190.046L146.45 190.045ZM162.293 174.202C161.932 173.842 161.455 173.628 160.965 173.609C160.475 173.589 160.013 173.765 159.681 174.097C159.348 174.43 159.173 174.892 159.193 175.382C159.213 175.872 159.427 176.349 159.787 176.709C160.147 177.07 160.625 177.283 161.115 177.303C161.605 177.323 162.067 177.147 162.399 176.815C162.731 176.482 162.907 176.02 162.887 175.531C162.867 175.041 162.654 174.563 162.294 174.203L162.293 174.202ZM178.136 158.359C177.957 158.181 177.748 158.036 177.52 157.935C177.292 157.833 177.05 157.775 176.808 157.766C176.565 157.756 176.327 157.794 176.107 157.878C175.886 157.962 175.688 158.09 175.524 158.254C175.359 158.419 175.231 158.617 175.148 158.838C175.064 159.058 175.026 159.296 175.036 159.539C175.046 159.781 175.103 160.023 175.205 160.251C175.307 160.479 175.451 160.688 175.63 160.866C175.99 161.227 176.468 161.44 176.957 161.46C177.447 161.48 177.909 161.304 178.241 160.972C178.573 160.639 178.749 160.178 178.729 159.688C178.709 159.198 178.496 158.721 178.136 158.361L178.136 158.359Z" fill="#C59940"/>
<g filter="url(#filter3_d_363_2)">
<path d="M330.924 18.142L253.142 95.9238C245.332 103.734 245.332 116.398 253.142 124.208L330.924 201.99C338.734 209.8 351.398 209.8 359.208 201.99L436.99 124.208C444.8 116.398 444.8 103.734 436.99 95.9238L359.208 18.142C351.398 10.3315 338.734 10.3315 330.924 18.142Z" fill="#0FC5B0"/>
</g>
<path d="M141.776 294.24C147.749 294.24 153.083 295.776 157.776 298.848C162.555 301.835 166.309 305.973 169.04 311.264C171.856 316.555 173.264 322.699 173.264 329.696C173.264 336.693 171.856 342.88 169.04 348.256C166.309 353.547 162.597 357.728 157.904 360.8C153.296 363.787 148.091 365.28 142.288 365.28C138.875 365.28 135.675 364.725 132.688 363.616C129.701 362.507 127.056 361.099 124.752 359.392C122.533 357.685 120.784 355.979 119.504 354.272C118.309 352.48 117.712 350.987 117.712 349.792L121.68 348.128V381.792C121.68 384.011 120.955 385.845 119.504 387.296C118.053 388.832 116.219 389.6 114 389.6C111.781 389.6 109.947 388.875 108.496 387.424C107.045 385.973 106.32 384.096 106.32 381.792V303.328C106.32 301.109 107.045 299.275 108.496 297.824C109.947 296.288 111.781 295.52 114 295.52C116.219 295.52 118.053 296.288 119.504 297.824C120.955 299.275 121.68 301.109 121.68 303.328V309.6L119.504 308.448C119.504 307.339 120.101 306.016 121.296 304.48C122.491 302.859 124.112 301.28 126.16 299.744C128.208 298.123 130.555 296.8 133.2 295.776C135.931 294.752 138.789 294.24 141.776 294.24ZM139.856 308.32C136.101 308.32 132.816 309.259 130 311.136C127.184 313.013 124.965 315.573 123.344 318.816C121.808 321.973 121.04 325.6 121.04 329.696C121.04 333.707 121.808 337.376 123.344 340.704C124.965 343.947 127.184 346.507 130 348.384C132.816 350.261 136.101 351.2 139.856 351.2C143.611 351.2 146.853 350.261 149.584 348.384C152.4 346.507 154.576 343.947 156.112 340.704C157.733 337.376 158.544 333.707 158.544 329.696C158.544 325.6 157.733 321.973 156.112 318.816C154.576 315.573 152.4 313.013 149.584 311.136C146.853 309.259 143.611 308.32 139.856 308.32ZM253.127 329.824C253.127 336.821 251.548 343.008 248.391 348.384C245.319 353.675 241.138 357.813 235.847 360.8C230.642 363.787 224.796 365.28 218.311 365.28C211.826 365.28 205.938 363.787 200.647 360.8C195.442 357.813 191.26 353.675 188.103 348.384C185.031 343.008 183.495 336.821 183.495 329.824C183.495 322.827 185.031 316.683 188.103 311.392C191.26 306.016 195.442 301.835 200.647 298.848C205.938 295.776 211.826 294.24 218.311 294.24C224.796 294.24 230.642 295.776 235.847 298.848C241.138 301.835 245.319 306.016 248.391 311.392C251.548 316.683 253.127 322.827 253.127 329.824ZM237.767 329.824C237.767 325.472 236.871 321.717 235.079 318.56C233.372 315.317 231.026 312.8 228.039 311.008C225.138 309.216 221.895 308.32 218.311 308.32C214.727 308.32 211.442 309.216 208.455 311.008C205.554 312.8 203.207 315.317 201.415 318.56C199.708 321.717 198.855 325.472 198.855 329.824C198.855 334.091 199.708 337.845 201.415 341.088C203.207 344.245 205.554 346.72 208.455 348.512C211.442 350.304 214.727 351.2 218.311 351.2C221.895 351.2 225.138 350.304 228.039 348.512C231.026 346.72 233.372 344.245 235.079 341.088C236.871 337.845 237.767 334.091 237.767 329.824ZM274.25 364C272.031 364 270.197 363.275 268.746 361.824C267.295 360.288 266.57 358.411 266.57 356.192V303.328C266.57 301.109 267.295 299.275 268.746 297.824C270.197 296.288 272.031 295.52 274.25 295.52C276.469 295.52 278.303 296.288 279.754 297.824C281.205 299.275 281.93 301.109 281.93 303.328V315.36L281.034 306.784C281.973 304.736 283.167 302.944 284.618 301.408C286.154 299.787 287.861 298.464 289.738 297.44C291.615 296.331 293.621 295.52 295.754 295.008C297.887 294.496 300.021 294.24 302.154 294.24C304.714 294.24 306.847 294.965 308.554 296.416C310.346 297.867 311.242 299.573 311.242 301.536C311.242 304.352 310.517 306.4 309.066 307.68C307.615 308.875 306.037 309.472 304.33 309.472C302.709 309.472 301.215 309.173 299.85 308.576C298.57 307.979 297.077 307.68 295.37 307.68C293.834 307.68 292.255 308.064 290.634 308.832C289.098 309.515 287.647 310.624 286.282 312.16C285.002 313.696 283.935 315.616 283.082 317.92C282.314 320.139 281.93 322.784 281.93 325.856V356.192C281.93 358.411 281.205 360.288 279.754 361.824C278.303 363.275 276.469 364 274.25 364ZM322.838 296.8H353.174C355.222 296.8 356.929 297.483 358.294 298.848C359.659 300.213 360.342 301.92 360.342 303.968C360.342 305.931 359.659 307.595 358.294 308.96C356.929 310.24 355.222 310.88 353.174 310.88H322.838C320.79 310.88 319.083 310.197 317.718 308.832C316.353 307.467 315.67 305.76 315.67 303.712C315.67 301.749 316.353 300.128 317.718 298.848C319.083 297.483 320.79 296.8 322.838 296.8ZM336.534 280.8C338.753 280.8 340.545 281.568 341.91 283.104C343.361 284.555 344.086 286.389 344.086 288.608V345.568C344.086 346.763 344.299 347.744 344.726 348.512C345.238 349.28 345.878 349.835 346.646 350.176C347.499 350.517 348.395 350.688 349.334 350.688C350.358 350.688 351.297 350.517 352.15 350.176C353.003 349.749 353.985 349.536 355.094 349.536C356.289 349.536 357.355 350.091 358.294 351.2C359.318 352.309 359.83 353.845 359.83 355.808C359.83 358.197 358.507 360.16 355.862 361.696C353.302 363.232 350.529 364 347.542 364C345.75 364 343.745 363.872 341.526 363.616C339.393 363.275 337.345 362.549 335.382 361.44C333.505 360.245 331.926 358.453 330.646 356.064C329.366 353.675 328.726 350.389 328.726 346.208V288.608C328.726 286.389 329.451 284.555 330.902 283.104C332.438 281.568 334.315 280.8 336.534 280.8ZM406.395 269.28C408.272 269.28 410.107 269.536 411.899 270.048C413.691 270.56 415.184 271.413 416.379 272.608C417.574 273.717 418.171 275.211 418.171 277.088C418.171 279.221 417.531 280.928 416.251 282.208C415.056 283.403 413.648 284 412.027 284C411.259 284 410.107 283.829 408.571 283.488C407.035 283.061 405.542 282.848 404.091 282.848C401.958 282.848 400.294 283.317 399.099 284.256C397.99 285.195 397.222 286.304 396.795 287.584C396.368 288.779 396.155 289.845 396.155 290.784V356.192C396.155 358.411 395.43 360.288 393.979 361.824C392.528 363.275 390.694 364 388.475 364C386.256 364 384.422 363.275 382.971 361.824C381.52 360.288 380.795 358.411 380.795 356.192V290.912C380.795 284.853 382.928 279.733 387.195 275.552C391.462 271.371 397.862 269.28 406.395 269.28ZM407.803 296.8C409.851 296.8 411.558 297.483 412.923 298.848C414.288 300.128 414.971 301.792 414.971 303.84C414.971 305.888 414.288 307.595 412.923 308.96C411.558 310.24 409.851 310.88 407.803 310.88H373.883C371.835 310.88 370.128 310.24 368.763 308.96C367.398 307.595 366.715 305.888 366.715 303.84C366.715 301.792 367.398 300.128 368.763 298.848C370.128 297.483 371.835 296.8 373.883 296.8H407.803ZM489.627 329.824C489.627 336.821 488.048 343.008 484.891 348.384C481.819 353.675 477.638 357.813 472.347 360.8C467.142 363.787 461.296 365.28 454.811 365.28C448.326 365.28 442.438 363.787 437.147 360.8C431.942 357.813 427.76 353.675 424.603 348.384C421.531 343.008 419.995 336.821 419.995 329.824C419.995 322.827 421.531 316.683 424.603 311.392C427.76 306.016 431.942 301.835 437.147 298.848C442.438 295.776 448.326 294.24 454.811 294.24C461.296 294.24 467.142 295.776 472.347 298.848C477.638 301.835 481.819 306.016 484.891 311.392C488.048 316.683 489.627 322.827 489.627 329.824ZM474.267 329.824C474.267 325.472 473.371 321.717 471.579 318.56C469.872 315.317 467.526 312.8 464.539 311.008C461.638 309.216 458.395 308.32 454.811 308.32C451.227 308.32 447.942 309.216 444.955 311.008C442.054 312.8 439.707 315.317 437.915 318.56C436.208 321.717 435.355 325.472 435.355 329.824C435.355 334.091 436.208 337.845 437.915 341.088C439.707 344.245 442.054 346.72 444.955 348.512C447.942 350.304 451.227 351.2 454.811 351.2C458.395 351.2 461.638 350.304 464.539 348.512C467.526 346.72 469.872 344.245 471.579 341.088C473.371 337.845 474.267 334.091 474.267 329.824ZM519.71 356.192C519.71 358.411 518.942 360.288 517.406 361.824C515.955 363.275 514.121 364 511.902 364C509.769 364 507.977 363.275 506.526 361.824C505.075 360.288 504.35 358.411 504.35 356.192V277.088C504.35 274.869 505.075 273.035 506.526 271.584C508.062 270.048 509.939 269.28 512.158 269.28C514.377 269.28 516.169 270.048 517.534 271.584C518.985 273.035 519.71 274.869 519.71 277.088V356.192ZM552.034 356.192C552.034 358.411 551.309 360.288 549.858 361.824C548.407 363.275 546.573 364 544.354 364C542.135 364 540.301 363.275 538.85 361.824C537.399 360.288 536.674 358.411 536.674 356.192V303.328C536.674 301.109 537.399 299.275 538.85 297.824C540.301 296.288 542.135 295.52 544.354 295.52C546.573 295.52 548.407 296.288 549.858 297.824C551.309 299.275 552.034 301.109 552.034 303.328V356.192ZM544.226 287.2C541.325 287.2 539.277 286.731 538.082 285.792C536.887 284.853 536.29 283.189 536.29 280.8V278.368C536.29 275.893 536.93 274.229 538.21 273.376C539.575 272.437 541.623 271.968 544.354 271.968C547.341 271.968 549.431 272.437 550.626 273.376C551.821 274.315 552.418 275.979 552.418 278.368V280.8C552.418 283.275 551.778 284.981 550.498 285.92C549.218 286.773 547.127 287.2 544.226 287.2ZM634.252 329.824C634.252 336.821 632.673 343.008 629.516 348.384C626.444 353.675 622.263 357.813 616.972 360.8C611.767 363.787 605.921 365.28 599.436 365.28C592.951 365.28 587.063 363.787 581.772 360.8C576.567 357.813 572.385 353.675 569.228 348.384C566.156 343.008 564.62 336.821 564.62 329.824C564.62 322.827 566.156 316.683 569.228 311.392C572.385 306.016 576.567 301.835 581.772 298.848C587.063 295.776 592.951 294.24 599.436 294.24C605.921 294.24 611.767 295.776 616.972 298.848C622.263 301.835 626.444 306.016 629.516 311.392C632.673 316.683 634.252 322.827 634.252 329.824ZM618.892 329.824C618.892 325.472 617.996 321.717 616.204 318.56C614.497 315.317 612.151 312.8 609.164 311.008C606.263 309.216 603.02 308.32 599.436 308.32C595.852 308.32 592.567 309.216 589.58 311.008C586.679 312.8 584.332 315.317 582.54 318.56C580.833 321.717 579.98 325.472 579.98 329.824C579.98 334.091 580.833 337.845 582.54 341.088C584.332 344.245 586.679 346.72 589.58 348.512C592.567 350.304 595.852 351.2 599.436 351.2C603.02 351.2 606.263 350.304 609.164 348.512C612.151 346.72 614.497 344.245 616.204 341.088C617.996 337.845 618.892 334.091 618.892 329.824Z" fill="white"/>
<defs>
<filter id="filter0_d_363_2" x="353" y="330" width="182" height="182" filterUnits="userSpaceOnUse" color-interpolation-filters="sRGB">
<feFlood flood-opacity="0" result="BackgroundImageFix"/>
<feColorMatrix in="SourceAlpha" type="matrix" values="0 0 0 0 0 0 0 0 0 0 0 0 0 0 0 0 0 0 127 0" result="hardAlpha"/>
<feOffset dy="4"/>
<feGaussianBlur stdDeviation="8"/>
<feComposite in2="hardAlpha" operator="out"/>
<feColorMatrix type="matrix" values="0 0 0 0 0 0 0 0 0 0 0 0 0 0 0 0 0 0 0.35 0"/>
<feBlend mode="normal" in2="BackgroundImageFix" result="effect1_dropShadow_363_2"/>
<feBlend mode="normal" in="SourceGraphic" in2="effect1_dropShadow_363_2" result="shape"/>
</filter>
<filter id="filter1_d_363_2" x="430.284" y="81.2842" width="227.563" height="227.563" filterUnits="userSpaceOnUse" color-interpolation-filters="sRGB">
<feFlood flood-opacity="0" result="BackgroundImageFix"/>
<feColorMatrix in="SourceAlpha" type="matrix" values="0 0 0 0 0 0 0 0 0 0 0 0 0 0 0 0 0 0 127 0" result="hardAlpha"/>
<feOffset dy="4"/>
<feGaussianBlur stdDeviation="8"/>
<feComposite in2="hardAlpha" operator="out"/>
<feColorMatrix type="matrix" values="0 0 0 0 0 0 0 0 0 0 0 0 0 0 0 0 0 0 0.35 0"/>
<feBlend mode="normal" in2="BackgroundImageFix" result="effect1_dropShadow_363_2"/>
<feBlend mode="normal" in="SourceGraphic" in2="effect1_dropShadow_363_2" result="shape"/>
</filter>
<filter id="filter2_d_363_2" x="161" y="424" width="182" height="182" filterUnits="userSpaceOnUse" color-interpolation-filters="sRGB">
<feFlood flood-opacity="0" result="BackgroundImageFix"/>
<feColorMatrix in="SourceAlpha" type="matrix" values="0 0 0 0 0 0 0 0 0 0 0 0 0 0 0 0 0 0 127 0" result="hardAlpha"/>
<feOffset dy="4"/>
<feGaussianBlur stdDeviation="8"/>
<feComposite in2="hardAlpha" operator="out"/>
<feColorMatrix type="matrix" values="0 0 0 0 0 0 0 0 0 0 0 0 0 0 0 0 0 0 0.35 0"/>
<feBlend mode="normal" in2="BackgroundImageFix" result="effect1_dropShadow_363_2"/>
<feBlend mode="normal" in="SourceGraphic" in2="effect1_dropShadow_363_2" result="shape"/>
</filter>
<filter id="filter3_d_363_2" x="231.284" y="0.28418" width="227.563" height="227.563" filterUnits="userSpaceOnUse" color-interpolation-filters="sRGB">
<feFlood flood-opacity="0" result="BackgroundImageFix"/>
<feColorMatrix in="SourceAlpha" type="matrix" values="0 0 0 0 0 0 0 0 0 0 0 0 0 0 0 0 0 0 127 0" result="hardAlpha"/>
<feOffset dy="4"/>
<feGaussianBlur stdDeviation="8"/>
<feComposite in2="hardAlpha" operator="out"/>
<feColorMatrix type="matrix" values="0 0 0 0 0 0 0 0 0 0 0 0 0 0 0 0 0 0 0.35 0"/>
<feBlend mode="normal" in2="BackgroundImageFix" result="effect1_dropShadow_363_2"/>
<feBlend mode="normal" in="SourceGraphic" in2="effect1_dropShadow_363_2" result="shape"/>
</filter>
</defs>
</svg>
