<svg width="632" height="631" viewBox="0 0 632 631" fill="none" xmlns="http://www.w3.org/2000/svg">
<path d="M209.923 133.225L132.937 211.794C125.206 219.683 125.335 232.346 133.224 240.077L211.793 317.063C219.682 324.794 232.345 324.665 240.076 316.776L317.062 238.207C324.793 230.318 324.664 217.655 316.775 209.924L238.206 132.938C230.317 125.207 217.654 125.336 209.923 133.225Z" fill="#3092C4"/>
<path d="M207.355 433.683L132.602 514.381C125.096 522.484 125.58 535.138 133.683 542.644L214.381 617.397C222.484 624.903 235.138 624.419 242.644 616.316L317.397 535.619C324.903 527.515 324.419 514.861 316.316 507.355L235.618 432.602C227.515 425.096 214.861 425.58 207.355 433.683Z" fill="#D15757"/>
<path d="M509.538 133.289L432.882 212.181C425.185 220.103 425.367 232.765 433.289 240.462L512.181 317.118C520.103 324.815 532.765 324.633 540.463 316.711L617.118 237.819C624.815 229.897 624.633 217.235 616.711 209.537L537.819 132.882C529.897 125.185 517.235 125.367 509.538 133.289Z" fill="#C59940"/>
<path d="M130 300H20C8.9543 300 0 308.954 0 320V430C0 441.046 8.9543 450 20 450H130C141.046 450 150 441.046 150 430V320C150 308.954 141.046 300 130 300Z" fill="#C59940"/>
<path d="M430 0H320C308.954 0 300 8.9543 300 20V130C300 141.046 308.954 150 320 150H430C441.046 150 450 141.046 450 130V20C450 8.9543 441.046 0 430 0Z" fill="#0FC5B0"/>
<path d="M375 300C416.421 300 450 266.421 450 225C450 183.579 416.421 150 375 150C333.579 150 300 183.579 300 225C300 266.421 333.579 300 375 300Z" fill="#D15757"/>
<path d="M225 450C266.421 450 300 416.421 300 375C300 333.579 266.421 300 225 300C183.579 300 150 333.579 150 375C150 416.421 183.579 450 225 450Z" fill="#0FC5B0"/>
<path d="M299.945 319.999L299.145 429.997C299.065 441.042 307.954 450.061 318.999 450.141L428.997 450.941C440.042 451.021 449.061 442.132 449.141 431.087L449.941 321.09C450.021 310.044 441.132 301.025 430.087 300.945L320.09 300.145C309.044 300.065 300.025 308.954 299.945 319.999Z" fill="#222529"/>
</svg>
