<svg width="782" height="182" viewBox="0 0 782 182" fill="none" xmlns="http://www.w3.org/2000/svg">
<g filter="url(#filter0_d_357_1783)">
<path d="M146 12H36C24.9543 12 16 20.9543 16 32V142C16 153.046 24.9543 162 36 162H146C157.046 162 166 153.046 166 142V32C166 20.9543 157.046 12 146 12Z" fill="#3092C4"/>
</g>
<g filter="url(#filter1_d_357_1783)">
<path d="M346 12H236C224.954 12 216 20.9543 216 32V142C216 153.046 224.954 162 236 162H346C357.046 162 366 153.046 366 142V32C366 20.9543 357.046 12 346 12Z" fill="#D15757"/>
</g>
<g filter="url(#filter2_d_357_1783)">
<path d="M546 12H436C424.954 12 416 20.9543 416 32V142C416 153.046 424.954 162 436 162H546C557.046 162 566 153.046 566 142V32C566 20.9543 557.046 12 546 12Z" fill="#C59940"/>
</g>
<g filter="url(#filter3_d_357_1783)">
<path d="M746 12H636C624.954 12 616 20.9543 616 32V142C616 153.046 624.954 162 636 162H746C757.046 162 766 153.046 766 142V32C766 20.9543 757.046 12 746 12Z" fill="#0FC5B0"/>
</g>
<defs>
<filter id="filter0_d_357_1783" x="0" y="0" width="182" height="182" filterUnits="userSpaceOnUse" color-interpolation-filters="sRGB">
<feFlood flood-opacity="0" result="BackgroundImageFix"/>
<feColorMatrix in="SourceAlpha" type="matrix" values="0 0 0 0 0 0 0 0 0 0 0 0 0 0 0 0 0 0 127 0" result="hardAlpha"/>
<feOffset dy="4"/>
<feGaussianBlur stdDeviation="8"/>
<feComposite in2="hardAlpha" operator="out"/>
<feColorMatrix type="matrix" values="0 0 0 0 0 0 0 0 0 0 0 0 0 0 0 0 0 0 0.35 0"/>
<feBlend mode="normal" in2="BackgroundImageFix" result="effect1_dropShadow_357_1783"/>
<feBlend mode="normal" in="SourceGraphic" in2="effect1_dropShadow_357_1783" result="shape"/>
</filter>
<filter id="filter1_d_357_1783" x="200" y="0" width="182" height="182" filterUnits="userSpaceOnUse" color-interpolation-filters="sRGB">
<feFlood flood-opacity="0" result="BackgroundImageFix"/>
<feColorMatrix in="SourceAlpha" type="matrix" values="0 0 0 0 0 0 0 0 0 0 0 0 0 0 0 0 0 0 127 0" result="hardAlpha"/>
<feOffset dy="4"/>
<feGaussianBlur stdDeviation="8"/>
<feComposite in2="hardAlpha" operator="out"/>
<feColorMatrix type="matrix" values="0 0 0 0 0 0 0 0 0 0 0 0 0 0 0 0 0 0 0.35 0"/>
<feBlend mode="normal" in2="BackgroundImageFix" result="effect1_dropShadow_357_1783"/>
<feBlend mode="normal" in="SourceGraphic" in2="effect1_dropShadow_357_1783" result="shape"/>
</filter>
<filter id="filter2_d_357_1783" x="400" y="0" width="182" height="182" filterUnits="userSpaceOnUse" color-interpolation-filters="sRGB">
<feFlood flood-opacity="0" result="BackgroundImageFix"/>
<feColorMatrix in="SourceAlpha" type="matrix" values="0 0 0 0 0 0 0 0 0 0 0 0 0 0 0 0 0 0 127 0" result="hardAlpha"/>
<feOffset dy="4"/>
<feGaussianBlur stdDeviation="8"/>
<feComposite in2="hardAlpha" operator="out"/>
<feColorMatrix type="matrix" values="0 0 0 0 0 0 0 0 0 0 0 0 0 0 0 0 0 0 0.35 0"/>
<feBlend mode="normal" in2="BackgroundImageFix" result="effect1_dropShadow_357_1783"/>
<feBlend mode="normal" in="SourceGraphic" in2="effect1_dropShadow_357_1783" result="shape"/>
</filter>
<filter id="filter3_d_357_1783" x="600" y="0" width="182" height="182" filterUnits="userSpaceOnUse" color-interpolation-filters="sRGB">
<feFlood flood-opacity="0" result="BackgroundImageFix"/>
<feColorMatrix in="SourceAlpha" type="matrix" values="0 0 0 0 0 0 0 0 0 0 0 0 0 0 0 0 0 0 127 0" result="hardAlpha"/>
<feOffset dy="4"/>
<feGaussianBlur stdDeviation="8"/>
<feComposite in2="hardAlpha" operator="out"/>
<feColorMatrix type="matrix" values="0 0 0 0 0 0 0 0 0 0 0 0 0 0 0 0 0 0 0.35 0"/>
<feBlend mode="normal" in2="BackgroundImageFix" result="effect1_dropShadow_357_1783"/>
<feBlend mode="normal" in="SourceGraphic" in2="effect1_dropShadow_357_1783" result="shape"/>
</filter>
</defs>
</svg>
