<svg width="632" height="631" viewBox="0 0 632 631" fill="none" xmlns="http://www.w3.org/2000/svg">
<g clip-path="url(#clip0_344_2)">
<g filter="url(#filter0_d_344_2)">
<path d="M323.984 30.2852L246.998 108.854C239.267 116.743 239.396 129.406 247.285 137.137L325.854 214.123C333.743 221.854 346.406 221.725 354.137 213.836L431.123 135.267C438.854 127.378 438.725 114.715 430.836 106.984L352.267 29.9976C344.378 22.267 331.715 22.3957 323.984 30.2852Z" fill="#0FC5B0"/>
</g>
<g filter="url(#filter1_d_344_2)">
<path d="M322.344 405.672L247.591 486.37C240.085 494.473 240.569 507.127 248.672 514.633L329.37 589.386C337.473 596.892 350.127 596.408 357.633 588.305L432.386 507.607C439.892 499.504 439.408 486.85 431.305 479.344L350.607 404.591C342.504 397.085 329.85 397.569 322.344 405.672Z" fill="#0FC5B0"/>
</g>
<g filter="url(#filter2_d_344_2)">
<path d="M510.593 224.344L433.937 303.236C426.24 311.158 426.422 323.82 434.344 331.518L513.236 408.173C521.158 415.87 533.82 415.688 541.518 407.766L618.173 328.874C625.87 320.952 625.688 308.29 617.766 300.593L538.874 223.937C530.952 216.24 518.29 216.422 510.593 224.344Z" fill="#0FC5B0"/>
</g>
<g filter="url(#filter3_d_344_2)">
<path d="M129 422H19C7.9543 422 -1 430.954 -1 442V552C-1 563.046 7.9543 572 19 572H129C140.046 572 149 563.046 149 552V442C149 430.954 140.046 422 129 422Z" fill="#C59940"/>
</g>
<g filter="url(#filter4_d_344_2)">
<path d="M130 47H20C8.9543 47 0 55.9543 0 67V177C0 188.046 8.9543 197 20 197H130C141.046 197 150 188.046 150 177V67C150 55.9543 141.046 47 130 47Z" fill="#3092C4"/>
</g>
<g filter="url(#filter5_d_344_2)">
<path d="M-0.0549998 259.999L-0.854615 369.997C-0.934909 381.042 7.95407 390.061 18.9995 390.141L128.997 390.941C140.042 391.021 149.061 382.132 149.141 371.087L149.941 261.09C150.021 250.044 141.132 241.025 130.087 240.945L20.0899 240.145C9.04445 240.065 0.025294 248.954 -0.0549998 259.999Z" fill="#D15757"/>
</g>
<path d="M79.776 278.24C85.7493 278.24 91.0827 279.776 95.776 282.848C100.555 285.835 104.309 289.973 107.04 295.264C109.856 300.555 111.264 306.699 111.264 313.696C111.264 320.693 109.856 326.88 107.04 332.256C104.309 337.547 100.597 341.728 95.904 344.8C91.296 347.787 86.0907 349.28 80.288 349.28C76.8747 349.28 73.6747 348.725 70.688 347.616C67.7013 346.507 65.056 345.099 62.752 343.392C60.5333 341.685 58.784 339.979 57.504 338.272C56.3093 336.48 55.712 334.987 55.712 333.792L59.68 332.128V365.792C59.68 368.011 58.9547 369.845 57.504 371.296C56.0533 372.832 54.2187 373.6 52 373.6C49.7813 373.6 47.9467 372.875 46.496 371.424C45.0453 369.973 44.32 368.096 44.32 365.792V287.328C44.32 285.109 45.0453 283.275 46.496 281.824C47.9467 280.288 49.7813 279.52 52 279.52C54.2187 279.52 56.0533 280.288 57.504 281.824C58.9547 283.275 59.68 285.109 59.68 287.328V293.6L57.504 292.448C57.504 291.339 58.1013 290.016 59.296 288.48C60.4907 286.859 62.112 285.28 64.16 283.744C66.208 282.123 68.5547 280.8 71.2 279.776C73.9307 278.752 76.7893 278.24 79.776 278.24ZM77.856 292.32C74.1013 292.32 70.816 293.259 68 295.136C65.184 297.013 62.9653 299.573 61.344 302.816C59.808 305.973 59.04 309.6 59.04 313.696C59.04 317.707 59.808 321.376 61.344 324.704C62.9653 327.947 65.184 330.507 68 332.384C70.816 334.261 74.1013 335.2 77.856 335.2C81.6107 335.2 84.8533 334.261 87.584 332.384C90.4 330.507 92.576 327.947 94.112 324.704C95.7333 321.376 96.544 317.707 96.544 313.696C96.544 309.6 95.7333 305.973 94.112 302.816C92.576 299.573 90.4 297.013 87.584 295.136C84.8533 293.259 81.6107 292.32 77.856 292.32ZM191.127 313.824C191.127 320.821 189.548 327.008 186.391 332.384C183.319 337.675 179.138 341.813 173.847 344.8C168.642 347.787 162.796 349.28 156.311 349.28C149.826 349.28 143.938 347.787 138.647 344.8C133.442 341.813 129.26 337.675 126.103 332.384C123.031 327.008 121.495 320.821 121.495 313.824C121.495 306.827 123.031 300.683 126.103 295.392C129.26 290.016 133.442 285.835 138.647 282.848C143.938 279.776 149.826 278.24 156.311 278.24C162.796 278.24 168.642 279.776 173.847 282.848C179.138 285.835 183.319 290.016 186.391 295.392C189.548 300.683 191.127 306.827 191.127 313.824ZM175.767 313.824C175.767 309.472 174.871 305.717 173.079 302.56C171.372 299.317 169.026 296.8 166.039 295.008C163.138 293.216 159.895 292.32 156.311 292.32C152.727 292.32 149.442 293.216 146.455 295.008C143.554 296.8 141.207 299.317 139.415 302.56C137.708 305.717 136.855 309.472 136.855 313.824C136.855 318.091 137.708 321.845 139.415 325.088C141.207 328.245 143.554 330.72 146.455 332.512C149.442 334.304 152.727 335.2 156.311 335.2C159.895 335.2 163.138 334.304 166.039 332.512C169.026 330.72 171.372 328.245 173.079 325.088C174.871 321.845 175.767 318.091 175.767 313.824ZM212.25 348C210.031 348 208.197 347.275 206.746 345.824C205.295 344.288 204.57 342.411 204.57 340.192V287.328C204.57 285.109 205.295 283.275 206.746 281.824C208.197 280.288 210.031 279.52 212.25 279.52C214.469 279.52 216.303 280.288 217.754 281.824C219.205 283.275 219.93 285.109 219.93 287.328V299.36L219.034 290.784C219.973 288.736 221.167 286.944 222.618 285.408C224.154 283.787 225.861 282.464 227.738 281.44C229.615 280.331 231.621 279.52 233.754 279.008C235.887 278.496 238.021 278.24 240.154 278.24C242.714 278.24 244.847 278.965 246.554 280.416C248.346 281.867 249.242 283.573 249.242 285.536C249.242 288.352 248.517 290.4 247.066 291.68C245.615 292.875 244.037 293.472 242.33 293.472C240.709 293.472 239.215 293.173 237.85 292.576C236.57 291.979 235.077 291.68 233.37 291.68C231.834 291.68 230.255 292.064 228.634 292.832C227.098 293.515 225.647 294.624 224.282 296.16C223.002 297.696 221.935 299.616 221.082 301.92C220.314 304.139 219.93 306.784 219.93 309.856V340.192C219.93 342.411 219.205 344.288 217.754 345.824C216.303 347.275 214.469 348 212.25 348ZM260.838 280.8H291.174C293.222 280.8 294.929 281.483 296.294 282.848C297.659 284.213 298.342 285.92 298.342 287.968C298.342 289.931 297.659 291.595 296.294 292.96C294.929 294.24 293.222 294.88 291.174 294.88H260.838C258.79 294.88 257.083 294.197 255.718 292.832C254.353 291.467 253.67 289.76 253.67 287.712C253.67 285.749 254.353 284.128 255.718 282.848C257.083 281.483 258.79 280.8 260.838 280.8ZM274.534 264.8C276.753 264.8 278.545 265.568 279.91 267.104C281.361 268.555 282.086 270.389 282.086 272.608V329.568C282.086 330.763 282.299 331.744 282.726 332.512C283.238 333.28 283.878 333.835 284.646 334.176C285.499 334.517 286.395 334.688 287.334 334.688C288.358 334.688 289.297 334.517 290.15 334.176C291.003 333.749 291.985 333.536 293.094 333.536C294.289 333.536 295.355 334.091 296.294 335.2C297.318 336.309 297.83 337.845 297.83 339.808C297.83 342.197 296.507 344.16 293.862 345.696C291.302 347.232 288.529 348 285.542 348C283.75 348 281.745 347.872 279.526 347.616C277.393 347.275 275.345 346.549 273.382 345.44C271.505 344.245 269.926 342.453 268.646 340.064C267.366 337.675 266.726 334.389 266.726 330.208V272.608C266.726 270.389 267.451 268.555 268.902 267.104C270.438 265.568 272.315 264.8 274.534 264.8ZM344.395 253.28C346.272 253.28 348.107 253.536 349.899 254.048C351.691 254.56 353.184 255.413 354.379 256.608C355.574 257.717 356.171 259.211 356.171 261.088C356.171 263.221 355.531 264.928 354.251 266.208C353.056 267.403 351.648 268 350.027 268C349.259 268 348.107 267.829 346.571 267.488C345.035 267.061 343.542 266.848 342.091 266.848C339.958 266.848 338.294 267.317 337.099 268.256C335.99 269.195 335.222 270.304 334.795 271.584C334.368 272.779 334.155 273.845 334.155 274.784V340.192C334.155 342.411 333.43 344.288 331.979 345.824C330.528 347.275 328.694 348 326.475 348C324.256 348 322.422 347.275 320.971 345.824C319.52 344.288 318.795 342.411 318.795 340.192V274.912C318.795 268.853 320.928 263.733 325.195 259.552C329.462 255.371 335.862 253.28 344.395 253.28ZM345.803 280.8C347.851 280.8 349.558 281.483 350.923 282.848C352.288 284.128 352.971 285.792 352.971 287.84C352.971 289.888 352.288 291.595 350.923 292.96C349.558 294.24 347.851 294.88 345.803 294.88H311.883C309.835 294.88 308.128 294.24 306.763 292.96C305.398 291.595 304.715 289.888 304.715 287.84C304.715 285.792 305.398 284.128 306.763 282.848C308.128 281.483 309.835 280.8 311.883 280.8H345.803ZM427.627 313.824C427.627 320.821 426.048 327.008 422.891 332.384C419.819 337.675 415.638 341.813 410.347 344.8C405.142 347.787 399.296 349.28 392.811 349.28C386.326 349.28 380.438 347.787 375.147 344.8C369.942 341.813 365.76 337.675 362.603 332.384C359.531 327.008 357.995 320.821 357.995 313.824C357.995 306.827 359.531 300.683 362.603 295.392C365.76 290.016 369.942 285.835 375.147 282.848C380.438 279.776 386.326 278.24 392.811 278.24C399.296 278.24 405.142 279.776 410.347 282.848C415.638 285.835 419.819 290.016 422.891 295.392C426.048 300.683 427.627 306.827 427.627 313.824ZM412.267 313.824C412.267 309.472 411.371 305.717 409.579 302.56C407.872 299.317 405.526 296.8 402.539 295.008C399.638 293.216 396.395 292.32 392.811 292.32C389.227 292.32 385.942 293.216 382.955 295.008C380.054 296.8 377.707 299.317 375.915 302.56C374.208 305.717 373.355 309.472 373.355 313.824C373.355 318.091 374.208 321.845 375.915 325.088C377.707 328.245 380.054 330.72 382.955 332.512C385.942 334.304 389.227 335.2 392.811 335.2C396.395 335.2 399.638 334.304 402.539 332.512C405.526 330.72 407.872 328.245 409.579 325.088C411.371 321.845 412.267 318.091 412.267 313.824ZM457.71 340.192C457.71 342.411 456.942 344.288 455.406 345.824C453.955 347.275 452.121 348 449.902 348C447.769 348 445.977 347.275 444.526 345.824C443.075 344.288 442.35 342.411 442.35 340.192V261.088C442.35 258.869 443.075 257.035 444.526 255.584C446.062 254.048 447.939 253.28 450.158 253.28C452.377 253.28 454.169 254.048 455.534 255.584C456.985 257.035 457.71 258.869 457.71 261.088V340.192ZM490.034 340.192C490.034 342.411 489.309 344.288 487.858 345.824C486.407 347.275 484.573 348 482.354 348C480.135 348 478.301 347.275 476.85 345.824C475.399 344.288 474.674 342.411 474.674 340.192V287.328C474.674 285.109 475.399 283.275 476.85 281.824C478.301 280.288 480.135 279.52 482.354 279.52C484.573 279.52 486.407 280.288 487.858 281.824C489.309 283.275 490.034 285.109 490.034 287.328V340.192ZM482.226 271.2C479.325 271.2 477.277 270.731 476.082 269.792C474.887 268.853 474.29 267.189 474.29 264.8V262.368C474.29 259.893 474.93 258.229 476.21 257.376C477.575 256.437 479.623 255.968 482.354 255.968C485.341 255.968 487.431 256.437 488.626 257.376C489.821 258.315 490.418 259.979 490.418 262.368V264.8C490.418 267.275 489.778 268.981 488.498 269.92C487.218 270.773 485.127 271.2 482.226 271.2ZM572.252 313.824C572.252 320.821 570.673 327.008 567.516 332.384C564.444 337.675 560.263 341.813 554.972 344.8C549.767 347.787 543.921 349.28 537.436 349.28C530.951 349.28 525.063 347.787 519.772 344.8C514.567 341.813 510.385 337.675 507.228 332.384C504.156 327.008 502.62 320.821 502.62 313.824C502.62 306.827 504.156 300.683 507.228 295.392C510.385 290.016 514.567 285.835 519.772 282.848C525.063 279.776 530.951 278.24 537.436 278.24C543.921 278.24 549.767 279.776 554.972 282.848C560.263 285.835 564.444 290.016 567.516 295.392C570.673 300.683 572.252 306.827 572.252 313.824ZM556.892 313.824C556.892 309.472 555.996 305.717 554.204 302.56C552.497 299.317 550.151 296.8 547.164 295.008C544.263 293.216 541.02 292.32 537.436 292.32C533.852 292.32 530.567 293.216 527.58 295.008C524.679 296.8 522.332 299.317 520.54 302.56C518.833 305.717 517.98 309.472 517.98 313.824C517.98 318.091 518.833 321.845 520.54 325.088C522.332 328.245 524.679 330.72 527.58 332.512C530.567 334.304 533.852 335.2 537.436 335.2C541.02 335.2 544.263 334.304 547.164 332.512C550.151 330.72 552.497 328.245 554.204 325.088C555.996 321.845 556.892 318.091 556.892 313.824Z" fill="white"/>
</g>
<defs>
<filter id="filter0_d_344_2" x="227.283" y="14.2828" width="223.556" height="223.556" filterUnits="userSpaceOnUse" color-interpolation-filters="sRGB">
<feFlood flood-opacity="0" result="BackgroundImageFix"/>
<feColorMatrix in="SourceAlpha" type="matrix" values="0 0 0 0 0 0 0 0 0 0 0 0 0 0 0 0 0 0 127 0" result="hardAlpha"/>
<feOffset dy="4"/>
<feGaussianBlur stdDeviation="7"/>
<feComposite in2="hardAlpha" operator="out"/>
<feColorMatrix type="matrix" values="0 0 0 0 0 0 0 0 0 0 0 0 0 0 0 0 0 0 0.35 0"/>
<feBlend mode="normal" in2="BackgroundImageFix" result="effect1_dropShadow_344_2"/>
<feBlend mode="normal" in="SourceGraphic" in2="effect1_dropShadow_344_2" result="shape"/>
</filter>
<filter id="filter1_d_344_2" x="226.263" y="387.264" width="227.45" height="227.45" filterUnits="userSpaceOnUse" color-interpolation-filters="sRGB">
<feFlood flood-opacity="0" result="BackgroundImageFix"/>
<feColorMatrix in="SourceAlpha" type="matrix" values="0 0 0 0 0 0 0 0 0 0 0 0 0 0 0 0 0 0 127 0" result="hardAlpha"/>
<feOffset dy="4"/>
<feGaussianBlur stdDeviation="8"/>
<feComposite in2="hardAlpha" operator="out"/>
<feColorMatrix type="matrix" values="0 0 0 0 0 0 0 0 0 0 0 0 0 0 0 0 0 0 0.35 0"/>
<feBlend mode="normal" in2="BackgroundImageFix" result="effect1_dropShadow_344_2"/>
<feBlend mode="normal" in="SourceGraphic" in2="effect1_dropShadow_344_2" result="shape"/>
</filter>
<filter id="filter2_d_344_2" x="412.281" y="206.281" width="227.548" height="227.547" filterUnits="userSpaceOnUse" color-interpolation-filters="sRGB">
<feFlood flood-opacity="0" result="BackgroundImageFix"/>
<feColorMatrix in="SourceAlpha" type="matrix" values="0 0 0 0 0 0 0 0 0 0 0 0 0 0 0 0 0 0 127 0" result="hardAlpha"/>
<feOffset dy="4"/>
<feGaussianBlur stdDeviation="8"/>
<feComposite in2="hardAlpha" operator="out"/>
<feColorMatrix type="matrix" values="0 0 0 0 0 0 0 0 0 0 0 0 0 0 0 0 0 0 0.35 0"/>
<feBlend mode="normal" in2="BackgroundImageFix" result="effect1_dropShadow_344_2"/>
<feBlend mode="normal" in="SourceGraphic" in2="effect1_dropShadow_344_2" result="shape"/>
</filter>
<filter id="filter3_d_344_2" x="-17" y="410" width="182" height="182" filterUnits="userSpaceOnUse" color-interpolation-filters="sRGB">
<feFlood flood-opacity="0" result="BackgroundImageFix"/>
<feColorMatrix in="SourceAlpha" type="matrix" values="0 0 0 0 0 0 0 0 0 0 0 0 0 0 0 0 0 0 127 0" result="hardAlpha"/>
<feOffset dy="4"/>
<feGaussianBlur stdDeviation="8"/>
<feComposite in2="hardAlpha" operator="out"/>
<feColorMatrix type="matrix" values="0 0 0 0 0 0 0 0 0 0 0 0 0 0 0 0 0 0 0.35 0"/>
<feBlend mode="normal" in2="BackgroundImageFix" result="effect1_dropShadow_344_2"/>
<feBlend mode="normal" in="SourceGraphic" in2="effect1_dropShadow_344_2" result="shape"/>
</filter>
<filter id="filter4_d_344_2" x="-16" y="35" width="182" height="182" filterUnits="userSpaceOnUse" color-interpolation-filters="sRGB">
<feFlood flood-opacity="0" result="BackgroundImageFix"/>
<feColorMatrix in="SourceAlpha" type="matrix" values="0 0 0 0 0 0 0 0 0 0 0 0 0 0 0 0 0 0 127 0" result="hardAlpha"/>
<feOffset dy="4"/>
<feGaussianBlur stdDeviation="8"/>
<feComposite in2="hardAlpha" operator="out"/>
<feColorMatrix type="matrix" values="0 0 0 0 0 0 0 0 0 0 0 0 0 0 0 0 0 0 0.35 0"/>
<feBlend mode="normal" in2="BackgroundImageFix" result="effect1_dropShadow_344_2"/>
<feBlend mode="normal" in="SourceGraphic" in2="effect1_dropShadow_344_2" result="shape"/>
</filter>
<filter id="filter5_d_344_2" x="-16.8552" y="228.145" width="182.797" height="182.797" filterUnits="userSpaceOnUse" color-interpolation-filters="sRGB">
<feFlood flood-opacity="0" result="BackgroundImageFix"/>
<feColorMatrix in="SourceAlpha" type="matrix" values="0 0 0 0 0 0 0 0 0 0 0 0 0 0 0 0 0 0 127 0" result="hardAlpha"/>
<feOffset dy="4"/>
<feGaussianBlur stdDeviation="8"/>
<feComposite in2="hardAlpha" operator="out"/>
<feColorMatrix type="matrix" values="0 0 0 0 0 0 0 0 0 0 0 0 0 0 0 0 0 0 0.35 0"/>
<feBlend mode="normal" in2="BackgroundImageFix" result="effect1_dropShadow_344_2"/>
<feBlend mode="normal" in="SourceGraphic" in2="effect1_dropShadow_344_2" result="shape"/>
</filter>
<clipPath id="clip0_344_2">
<rect width="632" height="631" fill="white"/>
</clipPath>
</defs>
</svg>
