<svg width="963" height="745" viewBox="0 0 963 745" fill="none" xmlns="http://www.w3.org/2000/svg">
<path d="M213.509 419.626C213.076 419.194 212.503 418.938 211.916 418.914C211.328 418.891 210.774 419.101 210.375 419.5C209.977 419.899 209.766 420.453 209.79 421.04C209.813 421.628 210.069 422.201 210.502 422.633C210.934 423.066 211.507 423.322 212.095 423.345C212.682 423.369 213.236 423.158 213.635 422.76C214.034 422.361 214.244 421.807 214.221 421.219C214.197 420.632 213.941 420.059 213.509 419.626V419.626ZM232.521 400.614C232.088 400.181 231.515 399.925 230.927 399.901C230.339 399.878 229.785 400.088 229.386 400.487C228.987 400.886 228.776 401.441 228.8 402.029C228.823 402.617 229.08 403.19 229.512 403.623C229.945 404.055 230.518 404.311 231.106 404.335C231.693 404.359 232.248 404.148 232.646 403.749C233.045 403.35 233.256 402.796 233.232 402.208C233.209 401.62 232.952 401.047 232.52 400.615L232.521 400.614ZM251.532 381.603C251.099 381.171 250.526 380.915 249.938 380.891C249.35 380.867 248.796 381.078 248.397 381.477C247.998 381.876 247.788 382.43 247.811 383.018C247.835 383.606 248.091 384.179 248.524 384.611C248.956 385.044 249.529 385.3 250.116 385.323C250.704 385.347 251.258 385.136 251.657 384.738C252.056 384.339 252.266 383.785 252.243 383.197C252.219 382.61 251.963 382.037 251.531 381.604L251.532 381.603ZM270.543 362.592C270.111 362.16 269.537 361.903 268.95 361.88C268.362 361.856 267.808 362.067 267.409 362.466C267.01 362.864 266.799 363.419 266.823 364.007C266.846 364.594 267.103 365.167 267.535 365.6C267.967 366.032 268.54 366.288 269.128 366.312C269.716 366.336 270.27 366.125 270.668 365.726C271.067 365.328 271.278 364.773 271.254 364.186C271.23 363.598 270.974 363.025 270.542 362.593L270.543 362.592ZM289.553 343.582C289.121 343.149 288.548 342.893 287.961 342.869C287.373 342.846 286.819 343.056 286.42 343.455C286.021 343.854 285.811 344.408 285.834 344.996C285.858 345.583 286.114 346.156 286.547 346.588C286.979 347.021 287.552 347.277 288.139 347.301C288.727 347.324 289.281 347.114 289.68 346.715C290.079 346.316 290.289 345.762 290.266 345.174C290.242 344.587 289.986 344.014 289.553 343.582ZM308.565 324.57C308.133 324.138 307.56 323.882 306.972 323.858C306.384 323.834 305.83 324.045 305.432 324.444C305.033 324.842 304.822 325.396 304.846 325.984C304.87 326.572 305.126 327.145 305.558 327.577C305.99 328.009 306.563 328.265 307.151 328.289C307.738 328.313 308.293 328.102 308.691 327.703C309.09 327.305 309.301 326.75 309.277 326.163C309.253 325.575 308.997 325.002 308.565 324.57ZM327.576 305.559C327.144 305.126 326.571 304.87 325.984 304.846C325.396 304.823 324.842 305.033 324.443 305.432C324.044 305.831 323.834 306.385 323.857 306.973C323.881 307.56 324.137 308.133 324.57 308.565C325.002 308.998 325.575 309.254 326.162 309.278C326.75 309.301 327.304 309.091 327.703 308.692C328.102 308.293 328.312 307.739 328.289 307.151C328.265 306.564 328.009 305.991 327.576 305.559V305.559ZM346.589 286.546C346.156 286.114 345.583 285.857 344.996 285.834C344.408 285.81 343.853 286.021 343.455 286.42C343.056 286.819 342.845 287.373 342.869 287.961C342.892 288.548 343.149 289.122 343.581 289.554C344.013 289.986 344.586 290.242 345.174 290.266C345.761 290.29 346.316 290.079 346.714 289.68C347.113 289.282 347.324 288.728 347.3 288.14C347.276 287.552 347.02 286.979 346.588 286.547L346.589 286.546ZM365.599 267.536C365.167 267.103 364.594 266.847 364.007 266.824C363.419 266.8 362.865 267.01 362.466 267.409C362.067 267.808 361.857 268.362 361.88 268.95C361.904 269.537 362.16 270.11 362.592 270.543C363.025 270.975 363.598 271.231 364.185 271.255C364.773 271.278 365.327 271.068 365.726 270.669C366.124 270.27 366.335 269.716 366.311 269.128C366.288 268.541 366.032 267.968 365.599 267.536V267.536ZM384.611 248.524C384.179 248.092 383.606 247.836 383.018 247.812C382.43 247.788 381.876 247.999 381.478 248.398C381.079 248.796 380.868 249.351 380.892 249.938C380.915 250.526 381.172 251.099 381.604 251.531C382.036 251.963 382.609 252.219 383.197 252.243C383.784 252.267 384.338 252.056 384.737 251.657C385.136 251.259 385.347 250.705 385.323 250.117C385.299 249.529 385.043 248.956 384.611 248.524ZM403.622 229.513C403.19 229.08 402.617 228.824 402.029 228.8C401.441 228.777 400.887 228.987 400.488 229.386C400.089 229.785 399.878 230.339 399.902 230.927C399.926 231.515 400.182 232.088 400.614 232.521C401.047 232.953 401.62 233.209 402.208 233.233C402.796 233.257 403.35 233.046 403.749 232.647C404.148 232.248 404.358 231.694 404.335 231.106C404.311 230.518 404.055 229.945 403.622 229.513ZM422.634 210.501C422.201 210.069 421.628 209.813 421.04 209.789C420.453 209.765 419.898 209.976 419.499 210.375C419.101 210.774 418.89 211.328 418.914 211.916C418.937 212.504 419.193 213.077 419.626 213.509C420.058 213.941 420.631 214.198 421.219 214.221C421.806 214.245 422.36 214.034 422.759 213.636C423.158 213.237 423.369 212.683 423.345 212.095C423.321 211.507 423.065 210.934 422.633 210.502L422.634 210.501ZM192.622 398.739C192.189 398.307 191.616 398.051 191.029 398.028C190.441 398.004 189.887 398.215 189.488 398.614C189.09 399.013 188.879 399.567 188.903 400.155C188.927 400.742 189.183 401.315 189.616 401.747C189.83 401.961 190.081 402.134 190.354 402.256C190.627 402.378 190.918 402.447 191.209 402.459C191.5 402.471 191.785 402.425 192.05 402.324C192.314 402.224 192.552 402.07 192.749 401.873C192.946 401.675 193.1 401.437 193.2 401.173C193.3 400.909 193.346 400.623 193.334 400.332C193.322 400.041 193.253 399.751 193.131 399.477C193.009 399.204 192.836 398.953 192.622 398.739ZM211.634 379.727C211.201 379.295 210.628 379.038 210.04 379.015C209.452 378.991 208.898 379.202 208.499 379.601C208.1 380.001 207.889 380.555 207.913 381.143C207.937 381.731 208.194 382.304 208.626 382.737C209.059 383.169 209.632 383.425 210.22 383.449C210.808 383.472 211.362 383.261 211.761 382.862C212.159 382.463 212.37 381.909 212.346 381.321C212.322 380.733 212.066 380.16 211.633 379.728L211.634 379.727ZM230.644 360.716C230.43 360.502 230.179 360.329 229.906 360.207C229.633 360.085 229.342 360.016 229.051 360.005C228.76 359.993 228.474 360.039 228.21 360.139C227.945 360.24 227.708 360.393 227.51 360.591C227.313 360.789 227.159 361.026 227.059 361.291C226.959 361.555 226.913 361.841 226.925 362.132C226.937 362.423 227.006 362.714 227.128 362.987C227.25 363.261 227.424 363.511 227.638 363.725C228.07 364.158 228.643 364.414 229.231 364.437C229.818 364.461 230.372 364.25 230.771 363.851C231.17 363.452 231.38 362.898 231.356 362.31C231.332 361.722 231.076 361.15 230.643 360.717L230.644 360.716ZM249.656 341.705C249.442 341.491 249.191 341.318 248.917 341.196C248.644 341.074 248.353 341.005 248.062 340.993C247.771 340.981 247.486 341.027 247.221 341.128C246.957 341.229 246.719 341.382 246.522 341.58C246.324 341.777 246.171 342.015 246.071 342.279C245.97 342.544 245.924 342.83 245.936 343.121C245.948 343.412 246.017 343.702 246.14 343.976C246.262 344.249 246.435 344.5 246.649 344.714C246.863 344.928 247.114 345.101 247.387 345.223C247.661 345.345 247.951 345.414 248.242 345.426C248.533 345.437 248.819 345.391 249.083 345.291C249.347 345.19 249.585 345.037 249.782 344.839C249.98 344.642 250.133 344.404 250.233 344.14C250.334 343.875 250.379 343.59 250.368 343.299C250.356 343.008 250.287 342.717 250.164 342.444C250.042 342.171 249.869 341.92 249.655 341.706L249.656 341.705ZM268.666 322.695C268.234 322.262 267.661 322.006 267.074 321.982C266.486 321.959 265.932 322.169 265.533 322.568C265.134 322.967 264.924 323.521 264.947 324.109C264.971 324.696 265.227 325.269 265.66 325.701C266.092 326.134 266.665 326.39 267.252 326.414C267.84 326.437 268.394 326.227 268.793 325.828C269.192 325.429 269.402 324.875 269.379 324.287C269.355 323.7 269.099 323.127 268.666 322.695V322.695ZM287.678 303.683C287.246 303.251 286.673 302.995 286.085 302.971C285.497 302.947 284.943 303.158 284.545 303.557C284.146 303.955 283.935 304.509 283.959 305.097C283.983 305.685 284.239 306.258 284.671 306.69C285.103 307.122 285.676 307.378 286.264 307.402C286.851 307.426 287.406 307.215 287.804 306.816C288.203 306.418 288.414 305.863 288.39 305.276C288.366 304.688 288.11 304.115 287.678 303.683V303.683ZM306.689 284.672C306.257 284.239 305.684 283.983 305.097 283.959C304.509 283.936 303.955 284.146 303.556 284.545C303.157 284.944 302.947 285.498 302.97 286.086C302.994 286.673 303.25 287.246 303.683 287.678C304.115 288.111 304.688 288.367 305.275 288.391C305.863 288.414 306.417 288.204 306.816 287.805C307.215 287.406 307.425 286.852 307.401 286.264C307.378 285.677 307.122 285.104 306.689 284.672V284.672ZM325.702 265.659C325.488 265.445 325.237 265.272 324.963 265.15C324.69 265.028 324.399 264.959 324.108 264.947C323.817 264.936 323.531 264.981 323.267 265.082C323.003 265.183 322.765 265.336 322.568 265.534C322.37 265.731 322.217 265.969 322.116 266.234C322.016 266.498 321.97 266.784 321.982 267.075C321.994 267.366 322.063 267.656 322.185 267.93C322.308 268.203 322.481 268.454 322.695 268.668C322.909 268.882 323.16 269.055 323.433 269.177C323.707 269.299 323.997 269.368 324.288 269.38C324.579 269.391 324.865 269.346 325.129 269.245C325.393 269.144 325.631 268.991 325.828 268.793C326.026 268.596 326.179 268.358 326.279 268.094C326.38 267.829 326.425 267.544 326.413 267.253C326.402 266.962 326.333 266.671 326.21 266.398C326.088 266.125 325.915 265.874 325.701 265.66L325.702 265.659ZM344.712 246.649C344.498 246.435 344.247 246.262 343.974 246.14C343.701 246.017 343.41 245.949 343.119 245.937C342.828 245.925 342.543 245.971 342.278 246.072C342.014 246.172 341.776 246.326 341.579 246.523C341.382 246.721 341.228 246.958 341.128 247.223C341.028 247.487 340.982 247.773 340.994 248.064C341.006 248.355 341.075 248.645 341.197 248.919C341.319 249.192 341.492 249.443 341.707 249.657C342.139 250.089 342.712 250.345 343.3 250.368C343.887 250.392 344.441 250.181 344.84 249.782C345.238 249.383 345.449 248.829 345.425 248.241C345.401 247.654 345.145 247.081 344.712 246.649V246.649ZM363.724 227.637C363.291 227.205 362.718 226.949 362.131 226.926C361.543 226.902 360.989 227.113 360.591 227.512C360.192 227.911 359.981 228.465 360.005 229.052C360.029 229.64 360.286 230.213 360.718 230.645C360.932 230.859 361.183 231.032 361.456 231.154C361.73 231.276 362.02 231.345 362.311 231.357C362.602 231.368 362.888 231.323 363.152 231.222C363.416 231.121 363.654 230.968 363.851 230.77C364.049 230.573 364.202 230.335 364.302 230.071C364.403 229.807 364.448 229.521 364.436 229.23C364.425 228.939 364.356 228.648 364.233 228.375C364.111 228.102 363.938 227.851 363.724 227.637ZM382.735 208.626C382.521 208.412 382.27 208.239 381.997 208.116C381.723 207.994 381.433 207.925 381.142 207.914C380.851 207.902 380.565 207.948 380.3 208.049C380.036 208.149 379.798 208.303 379.601 208.5C379.404 208.698 379.25 208.936 379.15 209.2C379.049 209.465 379.004 209.75 379.016 210.041C379.027 210.333 379.096 210.623 379.219 210.896C379.341 211.17 379.514 211.421 379.728 211.635C380.161 212.067 380.734 212.323 381.322 212.347C381.91 212.37 382.464 212.159 382.863 211.76C383.261 211.361 383.472 210.807 383.448 210.219C383.424 209.631 383.168 209.058 382.735 208.626V208.626ZM401.747 189.614C401.533 189.4 401.282 189.227 401.008 189.105C400.735 188.983 400.444 188.914 400.153 188.902C399.862 188.891 399.576 188.936 399.312 189.037C399.048 189.138 398.81 189.291 398.612 189.489C398.415 189.686 398.262 189.924 398.161 190.189C398.061 190.453 398.015 190.739 398.027 191.03C398.039 191.321 398.108 191.612 398.23 191.885C398.353 192.158 398.526 192.409 398.74 192.623C399.172 193.055 399.745 193.311 400.333 193.335C400.921 193.358 401.475 193.147 401.873 192.749C402.272 192.35 402.482 191.795 402.458 191.208C402.434 190.62 402.178 190.047 401.746 189.615L401.747 189.614ZM171.735 377.852C171.302 377.42 170.729 377.164 170.142 377.14C169.554 377.117 169 377.327 168.601 377.726C168.203 378.125 167.992 378.679 168.016 379.266C168.039 379.854 168.295 380.427 168.728 380.859C169.16 381.292 169.733 381.548 170.32 381.571C170.908 381.595 171.462 381.384 171.861 380.986C172.26 380.587 172.47 380.033 172.447 379.445C172.423 378.858 172.167 378.285 171.735 377.852V377.852ZM190.747 358.84C190.315 358.408 189.742 358.151 189.154 358.128C188.567 358.104 188.012 358.315 187.614 358.714C187.215 359.112 187.004 359.666 187.028 360.254C187.052 360.842 187.308 361.415 187.74 361.847C188.172 362.279 188.745 362.535 189.333 362.559C189.921 362.583 190.475 362.372 190.873 361.973C191.272 361.574 191.483 361.02 191.459 360.433C191.435 359.845 191.179 359.272 190.747 358.84V358.84ZM209.757 339.829C209.325 339.397 208.752 339.141 208.165 339.117C207.577 339.094 207.023 339.304 206.624 339.703C206.225 340.102 206.015 340.656 206.038 341.243C206.062 341.831 206.318 342.404 206.751 342.836C207.183 343.269 207.756 343.525 208.343 343.548C208.931 343.572 209.485 343.361 209.884 342.963C210.283 342.564 210.493 342.01 210.47 341.422C210.446 340.835 210.19 340.262 209.757 339.829V339.829ZM228.769 320.818C228.337 320.386 227.764 320.13 227.176 320.106C226.589 320.082 226.034 320.293 225.636 320.692C225.237 321.09 225.026 321.644 225.05 322.232C225.074 322.82 225.33 323.393 225.762 323.825C226.194 324.257 226.767 324.513 227.355 324.537C227.943 324.561 228.497 324.35 228.895 323.951C229.294 323.553 229.505 322.998 229.481 322.411C229.457 321.823 229.201 321.25 228.769 320.818V320.818ZM247.779 301.807C247.568 301.581 247.316 301.396 247.04 301.264C246.763 301.131 246.467 301.054 246.169 301.036C245.871 301.019 245.577 301.061 245.306 301.162C245.034 301.262 244.79 301.418 244.588 301.62C244.385 301.821 244.23 302.066 244.129 302.337C244.029 302.609 243.986 302.902 244.003 303.2C244.021 303.498 244.098 303.794 244.23 304.071C244.362 304.348 244.547 304.6 244.773 304.811C245.209 305.219 245.773 305.454 246.346 305.467C246.919 305.48 247.457 305.269 247.846 304.88C248.236 304.491 248.446 303.953 248.434 303.38C248.421 302.807 248.187 302.244 247.779 301.807ZM266.791 282.796C266.579 282.57 266.328 282.385 266.051 282.252C265.774 282.12 265.478 282.042 265.18 282.025C264.882 282.007 264.589 282.05 264.317 282.15C264.045 282.25 263.801 282.406 263.599 282.608C263.397 282.81 263.241 283.054 263.141 283.326C263.04 283.597 262.997 283.891 263.015 284.189C263.032 284.487 263.109 284.783 263.242 285.06C263.374 285.336 263.559 285.588 263.785 285.8C264.221 286.207 264.784 286.442 265.357 286.455C265.931 286.468 266.468 286.258 266.858 285.869C267.247 285.48 267.458 284.942 267.445 284.369C267.433 283.796 267.198 283.232 266.791 282.796V282.796ZM285.802 263.785C285.59 263.562 285.339 263.38 285.063 263.251C284.787 263.121 284.493 263.047 284.197 263.031C283.901 263.015 283.61 263.058 283.34 263.159C283.071 263.259 282.828 263.414 282.627 263.615C282.427 263.815 282.271 264.057 282.171 264.327C282.071 264.596 282.027 264.887 282.043 265.183C282.058 265.479 282.133 265.774 282.262 266.05C282.391 266.325 282.573 266.577 282.795 266.789C283.23 267.204 283.797 267.445 284.374 267.461C284.951 267.477 285.494 267.267 285.886 266.875C286.278 266.483 286.489 265.941 286.473 265.364C286.458 264.786 286.217 264.22 285.802 263.785V263.785ZM304.815 244.772C304.383 244.34 303.81 244.084 303.222 244.06C302.634 244.036 302.08 244.247 301.682 244.646C301.283 245.044 301.072 245.599 301.096 246.186C301.12 246.774 301.376 247.347 301.808 247.779C302.24 248.211 302.813 248.467 303.401 248.491C303.988 248.515 304.543 248.304 304.941 247.905C305.34 247.507 305.551 246.952 305.527 246.365C305.503 245.777 305.247 245.204 304.815 244.772V244.772ZM323.825 225.762C323.393 225.329 322.82 225.073 322.232 225.049C321.645 225.026 321.091 225.236 320.692 225.635C320.293 226.034 320.083 226.588 320.106 227.176C320.13 227.763 320.386 228.336 320.818 228.768C321.251 229.201 321.824 229.457 322.411 229.481C322.999 229.504 323.553 229.294 323.952 228.895C324.35 228.496 324.561 227.942 324.537 227.354C324.514 226.767 324.258 226.194 323.825 225.762V225.762ZM342.837 206.75C342.405 206.318 341.832 206.062 341.244 206.038C340.656 206.014 340.102 206.225 339.703 206.624C339.305 207.022 339.094 207.577 339.118 208.164C339.141 208.752 339.398 209.325 339.83 209.757C340.262 210.189 340.835 210.445 341.423 210.469C342.01 210.493 342.564 210.282 342.963 209.883C343.362 209.485 343.573 208.931 343.549 208.343C343.525 207.755 343.269 207.182 342.837 206.75V206.75ZM361.848 187.739C361.416 187.306 360.843 187.05 360.255 187.027C359.668 187.003 359.114 187.214 358.715 187.612C358.316 188.011 358.106 188.565 358.129 189.153C358.153 189.74 358.409 190.313 358.841 190.746C359.274 191.178 359.847 191.434 360.434 191.458C361.022 191.481 361.576 191.271 361.975 190.872C362.373 190.473 362.584 189.919 362.56 189.331C362.537 188.744 362.28 188.171 361.848 187.739V187.739ZM380.86 168.727C380.427 168.295 379.854 168.039 379.267 168.015C378.679 167.991 378.125 168.202 377.726 168.601C377.328 169 377.117 169.554 377.141 170.141C377.164 170.729 377.421 171.302 377.853 171.734C378.285 172.166 378.858 172.422 379.446 172.446C380.033 172.47 380.587 172.259 380.986 171.861C381.385 171.462 381.596 170.908 381.572 170.32C381.548 169.732 381.292 169.159 380.86 168.727V168.727ZM150.848 356.965C150.415 356.533 149.842 356.277 149.255 356.253C148.667 356.23 148.113 356.44 147.714 356.839C147.316 357.238 147.105 357.792 147.129 358.379C147.152 358.967 147.408 359.54 147.841 359.972C148.273 360.404 148.846 360.661 149.433 360.684C150.021 360.708 150.575 360.497 150.974 360.099C151.373 359.7 151.583 359.146 151.56 358.558C151.536 357.971 151.28 357.398 150.848 356.965V356.965ZM169.86 337.953C169.427 337.52 168.854 337.264 168.266 337.24C167.678 337.217 167.124 337.427 166.725 337.826C166.326 338.225 166.115 338.78 166.139 339.368C166.162 339.956 166.419 340.529 166.851 340.962C167.284 341.394 167.857 341.65 168.444 341.674C169.032 341.698 169.587 341.487 169.985 341.088C170.384 340.689 170.595 340.135 170.571 339.547C170.548 338.959 170.291 338.386 169.859 337.954L169.86 337.953ZM188.87 318.942C188.438 318.51 187.865 318.254 187.277 318.23C186.689 318.206 186.135 318.417 185.736 318.816C185.337 319.215 185.127 319.769 185.15 320.357C185.174 320.945 185.43 321.518 185.863 321.95C186.295 322.383 186.868 322.639 187.455 322.662C188.043 322.686 188.597 322.475 188.996 322.077C189.395 321.678 189.605 321.124 189.582 320.536C189.558 319.949 189.302 319.376 188.869 318.943L188.87 318.942ZM207.882 299.931C207.45 299.499 206.876 299.242 206.289 299.219C205.701 299.195 205.146 299.406 204.748 299.804C204.349 300.203 204.138 300.758 204.162 301.345C204.185 301.933 204.442 302.506 204.874 302.939C205.306 303.371 205.879 303.627 206.467 303.651C207.054 303.675 207.609 303.464 208.007 303.065C208.406 302.667 208.617 302.112 208.593 301.525C208.569 300.937 208.313 300.364 207.881 299.932L207.882 299.931ZM226.892 280.92C226.46 280.488 225.887 280.232 225.3 280.208C224.712 280.185 224.158 280.395 223.759 280.794C223.36 281.193 223.15 281.747 223.173 282.335C223.197 282.922 223.453 283.495 223.886 283.927C224.318 284.36 224.891 284.616 225.478 284.639C226.066 284.663 226.62 284.452 227.019 284.054C227.418 283.655 227.628 283.101 227.605 282.513C227.581 281.926 227.325 281.353 226.892 280.92V280.92ZM245.904 261.909C245.472 261.477 244.899 261.221 244.311 261.197C243.723 261.173 243.169 261.384 242.771 261.783C242.372 262.181 242.161 262.735 242.185 263.323C242.209 263.911 242.465 264.484 242.897 264.916C243.329 265.348 243.902 265.604 244.49 265.628C245.077 265.652 245.632 265.441 246.03 265.042C246.429 264.644 246.64 264.089 246.616 263.502C246.592 262.914 246.336 262.341 245.904 261.909V261.909ZM264.915 242.898C264.483 242.465 263.91 242.209 263.323 242.185C262.735 242.162 262.181 242.372 261.782 242.771C261.383 243.17 261.173 243.724 261.196 244.312C261.22 244.899 261.476 245.472 261.908 245.904C262.341 246.337 262.914 246.593 263.501 246.617C264.089 246.64 264.643 246.43 265.042 246.031C265.44 245.632 265.651 245.078 265.627 244.49C265.604 243.903 265.348 243.33 264.915 242.898V242.898ZM283.928 223.885C283.495 223.453 282.922 223.196 282.334 223.173C281.747 223.149 281.192 223.36 280.794 223.759C280.395 224.157 280.184 224.712 280.208 225.3C280.231 225.887 280.488 226.461 280.92 226.893C281.352 227.325 281.925 227.581 282.513 227.605C283.1 227.629 283.654 227.418 284.053 227.019C284.452 226.621 284.663 226.066 284.639 225.479C284.615 224.891 284.359 224.318 283.927 223.886L283.928 223.885ZM302.938 204.875C302.506 204.442 301.933 204.186 301.345 204.162C300.758 204.139 300.204 204.349 299.805 204.748C299.406 205.147 299.196 205.701 299.219 206.289C299.243 206.876 299.499 207.449 299.931 207.881C300.364 208.314 300.937 208.57 301.524 208.594C302.112 208.617 302.666 208.407 303.065 208.008C303.463 207.609 303.674 207.055 303.65 206.467C303.627 205.88 303.371 205.307 302.938 204.875V204.875ZM321.95 185.863C321.517 185.431 320.945 185.175 320.357 185.151C319.769 185.127 319.215 185.338 318.816 185.737C318.418 186.135 318.207 186.69 318.231 187.277C318.254 187.865 318.511 188.438 318.943 188.87C319.375 189.302 319.948 189.558 320.536 189.582C321.123 189.606 321.677 189.395 322.076 188.996C322.475 188.598 322.686 188.044 322.662 187.456C322.638 186.868 322.382 186.295 321.95 185.863V185.863ZM340.961 166.852C340.529 166.419 339.956 166.163 339.368 166.139C338.78 166.116 338.226 166.326 337.827 166.725C337.428 167.124 337.217 167.678 337.241 168.266C337.265 168.854 337.521 169.427 337.953 169.86C338.386 170.292 338.959 170.548 339.547 170.572C340.135 170.596 340.689 170.385 341.088 169.986C341.487 169.587 341.697 169.033 341.674 168.445C341.65 167.857 341.394 167.284 340.961 166.852ZM359.973 147.84C359.54 147.408 358.967 147.152 358.379 147.128C357.792 147.104 357.237 147.315 356.838 147.714C356.439 148.113 356.229 148.667 356.252 149.255C356.276 149.842 356.532 150.416 356.965 150.848C357.397 151.28 357.97 151.536 358.558 151.56C359.145 151.584 359.699 151.373 360.098 150.974C360.497 150.576 360.708 150.022 360.684 149.434C360.66 148.846 360.404 148.273 359.972 147.841L359.973 147.84ZM129.961 336.078C129.528 335.646 128.955 335.39 128.368 335.366C127.78 335.343 127.226 335.553 126.827 335.952C126.428 336.351 126.218 336.905 126.241 337.492C126.265 338.08 126.521 338.653 126.954 339.085C127.386 339.517 127.959 339.774 128.546 339.797C129.134 339.821 129.688 339.61 130.087 339.212C130.486 338.813 130.696 338.259 130.673 337.671C130.649 337.084 130.393 336.511 129.961 336.078V336.078ZM148.973 317.066C148.541 316.634 147.968 316.377 147.38 316.354C146.793 316.33 146.238 316.541 145.84 316.939C145.441 317.338 145.23 317.892 145.254 318.48C145.278 319.068 145.534 319.64 145.966 320.073C146.398 320.505 146.971 320.761 147.559 320.785C148.147 320.809 148.701 320.598 149.099 320.199C149.498 319.8 149.709 319.246 149.685 318.659C149.661 318.071 149.405 317.498 148.973 317.066V317.066ZM167.983 298.055C167.551 297.623 166.978 297.367 166.391 297.343C165.803 297.32 165.249 297.53 164.85 297.929C164.451 298.328 164.241 298.882 164.264 299.469C164.288 300.057 164.544 300.63 164.977 301.062C165.409 301.495 165.982 301.751 166.569 301.774C167.157 301.798 167.711 301.587 168.11 301.189C168.509 300.79 168.719 300.236 168.696 299.648C168.672 299.061 168.416 298.488 167.983 298.055V298.055ZM186.995 279.044C186.563 278.612 185.99 278.356 185.402 278.332C184.814 278.308 184.26 278.519 183.862 278.918C183.463 279.316 183.252 279.87 183.276 280.458C183.3 281.046 183.556 281.619 183.988 282.051C184.42 282.483 184.993 282.739 185.581 282.763C186.168 282.787 186.723 282.576 187.121 282.177C187.52 281.778 187.731 281.224 187.707 280.637C187.683 280.049 187.427 279.476 186.995 279.044V279.044ZM206.005 260.033C205.794 259.807 205.542 259.622 205.266 259.49C204.989 259.357 204.693 259.28 204.395 259.262C204.097 259.245 203.803 259.287 203.532 259.388C203.26 259.488 203.016 259.644 202.814 259.845C202.611 260.047 202.456 260.292 202.355 260.563C202.255 260.835 202.212 261.128 202.229 261.426C202.247 261.724 202.324 262.02 202.456 262.297C202.588 262.574 202.773 262.826 202.999 263.037C203.435 263.445 203.999 263.68 204.572 263.693C205.145 263.706 205.683 263.495 206.072 263.106C206.462 262.717 206.672 262.179 206.66 261.606C206.647 261.033 206.413 260.469 206.005 260.033V260.033ZM225.017 241.022C224.805 240.796 224.554 240.611 224.277 240.478C224 240.346 223.704 240.268 223.406 240.251C223.108 240.233 222.815 240.276 222.543 240.376C222.271 240.476 222.027 240.632 221.825 240.834C221.623 241.036 221.467 241.28 221.367 241.552C221.266 241.823 221.223 242.117 221.241 242.415C221.258 242.713 221.335 243.009 221.468 243.286C221.6 243.562 221.785 243.814 222.011 244.026C222.447 244.433 223.01 244.668 223.583 244.681C224.157 244.694 224.694 244.484 225.084 244.095C225.473 243.706 225.684 243.168 225.671 242.595C225.659 242.022 225.424 241.458 225.017 241.022V241.022ZM244.028 222.011C243.816 221.788 243.565 221.606 243.289 221.477C243.013 221.347 242.719 221.273 242.423 221.257C242.127 221.241 241.836 221.284 241.566 221.385C241.297 221.485 241.054 221.64 240.853 221.84C240.653 222.041 240.497 222.283 240.397 222.553C240.297 222.822 240.253 223.113 240.269 223.409C240.284 223.705 240.359 224 240.488 224.276C240.617 224.551 240.799 224.803 241.021 225.015C241.456 225.43 242.023 225.671 242.6 225.687C243.177 225.703 243.72 225.493 244.112 225.101C244.504 224.709 244.715 224.167 244.699 223.59C244.684 223.012 244.443 222.446 244.028 222.011V222.011ZM263.041 202.998C262.609 202.566 262.036 202.31 261.448 202.286C260.86 202.262 260.306 202.473 259.908 202.872C259.509 203.27 259.298 203.825 259.322 204.412C259.346 205 259.602 205.573 260.034 206.005C260.466 206.437 261.039 206.693 261.627 206.717C262.214 206.741 262.768 206.53 263.167 206.131C263.566 205.733 263.777 205.178 263.753 204.591C263.729 204.003 263.473 203.43 263.041 202.998V202.998ZM282.051 183.988C281.619 183.555 281.046 183.299 280.458 183.275C279.871 183.252 279.317 183.462 278.918 183.861C278.519 184.26 278.309 184.814 278.332 185.402C278.356 185.989 278.612 186.562 279.044 186.994C279.477 187.427 280.05 187.683 280.637 187.707C281.225 187.73 281.779 187.52 282.178 187.121C282.576 186.722 282.787 186.168 282.763 185.58C282.74 184.993 282.484 184.42 282.051 183.988V183.988ZM301.063 164.976C300.63 164.544 300.058 164.288 299.47 164.264C298.882 164.24 298.328 164.451 297.929 164.85C297.531 165.248 297.32 165.803 297.344 166.39C297.367 166.978 297.624 167.551 298.056 167.983C298.488 168.415 299.061 168.671 299.649 168.695C300.236 168.719 300.79 168.508 301.189 168.109C301.588 167.711 301.799 167.157 301.775 166.569C301.751 165.981 301.495 165.408 301.063 164.976V164.976ZM320.074 145.965C319.642 145.532 319.069 145.276 318.481 145.253C317.894 145.229 317.34 145.44 316.941 145.838C316.542 146.237 316.332 146.791 316.355 147.379C316.379 147.966 316.635 148.539 317.067 148.972C317.5 149.404 318.073 149.66 318.66 149.684C319.248 149.707 319.802 149.497 320.201 149.098C320.599 148.699 320.81 148.145 320.786 147.557C320.763 146.97 320.506 146.397 320.074 145.965V145.965ZM339.086 126.953C338.653 126.521 338.08 126.265 337.493 126.241C336.905 126.217 336.351 126.428 335.952 126.827C335.554 127.226 335.343 127.78 335.367 128.367C335.39 128.955 335.647 129.528 336.079 129.96C336.511 130.392 337.084 130.648 337.672 130.672C338.259 130.696 338.813 130.485 339.212 130.086C339.611 129.688 339.822 129.134 339.798 128.546C339.774 127.958 339.518 127.385 339.086 126.953V126.953ZM109.072 315.19C108.858 314.976 108.607 314.803 108.334 314.681C108.061 314.559 107.77 314.49 107.479 314.479C107.188 314.467 106.903 314.513 106.638 314.613C106.374 314.714 106.137 314.867 105.939 315.065C105.742 315.262 105.589 315.5 105.488 315.764C105.388 316.029 105.342 316.315 105.354 316.606C105.366 316.897 105.435 317.187 105.557 317.46C105.679 317.733 105.853 317.984 106.067 318.198C106.499 318.63 107.072 318.887 107.659 318.91C108.247 318.934 108.801 318.723 109.2 318.325C109.599 317.926 109.809 317.372 109.786 316.784C109.762 316.197 109.506 315.624 109.073 315.191L109.072 315.19ZM128.085 296.178C127.871 295.964 127.62 295.791 127.346 295.668C127.073 295.546 126.782 295.477 126.491 295.466C126.2 295.454 125.914 295.5 125.649 295.601C125.385 295.701 125.147 295.855 124.95 296.052C124.752 296.25 124.599 296.488 124.498 296.752C124.398 297.017 124.352 297.303 124.364 297.594C124.376 297.885 124.445 298.176 124.567 298.449C124.69 298.723 124.863 298.974 125.077 299.188C125.51 299.62 126.083 299.876 126.67 299.9C127.258 299.924 127.813 299.713 128.211 299.314C128.61 298.915 128.821 298.361 128.797 297.773C128.774 297.185 128.517 296.612 128.085 296.18L128.085 296.178ZM147.095 277.167C146.881 276.953 146.63 276.78 146.357 276.658C146.083 276.536 145.793 276.467 145.502 276.455C145.211 276.444 144.925 276.49 144.661 276.59C144.396 276.691 144.158 276.844 143.961 277.042C143.764 277.239 143.61 277.477 143.51 277.742C143.409 278.006 143.364 278.292 143.376 278.583C143.388 278.874 143.457 279.165 143.579 279.438C143.701 279.711 143.874 279.962 144.089 280.176C144.521 280.609 145.094 280.865 145.681 280.888C146.269 280.912 146.823 280.701 147.222 280.303C147.621 279.904 147.831 279.35 147.808 278.762C147.784 278.175 147.528 277.602 147.095 277.169L147.095 277.167ZM166.107 258.156C165.893 257.942 165.642 257.769 165.368 257.647C165.095 257.524 164.804 257.456 164.513 257.444C164.222 257.432 163.936 257.478 163.672 257.579C163.408 257.679 163.17 257.833 162.973 258.03C162.775 258.228 162.622 258.466 162.521 258.73C162.421 258.995 162.375 259.281 162.387 259.572C162.399 259.863 162.468 260.153 162.59 260.427C162.713 260.7 162.886 260.951 163.1 261.165C163.532 261.597 164.105 261.853 164.693 261.877C165.28 261.901 165.835 261.69 166.233 261.291C166.632 260.892 166.843 260.338 166.819 259.751C166.795 259.163 166.539 258.59 166.107 258.158L166.107 258.156ZM185.117 239.145C184.685 238.713 184.112 238.457 183.524 238.433C182.937 238.41 182.383 238.62 181.984 239.019C181.585 239.418 181.375 239.972 181.398 240.559C181.422 241.147 181.678 241.72 182.11 242.152C182.543 242.584 183.116 242.841 183.703 242.864C184.291 242.888 184.845 242.677 185.244 242.279C185.642 241.88 185.853 241.326 185.829 240.738C185.806 240.151 185.55 239.578 185.117 239.145V239.145ZM204.129 220.134C203.696 219.702 203.124 219.445 202.536 219.422C201.948 219.398 201.394 219.609 200.995 220.007C200.597 220.406 200.386 220.96 200.41 221.548C200.433 222.136 200.69 222.709 201.122 223.141C201.554 223.573 202.127 223.829 202.715 223.853C203.302 223.877 203.856 223.666 204.255 223.267C204.654 222.868 204.865 222.314 204.841 221.727C204.817 221.139 204.561 220.566 204.129 220.134V220.134ZM223.14 201.122C222.708 200.69 222.135 200.434 221.547 200.41C220.96 200.387 220.406 200.597 220.007 200.996C219.608 201.395 219.398 201.949 219.421 202.536C219.445 203.124 219.701 203.697 220.133 204.129C220.566 204.562 221.139 204.818 221.726 204.841C222.314 204.865 222.868 204.654 223.267 204.256C223.665 203.857 223.876 203.303 223.852 202.715C223.829 202.128 223.572 201.555 223.14 201.122V201.122ZM242.153 182.11C241.939 181.896 241.688 181.723 241.414 181.601C241.141 181.479 240.85 181.41 240.559 181.398C240.268 181.386 239.982 181.432 239.718 181.533C239.454 181.634 239.216 181.787 239.018 181.985C238.821 182.182 238.668 182.42 238.567 182.684C238.467 182.949 238.421 183.235 238.433 183.526C238.445 183.817 238.514 184.107 238.636 184.381C238.759 184.654 238.932 184.905 239.146 185.119C239.578 185.551 240.151 185.807 240.739 185.831C241.326 185.855 241.88 185.644 242.279 185.245C242.678 184.847 242.889 184.292 242.865 183.705C242.841 183.117 242.585 182.544 242.153 182.112L242.153 182.11ZM261.163 163.099C260.949 162.885 260.698 162.713 260.425 162.59C260.152 162.468 259.861 162.399 259.57 162.388C259.279 162.376 258.993 162.422 258.729 162.523C258.465 162.623 258.227 162.777 258.03 162.974C257.833 163.172 257.679 163.409 257.579 163.674C257.478 163.938 257.433 164.224 257.445 164.515C257.457 164.806 257.526 165.096 257.648 165.369C257.77 165.643 257.943 165.893 258.157 166.107C258.59 166.54 259.163 166.796 259.75 166.82C260.338 166.843 260.892 166.633 261.291 166.234C261.689 165.835 261.9 165.281 261.876 164.693C261.853 164.106 261.597 163.533 261.164 163.101L261.163 163.099ZM280.175 144.088C279.961 143.874 279.71 143.701 279.436 143.579C279.163 143.457 278.873 143.388 278.582 143.376C278.291 143.365 278.005 143.411 277.741 143.511C277.476 143.612 277.239 143.765 277.041 143.963C276.844 144.16 276.691 144.398 276.59 144.662C276.49 144.927 276.444 145.212 276.456 145.503C276.468 145.794 276.537 146.085 276.659 146.358C276.782 146.631 276.955 146.882 277.169 147.096C277.601 147.528 278.174 147.784 278.762 147.808C279.349 147.832 279.903 147.621 280.302 147.222C280.701 146.824 280.912 146.27 280.888 145.682C280.864 145.094 280.608 144.521 280.176 144.089L280.175 144.088ZM299.186 125.077C298.972 124.863 298.721 124.689 298.448 124.567C298.174 124.445 297.884 124.376 297.593 124.365C297.302 124.353 297.016 124.399 296.751 124.499C296.487 124.6 296.249 124.754 296.052 124.951C295.854 125.149 295.701 125.386 295.601 125.651C295.5 125.915 295.455 126.201 295.466 126.492C295.478 126.783 295.547 127.074 295.67 127.347C295.792 127.621 295.965 127.871 296.179 128.085C296.612 128.518 297.185 128.774 297.773 128.798C298.36 128.822 298.915 128.611 299.314 128.212C299.713 127.813 299.923 127.259 299.9 126.671C299.876 126.083 299.62 125.51 299.187 125.078L299.186 125.077ZM318.198 106.065C317.983 105.851 317.732 105.678 317.459 105.556C317.186 105.434 316.895 105.365 316.604 105.353C316.313 105.342 316.027 105.387 315.763 105.488C315.498 105.589 315.261 105.742 315.063 105.94C314.866 106.137 314.713 106.375 314.612 106.639C314.512 106.904 314.466 107.19 314.478 107.481C314.49 107.772 314.559 108.062 314.681 108.336C314.803 108.609 314.977 108.86 315.191 109.074C315.623 109.506 316.196 109.762 316.784 109.786C317.371 109.81 317.925 109.599 318.324 109.2C318.723 108.802 318.934 108.248 318.91 107.66C318.886 107.072 318.63 106.499 318.198 106.067L318.198 106.065ZM88.1865 294.304C87.7542 293.872 87.1813 293.616 86.5937 293.592C86.006 293.568 85.4519 293.779 85.0532 294.178C84.6545 294.577 84.4437 295.131 84.4675 295.718C84.4912 296.306 84.7473 296.879 85.1796 297.311C85.6119 297.743 86.1848 298 86.7724 298.023C87.36 298.047 87.9141 297.836 88.3129 297.438C88.7116 297.039 88.9223 296.485 88.8986 295.897C88.8749 295.31 88.6187 294.737 88.1865 294.304V294.304ZM107.199 275.292C106.766 274.859 106.193 274.603 105.605 274.579C105.017 274.556 104.463 274.766 104.064 275.165C103.665 275.564 103.454 276.119 103.477 276.707C103.501 277.295 103.758 277.868 104.19 278.301C104.622 278.733 105.196 278.989 105.783 279.013C106.371 279.037 106.926 278.826 107.324 278.427C107.723 278.028 107.934 277.474 107.91 276.886C107.887 276.298 107.63 275.725 107.198 275.293L107.199 275.292ZM126.209 256.281C125.777 255.849 125.204 255.593 124.616 255.569C124.028 255.545 123.474 255.756 123.075 256.155C122.676 256.554 122.465 257.108 122.489 257.696C122.513 258.284 122.769 258.857 123.202 259.289C123.634 259.722 124.207 259.978 124.794 260.001C125.382 260.025 125.936 259.814 126.335 259.416C126.734 259.017 126.944 258.463 126.921 257.875C126.897 257.288 126.641 256.715 126.208 256.282L126.209 256.281ZM145.221 237.27C144.788 236.838 144.215 236.581 143.628 236.558C143.04 236.534 142.485 236.745 142.087 237.143C141.688 237.542 141.477 238.097 141.501 238.684C141.524 239.272 141.781 239.845 142.213 240.278C142.645 240.71 143.218 240.966 143.806 240.99C144.393 241.014 144.948 240.803 145.346 240.404C145.745 240.005 145.956 239.451 145.932 238.864C145.908 238.276 145.652 237.703 145.22 237.271L145.221 237.27ZM164.231 218.259C163.799 217.827 163.226 217.571 162.639 217.547C162.051 217.524 161.497 217.734 161.098 218.133C160.699 218.532 160.489 219.086 160.512 219.673C160.536 220.261 160.792 220.834 161.224 221.266C161.657 221.699 162.23 221.955 162.817 221.978C163.405 222.002 163.959 221.791 164.358 221.393C164.757 220.994 164.967 220.44 164.943 219.852C164.92 219.265 164.664 218.692 164.231 218.259ZM183.243 199.248C182.811 198.816 182.238 198.56 181.65 198.536C181.062 198.512 180.508 198.723 180.11 199.122C179.711 199.52 179.5 200.074 179.524 200.662C179.548 201.25 179.804 201.823 180.236 202.255C180.668 202.687 181.241 202.943 181.829 202.967C182.416 202.991 182.97 202.78 183.369 202.381C183.768 201.983 183.979 201.428 183.955 200.841C183.931 200.253 183.675 199.68 183.243 199.248ZM202.254 180.236C201.822 179.804 201.249 179.548 200.661 179.524C200.074 179.501 199.52 179.711 199.121 180.11C198.722 180.509 198.512 181.063 198.535 181.651C198.559 182.238 198.815 182.811 199.247 183.243C199.68 183.676 200.253 183.932 200.84 183.955C201.428 183.979 201.982 183.769 202.381 183.37C202.779 182.971 202.99 182.417 202.966 181.829C202.943 181.242 202.687 180.669 202.254 180.236V180.236ZM221.267 161.224C220.834 160.792 220.261 160.535 219.673 160.512C219.086 160.488 218.531 160.699 218.132 161.098C217.734 161.496 217.523 162.051 217.547 162.639C217.57 163.226 217.826 163.799 218.259 164.232C218.691 164.664 219.264 164.92 219.852 164.944C220.439 164.968 220.993 164.757 221.392 164.358C221.791 163.96 222.002 163.405 221.978 162.818C221.954 162.23 221.698 161.657 221.266 161.225L221.267 161.224ZM240.277 142.214C239.845 141.781 239.272 141.525 238.684 141.501C238.097 141.478 237.543 141.688 237.144 142.087C236.745 142.486 236.535 143.04 236.558 143.628C236.582 144.215 236.838 144.788 237.27 145.22C237.703 145.653 238.276 145.909 238.863 145.933C239.451 145.956 240.005 145.746 240.404 145.347C240.802 144.948 241.013 144.394 240.989 143.806C240.966 143.219 240.71 142.646 240.277 142.214V142.214ZM259.289 123.202C258.856 122.77 258.283 122.514 257.696 122.49C257.108 122.466 256.554 122.677 256.155 123.076C255.757 123.474 255.546 124.029 255.57 124.616C255.593 125.204 255.85 125.777 256.282 126.209C256.714 126.641 257.287 126.897 257.875 126.921C258.462 126.945 259.016 126.734 259.415 126.335C259.814 125.937 260.025 125.382 260.001 124.795C259.977 124.207 259.721 123.634 259.289 123.202ZM278.3 104.191C277.868 103.758 277.295 103.502 276.707 103.478C276.119 103.455 275.565 103.665 275.166 104.064C274.767 104.463 274.556 105.017 274.58 105.605C274.604 106.193 274.86 106.766 275.292 107.198C275.725 107.631 276.298 107.887 276.886 107.911C277.473 107.935 278.028 107.724 278.427 107.325C278.826 106.926 279.036 106.372 279.013 105.784C278.989 105.196 278.733 104.623 278.3 104.191ZM297.312 85.1792C296.879 84.7468 296.306 84.4905 295.718 84.4668C295.131 84.443 294.576 84.6538 294.177 85.0527C293.778 85.4516 293.568 86.0058 293.591 86.5936C293.615 87.1814 293.871 87.7546 294.304 88.187C294.736 88.6193 295.309 88.8754 295.897 88.8991C296.484 88.9228 297.038 88.7122 297.437 88.3134C297.836 87.9147 298.046 87.3605 298.023 86.7729C297.999 86.1853 297.743 85.6124 297.311 85.1801L297.312 85.1792ZM67.2984 273.416C66.866 272.984 66.2929 272.728 65.7053 272.705C65.1178 272.681 64.5637 272.892 64.1651 273.291C63.7666 273.69 63.556 274.244 63.5799 274.832C63.6038 275.419 63.8602 275.992 64.2926 276.424C64.7248 276.856 65.2978 277.113 65.8854 277.136C66.473 277.16 67.0271 276.949 67.4259 276.551C67.8246 276.152 68.0353 275.598 68.0116 275.01C67.9879 274.423 67.7317 273.85 67.2994 273.417L67.2984 273.416ZM86.3108 254.404C85.8782 253.971 85.3048 253.715 84.7168 253.692C84.1288 253.668 83.5744 253.879 83.1755 254.278C82.7767 254.677 82.566 255.232 82.5899 255.82C82.6139 256.408 82.8704 256.981 83.3031 257.414C83.7355 257.846 84.3086 258.102 84.8964 258.126C85.4842 258.15 86.0385 257.939 86.4374 257.54C86.8362 257.141 87.047 256.587 87.0233 255.999C86.9996 255.411 86.7433 254.838 86.3109 254.406L86.3108 254.404ZM105.321 235.393C105.107 235.179 104.856 235.006 104.583 234.884C104.309 234.762 104.019 234.693 103.728 234.681C103.437 234.67 103.151 234.716 102.886 234.816C102.622 234.917 102.384 235.07 102.187 235.268C101.99 235.465 101.836 235.703 101.736 235.968C101.635 236.232 101.59 236.518 101.602 236.809C101.613 237.1 101.683 237.391 101.805 237.664C101.927 237.937 102.1 238.188 102.315 238.402C102.747 238.834 103.32 239.091 103.907 239.114C104.495 239.138 105.049 238.927 105.448 238.529C105.847 238.13 106.057 237.576 106.034 236.988C106.01 236.401 105.754 235.828 105.321 235.395L105.321 235.393ZM124.333 216.382C124.119 216.168 123.868 215.995 123.594 215.873C123.321 215.75 123.03 215.682 122.739 215.67C122.448 215.658 122.162 215.704 121.898 215.805C121.634 215.905 121.396 216.059 121.198 216.256C121.001 216.454 120.848 216.692 120.747 216.956C120.647 217.221 120.601 217.507 120.613 217.798C120.625 218.089 120.694 218.379 120.816 218.653C120.939 218.926 121.112 219.177 121.326 219.391C121.758 219.823 122.331 220.079 122.919 220.103C123.506 220.127 124.061 219.916 124.459 219.517C124.858 219.118 125.069 218.564 125.045 217.977C125.021 217.389 124.765 216.816 124.333 216.384L124.333 216.382ZM143.343 197.371C142.911 196.939 142.338 196.683 141.75 196.659C141.163 196.635 140.609 196.846 140.21 197.245C139.811 197.644 139.601 198.198 139.624 198.785C139.648 199.373 139.904 199.946 140.336 200.378C140.769 200.81 141.342 201.067 141.929 201.09C142.517 201.114 143.071 200.903 143.47 200.505C143.868 200.106 144.079 199.552 144.055 198.964C144.032 198.377 143.776 197.804 143.343 197.371ZM162.355 178.36C161.922 177.928 161.349 177.671 160.762 177.648C160.174 177.624 159.62 177.835 159.221 178.233C158.823 178.632 158.612 179.186 158.636 179.774C158.659 180.361 158.916 180.934 159.348 181.367C159.78 181.799 160.353 182.055 160.941 182.079C161.528 182.103 162.082 181.892 162.481 181.493C162.88 181.094 163.091 180.54 163.067 179.953C163.043 179.365 162.787 178.792 162.355 178.36ZM181.366 159.348C180.934 158.916 180.361 158.66 179.773 158.636C179.186 158.613 178.632 158.823 178.233 159.222C177.834 159.621 177.623 160.175 177.647 160.762C177.671 161.35 177.927 161.923 178.359 162.355C178.792 162.788 179.365 163.044 179.952 163.067C180.54 163.091 181.094 162.88 181.493 162.482C181.891 162.083 182.102 161.529 182.078 160.941C182.055 160.354 181.798 159.781 181.366 159.348V159.348ZM200.379 140.336C200.165 140.122 199.914 139.949 199.64 139.827C199.367 139.705 199.076 139.636 198.785 139.624C198.494 139.612 198.208 139.658 197.944 139.759C197.679 139.859 197.442 140.013 197.244 140.211C197.047 140.408 196.894 140.646 196.793 140.91C196.693 141.175 196.647 141.461 196.659 141.752C196.671 142.043 196.74 142.333 196.862 142.607C196.985 142.88 197.158 143.131 197.372 143.345C197.804 143.777 198.377 144.033 198.965 144.057C199.552 144.081 200.106 143.87 200.505 143.471C200.904 143.073 201.115 142.518 201.091 141.931C201.067 141.343 200.811 140.77 200.379 140.338L200.379 140.336ZM219.389 121.325C219.175 121.111 218.924 120.938 218.651 120.816C218.378 120.694 218.087 120.625 217.796 120.614C217.505 120.602 217.219 120.648 216.955 120.749C216.691 120.849 216.453 121.003 216.256 121.2C216.059 121.398 215.905 121.635 215.805 121.9C215.704 122.164 215.659 122.45 215.671 122.741C215.683 123.032 215.752 123.322 215.874 123.595C215.996 123.869 216.169 124.119 216.383 124.333C216.816 124.766 217.389 125.022 217.976 125.046C218.564 125.069 219.118 124.859 219.517 124.46C219.915 124.061 220.126 123.507 220.102 122.919C220.079 122.332 219.822 121.759 219.39 121.327L219.389 121.325ZM238.401 102.314C237.968 101.882 237.395 101.626 236.808 101.602C236.22 101.579 235.666 101.79 235.267 102.189C234.869 102.587 234.658 103.142 234.682 103.729C234.706 104.317 234.962 104.89 235.395 105.322C235.827 105.754 236.4 106.01 236.988 106.034C237.575 106.058 238.129 105.847 238.528 105.448C238.927 105.05 239.138 104.495 239.114 103.908C239.09 103.32 238.834 102.747 238.402 102.315L238.401 102.314ZM257.412 83.3025C257.198 83.0885 256.947 82.9154 256.674 82.7933C256.4 82.6712 256.11 82.6023 255.819 82.5906C255.527 82.579 255.242 82.6248 254.977 82.7254C254.713 82.826 254.475 82.9795 254.278 83.1771C254.08 83.3747 253.927 83.6125 253.827 83.8769C253.726 84.1413 253.681 84.4273 253.692 84.7183C253.704 85.0094 253.773 85.2999 253.896 85.5732C254.018 85.8466 254.191 86.0974 254.405 86.3114C254.838 86.7439 255.411 87.0001 255.999 87.0238C256.586 87.0475 257.141 86.8368 257.54 86.4379C257.938 86.039 258.149 85.4848 258.126 84.897C258.102 84.3091 257.846 83.736 257.413 83.3036L257.412 83.3025ZM276.424 64.2911C276.209 64.077 275.958 63.9039 275.685 63.7818C275.412 63.6597 275.121 63.5908 274.83 63.5792C274.539 63.5675 274.253 63.6133 273.989 63.7139C273.724 63.8146 273.487 63.9681 273.289 64.1656C273.092 64.3632 272.939 64.601 272.838 64.8654C272.738 65.1299 272.692 65.4158 272.704 65.7068C272.716 65.9979 272.785 66.2884 272.907 66.5618C273.029 66.8351 273.203 67.0859 273.417 67.3C273.849 67.7323 274.422 67.9884 275.01 68.0121C275.597 68.0358 276.151 67.8251 276.55 67.4264C276.949 67.0277 277.159 66.4735 277.136 65.8859C277.112 65.2983 276.856 64.7254 276.424 64.2931L276.424 64.2911ZM46.4113 252.529C45.9788 252.097 45.4057 251.841 44.8182 251.818C44.2306 251.795 43.6766 252.006 43.2782 252.405C42.8797 252.804 42.6694 253.358 42.6935 253.946C42.7176 254.533 42.9741 255.106 43.4066 255.538C43.8392 255.97 44.4123 256.226 44.9999 256.249C45.5874 256.273 46.1414 256.062 46.5399 255.663C46.9383 255.264 47.1486 254.709 47.1245 254.122C47.1004 253.534 46.8439 252.961 46.4113 252.529ZM65.4238 233.517C65.2095 233.303 64.9584 233.13 64.6849 233.008C64.4113 232.885 64.1207 232.817 63.8296 232.805C63.2416 232.782 62.6873 232.993 62.2885 233.392C61.8898 233.792 61.6794 234.346 61.7035 234.934C61.7276 235.522 61.9843 236.095 62.4171 236.528C62.8498 236.96 63.4231 237.216 64.0109 237.239C64.5987 237.262 65.1528 237.051 65.5514 236.652C65.95 236.253 66.1603 235.699 66.1362 235.111C66.1121 234.523 65.8555 233.95 65.4228 233.518L65.4238 233.517ZM84.4343 214.506C84.2201 214.292 83.9691 214.119 83.6956 213.997C83.4221 213.875 83.1316 213.806 82.8406 213.795C82.5495 213.783 82.2637 213.829 81.9993 213.93C81.735 214.031 81.4974 214.184 81.3001 214.382C81.1027 214.58 80.9495 214.817 80.8491 215.082C80.7488 215.346 80.7033 215.632 80.7152 215.923C80.7271 216.214 80.7963 216.505 80.9187 216.778C81.0411 217.052 81.2143 217.302 81.4286 217.516C81.8611 217.948 82.4342 218.204 83.0218 218.227C83.6094 218.251 84.1633 218.04 84.5618 217.641C84.9602 217.242 85.1705 216.687 85.1465 216.1C85.1224 215.512 84.8658 214.939 84.4333 214.507L84.4343 214.506ZM103.446 195.495C103.232 195.281 102.981 195.108 102.707 194.986C102.434 194.864 102.143 194.795 101.852 194.783C101.561 194.772 101.275 194.818 101.011 194.918C100.747 195.019 100.509 195.173 100.312 195.37C100.114 195.568 99.961 195.806 99.8606 196.07C99.7603 196.335 99.7147 196.621 99.7267 196.912C99.7386 197.203 99.8078 197.493 99.9302 197.767C100.053 198.04 100.226 198.291 100.44 198.505C100.873 198.937 101.446 199.193 102.033 199.216C102.621 199.239 103.175 199.028 103.573 198.629C103.972 198.23 104.182 197.676 104.158 197.088C104.134 196.501 103.877 195.928 103.445 195.496L103.446 195.495ZM122.456 176.484C122.024 176.052 121.451 175.796 120.863 175.772C120.276 175.748 119.722 175.959 119.323 176.358C118.924 176.757 118.714 177.311 118.737 177.898C118.761 178.486 119.017 179.059 119.449 179.491C119.882 179.923 120.455 180.18 121.042 180.203C121.63 180.227 122.184 180.016 122.583 179.618C122.981 179.219 123.192 178.665 123.168 178.077C123.145 177.49 122.888 176.917 122.456 176.484ZM141.468 157.473C141.035 157.041 140.462 156.784 139.875 156.761C139.287 156.737 138.733 156.948 138.334 157.346C137.936 157.745 137.725 158.299 137.749 158.887C137.772 159.474 138.029 160.047 138.461 160.48C138.893 160.912 139.466 161.168 140.054 161.192C140.641 161.216 141.195 161.005 141.594 160.606C141.993 160.207 142.204 159.653 142.18 159.066C142.156 158.478 141.9 157.905 141.468 157.473ZM160.479 138.461C160.047 138.029 159.474 137.773 158.886 137.749C158.299 137.726 157.745 137.936 157.346 138.335C156.947 138.734 156.736 139.288 156.76 139.875C156.784 140.463 157.04 141.036 157.472 141.468C157.905 141.9 158.478 142.157 159.065 142.18C159.653 142.204 160.207 141.993 160.606 141.595C161.004 141.196 161.215 140.642 161.191 140.054C161.168 139.467 160.911 138.894 160.479 138.461V138.461ZM179.492 119.449C179.277 119.235 179.026 119.062 178.753 118.94C178.479 118.818 178.189 118.749 177.898 118.738C177.607 118.726 177.321 118.772 177.057 118.873C176.792 118.973 176.555 119.127 176.357 119.325C176.16 119.522 176.007 119.76 175.906 120.025C175.806 120.289 175.761 120.575 175.773 120.866C175.784 121.157 175.854 121.448 175.976 121.721C176.098 121.994 176.272 122.245 176.486 122.459C176.918 122.891 177.492 123.147 178.079 123.17C178.667 123.193 179.221 122.982 179.619 122.583C180.018 122.184 180.228 121.63 180.204 121.042C180.18 120.455 179.923 119.882 179.491 119.45L179.492 119.449ZM198.502 100.438C198.288 100.225 198.037 100.052 197.764 99.9296C197.49 99.8076 197.2 99.7389 196.909 99.7273C196.618 99.7158 196.332 99.7617 196.068 99.8623C195.804 99.963 195.566 100.117 195.369 100.314C195.172 100.512 195.018 100.749 194.918 101.014C194.818 101.278 194.772 101.564 194.784 101.855C194.796 102.146 194.865 102.436 194.988 102.71C195.11 102.983 195.283 103.234 195.497 103.447C195.93 103.879 196.503 104.135 197.091 104.159C197.678 104.182 198.232 103.971 198.631 103.572C199.029 103.173 199.239 102.618 199.215 102.031C199.191 101.443 198.935 100.87 198.502 100.438V100.438ZM217.514 81.427C217.299 81.213 217.048 81.0402 216.775 80.9181C216.502 80.7961 216.211 80.7274 215.92 80.7158C215.629 80.7043 215.344 80.7502 215.079 80.8509C214.815 80.9516 214.578 81.1051 214.38 81.3026C214.183 81.5002 214.03 81.738 213.93 82.0024C213.829 82.2668 213.784 82.5526 213.796 82.8436C213.808 83.1345 213.877 83.4249 213.999 83.6981C214.122 83.9714 214.295 84.2221 214.509 84.436C214.941 84.868 215.515 85.1238 216.102 85.1471C216.69 85.1704 217.244 84.9593 217.642 84.5603C218.041 84.1613 218.251 83.607 218.227 83.0194C218.203 82.4318 217.946 81.8589 217.514 81.427V81.427ZM236.525 62.4155C236.311 62.2015 236.06 62.0286 235.786 61.9065C235.513 61.7845 235.222 61.7157 234.931 61.7042C234.64 61.6926 234.354 61.7385 234.09 61.8392C233.826 61.9399 233.588 62.0935 233.391 62.2911C233.193 62.4888 233.04 62.7266 232.94 62.9911C232.84 63.2556 232.794 63.5415 232.806 63.8326C232.818 64.1236 232.887 64.4141 233.009 64.6874C233.132 64.9608 233.305 65.2115 233.519 65.4255C233.952 65.8577 234.525 66.1136 235.113 66.1369C235.701 66.1602 236.255 65.9491 236.654 65.5499C237.052 65.1507 237.263 64.5962 237.238 64.0084C237.214 63.4206 236.958 62.8476 236.525 62.4155ZM255.537 43.404C255.322 43.1901 255.071 43.0171 254.798 42.895C254.524 42.773 254.234 42.7042 253.943 42.6927C253.652 42.6811 253.366 42.727 253.102 42.8277C252.837 42.9284 252.6 43.082 252.402 43.2796C252.205 43.4773 252.052 43.7152 251.951 43.9796C251.851 44.2441 251.806 44.5301 251.817 44.8211C251.829 45.1122 251.899 45.4027 252.021 45.676C252.143 45.9493 252.317 46.2001 252.531 46.4141C252.963 46.8461 253.536 47.1018 254.124 47.1252C254.712 47.1485 255.266 46.9374 255.664 46.5384C256.062 46.1394 256.273 45.5851 256.249 44.9975C256.225 44.4099 255.968 43.837 255.536 43.405L255.537 43.404ZM25.5254 231.643C25.0932 231.211 24.5202 230.955 23.9326 230.931C23.345 230.907 22.7909 231.118 22.3921 231.517C21.9934 231.916 21.7827 232.47 21.8064 233.057C21.8301 233.645 22.0863 234.218 22.5185 234.65C22.9508 235.082 23.5238 235.339 24.1114 235.362C24.699 235.386 25.2531 235.175 25.6518 234.777C26.0506 234.378 26.2613 233.824 26.2376 233.236C26.2139 232.648 25.9577 232.076 25.5254 231.643V231.643ZM44.5379 212.631C44.1056 212.199 43.5327 211.942 42.9451 211.919C42.3575 211.895 41.8033 212.106 41.4046 212.504C41.0059 212.903 40.7952 213.457 40.8189 214.045C40.8426 214.632 41.0988 215.205 41.531 215.638C41.9633 216.07 42.5362 216.326 43.1238 216.35C43.7114 216.374 44.2656 216.163 44.6643 215.764C45.063 215.365 45.2737 214.811 45.25 214.224C45.2263 213.636 44.9701 213.063 44.5379 212.631ZM63.5484 193.62C63.1161 193.188 62.5432 192.932 61.9556 192.908C61.368 192.884 60.8138 193.095 60.4151 193.494C60.0163 193.893 59.8057 194.447 59.8294 195.034C59.8531 195.622 60.1092 196.195 60.5415 196.627C60.9738 197.059 61.5467 197.316 62.1343 197.339C62.7219 197.363 63.276 197.152 63.6748 196.754C64.0735 196.355 64.2842 195.801 64.2605 195.213C64.2368 194.626 63.9806 194.053 63.5484 193.62ZM82.5598 174.609C82.1276 174.177 81.5546 173.92 80.967 173.897C80.3794 173.873 79.8253 174.084 79.4265 174.482C79.0278 174.881 78.8171 175.435 78.8409 176.023C78.8646 176.61 79.1207 177.183 79.5529 177.616C79.9852 178.048 80.5582 178.304 81.1458 178.328C81.7334 178.352 82.2875 178.141 82.6862 177.742C83.085 177.343 83.2957 176.789 83.272 176.202C83.2483 175.614 82.9921 175.041 82.5598 174.609ZM101.57 155.598C101.359 155.372 101.107 155.187 100.831 155.054C100.554 154.922 100.258 154.844 99.9599 154.827C99.662 154.809 99.3683 154.852 99.0966 154.952C98.8249 155.052 98.5807 155.207 98.3785 155.409C98.1763 155.611 98.0203 155.855 97.9198 156.127C97.8193 156.398 97.7764 156.692 97.7937 156.99C97.8109 157.288 97.888 157.584 98.0202 157.861C98.1524 158.138 98.3371 158.389 98.5632 158.601C98.9989 159.009 99.5626 159.244 100.136 159.257C100.709 159.27 101.247 159.06 101.636 158.671C102.026 158.282 102.236 157.745 102.224 157.171C102.212 156.598 101.978 156.035 101.57 155.598V155.598ZM120.582 136.587C120.37 136.361 120.119 136.176 119.842 136.043C119.565 135.91 119.269 135.833 118.971 135.815C118.673 135.798 118.38 135.84 118.108 135.94C117.836 136.04 117.592 136.196 117.39 136.398C117.188 136.6 117.032 136.844 116.931 137.115C116.831 137.387 116.788 137.68 116.805 137.978C116.822 138.276 116.899 138.572 117.032 138.849C117.164 139.126 117.349 139.378 117.575 139.59C118.01 139.997 118.574 140.232 119.147 140.246C119.72 140.259 120.258 140.049 120.648 139.66C121.037 139.271 121.248 138.733 121.236 138.16C121.223 137.587 120.989 137.023 120.582 136.587V136.587ZM139.593 117.575C139.381 117.353 139.13 117.171 138.854 117.042C138.578 116.912 138.284 116.837 137.988 116.821C137.692 116.805 137.401 116.849 137.131 116.949C136.862 117.049 136.619 117.204 136.418 117.404C136.218 117.605 136.062 117.847 135.962 118.116C135.861 118.386 135.817 118.677 135.833 118.973C135.848 119.269 135.923 119.563 136.052 119.839C136.181 120.115 136.363 120.367 136.585 120.579C137.02 120.994 137.586 121.235 138.164 121.252C138.741 121.268 139.284 121.058 139.676 120.666C140.068 120.274 140.279 119.732 140.264 119.155C140.248 118.577 140.008 118.011 139.593 117.575V117.575ZM158.606 98.563C158.173 98.1307 157.601 97.8745 157.013 97.8508C156.425 97.8271 155.871 98.0378 155.472 98.4366C155.074 98.8353 154.863 99.3894 154.887 99.977C154.91 100.565 155.167 101.138 155.599 101.57C156.031 102.002 156.604 102.258 157.192 102.282C157.779 102.306 158.333 102.095 158.732 101.696C159.131 101.298 159.342 100.743 159.318 100.156C159.294 99.5682 159.038 98.9952 158.606 98.563ZM177.616 79.5525C177.184 79.1202 176.611 78.8641 176.023 78.8404C175.436 78.8167 174.882 79.0273 174.483 79.4261C174.084 79.8248 173.873 80.3789 173.897 80.9665C173.921 81.5542 174.177 82.1271 174.609 82.5594C175.042 82.9916 175.615 83.2478 176.202 83.2715C176.79 83.2952 177.344 83.0845 177.743 82.6858C178.141 82.287 178.352 81.7329 178.328 81.1453C178.305 80.5577 178.048 79.9847 177.616 79.5525V79.5525ZM196.628 60.541C196.195 60.1088 195.622 59.8526 195.035 59.8289C194.447 59.8052 193.893 60.0159 193.494 60.4146C193.096 60.8134 192.885 61.3675 192.909 61.9551C192.932 62.5427 193.189 63.1156 193.621 63.5479C194.053 63.9802 194.626 64.2363 195.214 64.26C195.801 64.2837 196.355 64.073 196.754 63.6743C197.153 63.2756 197.364 62.7214 197.34 62.1338C197.316 61.5462 197.06 60.9733 196.628 60.541ZM215.639 41.5296C215.207 41.0973 214.634 40.8411 214.046 40.8174C213.459 40.7937 212.905 41.0044 212.506 41.4032C212.107 41.8019 211.896 42.356 211.92 42.9436C211.944 43.5312 212.2 44.1042 212.632 44.5364C213.065 44.9687 213.637 45.2248 214.225 45.2486C214.813 45.2723 215.367 45.0616 215.766 44.6628C216.164 44.2641 216.375 43.71 216.351 43.1224C216.328 42.5348 216.071 41.9618 215.639 41.5296V41.5296ZM234.651 22.5181C234.218 22.0858 233.645 21.8297 233.058 21.806C232.47 21.7823 231.916 21.993 231.517 22.3917C231.119 22.7904 230.908 23.3445 230.932 23.9321C230.955 24.5197 231.211 25.0927 231.644 25.525C232.076 25.9572 232.649 26.2134 233.237 26.2371C233.824 26.2608 234.378 26.0501 234.777 25.6514C235.176 25.2527 235.386 24.6985 235.363 24.1109C235.339 23.5233 235.083 22.9504 234.651 22.5181ZM4.63732 210.755C4.20492 210.323 3.63189 210.067 3.0443 210.044C2.4567 210.02 1.90269 210.231 1.50409 210.63C1.1055 211.029 0.895004 211.583 0.918906 212.17C0.942808 212.758 1.19914 213.331 1.63154 213.763C2.0638 214.195 2.63674 214.452 3.22434 214.475C3.81195 214.499 4.36608 214.288 4.76482 213.89C5.16356 213.491 5.37425 212.937 5.35054 212.349C5.32684 211.761 5.07068 211.189 4.63841 210.756L4.63732 210.755ZM23.6498 191.743C23.2171 191.31 22.6437 191.054 22.0557 191.031C21.4677 191.007 20.9133 191.218 20.5145 191.617C20.1156 192.016 19.905 192.571 19.9289 193.159C19.9528 193.747 20.2093 194.32 20.642 194.753C21.0744 195.185 21.6476 195.441 22.2354 195.465C22.8232 195.489 23.3775 195.278 23.7763 194.879C24.1752 194.48 24.3859 193.926 24.3622 193.338C24.3385 192.75 24.0823 192.177 23.6499 191.745L23.6498 191.743ZM42.6603 172.732C42.2277 172.3 41.6545 172.044 41.0667 172.02C40.4789 171.997 39.9247 172.208 39.526 172.607C39.1272 173.006 38.9167 173.56 38.9406 174.148C38.9645 174.736 39.2209 175.309 39.6535 175.741C40.0857 176.173 40.6587 176.43 41.2463 176.453C41.8339 176.477 42.388 176.266 42.7868 175.868C43.1855 175.469 43.3962 174.915 43.3725 174.327C43.3488 173.74 43.0926 173.167 42.6604 172.734L42.6603 172.732ZM61.6717 153.721C61.2392 153.288 60.666 153.032 60.0782 153.009C59.4904 152.985 58.9362 153.196 58.5374 153.595C58.1387 153.994 57.9282 154.549 57.9521 155.137C57.976 155.724 58.2324 156.297 58.6649 156.73C59.0972 157.162 59.6702 157.418 60.2578 157.442C60.8454 157.466 61.3995 157.255 61.7982 156.856C62.197 156.457 62.4076 155.903 62.3839 155.316C62.3602 154.728 62.1041 154.155 61.6718 153.723L61.6717 153.721ZM80.6822 134.71C80.2499 134.278 79.677 134.022 79.0894 133.998C78.5018 133.974 77.9477 134.185 77.5489 134.584C77.1502 134.983 76.9395 135.537 76.9632 136.124C76.9869 136.712 77.2431 137.285 77.6753 137.717C78.1076 138.149 78.6805 138.406 79.2682 138.429C79.8558 138.453 80.4099 138.242 80.8086 137.844C81.2073 137.445 81.4181 136.891 81.3944 136.303C81.3706 135.715 81.1145 135.143 80.6822 134.71V134.71ZM99.6937 115.699C99.2614 115.267 98.6885 115.01 98.1009 114.987C97.5133 114.963 96.9591 115.174 96.5604 115.572C96.1616 115.971 95.951 116.525 95.9747 117.113C95.9984 117.7 96.2545 118.273 96.6868 118.706C97.119 119.138 97.692 119.394 98.2796 119.418C98.8672 119.442 99.4213 119.231 99.8201 118.832C100.219 118.433 100.43 117.879 100.406 117.292C100.382 116.704 100.126 116.131 99.6937 115.699V115.699ZM118.705 96.6873C118.273 96.2551 117.7 95.9989 117.112 95.9752C116.525 95.9515 115.971 96.1622 115.572 96.5609C115.173 96.9597 114.962 97.5138 114.986 98.1014C115.01 98.689 115.266 99.2619 115.698 99.6942C116.131 100.126 116.703 100.383 117.291 100.406C117.879 100.43 118.433 100.219 118.832 99.8206C119.23 99.4219 119.441 98.8678 119.417 98.2802C119.394 97.6926 119.137 97.1196 118.705 96.6873V96.6873ZM137.718 77.6749C137.503 77.4608 137.252 77.2878 136.979 77.1657C136.706 77.0435 136.415 76.9747 136.124 76.963C135.833 76.9514 135.547 76.9972 135.283 77.0978C135.018 77.1984 134.781 77.3519 134.583 77.5495C134.386 77.747 134.233 77.9848 134.132 78.2493C134.032 78.5137 133.986 78.7996 133.998 79.0907C134.01 79.3817 134.079 79.6722 134.201 79.9456C134.323 80.2189 134.497 80.4698 134.711 80.6838C135.143 81.1161 135.716 81.3723 136.304 81.396C136.891 81.4197 137.445 81.209 137.844 80.8102C138.243 80.4115 138.454 79.8574 138.43 79.2698C138.406 78.6822 138.15 78.1092 137.718 77.677L137.718 77.6749ZM156.728 58.6644C156.514 58.4504 156.263 58.2774 155.99 58.1553C155.716 58.0332 155.426 57.9644 155.135 57.9528C154.844 57.9411 154.558 57.9869 154.294 58.0875C154.03 58.1881 153.792 58.3415 153.595 58.539C153.397 58.7365 153.244 58.9742 153.144 59.2386C153.043 59.5029 152.998 59.7888 153.01 60.0797C153.021 60.3707 153.091 60.6611 153.213 60.9343C153.335 61.2076 153.508 61.4584 153.722 61.6723C154.155 62.1046 154.728 62.3608 155.315 62.3845C155.903 62.4082 156.457 62.1975 156.856 61.7988C157.254 61.4 157.465 60.8459 157.441 60.2583C157.418 59.6707 157.161 59.0977 156.729 58.6655L156.728 58.6644ZM175.74 39.6529C175.307 39.2208 174.734 38.9648 174.147 38.9413C173.559 38.9178 173.005 39.1287 172.606 39.5275C172.208 39.9264 171.997 40.4806 172.021 41.0683C172.045 41.6559 172.301 42.2288 172.734 42.6609C173.166 43.0932 173.739 43.3493 174.327 43.373C174.914 43.3967 175.468 43.186 175.867 42.7873C176.266 42.3886 176.476 41.8344 176.453 41.2468C176.429 40.6592 176.173 40.0863 175.741 39.654L175.74 39.6529ZM194.751 20.6415C194.318 20.2092 193.745 19.9531 193.157 19.9296C192.57 19.9061 192.015 20.117 191.617 20.516C191.218 20.915 191.007 21.4695 191.031 22.0573C191.055 22.6451 191.312 23.2181 191.744 23.6504C192.177 24.0828 192.75 24.3391 193.338 24.3628C193.925 24.3865 194.48 24.1757 194.879 23.7769C195.277 23.378 195.488 22.8237 195.464 22.2359C195.441 21.6481 195.185 21.075 194.752 20.6426L194.751 20.6415ZM213.762 1.63C213.548 1.41596 213.297 1.24291 213.024 1.12077C212.751 0.998631 212.46 0.929776 212.169 0.918131C211.878 0.906486 211.592 0.952256 211.328 1.05288C211.063 1.1535 210.826 1.307 210.628 1.50457C210.431 1.70215 210.277 1.93992 210.177 2.20436C210.077 2.4688 210.031 2.75473 210.043 3.04578C210.055 3.33684 210.124 3.62735 210.246 3.9007C210.368 4.17406 210.542 4.42491 210.756 4.63895C211.188 5.07121 211.761 5.32738 212.349 5.35108C212.936 5.37479 213.49 5.1641 213.889 4.76536C214.288 4.36662 214.498 3.81249 214.475 3.22488C214.451 2.63728 214.195 2.06434 213.763 1.63208L213.762 1.63Z" fill="#0FC5B0" fill-opacity="0.5"/>
<path d="M106.01 506.992C130.863 506.992 151.01 486.845 151.01 461.992C151.01 437.139 130.863 416.992 106.01 416.992C81.1577 416.992 61.0105 437.139 61.0105 461.992C61.0105 486.845 81.1577 506.992 106.01 506.992Z" fill="#F0F0F0"/>
<path d="M106.011 415.992C103.697 415.992 101.387 416.166 99.1003 416.512C97.9304 416.682 96.7908 416.902 95.6604 417.172C87.3587 419.086 79.7519 423.268 73.6888 429.253C67.6256 435.238 63.3446 442.79 61.3233 451.066C59.302 459.342 59.6199 468.017 62.2416 476.123C64.8633 484.229 69.6857 491.447 76.1707 496.972C76.9407 497.622 77.7205 498.252 78.5305 498.852C84.3686 503.205 91.1568 506.109 98.3366 507.326C105.516 508.543 112.882 508.037 119.829 505.85C126.775 503.664 133.102 499.859 138.291 494.75C143.479 489.64 147.38 483.371 149.673 476.459C151.965 469.547 152.583 462.19 151.476 454.992C150.369 447.795 147.569 440.963 143.306 435.059C139.043 429.155 133.439 424.348 126.955 421.033C120.471 417.718 113.293 415.991 106.011 415.992H106.011ZM106.011 505.992C96.6547 506.002 87.5421 503.013 80.0105 497.462C79.1907 496.862 78.4007 496.242 77.6306 495.582C71.3125 490.252 66.6245 483.25 64.1043 475.377C61.584 467.505 61.3337 459.082 63.3819 451.074C65.4302 443.066 69.6941 435.797 75.6845 430.101C81.675 424.406 89.1495 420.514 97.2507 418.872C98.3704 418.642 99.4905 418.462 100.631 418.322C102.415 418.101 104.212 417.991 106.011 417.992C117.68 417.992 128.872 422.628 137.123 430.879C145.375 439.131 150.011 450.323 150.011 461.992C150.011 473.662 145.375 484.853 137.123 493.105C128.872 501.356 117.68 505.992 106.011 505.992Z" fill="#3F3D56"/>
<path d="M84.0107 452.993H128.011C129.668 452.993 131.011 451.65 131.011 449.993C131.011 448.336 129.668 446.993 128.011 446.993H84.0107C82.3539 446.993 81.0107 448.336 81.0107 449.993C81.0107 451.65 82.3539 452.993 84.0107 452.993Z" fill="#3092C4"/>
<path d="M84.0107 464.993H128.011C129.668 464.993 131.011 463.65 131.011 461.993C131.011 460.336 129.668 458.993 128.011 458.993H84.0107C82.3539 458.993 81.0107 460.336 81.0107 461.993C81.0107 463.65 82.3539 464.993 84.0107 464.993Z" fill="#3092C4"/>
<path d="M84.0107 476.993H128.011C129.668 476.993 131.011 475.65 131.011 473.993C131.011 472.336 129.668 470.993 128.011 470.993H84.0107C82.3539 470.993 81.0107 472.336 81.0107 473.993C81.0107 475.65 82.3539 476.993 84.0107 476.993Z" fill="#3092C4"/>
<g filter="url(#filter0_d_407_55)">
<path d="M850.011 182.993H215.011C206.174 182.993 199.011 190.157 199.011 198.993V606.993C199.011 615.83 206.174 622.993 215.011 622.993H850.011C858.847 622.993 866.011 615.83 866.011 606.993V198.993C866.011 190.157 858.847 182.993 850.011 182.993Z" fill="#272A2E"/>
</g>
<path d="M837.746 250.286H230.706V586.529H837.746V250.286Z" fill="white"/>
<path d="M232.347 217.255C235.147 217.255 237.417 214.985 237.417 212.185C237.417 209.385 235.147 207.115 232.347 207.115C229.547 207.115 227.278 209.385 227.278 212.185C227.278 214.985 229.547 217.255 232.347 217.255Z" fill="white"/>
<path d="M251.592 217.255C254.391 217.255 256.661 214.985 256.661 212.185C256.661 209.385 254.391 207.115 251.592 207.115C248.792 207.115 246.522 209.385 246.522 212.185C246.522 214.985 248.792 217.255 251.592 217.255Z" fill="white"/>
<path d="M270.835 217.255C273.635 217.255 275.905 214.985 275.905 212.185C275.905 209.385 273.635 207.115 270.835 207.115C268.035 207.115 265.766 209.385 265.766 212.185C265.766 214.985 268.035 217.255 270.835 217.255Z" fill="white"/>
<path d="M598.752 285.173H468.768V358.521H598.752V285.173Z" fill="#0FC5B0"/>
<path d="M598.752 378.946H468.768V457.865H598.752V378.946Z" fill="#C59940"/>
<path d="M782.586 285.173H626.605V401.298H782.586V285.173Z" fill="#0FC5B0"/>
<path d="M782.586 435.515H626.605V551.639H782.586V435.515Z" fill="#D15757"/>
<path d="M442.588 285.173H286.607V401.298H442.588V285.173Z" fill="#3092C4"/>
<path d="M577.497 150.634L533.063 317.788L535.099 318.329L579.116 152.74L577.497 150.634Z" fill="#3F3D56"/>
<path d="M705.753 492.586L661.736 658.176L663.355 660.282L707.789 493.127L705.753 492.586Z" fill="#3F3D56"/>
<path d="M312.988 373.371L153.706 436.511L152.976 439.066L313.764 375.329L312.988 373.371Z" fill="#3F3D56"/>
<path d="M439.514 471.641H289.514C288.586 471.641 287.696 471.272 287.04 470.616C286.383 469.959 286.014 469.069 286.014 468.141C286.014 467.212 286.383 466.322 287.04 465.666C287.696 465.009 288.586 464.641 289.514 464.641H439.514C440.443 464.641 441.333 465.009 441.989 465.666C442.646 466.322 443.014 467.212 443.014 468.141C443.014 469.069 442.646 469.959 441.989 470.616C441.333 471.272 440.443 471.641 439.514 471.641Z" fill="#E6E6E6"/>
<path d="M439.514 451.64H289.514C288.586 451.64 287.696 451.271 287.04 450.615C286.383 449.958 286.014 449.068 286.014 448.14C286.014 447.211 286.383 446.321 287.04 445.665C287.696 445.008 288.586 444.64 289.514 444.64H439.514C440.443 444.64 441.333 445.008 441.989 445.665C442.646 446.321 443.014 447.211 443.014 448.14C443.014 449.068 442.646 449.958 441.989 450.615C441.333 451.271 440.443 451.64 439.514 451.64Z" fill="#E6E6E6"/>
<path d="M439.514 491.641H289.514C288.586 491.641 287.696 491.272 287.04 490.616C286.383 489.959 286.014 489.069 286.014 488.141C286.014 487.212 286.383 486.322 287.04 485.666C287.696 485.009 288.586 484.641 289.514 484.641H439.514C440.443 484.641 441.333 485.009 441.989 485.666C442.646 486.322 443.014 487.212 443.014 488.141C443.014 489.069 442.646 489.959 441.989 490.616C441.333 491.272 440.443 491.641 439.514 491.641V491.641Z" fill="#E6E6E6"/>
<path d="M439.514 511.642H289.514C288.586 511.642 287.696 511.273 287.04 510.616C286.383 509.96 286.014 509.07 286.014 508.142C286.014 507.213 286.383 506.323 287.04 505.667C287.696 505.01 288.586 504.642 289.514 504.642H439.514C440.443 504.642 441.333 505.01 441.989 505.667C442.646 506.323 443.014 507.213 443.014 508.142C443.014 509.07 442.646 509.96 441.989 510.616C441.333 511.273 440.443 511.642 439.514 511.642V511.642Z" fill="#E6E6E6"/>
<path d="M439.514 531.641H289.514C288.586 531.641 287.696 531.272 287.04 530.615C286.383 529.959 286.014 529.069 286.014 528.141C286.014 527.212 286.383 526.322 287.04 525.666C287.696 525.009 288.586 524.641 289.514 524.641H439.514C440.443 524.641 441.333 525.009 441.989 525.666C442.646 526.322 443.014 527.212 443.014 528.141C443.014 529.069 442.646 529.959 441.989 530.615C441.333 531.272 440.443 531.641 439.514 531.641Z" fill="#E6E6E6"/>
<path d="M439.514 551.641H289.514C288.586 551.641 287.696 551.272 287.04 550.615C286.383 549.959 286.014 549.069 286.014 548.141C286.014 547.212 286.383 546.322 287.04 545.666C287.696 545.009 288.586 544.641 289.514 544.641H439.514C440.443 544.641 441.333 545.009 441.989 545.666C442.646 546.322 443.014 547.212 443.014 548.141C443.014 549.069 442.646 549.959 441.989 550.615C441.333 551.272 440.443 551.641 439.514 551.641Z" fill="#E6E6E6"/>
<path d="M595.76 491.641H471.76C470.832 491.641 469.942 491.272 469.285 490.616C468.629 489.959 468.26 489.069 468.26 488.141C468.26 487.212 468.629 486.322 469.285 485.666C469.942 485.009 470.832 484.641 471.76 484.641H595.76C596.689 484.641 597.579 485.009 598.235 485.666C598.891 486.322 599.26 487.212 599.26 488.141C599.26 489.069 598.891 489.959 598.235 490.616C597.579 491.272 596.689 491.641 595.76 491.641V491.641Z" fill="#E6E6E6"/>
<path d="M595.76 511.642H471.76C470.832 511.642 469.942 511.273 469.285 510.616C468.629 509.96 468.26 509.07 468.26 508.142C468.26 507.213 468.629 506.323 469.285 505.667C469.942 505.01 470.832 504.642 471.76 504.642H595.76C596.689 504.642 597.579 505.01 598.235 505.667C598.891 506.323 599.26 507.213 599.26 508.142C599.26 509.07 598.891 509.96 598.235 510.616C597.579 511.273 596.689 511.642 595.76 511.642V511.642Z" fill="#E6E6E6"/>
<path d="M595.76 531.641H471.76C470.832 531.641 469.942 531.272 469.285 530.615C468.629 529.959 468.26 529.069 468.26 528.141C468.26 527.212 468.629 526.322 469.285 525.666C469.942 525.009 470.832 524.641 471.76 524.641H595.76C596.689 524.641 597.579 525.009 598.235 525.666C598.891 526.322 599.26 527.212 599.26 528.141C599.26 529.069 598.891 529.959 598.235 530.615C597.579 531.272 596.689 531.641 595.76 531.641V531.641Z" fill="#E6E6E6"/>
<path d="M595.76 551.641H471.76C470.832 551.641 469.942 551.272 469.285 550.615C468.629 549.959 468.26 549.069 468.26 548.141C468.26 547.212 468.629 546.322 469.285 545.666C469.942 545.009 470.832 544.641 471.76 544.641H595.76C596.689 544.641 597.579 545.009 598.235 545.666C598.891 546.322 599.26 547.212 599.26 548.141C599.26 549.069 598.891 549.959 598.235 550.615C597.579 551.272 596.689 551.641 595.76 551.641V551.641Z" fill="#E6E6E6"/>
<path d="M580.513 161.993C605.366 161.993 625.513 141.846 625.513 116.993C625.513 92.1404 605.366 71.9932 580.513 71.9932C555.66 71.9932 535.513 92.1404 535.513 116.993C535.513 141.846 555.66 161.993 580.513 161.993Z" fill="#F0F0F0"/>
<path d="M580.512 70.9932C578.199 70.9934 575.889 71.1673 573.602 71.5132C572.432 71.6832 571.293 71.9031 570.162 72.1732C561.86 74.0868 554.254 78.2693 548.191 84.2542C542.127 90.239 537.846 97.7908 535.825 106.067C533.804 114.343 534.122 123.018 536.743 131.124C539.365 139.23 544.187 146.448 550.672 151.973C551.442 152.623 552.222 153.253 553.032 153.853C558.87 158.206 565.659 161.11 572.838 162.327C580.018 163.544 587.384 163.038 594.33 160.851C601.276 158.665 607.604 154.86 612.793 149.751C617.981 144.641 621.882 138.372 624.174 131.46C626.467 124.548 627.085 117.191 625.978 109.993C624.871 102.796 622.071 95.9639 617.808 90.06C613.545 84.1561 607.941 79.3489 601.457 76.0341C594.973 72.7193 587.794 70.9916 580.512 70.9932V70.9932ZM580.512 160.993C571.156 161.003 562.044 158.014 554.512 152.463C553.692 151.863 552.902 151.243 552.132 150.583C545.814 145.253 541.126 138.251 538.606 130.378C536.086 122.506 535.835 114.083 537.884 106.075C539.932 98.0665 544.196 90.7978 550.186 85.1023C556.177 79.4067 563.651 75.5149 571.753 73.8732C572.872 73.6432 573.992 73.4632 575.132 73.3232C576.917 73.1021 578.714 72.9919 580.512 72.9932C592.182 72.9932 603.373 77.6289 611.625 85.8805C619.877 94.1321 624.512 105.324 624.512 116.993C624.512 128.663 619.877 139.854 611.625 148.106C603.373 156.357 592.182 160.993 580.512 160.993V160.993Z" fill="#3F3D56"/>
<path d="M558.513 107.992H602.513C604.17 107.992 605.513 106.649 605.513 104.992C605.513 103.335 604.17 101.992 602.513 101.992H558.513C556.856 101.992 555.513 103.335 555.513 104.992C555.513 106.649 556.856 107.992 558.513 107.992Z" fill="#0FC5B0"/>
<path d="M558.513 119.992H602.513C604.17 119.992 605.513 118.649 605.513 116.992C605.513 115.335 604.17 113.992 602.513 113.992H558.513C556.856 113.992 555.513 115.335 555.513 116.992C555.513 118.649 556.856 119.992 558.513 119.992Z" fill="#0FC5B0"/>
<path d="M558.513 131.992H602.513C604.17 131.992 605.513 130.649 605.513 128.992C605.513 127.335 604.17 125.992 602.513 125.992H558.513C556.856 125.992 555.513 127.335 555.513 128.992C555.513 130.649 556.856 131.992 558.513 131.992Z" fill="#0FC5B0"/>
<path d="M656.513 743.993C681.366 743.993 701.513 723.846 701.513 698.993C701.513 674.14 681.366 653.993 656.513 653.993C631.66 653.993 611.513 674.14 611.513 698.993C611.513 723.846 631.66 743.993 656.513 743.993Z" fill="#F0F0F0"/>
<path d="M656.512 652.993C654.199 652.993 651.889 653.167 649.602 653.513C648.432 653.683 647.293 653.903 646.162 654.173C637.86 656.087 630.254 660.269 624.191 666.254C618.127 672.239 613.846 679.791 611.825 688.067C609.804 696.343 610.122 705.018 612.743 713.124C615.365 721.23 620.187 728.448 626.672 733.973C627.442 734.623 628.222 735.253 629.032 735.853C634.87 740.206 641.659 743.11 648.838 744.327C656.018 745.544 663.384 745.038 670.33 742.851C677.276 740.665 683.604 736.86 688.793 731.751C693.981 726.641 697.882 720.372 700.174 713.46C702.467 706.548 703.085 699.191 701.978 691.993C700.871 684.796 698.071 677.964 693.808 672.06C689.545 666.156 683.941 661.349 677.457 658.034C670.973 654.719 663.794 652.992 656.512 652.993V652.993ZM656.512 742.993C647.156 743.003 638.044 740.014 630.512 734.463C629.692 733.863 628.902 733.243 628.132 732.583C621.814 727.253 617.126 720.251 614.606 712.378C612.086 704.506 611.835 696.083 613.884 688.075C615.932 680.067 620.196 672.798 626.186 667.102C632.177 661.407 639.651 657.515 647.753 655.873C648.872 655.643 649.992 655.463 651.132 655.323C652.917 655.102 654.714 654.992 656.512 654.993C668.182 654.993 679.373 659.629 687.625 667.88C695.877 676.132 700.512 687.324 700.512 698.993C700.512 710.663 695.877 721.854 687.625 730.106C679.373 738.357 668.182 742.993 656.512 742.993Z" fill="#3F3D56"/>
<path d="M634.513 689.993H678.513C680.17 689.993 681.513 688.65 681.513 686.993C681.513 685.336 680.17 683.993 678.513 683.993H634.513C632.856 683.993 631.513 685.336 631.513 686.993C631.513 688.65 632.856 689.993 634.513 689.993Z" fill="#D15757"/>
<path d="M634.513 701.993H678.513C680.17 701.993 681.513 700.65 681.513 698.993C681.513 697.336 680.17 695.993 678.513 695.993H634.513C632.856 695.993 631.513 697.336 631.513 698.993C631.513 700.65 632.856 701.993 634.513 701.993Z" fill="#D15757"/>
<path d="M634.513 713.993H678.513C680.17 713.993 681.513 712.65 681.513 710.993C681.513 709.336 680.17 707.993 678.513 707.993H634.513C632.856 707.993 631.513 709.336 631.513 710.993C631.513 712.65 632.856 713.993 634.513 713.993Z" fill="#D15757"/>
<defs>
<filter id="filter0_d_407_55" x="167.011" y="150.993" width="795" height="568" filterUnits="userSpaceOnUse" color-interpolation-filters="sRGB">
<feFlood flood-opacity="0" result="BackgroundImageFix"/>
<feColorMatrix in="SourceAlpha" type="matrix" values="0 0 0 0 0 0 0 0 0 0 0 0 0 0 0 0 0 0 127 0" result="hardAlpha"/>
<feOffset dx="32" dy="32"/>
<feGaussianBlur stdDeviation="32"/>
<feComposite in2="hardAlpha" operator="out"/>
<feColorMatrix type="matrix" values="0 0 0 0 0 0 0 0 0 0 0 0 0 0 0 0 0 0 0.35 0"/>
<feBlend mode="normal" in2="BackgroundImageFix" result="effect1_dropShadow_407_55"/>
<feBlend mode="normal" in="SourceGraphic" in2="effect1_dropShadow_407_55" result="shape"/>
</filter>
</defs>
</svg>
